<?xml version="1.0" encoding="UTF-8" standalone="no"?>
<svg
   width="24"
   height="24"
   viewBox="0 0 24 24"
   version="1.1"
   id="svg23796"
   sodipodi:docname="btn-radio-active.svg"
   inkscape:version="1.2.1 (9c6d41e410, 2022-07-14)"
   xmlns:inkscape="http://www.inkscape.org/namespaces/inkscape"
   xmlns:sodipodi="http://sodipodi.sourceforge.net/DTD/sodipodi-0.dtd"
   xmlns="http://www.w3.org/2000/svg"
   xmlns:svg="http://www.w3.org/2000/svg">
  <sodipodi:namedview
     id="namedview23798"
     pagecolor="#ffffff"
     bordercolor="#000000"
     borderopacity="0.25"
     inkscape:showpageshadow="2"
     inkscape:pageopacity="0.0"
     inkscape:pagecheckerboard="0"
     inkscape:deskcolor="#d1d1d1"
     showgrid="false"
     inkscape:zoom="34.875"
     inkscape:cx="11.985663"
     inkscape:cy="12.014337"
     inkscape:window-width="1920"
     inkscape:window-height="1017"
     inkscape:window-x="-8"
     inkscape:window-y="456"
     inkscape:window-maximized="1"
     inkscape:current-layer="radiobttom_active" />
  <defs
     id="defs23792">
    <style
       type="text/css"
       id="style23790">
            .cls-1{fill:#5c4b7d;fill-rule:evenodd}
        </style>
  </defs>
  <g
     id="radiobttom_active"
     transform="translate(-508 -240)">
    <path
       id="radio_on"
       d="M14 8a6 6 0 1 0 6 6 5.942 5.942 0 0 0-6-6zm0-6a12 12 0 1 0 12 12A12.035 12.035 0 0 0 14 2zm0 21.6a9.6 9.6 0 1 1 9.6-9.6 9.628 9.628 0 0 1-9.6 9.6z"
       class="cls-1"
       transform="translate(506 238)" />
    <path
       style="fill:#a0892c;stroke:#a0892c;stroke-width:0.0286738"
       d="M 11.126004,23.956523 C 9.3445087,23.80814 7.6391751,23.293987 6.1505376,22.456435 3.2892582,20.846594 1.2260354,18.169766 0.40056734,14.996416 0.10290253,13.852102 -0.01254381,12.746045 0.03319183,11.476703 0.1174906,9.1370824 0.96360318,6.7579905 2.3893613,4.8516459 2.7968991,4.3067375 3.0266285,4.0417084 3.5268817,3.5393356 6.7222042,0.33047607 11.43515,-0.79695401 15.724659,0.62138529 c 2.548788,0.84276481 4.745268,2.51398901 6.23057,4.74062191 1.109728,1.663606 1.781527,3.5513029 1.974261,5.5475008 0.05041,0.522115 0.05689,1.621999 0.01245,2.111232 -0.13566,1.493234 -0.527624,2.904372 -1.170522,4.214091 -0.291534,0.593915 -0.43533,0.845055 -0.795206,1.388825 -1.962354,2.965107 -5.082136,4.868796 -8.671551,5.291375 -0.45416,0.05347 -1.740701,0.07797 -2.178655,0.04149 z m 1.700603,-2.381858 c 2.645962,-0.235544 5.016733,-1.515187 6.715677,-3.624844 0.293094,-0.363949 0.770023,-1.110747 1.007162,-1.577061 C 21.2639,14.967843 21.599609,13.57371 21.602413,12 21.603965,11.128594 21.52454,10.46925 21.319175,9.6487455 20.458112,6.2084903 17.749804,3.5158354 14.297136,2.6672893 13.058426,2.3628572 11.73586,2.3087429 10.469564,2.5106797 7.7457732,2.9450434 5.3052886,4.5651753 3.8420562,6.9103943 3.0988843,8.1015246 2.6384121,9.4182982 2.4482803,10.896057 c -0.058324,0.453308 -0.066963,1.631427 -0.015244,2.078853 0.1527433,1.321411 0.5295668,2.534996 1.1261939,3.626985 1.5363688,2.811969 4.353625,4.663117 7.5679618,4.972718 0.3646,0.03512 1.305184,0.03515 1.699415,5.7e-5 z"
       id="path23800"
       transform="translate(508,240)" />
    <path
       style="fill:#a0892c;stroke:#a0892c;stroke-width:0.0286738"
       d="M 11.44086,17.959378 C 8.3805419,17.671126 6.0215054,15.077018 6.0215054,12 c 0,-2.8426208 2.0052672,-5.2954594 4.7928156,-5.862562 2.030355,-0.413058 4.091012,0.2252079 5.514194,1.7079614 0.825179,0.8597189 1.33822,1.8697937 1.571349,3.0936686 0.08474,0.444875 0.09116,1.579743 0.01134,2.007169 -0.160965,0.862031 -0.421432,1.548903 -0.847697,2.235437 -1.173352,1.889781 -3.395351,2.987494 -5.622651,2.777704 z"
       id="path23802"
       transform="translate(508,240)" />
  </g>
</svg>
