<?xml version="1.0" encoding="UTF-8" standalone="no"?>
<svg
   width="30px"
   height="22px"
   viewBox="0 0 30 22"
   version="1.1"
   id="svg28341"
   sodipodi:docname="ic-add-liliac.svg"
   inkscape:version="1.2.1 (9c6d41e410, 2022-07-14)"
   xmlns:inkscape="http://www.inkscape.org/namespaces/inkscape"
   xmlns:sodipodi="http://sodipodi.sourceforge.net/DTD/sodipodi-0.dtd"
   xmlns="http://www.w3.org/2000/svg"
   xmlns:svg="http://www.w3.org/2000/svg">
  <defs
     id="defs28345" />
  <sodipodi:namedview
     id="namedview28343"
     pagecolor="#ffffff"
     bordercolor="#000000"
     borderopacity="0.25"
     inkscape:showpageshadow="2"
     inkscape:pageopacity="0.0"
     inkscape:pagecheckerboard="0"
     inkscape:deskcolor="#d1d1d1"
     showgrid="false"
     inkscape:zoom="38.045455"
     inkscape:cx="15.008363"
     inkscape:cy="11.013142"
     inkscape:window-width="1920"
     inkscape:window-height="1017"
     inkscape:window-x="-8"
     inkscape:window-y="456"
     inkscape:window-maximized="1"
     inkscape:current-layer="svg28341" />
  <!-- Generator: Sketch 52.6 (67491) - http://www.bohemiancoding.com/sketch -->
  <title
     id="title28333">Add purple</title>
  <desc
     id="desc28335">Created with Sketch.</desc>
  <g
     id="Add-purple"
     stroke="none"
     stroke-width="1"
     fill="none"
     fill-rule="evenodd">
    <g
       id="ic-add-purple"
       transform="translate(5.000000, 3.000000)">
      <polygon
         id="Path_18951"
         fill="#b088ff"
         points="14 7 9 7 9 2 7 2 7 7 2 7 2 9 7 9 7 14 9 14 9 9 14 9" />
      <polygon
         id="Rectangle_4603"
         points="0 0 16 0 16 16 0 16" />
    </g>
  </g>
  <path
     style="fill:#a0892c;stroke:#a0892c;stroke-width:0.0262843"
     d="M 12.011947,14.495818 V 11.998805 H 9.5149343 7.0179211 V 11 10.001195 H 9.5149343 12.011947 V 7.5041816 5.0071685 h 0.985664 0.985663 V 7.5041816 10.001195 H 16.480287 18.9773 V 11 11.998805 h -2.497013 -2.497013 v 2.497013 2.497014 h -0.985663 -0.985664 z"
     id="path28347" />
</svg>
