<?xml version="1.0" encoding="UTF-8" standalone="no"?>
<svg
   width="24"
   height="24"
   viewBox="0 0 24 24"
   version="1.1"
   id="svg28817"
   sodipodi:docname="ic-arrow-drop-up-purple.svg"
   inkscape:version="1.2.1 (9c6d41e410, 2022-07-14)"
   xmlns:inkscape="http://www.inkscape.org/namespaces/inkscape"
   xmlns:sodipodi="http://sodipodi.sourceforge.net/DTD/sodipodi-0.dtd"
   xmlns="http://www.w3.org/2000/svg"
   xmlns:svg="http://www.w3.org/2000/svg">
  <sodipodi:namedview
     id="namedview28819"
     pagecolor="#ffffff"
     bordercolor="#000000"
     borderopacity="0.25"
     inkscape:showpageshadow="2"
     inkscape:pageopacity="0.0"
     inkscape:pagecheckerboard="0"
     inkscape:deskcolor="#d1d1d1"
     showgrid="false"
     inkscape:zoom="34.875"
     inkscape:cx="11.985663"
     inkscape:cy="12.014337"
     inkscape:window-width="1920"
     inkscape:window-height="1017"
     inkscape:window-x="-8"
     inkscape:window-y="456"
     inkscape:window-maximized="1"
     inkscape:current-layer="svg28817" />
  <defs
     id="defs28811">
    <style
       type="text/css"
       id="style28809">
            .cls-1{fill:#5C4B7D}.cls-2{fill:none}
        </style>
  </defs>
  <g
     id="ic_arrow_drop_up"
     transform="rotate(180 12 12)">
    <g
       id="Group_8822"
       data-name="Group 8822">
      <path
         id="Path_18879"
         d="M12 16.365L4.319 9.233l1.362-1.466L12 13.635l6.319-5.868 1.361 1.466z"
         class="cls-1"
         data-name="Path 18879" />
    </g>
    <path
       id="Rectangle_4407"
       d="M0 0h24v24H0z"
       class="cls-2"
       data-name="Rectangle 4407" />
  </g>
  <path
     style="fill:#a0892c;stroke:#a0892c;stroke-width:0.0286738"
     d="M 5.0100734,15.485535 C 4.6516657,15.099133 4.3584229,14.776746 4.3584229,14.769119 c 0,-0.02929 7.6099591,-7.0797522 7.6415771,-7.0797522 0.03213,0 7.641577,7.0507082 7.641577,7.0804772 0,0.03605 -1.306845,1.41733 -1.334212,1.410205 -0.01691,-0.0044 -1.433849,-1.311232 -3.148749,-2.904063 C 13.443716,11.683154 12.022339,10.379928 12,10.379928 c -0.02234,0 -1.443716,1.303226 -3.1586159,2.896058 -1.7149004,1.592831 -3.131874,2.899666 -3.1488304,2.904078 -0.016956,0.0044 -0.3240725,-0.308126 -0.6824803,-0.694529 z"
     id="path28821" />
</svg>
