<?xml version="1.0" encoding="UTF-8" standalone="no"?>
<svg
   id="ic_error_connection"
   width="24"
   height="24"
   viewBox="0 0 24 24"
   shape-rendering="geometricPrecision"
   version="1.1"
   sodipodi:docname="ic-check-connect-off.svg"
   inkscape:version="1.2.1 (9c6d41e410, 2022-07-14)"
   xmlns:inkscape="http://www.inkscape.org/namespaces/inkscape"
   xmlns:sodipodi="http://sodipodi.sourceforge.net/DTD/sodipodi-0.dtd"
   xmlns="http://www.w3.org/2000/svg"
   xmlns:svg="http://www.w3.org/2000/svg">
  <sodipodi:namedview
     id="namedview31129"
     pagecolor="#ffffff"
     bordercolor="#000000"
     borderopacity="0.25"
     inkscape:showpageshadow="2"
     inkscape:pageopacity="0.0"
     inkscape:pagecheckerboard="0"
     inkscape:deskcolor="#d1d1d1"
     showgrid="false"
     inkscape:zoom="34.875"
     inkscape:cx="11.985663"
     inkscape:cy="12.014337"
     inkscape:window-width="1920"
     inkscape:window-height="1017"
     inkscape:window-x="-8"
     inkscape:window-y="456"
     inkscape:window-maximized="1"
     inkscape:current-layer="ic_error_connection" />
  <defs
     id="defs31113">
    <style
       type="text/css"
       id="style31111">
            .cls-1{fill:#7c7687}.cls-2{fill:none}
        </style>
  </defs>
  <g
     id="Group_8828"
     data-name="Group 8828">
    <circle
       id="Ellipse_601"
       cx="2"
       cy="2"
       r="2"
       class="cls-1"
       data-name="Ellipse 601"
       transform="translate(10 16)" />
    <g
       id="Group_8825"
       data-name="Group 8825">
      <path
         id="Path_18883"
         d="M10 4.15a14.966 14.966 0 0 0-8.079 3.763l1.346 1.48A12.969 12.969 0 0 1 10 6.168z"
         class="cls-1"
         data-name="Path 18883" />
      <path
         id="Path_18884"
         d="M14 4.15v2.018a12.969 12.969 0 0 1 6.733 3.225l1.346-1.48A14.966 14.966 0 0 0 14 4.15z"
         class="cls-1"
         data-name="Path 18884" />
    </g>
    <g
       id="Group_8826"
       data-name="Group 8826">
      <path
         id="Path_18885"
         d="M10 8.185a11.008 11.008 0 0 0-5.392 2.684l1.346 1.48A9 9 0 0 1 10 10.236z"
         class="cls-1"
         data-name="Path 18885" />
      <path
         id="Path_18886"
         d="M14 8.185v2.051a9 9 0 0 1 4.046 2.113l1.346-1.48A11.008 11.008 0 0 0 14 8.185z"
         class="cls-1"
         data-name="Path 18886" />
    </g>
    <g
       id="Group_8827"
       data-name="Group 8827">
      <path
         id="Path_18887"
         d="M10 12.3a6.992 6.992 0 0 0-2.7 1.529l1.346 1.479A4.724 4.724 0 0 1 10 14.46z"
         class="cls-1"
         data-name="Path 18887" />
      <path
         id="Path_18888"
         d="M14 12.3v2.162a4.727 4.727 0 0 1 1.358.846l1.342-1.482A6.992 6.992 0 0 0 14 12.3z"
         class="cls-1"
         data-name="Path 18888" />
    </g>
    <path
       id="Path_18889"
       d="M11 3v11.147a5.236 5.236 0 0 1 2 0V3z"
       class="cls-1"
       data-name="Path 18889" />
  </g>
  <path
     id="Rectangle_4409"
     d="M0 0h24v24H0z"
     class="cls-2"
     data-name="Rectangle 4409" />
  <path
     style="fill:#a0892c;stroke:#a0892c;stroke-width:0.0286738"
     d="M 11.010753,8.5767323 V 3.0250896 H 12 12.989247 v 5.5516427 5.5516427 l -0.121863,-0.01815 C 12.552019,14.063248 12.23565,14.036278 12,14.036278 c -0.23565,0 -0.552019,0.02697 -0.867384,0.07395 l -0.121863,0.01815 z"
     id="path31131" />
  <path
     style="fill:#a0892c;stroke:#a0892c;stroke-width:0.0286738"
     d="M 7.994289,14.565359 C 7.6425913,14.178457 7.3509706,13.850724 7.3462428,13.837063 7.3322857,13.796732 7.8153843,13.412498 8.1840255,13.17073 8.6885547,12.839841 9.2280171,12.575042 9.7849462,12.384906 l 0.1935484,-0.06608 -0.00108,1.066392 -0.00108,1.066392 -0.278486,0.133721 c -0.2904787,0.13948 -0.6714685,0.382007 -0.8989529,0.572248 -0.073156,0.06118 -0.1402425,0.111235 -0.1490801,0.111235 -0.00884,0 -0.3038212,-0.316556 -0.6555189,-0.703458 z"
     id="path31133" />
  <path
     style="fill:#a0892c;stroke:#a0892c;stroke-width:0.0286738"
     d="M 5.2936419,11.598454 C 4.9351923,11.204127 4.6495602,10.869127 4.6589039,10.854008 4.6682477,10.83889 4.7883329,10.731736 4.9257599,10.615889 5.9844513,9.7234406 7.2007128,9.0364635 8.5017921,8.5960499 8.8723315,8.4706227 9.6236995,8.2674808 9.8566308,8.2297519 L 9.9784946,8.210013 v 1.0049994 1.0049996 l -0.1218638,0.03131 c -1.3417669,0.344777 -2.5932705,0.978243 -3.6105429,1.827527 -0.1558428,0.130108 -0.2872585,0.236559 -0.2920349,0.236559 -0.00478,0 -0.3019614,-0.322631 -0.6604111,-0.716958 z"
     id="path31135" />
  <path
     style="fill:#a0892c;stroke:#a0892c;stroke-width:0.0286738"
     d="M 2.6810036,8.7286615 C 2.3655914,8.3813445 2.0716535,8.0538053 2.0278082,8.0007966 L 1.9480896,7.9044172 2.3002097,7.6050265 C 2.9466022,7.0554303 3.6335952,6.5640802 4.3822701,6.1158988 4.8307891,5.8474006 5.9978179,5.2756772 6.4946237,5.0810641 7.5182242,4.6800903 8.7988399,4.3374565 9.8422939,4.1853817 l 0.1362007,-0.01985 V 5.1574883 6.149445 L 9.9139786,6.163334 C 9.8784946,6.1709735 9.7075269,6.2044368 9.5340502,6.2376972 8.7061316,6.3964327 7.7067171,6.7013535 6.9103943,7.0381729 5.7132605,7.5445227 4.4918893,8.3063779 3.4976867,9.1669181 3.3737217,9.2742171 3.2682873,9.3615888 3.263388,9.3610773 3.2584888,9.3605657 2.9964158,9.0759788 2.6810036,8.7286615 Z"
     id="path31137" />
  <path
     style="fill:#a0892c;stroke:#a0892c;stroke-width:0.0286738"
     d="M 20.587814,9.2415576 C 20.332918,9.0085806 19.708722,8.5250182 19.332311,8.2689233 17.843235,7.2558168 16.203023,6.571214 14.46595,6.2377695 14.292473,6.2044693 14.121505,6.1709735 14.086022,6.1633344 L 14.021505,6.149445 V 5.1570793 4.1647135 l 0.121864,0.018458 c 2.834492,0.4293236 5.40702,1.5943216 7.55681,3.4221859 0.307156,0.2611599 0.347736,0.3056491 0.315412,0.3457913 -0.08546,0.1061367 -1.264409,1.397021 -1.28082,1.4024335 -0.0099,0.00325 -0.07599,-0.047159 -0.146957,-0.1120246 z"
     id="path31139" />
  <path
     style="fill:#a0892c;stroke:#a0892c;stroke-width:0.0286738"
     d="m 17.87983,12.182796 c -0.07792,-0.07169 -0.287117,-0.23958 -0.464879,-0.373096 -0.958794,-0.720148 -2.049618,-1.239603 -3.271582,-1.557941 l -0.121864,-0.03175 V 9.2150124 8.210013 l 0.121864,0.019753 c 0.194588,0.031541 0.957255,0.2318438 1.25448,0.3294691 1.121369,0.3683195 2.244665,0.9562319 3.197133,1.6733199 0.256441,0.193067 0.719969,0.579149 0.746114,0.621453 0.01582,0.02559 -1.26661,1.462769 -1.303027,1.460266 -0.0091,-6.26e-4 -0.08032,-0.05979 -0.158239,-0.131478 z"
     id="path31141" />
  <path
     style="fill:#a0892c;stroke:#a0892c;stroke-width:0.0286738"
     d="m 15.154122,15.121225 c -0.222326,-0.184957 -0.628801,-0.437831 -0.910394,-0.566369 l -0.222223,-0.101437 v -1.06842 -1.068421 l 0.293907,0.102516 c 0.352928,0.123103 1.071447,0.469111 1.369176,0.659336 0.441017,0.281776 0.986297,0.709252 0.968862,0.759547 -0.01698,0.04899 -1.271063,1.426525 -1.298611,1.426452 -0.01577,-2.9e-5 -0.106093,-0.06448 -0.200717,-0.143204 z"
     id="path31143" />
  <path
     style="fill:#a0892c;stroke:#a0892c;stroke-width:0.0286738"
     d="M 11.782012,19.966015 C 11.217924,19.914518 10.684357,19.5893 10.354276,19.095788 9.9469028,18.486715 9.9045077,17.74705 10.239951,17.101157 10.489521,16.62061 10.871496,16.293905 11.397849,16.1108 11.603174,16.039372 11.666348,16.031 12,16.031 c 0.333226,0 0.397089,0.0084 0.602151,0.07956 0.529454,0.183641 0.906426,0.50666 1.159302,0.993379 0.333976,0.642817 0.290921,1.383853 -0.115729,1.991845 -0.416871,0.623275 -1.09588,0.940326 -1.863712,0.870227 z"
     id="path31145" />
</svg>
