<?xml version="1.0" encoding="UTF-8" standalone="no"?>
<svg
   width="30px"
   height="22px"
   viewBox="0 0 30 22"
   version="1.1"
   id="svg38822"
   sodipodi:docname="ic-clear-liliac.svg"
   inkscape:version="1.2.1 (9c6d41e410, 2022-07-14)"
   xmlns:inkscape="http://www.inkscape.org/namespaces/inkscape"
   xmlns:sodipodi="http://sodipodi.sourceforge.net/DTD/sodipodi-0.dtd"
   xmlns="http://www.w3.org/2000/svg"
   xmlns:svg="http://www.w3.org/2000/svg">
  <defs
     id="defs38826" />
  <sodipodi:namedview
     id="namedview38824"
     pagecolor="#ffffff"
     bordercolor="#000000"
     borderopacity="0.25"
     inkscape:showpageshadow="2"
     inkscape:pageopacity="0.0"
     inkscape:pagecheckerboard="0"
     inkscape:deskcolor="#d1d1d1"
     showgrid="false"
     inkscape:zoom="38.045455"
     inkscape:cx="15.008363"
     inkscape:cy="11.013142"
     inkscape:window-width="1920"
     inkscape:window-height="1017"
     inkscape:window-x="-8"
     inkscape:window-y="456"
     inkscape:window-maximized="1"
     inkscape:current-layer="svg38822" />
  <!-- Generator: Sketch 52.6 (67491) - http://www.bohemiancoding.com/sketch -->
  <title
     id="title38814">Clear Purple</title>
  <desc
     id="desc38816">Created with Sketch.</desc>
  <g
     id="Clear-Purple"
     stroke="none"
     stroke-width="1"
     fill="none"
     fill-rule="evenodd">
    <g
       id="ic-clear-purple"
       transform="translate(5.000000, 3.000000)">
      <polygon
         id="Path_18950"
         fill="#b088ff"
         points="13.707 3.707 12.293 2.293 8 6.586 3.707 2.293 2.293 3.707 6.586 8 2.293 12.293 3.707 13.707 8 9.414 12.293 13.707 13.707 12.293 9.414 8" />
      <polygon
         id="Rectangle_4602"
         points="0 0 16 0 16 16 0 16" />
    </g>
  </g>
  <path
     style="fill:#a0892c;stroke:#a0892c;stroke-width:0.0262843"
     d="M 7.9969491,15.987516 7.3070461,15.297613 9.455733,13.148807 11.60442,11 9.4556713,8.8511315 7.3069227,6.7022632 8.003584,6.0059739 8.7002454,5.3096846 10.848968,7.4582872 12.99769,9.6068898 15.146313,7.4582672 17.294936,5.3096446 17.991617,6.0059539 18.688298,6.7022632 16.53955,8.8511315 14.390801,11 l 2.148749,2.148869 2.148748,2.148868 -0.696661,0.696289 -0.696661,0.69629 -2.148743,-2.148624 -2.148743,-2.148622 -2.142054,2.142175 c -1.1781292,1.178196 -2.1480228,2.142174 -2.1553186,2.142174 -0.0073,0 -0.3237216,-0.310456 -0.7031683,-0.689903 z"
     id="path38828" />
</svg>
