<?xml version="1.0" encoding="UTF-8" standalone="no"?>
<svg
   id="ic_peers_connection"
   width="24"
   height="24"
   viewBox="0 0 24 24"
   shape-rendering="geometricPrecision"
   version="1.1"
   sodipodi:docname="ic-check-peers-off.svg"
   inkscape:version="1.2.1 (9c6d41e410, 2022-07-14)"
   xmlns:inkscape="http://www.inkscape.org/namespaces/inkscape"
   xmlns:sodipodi="http://sodipodi.sourceforge.net/DTD/sodipodi-0.dtd"
   xmlns="http://www.w3.org/2000/svg"
   xmlns:svg="http://www.w3.org/2000/svg">
  <sodipodi:namedview
     id="namedview36541"
     pagecolor="#ffffff"
     bordercolor="#000000"
     borderopacity="0.25"
     inkscape:showpageshadow="2"
     inkscape:pageopacity="0.0"
     inkscape:pagecheckerboard="0"
     inkscape:deskcolor="#d1d1d1"
     showgrid="false"
     inkscape:zoom="34.875"
     inkscape:cx="11.985663"
     inkscape:cy="12.014337"
     inkscape:window-width="1920"
     inkscape:window-height="1017"
     inkscape:window-x="-8"
     inkscape:window-y="456"
     inkscape:window-maximized="1"
     inkscape:current-layer="ic_peers_connection" />
  <defs
     id="defs36536">
    <style
       type="text/css"
       id="style36534">
            .cls-1{fill:#7c7687}.cls-2{fill:none}
        </style>
  </defs>
  <path
     id="Path_18890"
     d="M16.333 15L13 12.5V9h2.5V2h-7v7H11v3.5L7.667 15H2v7h7v-5.5l3-2.25 3 2.25V22h7v-7zM10.5 4h3v3h-3zM7 20H4v-3h3zm13 0h-3v-3h3z"
     class="cls-1"
     data-name="Path 18890" />
  <path
     id="Rectangle_4410"
     d="M0 0h24v24H0z"
     class="cls-2"
     data-name="Rectangle 4410" />
  <path
     style="fill:#a0892c;stroke:#a0892c;stroke-width:0.0286738"
     d="M 2.0071685,18.494624 V 15.010753 H 4.8461342 7.6850999 L 9.3479263,13.763249 11.010753,12.515745 V 10.752496 8.9892473 H 9.7634409 8.516129 V 5.5053763 2.0215054 H 12 15.483871 v 3.4838709 3.483871 h -1.247312 -1.247312 v 1.7632487 1.763249 l 1.662827,1.247504 1.662826,1.247504 h 2.838966 2.838966 v 3.483871 3.483871 h -3.483727 -3.483727 l -0.0073,-2.74552 -0.0073,-2.74552 -1.49104,-1.123494 C 12.699642,14.746039 12.015771,14.240467 12,14.240467 c -0.01577,0 -0.699642,0.505572 -1.519713,1.123494 l -1.4910397,1.123494 -0.00731,2.74552 -0.00731,2.74552 H 5.4908955 2.0071685 Z m 5.0179211,0 V 16.989247 H 5.5053763 3.9856631 V 18.494624 20 h 1.5197132 1.5197133 z m 12.9892474,0 V 16.989247 H 18.494624 16.97491 V 18.494624 20 h 1.519714 1.519713 z M 13.505376,5.5053763 V 4 H 12 10.494624 V 5.5053763 7.0107527 H 12 13.505376 Z"
     id="path36543" />
</svg>
