<?xml version="1.0" encoding="UTF-8" standalone="no"?>
<svg
   id="ic_error_sync"
   width="24"
   height="24"
   viewBox="0 0 24 24"
   shape-rendering="geometricPrecision"
   version="1.1"
   sodipodi:docname="ic-check-sync-off.svg"
   inkscape:version="1.2.1 (9c6d41e410, 2022-07-14)"
   xmlns:inkscape="http://www.inkscape.org/namespaces/inkscape"
   xmlns:sodipodi="http://sodipodi.sourceforge.net/DTD/sodipodi-0.dtd"
   xmlns="http://www.w3.org/2000/svg"
   xmlns:svg="http://www.w3.org/2000/svg">
  <sodipodi:namedview
     id="namedview36989"
     pagecolor="#ffffff"
     bordercolor="#000000"
     borderopacity="0.25"
     inkscape:showpageshadow="2"
     inkscape:pageopacity="0.0"
     inkscape:pagecheckerboard="0"
     inkscape:deskcolor="#d1d1d1"
     showgrid="false"
     inkscape:zoom="34.875"
     inkscape:cx="11.985663"
     inkscape:cy="12.014337"
     inkscape:window-width="1920"
     inkscape:window-height="1017"
     inkscape:window-x="-8"
     inkscape:window-y="456"
     inkscape:window-maximized="1"
     inkscape:current-layer="ic_error_sync" />
  <defs
     id="defs36976">
    <style
       type="text/css"
       id="style36974">
            .cls-1{fill:#7c7687}.cls-2{fill:none}
        </style>
  </defs>
  <g
     id="Group_8889"
     data-name="Group 8889">
    <g
       id="Group_8887"
       data-name="Group 8887">
      <path
         id="Path_18905"
         d="M19.611 16.782A8.933 8.933 0 0 0 21 12h-2a6.95 6.95 0 0 1-.844 3.328z"
         class="cls-1"
         data-name="Path 18905" />
      <path
         id="Path_18906"
         d="M15.328 18.156A6.993 6.993 0 0 1 6.257 16H9v-2H3v6h2v-2.372a8.942 8.942 0 0 0 11.782 1.983z"
         class="cls-1"
         data-name="Path 18906" />
    </g>
    <g
       id="Group_8888"
       data-name="Group 8888">
      <path
         id="Path_18907"
         d="M8.672 5.844A7 7 0 0 1 17.745 8H15v2h6V4h-2v2.37A8.944 8.944 0 0 0 7.218 4.389z"
         class="cls-1"
         data-name="Path 18907" />
      <path
         id="Path_18908"
         d="M4.389 7.218A8.933 8.933 0 0 0 3 12h2a6.95 6.95 0 0 1 .844-3.328z"
         class="cls-1"
         data-name="Path 18908" />
    </g>
  </g>
  <g
     id="Group_8890"
     data-name="Group 8890">
    <path
       id="Rectangle_4442"
       d="M0 0h2v22.627H0z"
       class="cls-1"
       data-name="Rectangle 4442"
       transform="rotate(-45 7.328 -1.622)" />
  </g>
  <path
     id="Rectangle_4443"
     d="M0 0h24v24H0z"
     class="cls-2"
     data-name="Rectangle 4443" />
  <path
     style="fill:#a0892c;stroke:#a0892c;stroke-width:0.0286738"
     d="M 11.096774,20.941873 C 9.4116596,20.766137 7.7902409,20.106735 6.4516129,19.052768 6.1521984,18.817025 5.4203538,18.106277 5.1387765,17.777778 L 4.9913078,17.605735 4.9902775,18.802867 4.9892473,20 H 4 3.0107527 v -2.996416 -2.996416 h 2.9820788 2.9820789 v 0.989248 0.989247 H 7.6129032 c -0.7491039,0 -1.3620071,0.0089 -1.3620071,0.01973 0,0.04573 0.4171157,0.561525 0.6746445,0.834248 0.7158558,0.758091 1.6259275,1.357158 2.6371834,1.735961 1.757485,0.65833 3.84469,0.556151 5.493403,-0.26893 l 0.274765,-0.137503 0.714482,0.715403 c 0.576754,0.577497 0.706192,0.72098 0.671472,0.744337 -0.291041,0.195795 -0.97581,0.541924 -1.433692,0.724686 -0.760487,0.303546 -1.600624,0.50777 -2.433145,0.59146 -0.349304,0.03511 -1.40436,0.0332 -1.753235,-0.0032 z"
     id="path36991" />
  <path
     style="fill:#a0892c;stroke:#a0892c;stroke-width:0.0286738"
     d="M 3.0227533,11.620072 C 3.1030321,10.101639 3.5549297,8.6035485 4.2947841,7.4031494 L 4.3975546,7.2364063 5.1117591,7.9506108 5.8259636,8.6648153 5.7122497,8.8915474 C 5.284683,9.7440651 4.9892473,10.939334 4.9892473,11.816658 V 12 H 3.995957 3.0026667 Z"
     id="path36993" />
  <path
     style="fill:#a0892c;stroke:#a0892c;stroke-width:0.0286738"
     d="M 11.30454,12.680884 3.3259646,4.7022702 4.0215224,4.0071469 4.7170802,3.3120237 l 7.9854238,7.9854623 7.985425,7.985463 -0.687827,0.688275 c -0.378304,0.378551 -0.694387,0.688274 -0.702406,0.688274 -0.008,0 -3.604939,-3.590376 -7.993156,-7.978614 z"
     id="path36995" />
  <path
     style="fill:#a0892c;stroke:#a0892c;stroke-width:0.0286738"
     d="M 15.02509,9.0035842 V 8.0143369 h 1.362007 c 0.749104,0 1.362007,-0.00888 1.362007,-0.019735 0,-0.046711 -0.428738,-0.5768263 -0.681574,-0.8427363 C 15.972632,6.000353 14.509285,5.2627561 12.888889,5.0456313 12.434758,4.98478 11.568263,4.9848871 11.111111,5.045852 10.369927,5.1446934 9.6471936,5.3569208 9.0125934,5.6620724 L 8.6631796,5.8300893 7.958463,5.1105121 C 7.4588443,4.6003576 7.2642847,4.3838358 7.2899557,4.3665427 7.4230961,4.2768533 7.750301,4.0957714 8.0502625,3.9457731 9.0125395,3.4645785 10.054842,3.1650306 11.149991,3.0549401 c 0.380163,-0.038216 1.316092,-0.038463 1.700018,-4.485e-4 1.807619,0.1789815 3.52545,0.9005808 4.899095,2.0579351 0.275963,0.2325108 0.879439,0.8355441 1.124958,1.1241324 l 0.13417,0.1577061 0.0013,-1.1971326 L 19.010753,4 H 20 20.989247 V 6.9964158 9.9928315 H 18.007168 15.02509 Z"
     id="path36997" />
  <path
     style="fill:#a0892c;stroke:#a0892c;stroke-width:0.0286738"
     d="m 18.88659,16.031628 -0.711977,-0.697591 0.113426,-0.226158 c 0.42727,-0.851932 0.722714,-2.047475 0.722714,-2.924537 V 12 h 0.99313 0.993131 l -0.01934,0.365591 c -0.05988,1.132157 -0.291923,2.145606 -0.723813,3.161291 -0.177457,0.417329 -0.596252,1.203031 -0.64096,1.202506 -0.0079,-8.6e-5 -0.334726,-0.314084 -0.726313,-0.69776 z"
     id="path36999" />
</svg>
