<?xml version="1.0" encoding="UTF-8" standalone="no"?>
<svg
   width="24"
   height="24"
   viewBox="0 0 24 24"
   fill="none"
   version="1.1"
   id="svg37868"
   sodipodi:docname="ic-check-vote.svg"
   inkscape:version="1.2.1 (9c6d41e410, 2022-07-14)"
   xmlns:inkscape="http://www.inkscape.org/namespaces/inkscape"
   xmlns:sodipodi="http://sodipodi.sourceforge.net/DTD/sodipodi-0.dtd"
   xmlns="http://www.w3.org/2000/svg"
   xmlns:svg="http://www.w3.org/2000/svg">
  <defs
     id="defs37872" />
  <sodipodi:namedview
     id="namedview37870"
     pagecolor="#ffffff"
     bordercolor="#000000"
     borderopacity="0.25"
     inkscape:showpageshadow="2"
     inkscape:pageopacity="0.0"
     inkscape:pagecheckerboard="0"
     inkscape:deskcolor="#d1d1d1"
     showgrid="false"
     inkscape:zoom="34.875"
     inkscape:cx="11.985663"
     inkscape:cy="12.043011"
     inkscape:window-width="1920"
     inkscape:window-height="1017"
     inkscape:window-x="-8"
     inkscape:window-y="456"
     inkscape:window-maximized="1"
     inkscape:current-layer="svg37868" />
  <rect
     x="1.5"
     y="1.5"
     width="21"
     height="21"
     rx="1.5"
     fill="white"
     id="rect37864" />
  <rect
     x="1.5"
     y="1.5"
     width="21"
     height="21"
     rx="1.5"
     stroke="#5C4B7D"
     id="rect37866" />
  <path
     style="fill:#a0892c;stroke:#a0892c;stroke-width:0.0286738"
     d="M 2.6401487,22.951034 C 1.8842805,22.801956 1.3033383,22.261793 1.0839616,21.504084 L 1.0179211,21.275986 V 12 c 0,-8.754644 0.00283,-9.2864608 0.050326,-9.4623656 C 1.2556756,1.8434961 1.7652853,1.3080185 2.437276,1.099113 L 2.6523297,1.0322581 H 12 21.34767 l 0.215054,0.066855 c 0.666163,0.2070939 1.154917,0.7115535 1.353314,1.3968029 l 0.06604,0.2280984 V 12 21.275986 l -0.06604,0.228098 c -0.196089,0.677278 -0.672172,1.173851 -1.338977,1.396606 l -0.200717,0.06705 -9.304659,0.0042 C 6.8700175,22.97424 2.7110775,22.96504 2.6401487,22.95107 Z M 21.471568,21.894563 c 0.219634,-0.119083 0.382403,-0.297042 0.470128,-0.514001 l 0.06547,-0.161924 V 12 2.781362 L 21.941696,2.6194382 C 21.853971,2.402479 21.691202,2.2245202 21.471568,2.1054374 L 21.290323,2.0071685 H 12 2.7096774 L 2.5284321,2.1054374 C 2.3087983,2.2245202 2.1460292,2.402479 2.0583039,2.6194382 L 1.9928315,2.781362 v 9.204301 c 0,8.858415 0.00198,9.20998 0.052679,9.355426 0.098806,0.283456 0.3389753,0.516497 0.6453624,0.626209 0.085695,0.03069 1.7924705,0.03644 9.3521381,0.03154 l 9.247312,-0.006 z"
     id="path37874" />
  <path
     style="fill:#d3bc5f;stroke:#d3bc5f;stroke-width:0.0286738"
     d="M 3.8996416,22.952882 2.5663082,22.938022 2.3512545,22.85607 C 1.768261,22.633904 1.3300674,22.182568 1.1372085,21.605612 1.0924223,21.471629 1.0422447,21.333704 1.0257029,21.29911 1.0047738,21.255342 1.0021374,18.495273 1.0170343,12.223841 1.0288084,7.2670368 1.0424492,3.0754781 1.0473472,2.9092663 1.0637649,2.3521395 1.2798448,1.9110079 1.7327657,1.5099702 1.9061529,1.3564449 2.3340816,1.1268108 2.5158002,1.08978 2.5668742,1.079372 2.6160225,1.058946 2.6250193,1.044389 c 0.022061,-0.035696 18.7278997,-0.035696 18.7499617,0 0.009,0.014557 0.05815,0.035256 0.109219,0.045998 0.05107,0.010741 0.196087,0.067838 0.322252,0.1268802 0.53815,0.2518433 0.876398,0.6356208 1.070448,1.2145317 0.04657,0.138923 0.09251,0.2604284 0.102091,0.270012 0.02826,0.02826 0.02028,18.5833621 -0.008,18.6008401 -0.01398,0.0086 -0.03556,0.06424 -0.04796,0.123555 -0.01239,0.05931 -0.02484,0.114296 -0.02766,0.122181 -0.150938,0.422065 -0.402571,0.78439 -0.697414,1.004203 -0.129087,0.09624 -0.618482,0.363278 -0.679043,0.370521 -0.0074,8.92e-4 -0.01999,0.0032 -0.02788,0.0052 -0.0079,0.002 -0.02724,0.0068 -0.04301,0.01075 -0.01577,0.0039 -0.03835,0.0097 -0.05018,0.01278 -0.05164,0.01347 -16.2965369,0.01443 -17.4982074,10e-4 z M 21.444933,21.925655 c 0.18539,-0.09889 0.393861,-0.306736 0.475953,-0.474526 l 0.07212,-0.14741 v -9.299856 c 0,-9.0981572 -0.0012,-9.3025459 -0.05488,-9.4239213 C 21.86522,2.4151247 21.669248,2.2065012 21.491625,2.1046165 L 21.34767,2.0220435 H 12 2.6523297 L 2.5083748,2.1046165 C 2.3320586,2.2057519 2.1346343,2.4151115 2.064234,2.575608 2.013716,2.6907779 2.011526,3.0460829 2.006761,11.899642 c -0.00272,5.062365 8.135e-4,9.258011 0.00786,9.323658 0.036685,0.341654 0.4065905,0.714701 0.7524022,0.758791 0.078853,0.01005 4.2853046,0.01658 9.3476698,0.01451 l 9.204301,-0.0038 z"
     id="path50005" />
</svg>
