<?xml version="1.0" encoding="UTF-8" standalone="no"?>
<svg
   id="ic_mint_on"
   width="24"
   height="24"
   viewBox="0 0 24 24"
   shape-rendering="geometricPrecision"
   version="1.1"
   sodipodi:docname="ic-check-mint-off.svg"
   inkscape:version="1.2.1 (9c6d41e410, 2022-07-14)"
   xmlns:inkscape="http://www.inkscape.org/namespaces/inkscape"
   xmlns:sodipodi="http://sodipodi.sourceforge.net/DTD/sodipodi-0.dtd"
   xmlns="http://www.w3.org/2000/svg"
   xmlns:svg="http://www.w3.org/2000/svg">
  <sodipodi:namedview
     id="namedview35922"
     pagecolor="#ffffff"
     bordercolor="#000000"
     borderopacity="0.25"
     inkscape:showpageshadow="2"
     inkscape:pageopacity="0.0"
     inkscape:pagecheckerboard="0"
     inkscape:deskcolor="#d1d1d1"
     showgrid="false"
     inkscape:zoom="34.875"
     inkscape:cx="11.985663"
     inkscape:cy="12.014337"
     inkscape:window-width="1920"
     inkscape:window-height="1017"
     inkscape:window-x="-8"
     inkscape:window-y="456"
     inkscape:window-maximized="1"
     inkscape:current-layer="ic_mint_on" />
  <defs
     id="defs35914">
    <style
       type="text/css"
       id="style35912">
            .cls-1{fill:#7c7687}.cls-2{fill:none}
        </style>
  </defs>
  <g
     id="Group_9004"
     data-name="Group 9004">
    <path
       id="Path_18964"
       d="M6 5h12v2.586l-.793-.793-1.414 1.414L19 11.414l3.207-3.207-1.414-1.414-.793.793V3H4v7h2z"
       class="cls-1"
       data-name="Path 18964" />
    <path
       id="Path_18965"
       d="M12 8a4 4 0 1 0 4 4 4 4 0 0 0-4-4zm0 6a2 2 0 1 1 2-2 2 2 0 0 1-2 2z"
       class="cls-1"
       data-name="Path 18965" />
    <path
       id="Path_18966"
       d="M18 19H6v-2.586l.793.793 1.414-1.414L5 12.586l-3.207 3.207 1.414 1.414.793-.793V21h16v-7h-2z"
       class="cls-1"
       data-name="Path 18966" />
  </g>
  <path
     id="Rectangle_4647"
     d="M0 0h24v24H0z"
     class="cls-2"
     data-name="Rectangle 4647" />
  <path
     style="fill:#a0892c;stroke:#a0892c;stroke-width:0.0286738"
     d="M 11.487735,15.955093 C 9.9592173,15.743552 8.6750984,14.66634 8.2060985,13.202219 7.9581898,12.428299 7.9580355,11.574991 8.2056636,10.797608 8.5879439,9.5975077 9.5422381,8.6259654 10.725415,8.2323132 c 0.508652,-0.1692323 0.7257,-0.203124 1.288922,-0.2012632 0.722203,0.00239 1.109994,0.093577 1.763441,0.4146809 0.952128,0.4678764 1.691494,1.3314795 2.018364,2.3575141 0.362655,1.138361 0.180628,2.404275 -0.490255,3.409505 -0.578337,0.86656 -1.505854,1.483096 -2.560367,1.701916 -0.272329,0.05651 -0.977741,0.07918 -1.257785,0.04043 z m 1.000638,-2.005507 c 0.384183,-0.09826 0.624116,-0.236344 0.919854,-0.529395 0.214805,-0.212854 0.282351,-0.302249 0.379782,-0.502628 0.164772,-0.338874 0.215898,-0.556161 0.215898,-0.917563 0,-0.361092 -0.05144,-0.580085 -0.214304,-0.912364 -0.221635,-0.452183 -0.66815,-0.835081 -1.16294,-0.99725 -0.227466,-0.07455 -0.292716,-0.08322 -0.626663,-0.08322 -0.333947,0 -0.399197,0.0087 -0.626663,0.08322 -0.643035,0.210757 -1.157503,0.761719 -1.327957,1.422159 -0.063897,0.247571 -0.063897,0.727339 0,0.97491 0.02646,0.102509 0.101814,0.296058 0.16746,0.430108 0.162698,0.33223 0.537312,0.711677 0.857474,0.868536 0.452472,0.221684 0.961193,0.280334 1.418059,0.163487 z"
     id="path35924" />
  <path
     style="fill:#a0892c;stroke:#a0892c;stroke-width:0.0286738"
     d="m 4.0143369,18.695341 c 0,-1.253764 -0.0095,-2.27957 -0.021121,-2.27957 -0.011617,0 -0.1923348,0.170861 -0.4015961,0.379692 L 3.2111447,17.175155 2.5160196,16.48003 1.8208946,15.784904 3.4123039,14.193495 5.0037133,12.602086 6.5949611,14.193528 8.186209,15.784969 7.4911166,16.480062 6.7960238,17.175155 6.4155487,16.795463 C 6.2062873,16.586632 6.025569,16.415771 6.0139524,16.415771 c -0.011616,0 -0.021121,0.587096 -0.021121,1.304659 v 1.30466 H 12 18.007168 v -2.508961 -2.508961 h 0.989248 0.989247 v 3.483871 3.483871 H 12 4.0143369 Z"
     id="path35926" />
  <path
     style="fill:#a0892c;stroke:#a0892c;stroke-width:0.0286738"
     d="m 17.405039,9.8064725 -1.591248,-1.5914417 0.695092,-0.6950927 0.695093,-0.6950928 0.380475,0.379692 c 0.209262,0.2088307 0.38998,0.3796921 0.401597,0.3796921 0.01162,0 0.02112,-0.5870968 0.02112,-1.3046595 V 4.9749104 H 12 5.9928315 V 7.483871 9.9928315 H 5.0035842 4.0143369 V 6.5089606 3.0250896 H 12 19.985663 v 2.2795699 c 0,1.2537634 0.0095,2.2795699 0.02112,2.2795699 0.01162,0 0.192335,-0.1708614 0.401596,-0.3796921 l 0.380475,-0.379692 0.695125,0.6951252 0.695125,0.6951251 -1.591409,1.5914093 -1.591409,1.5914091 z"
     id="path35928" />
</svg>
