<?xml version="1.0" encoding="UTF-8" standalone="no"?>
<svg
   width="40px"
   height="40px"
   viewBox="0 0 40 40"
   version="1.1"
   id="svg39843"
   sodipodi:docname="ic-combo-box.svg"
   inkscape:version="1.2.1 (9c6d41e410, 2022-07-14)"
   xmlns:inkscape="http://www.inkscape.org/namespaces/inkscape"
   xmlns:sodipodi="http://sodipodi.sourceforge.net/DTD/sodipodi-0.dtd"
   xmlns="http://www.w3.org/2000/svg"
   xmlns:svg="http://www.w3.org/2000/svg">
  <defs
     id="defs39847" />
  <sodipodi:namedview
     id="namedview39845"
     pagecolor="#ffffff"
     bordercolor="#000000"
     borderopacity="0.25"
     inkscape:showpageshadow="2"
     inkscape:pageopacity="0.0"
     inkscape:pagecheckerboard="0"
     inkscape:deskcolor="#d1d1d1"
     showgrid="false"
     inkscape:zoom="20.925"
     inkscape:cx="20.023895"
     inkscape:cy="20.023895"
     inkscape:window-width="1920"
     inkscape:window-height="1017"
     inkscape:window-x="-8"
     inkscape:window-y="456"
     inkscape:window-maximized="1"
     inkscape:current-layer="svg39843" />
  <!-- Generator: Sketch 52.6 (67491) - http://www.bohemiancoding.com/sketch -->
  <title
     id="title39825">ComboBox</title>
  <desc
     id="desc39827">Created with Sketch.</desc>
  <g
     id="ComboBox"
     stroke="none"
     stroke-width="1"
     fill="none"
     fill-rule="evenodd">
    <g
       id="Group"
       transform="translate(5.000000, 0.000000)">
      <g
         id="ic-arrow-drop-down"
         transform="translate(0.000000, 16.000000)">
        <g
           id="Group_8822"
           transform="translate(4.000000, 7.000000)"
           fill="#5C4B7D">
          <polygon
             id="Path_18879"
             points="8 9.365 0.319 2.233 1.681 0.767 8 6.635 14.319 0.767 15.68 2.233" />
        </g>
        <polygon
           id="Rectangle_4407"
           points="0 0 24 0 24 24 0 24" />
      </g>
      <g
         id="ic-arrow-drop-up">
        <g
           id="ic_arrow_drop_up"
           transform="translate(12.000000, 12.000000) rotate(180.000000) translate(-12.000000, -12.000000) translate(-0.000000, 0.000000)">
          <g
             id="g39835"
             transform="translate(4.000000, 7.000000)"
             fill="#5C4B7D">
            <polygon
               id="polygon39833"
               points="8 9.365 0.319 2.233 1.681 0.767 8 6.635 14.319 0.767 15.68 2.233" />
          </g>
          <polygon
             id="polygon39837"
             points="0 0 24 0 24 24 0 24" />
        </g>
      </g>
    </g>
  </g>
  <path
     style="fill:#a0892c;stroke:#a0892c;stroke-width:0.0477897"
     d="M 10.016995,15.472748 9.366542,14.768675 9.5458755,14.595311 C 9.644509,14.49996 11.241338,13.01796 13.094385,11.301976 14.947431,9.585992 16.582756,8.0665712 16.728439,7.9254852 l 0.264879,-0.25652 3.824206,3.5513018 3.824207,3.551301 -0.646035,0.69068 c -0.355319,0.379873 -0.662031,0.690679 -0.681581,0.690679 -0.01955,0 -1.436751,-1.301075 -3.149337,-2.891278 -1.712584,-1.590203 -3.129844,-2.897376 -3.149465,-2.904828 -0.01962,-0.0075 -1.449051,1.299 -3.176509,2.903226 -1.727459,1.604226 -3.147701,2.916775 -3.156095,2.916775 -0.0084,0 -0.307964,-0.316833 -0.665714,-0.704074 z"
     id="path39849" />
  <path
     style="fill:#a0892c;stroke:#a0892c;stroke-width:0.0477897"
     d="m 13.180199,28.780255 -3.8090487,-3.539228 0.187828,-0.21908 C 9.6622837,24.901453 9.9575315,24.579385 10.215085,24.30624 l 0.468278,-0.496627 3.148137,2.923557 c 1.731476,1.607957 3.164191,2.917461 3.183813,2.910008 0.01962,-0.0075 1.436881,-1.314624 3.149465,-2.904827 1.712586,-1.590203 3.129787,-2.891278 3.149337,-2.891278 0.01955,0 0.326158,0.310694 0.68135,0.690432 l 0.645804,0.690433 -3.706536,3.438743 c -2.038596,1.891309 -3.760301,3.486907 -3.826011,3.545773 l -0.119475,0.107028 z"
     id="path39851" />
</svg>
