<?xml version="1.0" encoding="UTF-8" standalone="no"?>
<svg
   width="24"
   height="24"
   viewBox="0 0 24 24"
   fill="none"
   version="1.1"
   id="svg37965"
   sodipodi:docname="ic-check-vote-active.svg"
   inkscape:version="1.2.1 (9c6d41e410, 2022-07-14)"
   xmlns:inkscape="http://www.inkscape.org/namespaces/inkscape"
   xmlns:sodipodi="http://sodipodi.sourceforge.net/DTD/sodipodi-0.dtd"
   xmlns="http://www.w3.org/2000/svg"
   xmlns:svg="http://www.w3.org/2000/svg">
  <defs
     id="defs37969" />
  <sodipodi:namedview
     id="namedview37967"
     pagecolor="#ffffff"
     bordercolor="#000000"
     borderopacity="0.25"
     inkscape:showpageshadow="2"
     inkscape:pageopacity="0.0"
     inkscape:pagecheckerboard="0"
     inkscape:deskcolor="#d1d1d1"
     showgrid="false"
     inkscape:zoom="34.875"
     inkscape:cx="11.985663"
     inkscape:cy="12.014337"
     inkscape:window-width="1920"
     inkscape:window-height="1017"
     inkscape:window-x="-8"
     inkscape:window-y="456"
     inkscape:window-maximized="1"
     inkscape:current-layer="svg37965" />
  <rect
     x="1.5"
     y="1.5"
     width="21"
     height="21"
     rx="1.5"
     fill="white"
     id="rect37959" />
  <rect
     x="1.5"
     y="1.5"
     width="21"
     height="21"
     rx="1.5"
     stroke="#5C4B7D"
     id="rect37961" />
  <rect
     x="5"
     y="5"
     width="14"
     height="14"
     rx="2"
     fill="#5C4B7D"
     id="rect37963" />
  <path
     style="fill:#a0892c;stroke:#a0892c;stroke-width:0.0286738"
     d="M 2.6401487,22.951034 C 1.8842805,22.801956 1.3033383,22.261793 1.0839616,21.504084 L 1.0179211,21.275986 V 12 c 0,-8.754644 0.00283,-9.2864608 0.050326,-9.4623656 C 1.2556756,1.8434961 1.7652853,1.3080185 2.437276,1.099113 L 2.6523297,1.0322581 H 12 21.34767 l 0.215054,0.066855 c 0.666163,0.2070939 1.154917,0.7115535 1.353314,1.3968029 l 0.06604,0.2280984 V 12 21.275986 l -0.06604,0.228098 c -0.196089,0.677278 -0.672172,1.173851 -1.338977,1.396606 l -0.200717,0.06705 -9.304659,0.0042 C 6.8700175,22.97424 2.7110775,22.96504 2.6401487,22.95107 Z M 21.471568,21.894563 c 0.219634,-0.119083 0.382403,-0.297042 0.470128,-0.514001 l 0.06547,-0.161924 V 12 2.781362 L 21.941696,2.6194382 C 21.853971,2.402479 21.691202,2.2245202 21.471568,2.1054374 L 21.290323,2.0071685 H 12 2.7096774 L 2.5284321,2.1054374 C 2.3087983,2.2245202 2.1460292,2.402479 2.0583039,2.6194382 L 1.9928315,2.781362 v 9.204301 c 0,8.858415 0.00198,9.20998 0.052679,9.355426 0.098806,0.283456 0.3389753,0.516497 0.6453624,0.626209 0.085695,0.03069 1.7924705,0.03644 9.3521381,0.03154 l 9.247312,-0.006 z"
     id="path37971" />
  <path
     style="fill:#a0892c;stroke:#a0892c;stroke-width:0.0286738"
     d="M 6.7250388,18.96481 C 5.9194056,18.846031 5.2766163,18.261656 5.0752473,17.464947 5.0189652,17.242269 5.0179211,17.142736 5.0179211,12 c 0,-5.1427363 0.00104,-5.2422692 0.057326,-5.4649473 C 5.2592532,5.8070398 5.7923055,5.2726033 6.5376344,5.068868 6.7130632,5.0209146 7.0340151,5.0179211 12,5.0179211 c 5.885678,0 5.400051,-0.016384 5.849462,0.1973541 0.504281,0.2398341 0.857636,0.6402433 1.040443,1.17899 l 0.07784,0.2293907 v 5.3620071 5.362007 l -0.06686,0.215054 c -0.169474,0.545149 -0.518833,0.956875 -1.022751,1.205327 -0.472566,0.232995 0.05757,0.213016 -5.777778,0.21775 -2.8703081,0.0023 -5.280998,-0.0071 -5.3753192,-0.02099 z"
     id="path37973" />
</svg>
