<?xml version="1.0" encoding="UTF-8" standalone="no"?>
<svg
   width="24"
   height="24"
   viewBox="0 0 24 24"
   version="1.1"
   id="svg30079"
   sodipodi:docname="ic-check-box-light.svg"
   inkscape:version="1.2.1 (9c6d41e410, 2022-07-14)"
   xmlns:inkscape="http://www.inkscape.org/namespaces/inkscape"
   xmlns:sodipodi="http://sodipodi.sourceforge.net/DTD/sodipodi-0.dtd"
   xmlns="http://www.w3.org/2000/svg"
   xmlns:svg="http://www.w3.org/2000/svg">
  <sodipodi:namedview
     id="namedview30081"
     pagecolor="#ffffff"
     bordercolor="#000000"
     borderopacity="0.25"
     inkscape:showpageshadow="2"
     inkscape:pageopacity="0.0"
     inkscape:pagecheckerboard="0"
     inkscape:deskcolor="#d1d1d1"
     showgrid="false"
     inkscape:zoom="34.875"
     inkscape:cx="11.985663"
     inkscape:cy="12.014337"
     inkscape:window-width="1920"
     inkscape:window-height="1017"
     inkscape:window-x="-8"
     inkscape:window-y="456"
     inkscape:window-maximized="1"
     inkscape:current-layer="svg30079" />
  <defs
     id="defs30074">
    <style
       type="text/css"
       id="style30072">
            .cls-1{fill:#807b8a;fill-rule:evenodd;opacity:.997}.cls-2{fill:none}
        </style>
  </defs>
  <g
     id="check_box"
     transform="translate(-420 -576)">
    <path
       id="checkbox"
       d="M22.556 5.444v17.112H5.444V5.444zm0-2.444H5.444A2.452 2.452 0 0 0 3 5.444v17.112A2.452 2.452 0 0 0 5.444 25h17.112A2.452 2.452 0 0 0 25 22.556V5.444A2.452 2.452 0 0 0 22.556 3z"
       class="cls-1"
       transform="translate(418 574)" />
    <path
       id="Rectangle_4539"
       d="M0 0h24v24H0z"
       class="cls-2"
       data-name="Rectangle 4539"
       transform="translate(420 576)" />
  </g>
  <path
     style="fill:#a0892c;stroke:#a0892c;stroke-width:0.0286738"
     d="M 2.9820789,22.939182 C 2.0626124,22.754145 1.3315468,22.053258 1.0827712,21.11828 l -0.06485,-0.243728 V 12 3.125448 l 0.06485,-0.2437276 C 1.3345776,1.9353507 2.0700983,1.238048 3.0061066,1.0583222 c 0.3152549,-0.0605331 17.6725324,-0.0605331 17.9877864,0 0.936009,0.1797258 1.671529,0.8770285 1.923336,1.8233982 l 0.06485,0.2437276 V 12 20.874552 l -0.06485,0.243728 c -0.25119,0.944051 -0.96394,1.623711 -1.907056,1.818517 -0.197145,0.04072 -1.10668,0.04501 -9.030469,0.04259 -7.1351905,-0.0022 -8.846698,-0.0098 -8.9976251,-0.0402 z M 20.55914,12 V 3.4265233 H 12 3.4408602 V 12 20.573477 H 12 20.55914 Z"
     id="path30083" />
</svg>
