<?xml version="1.0" encoding="UTF-8" standalone="no"?>
<svg
   id="ic_zpiv"
   width="24"
   height="24"
   viewBox="0 0 24 24"
   version="1.1"
   sodipodi:docname="ic-coin-zpiv.svg"
   inkscape:version="1.2.1 (9c6d41e410, 2022-07-14)"
   xmlns:inkscape="http://www.inkscape.org/namespaces/inkscape"
   xmlns:sodipodi="http://sodipodi.sourceforge.net/DTD/sodipodi-0.dtd"
   xmlns="http://www.w3.org/2000/svg"
   xmlns:svg="http://www.w3.org/2000/svg">
  <sodipodi:namedview
     id="namedview39695"
     pagecolor="#ffffff"
     bordercolor="#000000"
     borderopacity="0.25"
     inkscape:showpageshadow="2"
     inkscape:pageopacity="0.0"
     inkscape:pagecheckerboard="0"
     inkscape:deskcolor="#d1d1d1"
     showgrid="false"
     inkscape:zoom="34.875"
     inkscape:cx="11.985663"
     inkscape:cy="12.014337"
     inkscape:window-width="1920"
     inkscape:window-height="1017"
     inkscape:window-x="-8"
     inkscape:window-y="456"
     inkscape:window-maximized="1"
     inkscape:current-layer="ic_zpiv" />
  <defs
     id="defs39687">
    <style
       type="text/css"
       id="style39685">
            .cls-1{fill:#5c4b7d}.cls-2{fill:none}
        </style>
  </defs>
  <path
     id="Rectangle_4542"
     d="M0 0h24v24H0z"
     class="cls-2"
     data-name="Rectangle 4542" />
  <g
     id="g39562"
     transform="matrix(0.03953118,0,0,0.03953118,12.113539,12.016479)">
    <path
       class="b"
       d="m -105.1862,34.07686 c 0,-13.52 -10.69,-24.49 -23.87,-24.49 -13.18,0 -23.87,10.96 -23.87,24.49 0,0.37 0.01,0.74 0.03,1.1 h -0.03 v 113.89 c -0.06,0.68 -0.09,1.37 -0.09,2.06 0,13.52 10.69,24.49 23.87,24.49 13.18,0 23.87,-10.96 23.87,-24.49 0,-0.09 0,-0.18 0,-0.27 h 0.1 v -116.78 z"
       id="path39498"
       style="fill:#ae8422" />
    <path
       class="b"
       d="m 142.7638,33.63686 c 0,-13.52 -10.69,-24.49 -23.87,-24.49 -13.18,0 -23.87,10.96 -23.87,24.49 0,0.37 0.01,0.74 0.03,1.1 h -0.03 v 113.89 c -0.06,0.68 -0.09,1.37 -0.09,2.06 0,13.52 10.69,24.49 23.87,24.49 13.18,0 23.87,-10.96 23.87,-24.49 0,-0.09 0,-0.18 0,-0.27 h 0.1 v -116.78 z"
       id="path39500"
       style="fill:#ae8422" />
    <path
       class="b"
       d="m 17.7638,33.55686 c 0,-13.52 -10.69,-24.49 -23.87,-24.49 -13.18,0 -23.87,10.96 -23.87,24.49 0,0.07 0,0.15 0,0.22 h -0.1 v 202.83 c 0,13.52 10.68,24.49 23.87,24.49 13.19,0 23.87,-10.96 23.87,-24.49 0,-0.64 -0.03,-1.28 -0.08,-1.91 h 0.08 v -199.09 c 0.05,-0.68 0.09,-1.36 0.09,-2.05 z"
       id="path39502"
       style="fill:#ae8422" />
    <path
       class="b"
       d="m 93.8238,-256.84314 v 0 c -71.53,0 -99.09,55.12 -121.23,99.4 -22.66,45.34 -38.59,73.12 -78.7,73.12 v 0 c -34.46,0 -62.49,-28.04 -62.49,-62.5 0,-38.68 36.31,-62.82 62.49,-62.49 q 7.01,0.09 12.01,1.09 c 2.96,0.73 5,1 9,2 0.97,0.24 7,3 9,4 1.4,0.7 5.16,3.31 7.36,4.85 4.12,3.5 9.42,5.61 15.21,5.61 13.09,0 23.43,-11.18 23.43,-24.46 0,-8.75 -5,-15 -11.23,-20.2 -5.63,-4.93 -7.15,-5.67 -17.61,-10.58 0,0 -21.93,-9.85 -47.18,-9.85 -60.66,0.01 -110.02,49.36 -110.02,110.03 0,60.67 49.36,110.02 110.02,110.03 v 0 c 71.53,0 99.09,-55.1 121.23,-99.39 22.67,-45.33 38.59,-73.12 78.71,-73.12 v 0 c 34.46,0 62.49,28.03 62.49,62.49 0,34.46 -28.03,62.09 -62.49,62.49 -8.92,0.1 -14.92,-0.9 -14.92,-0.9 -8,-2 -17,-7 -19,-8 -2,-1 -5.92,-3 -6,-3 -2,-1 -8.11,-4 -13,-4 -12.94,0 -23,10.72 -23,24 0,7.08 5.12,13.62 9.87,18.02 0.05,0.11 1.1,0.91 1.13,0.98 0.47,0.35 -0.03,0.01 0.48,0.39 0.45,0.35 0.91,0.67 1.38,0.98 4.09,2.88 9.4,6.19 15.92,9.22 0,0 21.72,9.84 47.15,9.84 60.67,0 110.03,-49.36 110.03,-110.03 0,-60.67 -49.37,-110.02 -110.04,-110.02 z"
       id="path39504"
       style="fill:#ae8422" />
  </g>
</svg>
