<?xml version="1.0" encoding="UTF-8" standalone="no"?>
<!-- Generator: Adobe Illustrator 24.0.1, SVG Export Plug-In . SVG Version: 6.00 Build 0)  -->

<svg
   version="1.1"
   id="ic-transaction-staked"
   x="0px"
   y="0px"
   viewBox="0 0 24 24"
   style="enable-background:new 0 0 24 24;"
   xml:space="preserve"
   sodipodi:docname="ic-check-tor-off.svg"
   inkscape:version="1.2.1 (9c6d41e410, 2022-07-14)"
   xmlns:inkscape="http://www.inkscape.org/namespaces/inkscape"
   xmlns:sodipodi="http://sodipodi.sourceforge.net/DTD/sodipodi-0.dtd"
   xmlns="http://www.w3.org/2000/svg"
   xmlns:svg="http://www.w3.org/2000/svg"><defs
   id="defs37482" /><sodipodi:namedview
   id="namedview37480"
   pagecolor="#ffffff"
   bordercolor="#000000"
   borderopacity="0.25"
   inkscape:showpageshadow="2"
   inkscape:pageopacity="0.0"
   inkscape:pagecheckerboard="0"
   inkscape:deskcolor="#d1d1d1"
   showgrid="false"
   inkscape:zoom="34.875"
   inkscape:cx="11.985663"
   inkscape:cy="12.014337"
   inkscape:window-width="1920"
   inkscape:window-height="1017"
   inkscape:window-x="-8"
   inkscape:window-y="456"
   inkscape:window-maximized="1"
   inkscape:current-layer="ic-transaction-staked" />
<style
   type="text/css"
   id="style37468">
	.st0{fill:none;}
	.st1{fill:#7c7687;}
</style>
<path
   id="Rectangle_4527"
   class="st0"
   d="M0,0h24v24H0V0z" />
<g
   id="g37477">
	<g
   id="g37475">
		<path
   class="st1"
   d="M16.5,12c-0.7-0.6-1.6-1.1-2.5-1.6c-0.4-0.2-1.6-1.2-1.2-2.6l-0.9-0.1c1.2-1.9,2.9-3.9,4.9-5.7    c-1.6,0.5-2.9,1.3-4,2.8c0.6-1.3,1.6-2.5,2.7-3.8C14,2,12.7,3.3,11.9,4.9l0.6-2.3c-0.9,1.5-1.5,3.1-1.7,4.7L9.7,6.5L9.5,6.7    c1,1.9,0.5,2.9,0,3.2c-1,0.7-2.6,1.6-3.3,2.4c-1.5,1.5-1.9,2.9-1.7,4.8c0.1,2.4,1.9,4.4,4.2,5.2c1,0.3,2,0.4,3,0.4    c1.7,0,3.4-0.5,4.7-1.5c1.3-1.1,2.1-2.8,2.1-4.6C18.5,14.9,17.8,13.2,16.5,12z M9.9,7L9.9,7L9.9,7C9.9,7,9.9,7,9.9,7z M13.6,20.7    c-0.3,0.7-0.9,1.4-1.3,1.7c-0.2,0-0.5,0-0.7,0c-0.6,0-1.3-0.1-1.9-0.2c-0.7-0.2-1.2-0.5-1.6-1c0,0-0.1-0.1-0.1-0.1    c-0.7-0.8-1.5-2.1-1.9-3.3C6,17.4,5.9,17,6.1,16.5c0.6-2,1.8-2.7,3-3.6c0.3-0.2,0.6-0.3,0.9-0.5c0.5-0.4,0.8-1.5,1.1-2.4    c-0.1,0.7-0.3,2.1-1,2.6c-0.3,0.2-0.6,0.4-0.9,0.6c-1.2,0.8-2.4,1.5-2.9,3.4c-0.1,0.4,0,0.8,0.1,1.2c0.3,1.2,1.1,2.4,1.8,3.1    c0,0,0.1,0.1,0.1,0.1c0.4,0.5,0.6,0.7,1.6,1c-0.2-0.1-0.4-0.2-0.6-0.4c-1.1-0.8-1.7-1.8-1.8-3.2c-0.1-1.1,0.6-2.3,2-3    c0.9-0.5,1.2-1.2,1.5-2.1c-0.2,1-0.4,1.7-1.4,2.2c-1.1,0.7-2,2-1.9,2.9c0.1,1.1,0.9,2.3,1.7,3.1c0.4,0.4,1.1,0.6,1.8,0.7    c0,0,0,0,0,0c-0.2-0.1-0.5-0.3-0.7-0.6c-0.2-0.2-0.3-0.6-0.4-0.9C10,20.3,9.8,20,9.8,19.7c0-0.7,0.1-1.5,0.6-2.1    c0.4-0.5,0.6-0.6,0.8-1.1c0-1.7,0-3.2,0-4.5c0-1.4,0-2.5,0-3.2c0-0.7,0-1.1,0-1.1l0.1,0c0,0.2,0,0.7,0,1.5c0,0.8,0,1.9,0,3.3    c0,1.4,0,3,0,4.7c0,1.2,0,2.4,0,3.7c0,0.4,0,0.8,0,1.1c0,0,0,0,0,0c0.3-0.5,0.4-1.5,0.5-2.1c0-0.5,0.1-1,0-1.6    c-0.1-0.7-0.3-1.5-0.3-2c0.1,0.5,0.4,1.3,0.5,2c0.1,0.6,0.1,1.1,0.1,1.6c0,0.5-0.1,0.9-0.1,1.3c-0.1,0.3-0.3,0.7-0.6,1v0l0,0h0    c0,0,0,0,0,0c0,0,0,0,0,0c0,0,0,0,0,0c0.6-0.4,1-1.1,1.1-1.9c0.2-1,0.2-1.9,0.2-2.4c0-0.4-0.2-1.1-0.4-1.7c-0.1-0.5-0.6-1-0.7-1.3    c-0.2-0.6-0.1-1-0.1-1.9c0.1,0.8,0.1,1.4,0.3,1.7c0.2,0.3,0.4,0.7,0.6,1.2c0.3,0.8,0.5,1.7,0.5,2.1c0,0.7-0.1,1.8-0.3,2.6    c-0.1,0.3-0.2,0.5-0.3,0.8c0.2-0.4,0.4-0.9,0.5-1.3c0.3-1.5,0.6-3,0.4-3.9c0-0.2-0.1-0.9-0.4-1.7c-0.4-1.1-1-2-1.1-2.2    c-0.2-0.6-0.3-2.2-0.3-3c0,1,0.2,2.5,0.4,2.8c0.1,0.2,0.7,1.2,1.2,2.3c0.3,0.7,0.4,1.4,0.4,1.6c0.2,2,0,2.8-0.5,4.6    c-0.1,0.4-0.4,0.8-0.6,1.2c0.5-0.5,0.9-1.2,1-1.7c0.5-2.2,0.7-5.1,0-7.3c-0.4-1.1-1.3-2.1-1.5-2.8c-0.2-0.6-0.1-0.9-0.1-1.8    c0,1,0.3,1.7,0.4,2.1c0.1,0.2,0.9,1.2,1.3,2.3c0.3,0.7,0.6,2.5,0.6,2.6C14.3,17.2,14.2,19.1,13.6,20.7z"
   id="path37471" />
		<path
   class="st1"
   d="M11.2,16.5c-0.1,0.6-0.2,0.7-0.6,1.2c-0.5,0.8-0.6,1.5-0.5,2c0,0.3,0.2,0.6,0.3,0.8c0.1,0.3,0.3,0.6,0.5,0.9    c0.1,0.2,0.2,0.3,0.4,0.4c0-1.7,0-3.5,0-5.1C11.2,16.7,11.2,16.6,11.2,16.5z"
   id="path37473" />
	</g>
</g>
<path
   style="fill:#a0892c;stroke:#a0892c;stroke-width:0.0286738"
   d="M 11.182796,22.678517 C 9.6285485,22.575573 8.7771389,22.38339 7.880642,21.933142 6.4038441,21.19145 5.2834127,19.955015 4.7891362,18.521559 4.6377821,18.082616 4.5692759,17.736096 4.5167657,17.143846 4.3286907,15.022594 4.7627661,13.795322 6.2331746,12.290999 6.744509,11.767871 7.0466043,11.542276 8.7452731,10.415047 9.6598214,9.8081563 9.71137,9.7692212 9.8266454,9.5982839 10.223488,9.0098202 10.161233,8.0597781 9.6548141,6.9760711 L 9.5260258,6.700472 9.6160598,6.613233 9.7060938,6.525994 10.236314,6.9117422 c 0.29162,0.2121614 0.539762,0.3857482 0.551425,0.3857482 0.02406,0 0.02341,0.003 0.109541,-0.5017921 0.122715,-0.7191719 0.328867,-1.4366211 0.634415,-2.2078853 0.24963,-0.6301142 0.881144,-1.8913883 0.882947,-1.7634408 3.32e-4,0.023656 -0.115406,0.4869568 -0.257197,1.0295576 -0.141791,0.5426009 -0.257623,1.0071171 -0.257404,1.032258 2.29e-4,0.025141 0.06604,-0.076869 0.146278,-0.2266902 0.627221,-1.1712094 1.621824,-2.2847678 2.890948,-3.2367066 0.211912,-0.1589501 0.390677,-0.2836179 0.397256,-0.2770395 0.0066,0.00658 -0.115827,0.1643786 -0.272011,0.350667 -0.910889,1.0864629 -1.50545,1.8947116 -1.912475,2.5998261 -0.202136,0.3501726 -0.369221,0.6797909 -0.352874,0.6961379 0.0068,0.00677 0.111734,-0.1112989 0.23325,-0.2623788 0.859263,-1.0683158 1.927631,-1.841884 3.198979,-2.3162688 0.500254,-0.1866627 0.5144,-0.2125993 -0.344086,0.630886 -1.188015,1.1672552 -2.0849,2.1817839 -2.95694,3.344797 -0.424175,0.5657081 -1.028723,1.4473508 -1.028723,1.5002363 0,0.015203 0.158064,0.043414 0.351254,0.062691 0.19319,0.019277 0.391824,0.04213 0.441409,0.050784 0.08907,0.015544 0.08978,0.017 0.05908,0.1206391 -0.04482,0.1513342 -0.04131,0.7072852 0.0056,0.8913812 0.10751,0.4216439 0.359358,0.8466171 0.703962,1.1878835 0.236166,0.233878 0.348304,0.307995 1.177015,0.777943 1.035087,0.58698 1.647588,1.020154 2.094292,1.481128 1.217453,1.256344 1.873318,3.065737 1.734272,4.784491 -0.146209,1.8073 -1.092677,3.504077 -2.458195,4.40692 -0.948615,0.627198 -2.147631,1.044591 -3.396179,1.182256 -0.301718,0.03327 -1.177207,0.05945 -1.429387,0.04275 z m 1.460703,-0.578159 c 0.447535,-0.454803 0.82208,-1.004367 0.992486,-1.456254 0.191531,-0.50791 0.364814,-1.243966 0.462156,-1.9631 0.06573,-0.485612 0.07481,-2.161067 0.01469,-2.709678 -0.05951,-0.543012 -0.172884,-1.276552 -0.277302,-1.794207 C 13.53468,12.685672 13.260042,12.021898 12.42039,10.756865 12.117952,10.301207 12.111193,10.287351 11.991771,9.8781362 11.827651,9.3157543 11.758365,8.9545758 11.735994,8.5448029 c -0.02775,-0.5083484 -0.05954,-0.303666 -0.06288,0.4049256 -0.0026,0.555265 0.003,0.6288966 0.06806,0.8852126 0.09077,0.3578239 0.220881,0.6228519 0.61948,1.2618329 0.782609,1.254577 0.92188,1.561398 1.125845,2.480287 0.154772,0.697274 0.217671,1.293402 0.239008,2.265233 0.02831,1.289453 -0.0889,2.536101 -0.367771,3.911703 -0.104566,0.515793 -0.200915,0.791963 -0.394027,1.129419 -0.154501,0.269987 -0.48796,0.734503 -0.510844,0.711619 -0.0077,-0.0077 0.05801,-0.141021 0.145952,-0.29634 0.220124,-0.38877 0.274938,-0.53499 0.459974,-1.22701 0.329241,-1.231333 0.417916,-1.813483 0.417916,-2.743616 0,-1.115507 -0.103502,-1.917316 -0.333861,-2.586368 -0.12956,-0.376293 -0.514623,-1.166108 -1.01548,-2.082887 C 11.7532,11.973934 11.723032,11.907041 11.65747,11.616889 11.57057,11.232301 11.479878,10.54171 11.427249,9.8637993 l -0.04007,-0.516129 0.01368,0.4587813 c 0.02462,0.8258374 0.113698,1.7401714 0.215956,2.2166694 0.04762,0.221876 0.08891,0.320943 0.245024,0.587814 0.795594,1.36004 1.178338,2.392533 1.330726,3.589782 0.08866,0.696548 0.06305,1.258993 -0.103714,2.278198 -0.150542,0.920051 -0.396153,2.065629 -0.43462,2.027162 -0.0058,-0.0058 0.0219,-0.189832 0.06163,-0.408881 0.172528,-0.951171 0.234085,-2.033482 0.145851,-2.564387 -0.149099,-0.897128 -0.533724,-1.984726 -0.946558,-2.676564 -0.204554,-0.342796 -0.254716,-0.51463 -0.316271,-1.083412 -0.02616,-0.241725 -0.05722,-0.516919 -0.06903,-0.611543 l -0.02146,-0.172043 -0.02234,0.189555 c -0.01229,0.104255 -0.01646,0.465546 -0.0093,0.802867 0.01656,0.777902 0.03893,0.861944 0.359742,1.351721 0.312461,0.477022 0.35769,0.57068 0.508843,1.053707 0.283822,0.906981 0.306926,1.031807 0.32109,1.734767 0.01433,0.711031 -0.02995,1.299985 -0.150893,2.007168 -0.09654,0.564518 -0.140028,0.721065 -0.28953,1.042338 -0.138027,0.296615 -0.316772,0.561312 -0.49572,0.734091 -0.139657,0.134843 -0.149495,0.115689 -0.02988,-0.05817 0.04813,-0.06996 0.133398,-0.223815 0.189477,-0.341902 0.09376,-0.197438 0.106451,-0.256803 0.157767,-0.738183 0.04577,-0.429407 0.05357,-0.665184 0.04339,-1.31201 -0.01643,-1.043807 -0.05941,-1.293613 -0.476062,-2.767025 -0.107267,-0.379335 -0.113606,-0.393054 -0.115148,-0.24922 -0.002,0.182091 0.02485,0.367079 0.172232,1.188911 0.15252,0.850457 0.172358,1.099241 0.138672,1.739041 -0.04454,0.845905 -0.252863,2.035128 -0.422332,2.410874 l -0.0582,0.129032 -0.002,-7.103943 -0.002,-7.1039423 h -0.07169 -0.07168 v 4.4000843 c 0,3.404282 -0.0079,4.418236 -0.03505,4.480287 -0.07963,0.182194 -0.218267,0.375539 -0.526303,0.733969 -0.178902,0.20817 -0.379312,0.472841 -0.445355,0.588158 -0.2422494,0.422985 -0.3729009,0.983528 -0.3788625,1.625459 -0.00338,0.363955 -9.892e-4,0.379194 0.101241,0.645161 0.057587,0.149821 0.1690475,0.468275 0.2476905,0.707675 0.07864,0.239401 0.17715,0.493568 0.218904,0.564816 0.09747,0.166315 0.404574,0.49817 0.561847,0.607124 0.167719,0.11619 0.102085,0.119812 -0.31359,0.0173 C 9.9682354,21.909879 9.6367108,21.725926 9.2439888,21.309163 8.6307957,20.658433 8.1194472,19.843224 7.884404,19.141667 7.6380422,18.406326 7.6590778,17.953446 7.9690658,17.318996 c 0.1942343,-0.397537 0.449163,-0.746245 0.8194647,-1.120916 0.3435048,-0.347558 0.6091174,-0.556641 0.9952109,-0.783406 0.6098066,-0.35816 0.9346266,-0.833051 1.1254466,-1.645422 0.139711,-0.594785 0.130922,-0.595046 -0.09827,-0.0029 -0.33923,0.876419 -0.674554,1.251324 -1.581639,1.768332 -0.9368221,0.533957 -1.5741078,1.376169 -1.7184697,2.271063 -0.069218,0.429077 0.00525,1.13174 0.1771186,1.671232 0.2595748,0.814806 0.7047931,1.424761 1.5119785,2.071431 0.2066945,0.165591 0.3641434,0.305064 0.3498864,0.30994 -0.05131,0.01755 -0.4729442,-0.178314 -0.675485,-0.313782 -0.1137524,-0.07611 -0.269851,-0.21282 -0.346883,-0.303829 C 8.4503931,21.14973 8.2809847,20.962334 8.150962,20.824303 7.3064307,19.927753 6.6789053,18.820073 6.4035402,17.739831 6.2669574,17.204024 6.2484472,16.863873 6.3377297,16.530466 6.5489713,15.741628 6.9546619,15.042764 7.531001,14.474873 7.8727676,14.138117 8.3546271,13.778648 9.3774274,13.097432 10.276774,12.49844 10.384944,12.40255 10.573744,12.036917 c 0.21583,-0.417981 0.339893,-0.836433 0.465762,-1.570967 0.06913,-0.403439 0.08063,-0.5148096 0.04858,-0.4707291 -0.0048,0.00657 -0.08386,0.2442061 -0.17575,0.5280761 -0.309631,0.956569 -0.561709,1.496404 -0.822433,1.761273 -0.092975,0.09445 -0.253514,0.197653 -0.5347089,0.34373 -0.3102167,0.161153 -0.5480696,0.318178 -1.0431524,0.688664 -1.3952132,1.044081 -1.9447389,1.74608 -2.3808586,3.041459 -0.1411956,0.419384 -0.1495985,0.460612 -0.1490269,0.731183 0.00104,0.491491 0.1705935,1.022879 0.5992752,1.878136 0.612679,1.222347 1.488924,2.384977 2.1073593,2.796112 0.4041044,0.268648 0.8089336,0.41868 1.3613853,0.504538 0.654864,0.101774 1.045871,0.133751 1.675467,0.137019 l 0.614536,0.0032 z"
   id="path37484" /><path
   style="fill:#a0892c;stroke:#a0892c;stroke-width:0.0286738"
   d="m 11.165592,21.696708 c -0.256984,-0.186298 -0.977286,-1.517346 -1.042317,-1.926099 -0.04152,-0.260962 -0.03644,-0.696754 0.01069,-0.917562 0.08902,-0.417043 0.319021,-0.928733 0.552864,-1.229974 0.263057,-0.338876 0.356757,-0.497447 0.437807,-0.740918 0.04602,-0.138232 0.08438,-0.235202 0.08525,-0.215488 8.7e-4,0.01971 0.02094,0.03584 0.04459,0.03584 0.03791,0 0.04301,0.301075 0.04301,2.537634 0,1.395699 -0.0045,2.537635 -0.01004,2.537635 -0.0055,0 -0.06036,-0.03648 -0.121864,-0.08107 z"
   id="path37486" /></svg>
