<?xml version="1.0" encoding="UTF-8" standalone="no"?>
<svg
   width="22px"
   height="22px"
   viewBox="0 0 22 22"
   version="1.1"
   id="svg31359"
   sodipodi:docname="ic-check-liliac-indeterminate.svg"
   inkscape:version="1.2.1 (9c6d41e410, 2022-07-14)"
   xmlns:inkscape="http://www.inkscape.org/namespaces/inkscape"
   xmlns:sodipodi="http://sodipodi.sourceforge.net/DTD/sodipodi-0.dtd"
   xmlns="http://www.w3.org/2000/svg"
   xmlns:svg="http://www.w3.org/2000/svg">
  <defs
     id="defs31363" />
  <sodipodi:namedview
     id="namedview31361"
     pagecolor="#ffffff"
     bordercolor="#000000"
     borderopacity="0.25"
     inkscape:showpageshadow="2"
     inkscape:pageopacity="0.0"
     inkscape:pagecheckerboard="0"
     inkscape:deskcolor="#d1d1d1"
     showgrid="false"
     inkscape:zoom="38.045455"
     inkscape:cx="10.986858"
     inkscape:cy="11.013142"
     inkscape:window-width="1920"
     inkscape:window-height="1017"
     inkscape:window-x="-8"
     inkscape:window-y="456"
     inkscape:window-maximized="1"
     inkscape:current-layer="svg31359" />
  <!-- Generator: Sketch 54.1 (76490) - https://sketchapp.com -->
  <title
     id="title31350">ic-check-active</title>
  <desc
     id="desc31352">Created with Sketch.</desc>
  <g
     id="Page-1"
     stroke="none"
     stroke-width="1"
     fill="none"
     fill-rule="evenodd">
    <g
       id="ic-check-active"
       transform="translate(-1.000000, -1.000000)">
      <g
         id="Group_8199"
         transform="translate(1.000000, 1.000000)"
         fill="#B088FF">
        <path
           d="M19.556,0 L2.444,0 C1.09603898,0.0043907874 0.0043907874,1.09603898 4.4408921e-16,2.444 L4.4408921e-16,19.556 C0.0043907874,20.903961 1.09603898,21.9956092 2.444,22 L19.556,22 C20.903961,21.9956092 21.9956092,20.903961 22,19.556 L22,2.444 C21.9956092,1.09603898 20.903961,0.0043907874 19.556,0 Z M3,10 L19,10 L19,13 L3,13 L3,10 Z"
           id="check_on_light" />
      </g>
      <polygon
         id="Rectangle_4538"
         points="0 0 24 0 24 24 0 24" />
    </g>
  </g>
  <path
     style="fill:#a0892c;stroke:#a0892c;stroke-width:0.0262843"
     d="M 1.9713262,21.935977 C 0.90358179,21.710485 0.12974032,20.844391 0.0268829,19.759728 -0.01014904,19.369215 -0.01014904,2.6307855 0.0268829,2.2402724 0.13041736,1.1484697 0.90628569,0.28519034 1.9838984,0.06277529 2.2124046,0.01561251 2.540263,0.01383278 11,0.01383278 c 8.459737,0 8.787595,0.0017797 9.016102,0.04894251 1.001851,0.20677828 1.731442,0.95058501 1.936528,1.97426171 0.05056,0.2523548 0.05056,17.673571 0,17.925926 -0.204881,1.022654 -0.935678,1.76769 -1.936528,1.974262 -0.228598,0.04718 -0.55346,0.04889 -9.029244,0.04744 -8.3537542,-0.0014 -8.8032541,-0.0039 -9.0155318,-0.04869 z M 19.003584,11.499403 V 9.9749104 H 11 2.9964158 v 1.5244926 1.524492 H 11 19.003584 Z"
     id="path31365" />
</svg>
