<?xml version="1.0" encoding="UTF-8" standalone="no"?>
<svg
   width="24px"
   height="24px"
   viewBox="0 0 24 24"
   version="1.1"
   id="svg40021"
   sodipodi:docname="ic-copy.svg"
   inkscape:version="1.2.1 (9c6d41e410, 2022-07-14)"
   xmlns:inkscape="http://www.inkscape.org/namespaces/inkscape"
   xmlns:sodipodi="http://sodipodi.sourceforge.net/DTD/sodipodi-0.dtd"
   xmlns="http://www.w3.org/2000/svg"
   xmlns:svg="http://www.w3.org/2000/svg">
  <defs
     id="defs40025" />
  <sodipodi:namedview
     id="namedview40023"
     pagecolor="#ffffff"
     bordercolor="#000000"
     borderopacity="0.25"
     inkscape:showpageshadow="2"
     inkscape:pageopacity="0.0"
     inkscape:pagecheckerboard="0"
     inkscape:deskcolor="#d1d1d1"
     showgrid="false"
     inkscape:zoom="34.875"
     inkscape:cx="11.985663"
     inkscape:cy="12.014337"
     inkscape:window-width="1920"
     inkscape:window-height="1017"
     inkscape:window-x="-8"
     inkscape:window-y="456"
     inkscape:window-maximized="1"
     inkscape:current-layer="svg40021" />
  <!-- Generator: Sketch 55.2 (78181) - https://sketchapp.com -->
  <title
     id="title40010">Artboard</title>
  <desc
     id="desc40012">Created with Sketch.</desc>
  <g
     id="Artboard"
     stroke="none"
     stroke-width="1"
     fill="none"
     fill-rule="evenodd">
    <g
       id="ic-copy"
       transform="translate(2.000000, 2.000000)">
      <g
         id="Group_8993"
         transform="translate(3.000000, 2.000000)"
         fill="#5C4B7D"
         fill-rule="nonzero">
        <polygon
           id="Path_18959"
           points="2.5 13 0.5 13 0.5 0 10.5 0 10.5 2 2.5 2" />
      </g>
      <polygon
         id="Rectangle_4640"
         points="0 0 20 0 20 20 0 20" />
      <g
         id="Group_8994"
         transform="translate(6.000000, 5.000000)"
         fill="#5C4B7D"
         fill-rule="nonzero">
        <path
           d="M10.5,13 L0.5,13 L0.5,0 L10.5,0 L10.5,13 Z M2.5,11 L8.5,11 L8.5,2 L2.5,2 L2.5,11 Z"
           id="Path_18960" />
      </g>
    </g>
  </g>
  <path
     style="fill:#a0892c;stroke:#a0892c;stroke-width:0.0286738"
     d="M 5.5053763,10.494624 V 4 h 4.9892477 4.989247 v 0.9892473 0.9892473 h -4 -4 v 5.5053764 5.505376 H 6.4946237 5.5053763 Z"
     id="path40027" />
  <path
     style="fill:#a0892c;stroke:#a0892c;stroke-width:0.0286738"
     d="M 8.516129,13.505376 V 7.0107527 h 4.989247 4.989248 V 13.505376 20 H 13.505376 8.516129 Z m 8,0 V 8.9892473 h -3.010753 -3.010752 v 4.5161287 4.516129 h 3.010752 3.010753 z"
     id="path40029" />
</svg>
