<?xml version="1.0" encoding="UTF-8" standalone="no"?>
<svg
   width="24"
   height="24"
   viewBox="0 0 24 24"
   fill="none"
   version="1.1"
   id="svg38246"
   sodipodi:docname="ic-check-vote-active-dark.svg"
   inkscape:version="1.2.1 (9c6d41e410, 2022-07-14)"
   xmlns:inkscape="http://www.inkscape.org/namespaces/inkscape"
   xmlns:sodipodi="http://sodipodi.sourceforge.net/DTD/sodipodi-0.dtd"
   xmlns="http://www.w3.org/2000/svg"
   xmlns:svg="http://www.w3.org/2000/svg">
  <defs
     id="defs38250" />
  <sodipodi:namedview
     id="namedview38248"
     pagecolor="#ffffff"
     bordercolor="#000000"
     borderopacity="0.25"
     inkscape:showpageshadow="2"
     inkscape:pageopacity="0.0"
     inkscape:pagecheckerboard="0"
     inkscape:deskcolor="#d1d1d1"
     showgrid="false"
     inkscape:zoom="34.875"
     inkscape:cx="11.985663"
     inkscape:cy="12.014337"
     inkscape:window-width="1920"
     inkscape:window-height="1017"
     inkscape:window-x="-8"
     inkscape:window-y="456"
     inkscape:window-maximized="1"
     inkscape:current-layer="svg38246" />
  <rect
     x="1.5"
     y="1.5"
     width="21"
     height="21"
     rx="1.5"
     fill="#0F0B16"
     id="rect38240" />
  <rect
     x="1.5"
     y="1.5"
     width="21"
     height="21"
     rx="1.5"
     stroke="#B088FF"
     id="rect38242" />
  <rect
     x="5"
     y="5"
     width="14"
     height="14"
     rx="2"
     fill="#B088FF"
     id="rect38244" />
  <path
     style="fill:#a0892c;stroke:#a0892c;stroke-width:0.0286738"
     d="M 6.7250388,18.96481 C 5.9194056,18.846031 5.2766163,18.261656 5.0752473,17.464947 5.0189652,17.242269 5.0179211,17.142736 5.0179211,12 c 0,-5.1427363 0.00104,-5.2422692 0.057326,-5.4649473 C 5.2592532,5.8070398 5.7923055,5.2726033 6.5376344,5.068868 6.7130632,5.0209146 7.0340151,5.0179211 12,5.0179211 c 5.885678,0 5.400051,-0.016384 5.849462,0.1973541 0.504281,0.2398341 0.857636,0.6402433 1.040443,1.17899 l 0.07784,0.2293907 v 5.3620071 5.362007 l -0.06686,0.215054 c -0.169474,0.545149 -0.518833,0.956875 -1.022751,1.205327 -0.472566,0.232995 0.05757,0.213016 -5.777778,0.21775 -2.8703081,0.0023 -5.280998,-0.0071 -5.3753192,-0.02099 z"
     id="path38252" />
  <path
     style="fill:#a0892c;stroke:#a0892c;stroke-width:0.0286738"
     d="M 2.5911202,22.939396 C 1.8280679,22.772876 1.2117179,22.156652 1.0564278,21.405018 0.99992534,21.131535 0.99912945,2.8742965 1.0556078,2.5949821 1.1038634,2.356334 1.3080651,1.9360538 1.4712363,1.7395515 1.7224185,1.43706 2.0510832,1.2191709 2.437276,1.099113 L 2.6523297,1.032258 h 9.3620073 9.362007 l 0.229391,0.077837 c 0.53848,0.1827165 0.925185,0.5249614 1.175604,1.0404429 0.06895,0.1419355 0.142326,0.3419355 0.163053,0.4444445 0.05648,0.2793144 0.05568,18.5365526 -8.2e-4,18.8100356 -0.140235,0.678767 -0.659605,1.25318 -1.344201,1.486661 l -0.223027,0.07606 -9.304659,0.005 c -7.6802169,0.0041 -9.33537,-0.0017 -9.4805648,-0.03337 z M 21.471568,21.894563 c 0.219634,-0.119083 0.382403,-0.297042 0.470128,-0.514001 l 0.06547,-0.161924 V 12 2.781362 L 21.941696,2.6194382 C 21.853971,2.402479 21.691202,2.2245202 21.471568,2.1054374 L 21.290323,2.0071685 H 12 2.7096774 L 2.5284321,2.1054374 C 2.3087983,2.2245202 2.1460292,2.402479 2.0583039,2.6194382 L 1.9928315,2.781362 v 9.204301 c 0,8.858415 0.00198,9.20998 0.052679,9.355426 0.098806,0.283456 0.3389753,0.516497 0.6453624,0.626209 0.085695,0.03069 1.7924705,0.03644 9.3521381,0.03154 l 9.247312,-0.006 z"
     id="path38254" />
</svg>
