<?xml version="1.0" encoding="UTF-8" standalone="no"?>
<svg
   id="ic_staking_off"
   width="24"
   height="24"
   viewBox="0 0 24 24"
   shape-rendering="geometricPrecision"
   version="1.1"
   sodipodi:docname="ic-check-staking-off.svg"
   inkscape:version="1.2.1 (9c6d41e410, 2022-07-14)"
   xmlns:inkscape="http://www.inkscape.org/namespaces/inkscape"
   xmlns:sodipodi="http://sodipodi.sourceforge.net/DTD/sodipodi-0.dtd"
   xmlns="http://www.w3.org/2000/svg"
   xmlns:svg="http://www.w3.org/2000/svg">
  <sodipodi:namedview
     id="namedview36794"
     pagecolor="#ffffff"
     bordercolor="#000000"
     borderopacity="0.25"
     inkscape:showpageshadow="2"
     inkscape:pageopacity="0.0"
     inkscape:pagecheckerboard="0"
     inkscape:deskcolor="#d1d1d1"
     showgrid="false"
     inkscape:zoom="34.875"
     inkscape:cx="11.985663"
     inkscape:cy="12.014337"
     inkscape:window-width="1920"
     inkscape:window-height="1017"
     inkscape:window-x="-8"
     inkscape:window-y="456"
     inkscape:window-maximized="1"
     inkscape:current-layer="ic_staking_off" />
  <defs
     id="defs36789">
    <style
       type="text/css"
       id="style36787">
            .cls-1{fill:#7c7687}.cls-2{fill:none}
        </style>
  </defs>
  <path
     id="Path_18914"
     d="M18 6V4.854a3 3 0 0 0-5.964-.3L12 4.586l-.033-.033A3 3 0 0 0 6 5v1H2v6h2v10h16V12h2V6zm-4-.586V5a1 1 0 0 1 2 0v1h-2.586zM13 8v8h-2V8zM8 5a1 1 0 0 1 2 0v.414l.586.586H8zM4 8h5v2H4zm14 12H6v-8h3v6h6v-6h3zm2-10h-5V8h5z"
     class="cls-1"
     data-name="Path 18914" />
  <path
     id="Rectangle_4527"
     d="M0 0h24v24H0z"
     class="cls-2"
     data-name="Rectangle 4527" />
  <path
     style="fill:#a0892c;stroke:#a0892c;stroke-width:0.0286738"
     d="M 4.0143369,16.989247 V 12 H 3.0107527 2.0071685 V 9.0035842 6.0071685 H 4.0143369 6.0215054 V 5.3508378 c 0,-0.7022219 0.028075,-0.9412465 0.1539865,-1.3109842 0.2847355,-0.8361266 0.9644734,-1.53812 1.7799822,-1.8382609 0.4657465,-0.1714139 1.1041018,-0.2277113 1.5749173,-0.138894 1.1883016,0.2241679 2.0697936,1.067874 2.3791226,2.2771396 0.034,0.1329035 0.07471,0.2421841 0.09049,0.2428456 0.03103,0.0013 0.03425,-0.00785 0.142565,-0.4052521 0.268043,-0.9834454 1.028158,-1.7405655 2.068177,-2.0600275 0.236593,-0.072674 0.292853,-0.078508 0.771337,-0.079977 0.599413,-0.00184 0.813566,0.041282 1.265164,0.2547605 0.358823,0.1696216 0.586326,0.3289595 0.858968,0.6016014 0.272869,0.2728695 0.432249,0.5005235 0.601358,0.8589677 0.222881,0.4724172 0.247796,0.6133013 0.263045,1.4873866 l 0.01338,0.7670251 h 2.004418 2.004419 V 9.0035842 12 H 20.98925 19.985666 v 4.989247 4.989248 H 12 4.0143369 Z M 18.007168,16 v -4 h -1.505376 -1.505376 v 2.996416 2.996416 H 12 9.0035842 V 14.996416 12 H 7.4982079 5.9928315 v 4 4 H 12 18.007168 Z M 13.017921,12 V 7.9856631 H 12 10.982079 V 12 16.014337 H 12 13.017921 Z M 9.0035842,9.0035842 V 7.9856631 H 6.4946237 3.9856631 v 1.0179211 1.0179208 h 2.5089606 2.5089605 z m 11.0107528,0 V 7.9856631 h -2.508961 -2.50896 v 1.0179211 1.0179208 h 2.50896 2.508961 z M 10.317291,5.6989247 10.011904,5.390681 10.001572,5.0609319 C 9.9927309,4.7787507 9.9804023,4.7078209 9.9161087,4.5692341 9.8247653,4.37234 9.658829,4.2009443 9.4561763,4.0941692 9.3183131,4.0215309 9.2775286,4.0143369 9.0035842,4.0143369 c -0.2617365,0 -0.3198079,0.00921 -0.4444444,0.070458 -0.1832121,0.090039 -0.3843054,0.2911324 -0.4743447,0.4743446 -0.067545,0.1374427 -0.070835,0.1703347 -0.079565,0.7956989 l -0.00911,0.6523298 H 9.3094007 10.622678 Z M 15.99477,5.3548387 C 15.986025,4.7284569 15.982848,4.6968061 15.914894,4.5591398 15.82418,4.3753644 15.623501,4.1745533 15.44086,4.0847952 c -0.124636,-0.061252 -0.182708,-0.070458 -0.444444,-0.070458 -0.273947,0 -0.314729,0.00719 -0.452598,0.079835 -0.197005,0.1037991 -0.369171,0.2823452 -0.462178,0.4793045 -0.06414,0.1358319 -0.07573,0.2034431 -0.08356,0.4874552 l -0.0091,0.3297491 -0.305839,0.3082437 -0.305838,0.3082438 h 1.313277 1.313278 z"
     id="path36796" />
</svg>
