<?xml version="1.0" encoding="UTF-8" standalone="no"?>
<!-- Generator: Adobe Illustrator 23.1.1, SVG Export Plug-In . SVG Version: 6.00 Build 0)  -->

<svg
   version="1.1"
   id="ic-transaction-staked"
   x="0px"
   y="0px"
   viewBox="0 0 24 24"
   style="enable-background:new 0 0 24 24;"
   xml:space="preserve"
   sodipodi:docname="ic-check-cold-staking-off.svg"
   inkscape:version="1.2.1 (9c6d41e410, 2022-07-14)"
   xmlns:inkscape="http://www.inkscape.org/namespaces/inkscape"
   xmlns:sodipodi="http://sodipodi.sourceforge.net/DTD/sodipodi-0.dtd"
   xmlns="http://www.w3.org/2000/svg"
   xmlns:svg="http://www.w3.org/2000/svg"><defs
   id="defs30838" /><sodipodi:namedview
   id="namedview30836"
   pagecolor="#ffffff"
   bordercolor="#000000"
   borderopacity="0.25"
   inkscape:showpageshadow="2"
   inkscape:pageopacity="0.0"
   inkscape:pagecheckerboard="0"
   inkscape:deskcolor="#d1d1d1"
   showgrid="false"
   inkscape:zoom="34.875"
   inkscape:cx="11.985663"
   inkscape:cy="12.014337"
   inkscape:window-width="1920"
   inkscape:window-height="1017"
   inkscape:window-x="-8"
   inkscape:window-y="456"
   inkscape:window-maximized="1"
   inkscape:current-layer="ic-transaction-staked" />
<style
   type="text/css"
   id="style30829">
	.st0{fill:#7c7687;}
	.st1{fill:none;}
</style>
<path
   id="Path_18914"
   class="st0"
   d="M42.1,6V4.9C42,3.2,40.6,1.9,38.9,2c-1.4,0.1-2.6,1.1-2.8,2.6l0,0l0,0  c-0.2-1.6-1.8-2.8-3.4-2.5c-1.5,0.2-2.6,1.5-2.6,3v1h-4v6h2v10h16V12h2V6H42.1z M38.1,5.4V5c0-0.6,0.4-1,1-1c0.6,0,1,0.4,1,1v1h-2.6  L38.1,5.4z M37.1,8v8h-2V8H37.1z M32.1,5c0-0.6,0.4-1,1-1c0.6,0,1,0.4,1,1v0.4L34.7,6h-2.6V5z M28.1,8h5v2h-5V8z M42.1,20h-12v-8h3  v6h6v-6h3V20z M44.1,10h-5V8h5V10z" />
<path
   id="Rectangle_4527"
   class="st1"
   d="M0,0h24v24H0V0z" />
<path
   class="st0"
   d="M21.4,16.3l-2.8-1.5l2.5-0.6c0.5-0.1,0.7-0.6,0.6-1c-0.1-0.4-0.6-0.7-1-0.6l-4.2,1.1l-2.7-1.5l2.7-1.5l4.2,1.1  c0.1,0,0.1,0,0.2,0c0.4,0,0.7-0.2,0.8-0.6c0.1-0.4-0.1-0.9-0.6-1l-2.5-0.6l2.8-1.5c0.4-0.2,0.5-0.7,0.3-1.1  c-0.2-0.4-0.8-0.5-1.2-0.3L17.8,8l0.7-2.4c0.1-0.4-0.1-0.9-0.6-1c-0.5-0.1-0.9,0.1-1,0.6l-1.1,4l-2.7,1.5v-3L16,4.8  c0.3-0.3,0.3-0.8,0-1.2c-0.3-0.3-0.9-0.3-1.2,0l-1.8,1.8V2.3c0-0.5-0.4-0.8-0.9-0.8c-0.5,0-0.9,0.4-0.9,0.8v3.1L9.4,3.6  C9,3.3,8.5,3.3,8.2,3.6c-0.3,0.3-0.3,0.8,0,1.2l3.1,2.9v3L8.5,9.2l-1.1-4c-0.1-0.4-0.6-0.7-1-0.6c-0.5,0.1-0.7,0.6-0.6,1L6.4,8  L3.6,6.5C3.2,6.3,2.7,6.4,2.4,6.8C2.2,7.2,2.3,7.7,2.7,7.9l2.8,1.5L3,10.1c-0.5,0.1-0.7,0.6-0.6,1c0.1,0.4,0.4,0.6,0.8,0.6  c0.1,0,0.1,0,0.2,0l4.2-1.1l2.7,1.5l-2.7,1.5l-4.2-1.1c-0.5-0.1-0.9,0.1-1,0.6c-0.1,0.4,0.1,0.9,0.6,1l2.5,0.6l-2.8,1.5  c-0.4,0.2-0.5,0.7-0.3,1.1c0.2,0.3,0.4,0.4,0.7,0.4c0.1,0,0.3,0,0.4-0.1l2.8-1.5l-0.7,2.4c-0.1,0.4,0.1,0.9,0.6,1c0.1,0,0.1,0,0.2,0  c0.4,0,0.7-0.2,0.8-0.6l1.1-4l2.7-1.5v3l-3.1,2.9c-0.3,0.3-0.3,0.8,0,1.2c0.3,0.3,0.9,0.3,1.2,0l1.8-1.8v3.1c0,0.5,0.4,0.8,0.9,0.8  c0.5,0,0.9-0.4,0.9-0.8v-3.1l1.8,1.8c0.2,0.2,0.4,0.2,0.6,0.2c0.2,0,0.4-0.1,0.6-0.2c0.3-0.3,0.3-0.8,0-1.2l-3.1-2.9v-3l2.7,1.5  l1.1,4c0.1,0.4,0.4,0.6,0.8,0.6c0.1,0,0.1,0,0.2,0c0.5-0.1,0.7-0.6,0.6-1l-0.7-2.4l2.8,1.5c0.1,0.1,0.3,0.1,0.4,0.1  c0.3,0,0.6-0.1,0.7-0.4C22,17,21.8,16.5,21.4,16.3z"
   id="path30833" />
<path
   style="fill:#a0892c;stroke:#a0892c;stroke-width:0.0286738"
   d="m 11.452432,22.529952 c -0.203912,-0.07285 -0.366918,-0.211395 -0.453763,-0.385669 l -0.07394,-0.148374 v -1.657453 c 0,-0.911599 -0.0093,-1.657452 -0.02058,-1.657452 -0.01132,0 -0.459707,0.436742 -0.9964154,0.970538 l -0.975834,0.970538 -0.1854012,0.0506 c -0.4100792,0.11193 -0.7839636,-0.03437 -0.9466418,-0.37042 -0.148697,-0.307167 -0.1402262,-0.633374 0.022568,-0.869088 0.042469,-0.06149 0.7772172,-0.766355 1.6327727,-1.56636 l 1.5555557,-1.454556 v -1.520681 -1.52068 l -0.121864,0.07044 c -0.06703,0.03874 -0.676703,0.377627 -1.3548386,0.753072 -0.6781362,0.375446 -1.2357382,0.684295 -1.2391154,0.686332 -0.00338,0.002 -0.2519817,0.899863 -0.5524539,1.995172 -0.300472,1.095308 -0.567461,2.048777 -0.5933084,2.11882 -0.068676,0.186102 -0.2430108,0.361177 -0.4289096,0.43073 -0.1911346,0.07151 -0.5095595,0.07825 -0.6638362,0.01404 -0.2575234,-0.107176 -0.4650959,-0.430264 -0.464972,-0.723731 2.87e-5,-0.08827 0.1246016,-0.561584 0.3592115,-1.364922 0.1975352,-0.676388 0.3536312,-1.23532 0.3468803,-1.242071 -0.016605,-0.0166 -0.091744,0.02246 -1.6327764,0.848807 L 3.3223721,17.677419 H 3.1340468 c -0.2761821,0 -0.4018449,-0.04735 -0.5705265,-0.215 C 2.3757614,17.275814 2.309517,17.092806 2.3293571,16.815514 2.3443784,16.605573 2.4344205,16.409941 2.56234,16.30932 2.5996063,16.280006 3.2776172,15.909322 4.0690309,15.485578 4.8604446,15.061833 5.4977052,14.705581 5.4851653,14.693906 5.4726254,14.682231 4.9397849,14.548492 4.3010753,14.396708 2.8075849,14.041792 2.7896457,14.036324 2.6389872,13.890115 2.4727661,13.728803 2.3980761,13.55179 2.3980058,13.318996 c -1.597e-4,-0.529814 0.3486994,-0.871471 0.8400764,-0.822733 0.087872,0.0087 1.0966725,0.261913 2.2417787,0.562659 1.1451066,0.300747 2.0960846,0.546813 2.1132849,0.546813 0.058352,0 2.7321132,-1.499851 2.7091942,-1.519727 -0.05176,-0.04489 -2.6800639,-1.491026 -2.7098861,-1.491026 -0.017852,0 -0.9747036,0.246672 -2.1263366,0.548161 C 3.4563699,11.669279 3.3634925,11.690797 3.154555,11.678702 2.7578422,11.655737 2.5172712,11.459439 2.4198635,11.079219 2.3170529,10.677911 2.5241229,10.276732 2.8992855,10.150384 2.9684778,10.127081 3.5782637,9.9536562 4.2543655,9.7649947 4.9304672,9.5763332 5.4906822,9.414933 5.4992877,9.4063275 5.5205987,9.3850165 5.645629,9.4543957 4.0718575,8.61425 3.2913075,8.1975596 2.6086177,7.8180152 2.5547691,7.7708181 2.2736719,7.524443 2.240051,7.0124473 2.4860941,6.7250013 2.5994558,6.5925637 2.8820547,6.4450366 3.0709408,6.4196897 c 0.2596173,-0.034838 0.374676,0.015477 1.8770202,0.8208135 0.7939667,0.4256086 1.44895,0.7738337 1.4555189,0.7738337 0.00657,0 -0.1293575,-0.5645161 -0.3020577,-1.2544803 C 5.8302773,5.6765907 5.7891756,5.4818194 5.8002727,5.3327745 c 0.031734,-0.4262134 0.3528981,-0.730624 0.7708358,-0.730624 0.2736006,0 0.5893747,0.1791192 0.7251137,0.4113122 0.043484,0.074382 0.275387,0.8679532 0.6171808,2.1119853 0.3011381,1.0960574 0.554006,2.0142905 0.5619292,2.0405179 0.011601,0.038403 2.6062628,1.4565171 2.8006538,1.5306981 0.0474,0.01809 0.05018,-0.06442 0.05018,-1.4875062 V 7.7025027 L 9.7706093,6.2495002 C 8.3741718,4.945126 8.2048682,4.7774784 8.1154778,4.6105623 7.8802262,4.1712828 8.0139619,3.6652514 8.4170027,3.4696468 c 0.1756881,-0.085265 0.475918,-0.091215 0.68694,-0.013613 0.1610838,0.059238 0.2323546,0.1233284 1.1188423,1.0061258 0.52074,0.5185721 0.95582,0.9428582 0.966844,0.9428582 0.01103,0 0.02368,-0.7387097 0.02811,-1.641577 0.008,-1.6289366 0.0086,-1.6424851 0.07116,-1.7595001 0.08958,-0.1674331 0.32647,-0.3701982 0.504073,-0.4314522 0.09441,-0.032562 0.22622,-0.050756 0.356952,-0.049272 0.378813,0.0043 0.702944,0.2236033 0.79714,0.5393355 0.03494,0.1171167 0.04219,0.4163189 0.04219,1.7419355 0,0.8802919 0.0098,1.6005304 0.02167,1.6005304 0.01192,0 0.440951,-0.4202325 0.953405,-0.9338497 0.512454,-0.5136175 0.983347,-0.9619689 1.04643,-0.9963366 0.09498,-0.051743 0.161529,-0.0625 0.387096,-0.062566 0.251641,-7.45e-5 0.284421,0.00669 0.430108,0.088787 0.135442,0.07632 0.171874,0.1163921 0.258065,0.2838474 0.0918,0.1783595 0.100358,0.2160055 0.100358,0.4416001 0,0.1840098 -0.01395,0.275736 -0.05495,0.3613139 -0.03592,0.07498 -0.574558,0.6362544 -1.555556,1.6209334 l -1.500608,1.5062377 v 1.4973465 c 0,0.8235404 0.0094,1.4973454 0.02095,1.4973454 0.01152,0 0.627651,-0.33688 1.369175,-0.748622 L 15.81362,9.2124321 16.387097,7.116607 c 0.639905,-2.3385964 0.621221,-2.2883142 0.90603,-2.4382038 0.143952,-0.075759 0.173143,-0.080697 0.412966,-0.069858 0.381955,0.017263 0.595443,0.152531 0.733299,0.4646245 0.114695,0.2596605 0.09711,0.3604298 -0.298134,1.7081921 -0.196556,0.6702509 -0.353746,1.2225652 -0.349311,1.2273649 0.0044,0.0048 0.638545,-0.2946696 1.409133,-0.6654873 0.818893,-0.3940623 1.4652,-0.6879447 1.555405,-0.707258 0.304438,-0.065181 0.6451,0.036906 0.832109,0.2493595 0.139364,0.1583251 0.217116,0.4135742 0.190607,0.6257382 -0.02156,0.1725322 -0.152253,0.4169293 -0.265754,0.4969479 -0.04387,0.030925 -0.712013,0.3946234 -1.484773,0.8082191 -0.77276,0.4135954 -1.414842,0.7612204 -1.426849,0.7724998 -0.01201,0.011279 0.562186,0.160127 1.275985,0.330773 1.437256,0.3436001 1.522666,0.3742381 1.677356,0.6016801 0.119602,0.175852 0.160682,0.332548 0.143598,0.547745 -0.01557,0.19613 -0.09221,0.36669 -0.223997,0.498472 -0.132629,0.13263 -0.232222,0.174195 -0.494114,0.206217 l -0.235133,0.02875 -2.121864,-0.559786 -2.121864,-0.559785 -1.354839,0.751601 c -0.745161,0.41338 -1.354838,0.758217 -1.354838,0.766303 0,0.0081 0.609677,0.352671 1.354838,0.765744 l 1.354839,0.751042 2.121864,-0.557308 c 1.382827,-0.363199 2.171799,-0.557427 2.265233,-0.557653 0.27147,-6.57e-4 0.626765,0.22836 0.748975,0.482772 0.170457,0.354854 0.01,0.842795 -0.333205,1.013211 -0.10465,0.05196 -0.583788,0.179997 -1.424233,0.380573 -0.69659,0.166245 -1.27659,0.302264 -1.288889,0.302264 -0.05585,0 0.117593,0.09681 1.437137,0.802128 0.77276,0.413054 1.448821,0.785747 1.502358,0.828205 0.212354,0.168411 0.254265,0.396613 0.108047,0.588315 -0.0397,0.05205 -0.163445,0.142593 -0.274986,0.201207 -0.111542,0.05861 -0.202803,0.124791 -0.202803,0.147061 0,0.07175 -0.191446,0.23457 -0.332218,0.282536 -0.07698,0.02623 -0.228034,0.0466 -0.345511,0.0466 H 20.274829 L 18.933113,16.95761 c -0.737943,-0.395896 -1.40307,-0.75282 -1.47806,-0.793166 -0.07499,-0.04035 -0.142772,-0.06693 -0.150628,-0.05907 -0.0079,0.0079 0.147047,0.567522 0.34423,1.243702 0.236036,0.809418 0.358513,1.275948 0.358513,1.36562 0,0.294633 -0.207132,0.617475 -0.465028,0.724809 -0.137088,0.05705 -0.428969,0.05679 -0.622096,-5.62e-4 -0.177803,-0.0528 -0.372004,-0.218335 -0.442747,-0.377389 -0.02646,-0.05948 -0.299376,-1.023068 -0.60649,-2.141305 -0.307114,-1.118236 -0.561747,-2.035419 -0.565852,-2.038182 -0.0041,-0.0028 -0.562303,-0.312209 -1.240439,-0.687655 C 13.38638,13.818967 12.776703,13.480084 12.709677,13.44134 L 12.587814,13.3709 v 1.520009 1.520008 l 1.541218,1.441296 c 0.847671,0.792713 1.572355,1.486539 1.610409,1.541837 0.0821,0.119302 0.174537,0.401194 0.174537,0.532268 0,0.130519 -0.06952,0.347112 -0.148428,0.462417 -0.08455,0.123561 -0.40307,0.27131 -0.629538,0.292022 -0.08881,0.0081 -0.230749,-0.0014 -0.315412,-0.02118 -0.150295,-0.0351 -0.177001,-0.05891 -1.129767,-1.007258 -0.536709,-0.534222 -0.985096,-0.971311 -0.996416,-0.971311 -0.01132,0 -0.02058,0.733908 -0.02058,1.630907 0,1.824282 0.0092,1.736551 -0.207928,1.97216 -0.178537,0.193691 -0.359879,0.275525 -0.63795,0.287889 -0.169896,0.0076 -0.267292,-0.0033 -0.375525,-0.04201 z"
   id="path30840" /></svg>
