<?xml version="1.0" encoding="UTF-8" standalone="no"?>
<svg
   width="30px"
   height="22px"
   viewBox="0 0 30 22"
   version="1.1"
   id="svg38739"
   sodipodi:docname="ic-chevron-right-liliac.svg"
   inkscape:version="1.2.1 (9c6d41e410, 2022-07-14)"
   xmlns:inkscape="http://www.inkscape.org/namespaces/inkscape"
   xmlns:sodipodi="http://sodipodi.sourceforge.net/DTD/sodipodi-0.dtd"
   xmlns="http://www.w3.org/2000/svg"
   xmlns:svg="http://www.w3.org/2000/svg">
  <sodipodi:namedview
     id="namedview38741"
     pagecolor="#ffffff"
     bordercolor="#000000"
     borderopacity="0.25"
     inkscape:showpageshadow="2"
     inkscape:pageopacity="0.0"
     inkscape:pagecheckerboard="0"
     inkscape:deskcolor="#d1d1d1"
     showgrid="false"
     inkscape:zoom="38.045455"
     inkscape:cx="15.008363"
     inkscape:cy="11.013142"
     inkscape:window-width="1920"
     inkscape:window-height="1017"
     inkscape:window-x="-8"
     inkscape:window-y="456"
     inkscape:window-maximized="1"
     inkscape:current-layer="svg38739" />
  <defs
     id="defs38733">
    <style
       type="text/css"
       id="style38731">
            .cls-1{fill:#b088ff}.cls-2{fill:none}
        </style>
  </defs>
  <g
     id="ic_chevron_right"
     transform="rotate(-90 12 12)">
    <g
       id="Group_8822"
       data-name="Group 8822">
      <path
         id="Path_18879"
         d="M12 16.365L4.319 9.233l1.362-1.466L12 13.635l6.319-5.868 1.361 1.466z"
         class="cls-1"
         data-name="Path 18879" />
    </g>
    <path
       id="Rectangle_4407"
       d="M0 0h24v24H0z"
       class="cls-2"
       data-name="Rectangle 4407" />
  </g>
  <path
     style="fill:#a0892c;stroke:#a0892c;stroke-width:0.0262843"
     d="M 8.5029869,18.983605 C 8.1126643,18.619294 7.7951786,18.317024 7.7974632,18.311892 c 0.00228,-0.0051 1.3150029,-1.421208 2.9171518,-3.146834 1.602149,-1.725627 2.916038,-3.146928 2.919754,-3.158449 0.0037,-0.01152 -1.310189,-1.439138 -2.91979,-3.1724848 L 7.788032,5.682585 8.4968928,5.0228935 C 8.8867663,4.6600631 9.2138816,4.3600252 9.2238157,4.3561426 c 0.02132,-0.00833 7.0488793,7.5511294 7.0818203,7.6178304 0.01821,0.03686 -0.651176,0.770956 -3.519323,3.859549 -1.947992,2.097716 -3.5489693,3.813677 -3.5577266,3.813247 -0.00876,-4.3e-4 -0.335277,-0.298854 -0.7255995,-0.663164 z"
     id="path38743" />
</svg>
