<?xml version="1.0" encoding="UTF-8" standalone="no"?>
<svg
   width="21"
   height="20"
   viewBox="0 0 21 20"
   fill="none"
   version="1.1"
   id="svg40743"
   sodipodi:docname="ic-link-hover.svg"
   inkscape:version="1.2.1 (9c6d41e410, 2022-07-14)"
   xmlns:inkscape="http://www.inkscape.org/namespaces/inkscape"
   xmlns:sodipodi="http://sodipodi.sourceforge.net/DTD/sodipodi-0.dtd"
   xmlns="http://www.w3.org/2000/svg"
   xmlns:svg="http://www.w3.org/2000/svg">
  <defs
     id="defs40747" />
  <sodipodi:namedview
     id="namedview40745"
     pagecolor="#ffffff"
     bordercolor="#000000"
     borderopacity="0.25"
     inkscape:showpageshadow="2"
     inkscape:pageopacity="0.0"
     inkscape:pagecheckerboard="0"
     inkscape:deskcolor="#d1d1d1"
     showgrid="false"
     inkscape:zoom="41.85"
     inkscape:cx="10.489845"
     inkscape:cy="10.011947"
     inkscape:window-width="1920"
     inkscape:window-height="1017"
     inkscape:window-x="-8"
     inkscape:window-y="456"
     inkscape:window-maximized="1"
     inkscape:current-layer="svg40743" />
  <path
     d="M11.6846 2V3.41645H16.1567L6.5 12.9983L7.50921 14L17.0725 4.51018V8.84539H18.5V2H11.6846Z"
     fill="#5C4B7D"
     id="path40739" />
  <path
     d="M17.1284 11.3438V16.6284H3.87156V3.37156H9.26188V2H2.5V18H18.5V11.3438H17.1284Z"
     fill="#5C4B7D"
     id="path40741" />
  <path
     style="fill:#a0892c;stroke:#a0892c;stroke-width:0.0238949"
     d="m 7.0058842,13.481396 -0.484718,-0.485151 4.8287558,-4.7896397 4.828755,-4.7896399 -2.247045,-0.0061 -2.247044,-0.0061 V 2.711945 2.0191159 h 3.405018 3.405018 V 5.4241338 8.8291517 H 17.789725 17.084827 V 6.6646755 c 0,-1.1996456 -0.0092,-2.1609259 -0.02057,-2.1565113 -0.01131,0.00438 -2.162762,2.1343089 -4.781001,4.7331739 -2.6182399,2.5988649 -4.7676857,4.7252089 -4.7765468,4.7252089 -0.00886,0 -0.2342341,-0.218318 -0.500829,-0.485151 z"
     id="path40749" />
  <path
     style="fill:#a0892c;stroke:#a0892c;stroke-width:0.0238949"
     d="M 2.5089606,10 V 2.0191159 H 5.8781362 9.2473118 V 2.688172 3.3572282 H 6.5591398 3.8709677 V 10 16.642772 h 6.6308243 6.630824 v -2.640383 -2.640382 h 0.681004 0.681004 v 3.309439 3.309438 H 10.501792 2.5089606 Z"
     id="path40751" />
</svg>
