<?xml version="1.0" encoding="UTF-8" standalone="no"?>
<svg
   width="24px"
   height="24px"
   viewBox="0 0 24 24"
   version="1.1"
   id="svg40470"
   sodipodi:docname="ic-label.svg"
   inkscape:version="1.2.1 (9c6d41e410, 2022-07-14)"
   xmlns:inkscape="http://www.inkscape.org/namespaces/inkscape"
   xmlns:sodipodi="http://sodipodi.sourceforge.net/DTD/sodipodi-0.dtd"
   xmlns="http://www.w3.org/2000/svg"
   xmlns:svg="http://www.w3.org/2000/svg">
  <defs
     id="defs40474" />
  <sodipodi:namedview
     id="namedview40472"
     pagecolor="#ffffff"
     bordercolor="#000000"
     borderopacity="0.25"
     inkscape:showpageshadow="2"
     inkscape:pageopacity="0.0"
     inkscape:pagecheckerboard="0"
     inkscape:deskcolor="#d1d1d1"
     showgrid="false"
     inkscape:zoom="34.875"
     inkscape:cx="11.985663"
     inkscape:cy="12.014337"
     inkscape:window-width="1920"
     inkscape:window-height="1017"
     inkscape:window-x="-8"
     inkscape:window-y="456"
     inkscape:window-maximized="1"
     inkscape:current-layer="svg40470" />
  <!-- Generator: Sketch 55.2 (78181) - https://sketchapp.com -->
  <title
     id="title40461">Artboard</title>
  <desc
     id="desc40463">Created with Sketch.</desc>
  <g
     id="Artboard"
     stroke="none"
     stroke-width="1"
     fill="none"
     fill-rule="evenodd">
    <g
       id="ic-label"
       transform="translate(2.000000, 2.000000)">
      <g
         id="Group_8996"
         transform="translate(5.000000, 2.000000)"
         fill="#5C4B7D"
         fill-rule="nonzero">
        <path
           d="M10,16.414 L5,11.414 L0,16.414 L0,0 L10,0 L10,16.414 Z M5,8.586 L8,11.586 L8,2 L2,2 L2,11.586 L5,8.586 Z"
           id="Path_18961" />
      </g>
      <polygon
         id="Rectangle_4641"
         points="0 0 20 0 20 20 0 20" />
    </g>
  </g>
  <path
     style="fill:#a0892c;stroke:#a0892c;stroke-width:0.0286738"
     d="M 7.0250896,12.179149 V 4 H 12 16.97491 v 8.179149 8.179149 L 14.50173,17.885242 C 13.141481,16.525062 12.015703,15.412186 12,15.412186 c -0.0157,0 -1.141481,1.112876 -2.5017303,2.473056 l -2.4731801,2.473056 z m 3.4838714,1.91404 1.491244,-1.49104 1.490834,1.49104 c 0.819958,0.820072 1.500557,1.49104 1.512442,1.49104 0.01188,0 0.02161,-2.16129 0.02161,-4.802867 V 5.9784946 H 12 8.9749104 v 4.8028674 c 0,2.641577 0.00963,4.802867 0.021404,4.802867 0.011772,0 0.6924634,-0.670968 1.5126466,-1.49104 z"
     id="path40476" />
</svg>
