<?xml version="1.0" encoding="UTF-8" standalone="no"?>
<svg
   width="24px"
   height="40px"
   viewBox="0 0 24 40"
   version="1.1"
   id="svg42744"
   sodipodi:docname="ic-nav-dashboard-active.svg"
   inkscape:version="1.2.1 (9c6d41e410, 2022-07-14)"
   xmlns:inkscape="http://www.inkscape.org/namespaces/inkscape"
   xmlns:sodipodi="http://sodipodi.sourceforge.net/DTD/sodipodi-0.dtd"
   xmlns="http://www.w3.org/2000/svg"
   xmlns:svg="http://www.w3.org/2000/svg">
  <defs
     id="defs42748" />
  <sodipodi:namedview
     id="namedview42746"
     pagecolor="#ffffff"
     bordercolor="#000000"
     borderopacity="0.25"
     inkscape:showpageshadow="2"
     inkscape:pageopacity="0.0"
     inkscape:pagecheckerboard="0"
     inkscape:deskcolor="#d1d1d1"
     showgrid="false"
     inkscape:zoom="20.925"
     inkscape:cx="11.995221"
     inkscape:cy="20.023895"
     inkscape:window-width="1920"
     inkscape:window-height="1017"
     inkscape:window-x="-8"
     inkscape:window-y="456"
     inkscape:window-maximized="1"
     inkscape:current-layer="svg42744" />
  <!-- Generator: Sketch 52.6 (67491) - http://www.bohemiancoding.com/sketch -->
  <title
     id="title42732">Dashboard</title>
  <desc
     id="desc42734">Created with Sketch.</desc>
  <g
     id="Dashboard"
     stroke="none"
     stroke-width="1"
     fill="none"
     fill-rule="evenodd">
    <g
       id="Group"
       transform="translate(1.000000, 11.000000)"
       fill="#B088FF"
       fill-rule="nonzero">
      <g
         id="Group_8812">
        <path
           d="M10,8 L0,8 L0,0 L10,0 L10,8 Z M2,6 L8,6 L8,2 L2,2 L2,6 Z"
           id="Path_18866" />
      </g>
      <g
         id="Group_8813"
         transform="translate(12.000000, 0.000000)">
        <path
           d="M10,22 L0,22 L0,0 L10,0 L10,22 Z M2,20 L8,20 L8,2 L2,2 L2,20 Z"
           id="Path_18867" />
      </g>
      <g
         id="Group_8814"
         transform="translate(0.000000, 10.000000)">
        <path
           d="M10,12 L0,12 L0,0 L10,0 L10,12 Z M2,10 L8,10 L8,2 L2,2 L2,10 Z"
           id="Path_18868" />
      </g>
    </g>
  </g>
  <path
     style="fill:#a0892c;stroke:#a0892c;stroke-width:0.0477897"
     d="m 1.0035842,15.005974 v -3.990442 h 4.9940263 4.9940265 v 3.990442 3.990442 H 5.9976105 1.0035842 Z m 8.0286739,0 V 12.97491 H 5.9976105 2.962963 v 2.031064 2.031063 h 3.0346475 3.0346476 z"
     id="path42750" />
  <path
     style="fill:#a0892c;stroke:#a0892c;stroke-width:0.0477897"
     d="m 1.0035842,27.001195 v -5.997611 h 4.9940263 4.9940265 v 5.997611 5.99761 H 5.9976105 1.0035842 Z m 8.0286739,0 V 22.962963 H 5.9976105 2.962963 v 4.038232 4.038232 h 3.0346475 3.0346476 z"
     id="path42752" />
  <path
     style="fill:#a0892c;stroke:#a0892c;stroke-width:0.0477897"
     d="M 12.998805,22.007168 V 11.015532 h 4.994027 4.994026 v 10.991636 10.991637 h -4.994026 -4.994027 z m 8.028674,0 V 12.97491 h -3.034647 -3.034648 v 9.000398 c 0,4.95022 0.01434,9.014736 0.03186,9.032259 0.01752,0.01752 1.383114,0.03186 3.034648,0.03186 h 3.002787 z"
     id="path42754" />
</svg>
