<?xml version="1.0" encoding="UTF-8" standalone="no"?>
<svg
   width="24px"
   height="40px"
   viewBox="0 0 24 40"
   version="1.1"
   id="svg856"
   sodipodi:docname="ic-nav-send.svg"
   inkscape:version="1.2.1 (9c6d41e410, 2022-07-14)"
   xmlns:inkscape="http://www.inkscape.org/namespaces/inkscape"
   xmlns:sodipodi="http://sodipodi.sourceforge.net/DTD/sodipodi-0.dtd"
   xmlns="http://www.w3.org/2000/svg"
   xmlns:svg="http://www.w3.org/2000/svg">
  <defs
     id="defs860" />
  <sodipodi:namedview
     id="namedview858"
     pagecolor="#ffffff"
     bordercolor="#000000"
     borderopacity="0.25"
     inkscape:showpageshadow="2"
     inkscape:pageopacity="0.0"
     inkscape:pagecheckerboard="0"
     inkscape:deskcolor="#d1d1d1"
     showgrid="false"
     inkscape:zoom="20.35"
     inkscape:cx="11.990172"
     inkscape:cy="20"
     inkscape:window-width="1920"
     inkscape:window-height="1017"
     inkscape:window-x="-8"
     inkscape:window-y="456"
     inkscape:window-maximized="1"
     inkscape:current-layer="svg856" />
  <!-- Generator: Sketch 52.6 (67491) - http://www.bohemiancoding.com/sketch -->
  <title
     id="title845">Send Off Copy</title>
  <desc
     id="desc847">Created with Sketch.</desc>
  <g
     id="Send-Off-Copy"
     stroke="none"
     stroke-width="1"
     fill="none"
     fill-rule="evenodd">
    <g
       id="ic-send-off"
       transform="translate(0.000000, 11.000000)">
      <g
         id="Group_8811"
         transform="translate(0.000000, 1.000000)"
         fill="#938DA5">
        <polygon
           id="Path_18865"
           points="0.352 9.1 7.562 13.606 9.014 12.154 4.914 9.59 19.714 4.283 14.407 19.083 11.842 14.983 10.391 16.434 14.9 23.648 23.025 0.975" />
        <g
           id="Group_8810"
           transform="translate(8.000000, 8.000000)">
          <polygon
             id="Rectangle_4394"
             transform="translate(3.823718, 4.176339) rotate(-45.000000) translate(-3.823718, -4.176339) "
             points="-0.176282346 3.17633883 7.82371765 3.17633883 7.82371765 5.17633883 -0.176282346 5.17633883" />
        </g>
      </g>
      <polygon
         id="Rectangle_4395"
         points="1 0 27 0 27 26 1 26" />
    </g>
  </g>
  <path
     style="fill:#d3bc5f;stroke:#d3bc5f;stroke-width:0.04914"
     d="m 12.645944,32.001457 -2.21892,-3.549369 0.70592,-0.710378 c 0.388257,-0.390709 0.714223,-0.700291 0.72437,-0.687961 0.01015,0.01233 0.569374,0.904763 1.242729,1.983185 0.673355,1.078422 1.239664,1.984415 1.258465,2.013319 0.0188,0.0289 0.04652,0.04022 0.06159,0.02514 0.07955,-0.07955 5.311107,-14.785467 5.259854,-14.785467 -0.06777,0 -14.7251733,5.249967 -14.7629938,5.287788 -0.013575,0.01357 -0.00103,0.04006 0.02787,0.05886 0.028904,0.0188 0.9348972,0.58511 2.0133188,1.258465 1.0784222,0.673355 1.9708556,1.232583 1.9831853,1.242729 0.01233,0.01015 -0.2972521,0.336113 -0.6879607,0.72437 l -0.7103789,0.70592 -3.5471541,-2.21892 C 2.0449087,22.128735 0.46382763,21.115978 0.48232995,21.09857 0.53795141,21.046237 22.911062,13.042102 22.934949,13.06599 c 0.02627,0.02627 -8.009833,22.484773 -8.045514,22.48481 -0.01351,1.3e-5 -1.023084,-1.597191 -2.243491,-3.549343 z"
     id="path862" />
  <path
     style="fill:#d3bc5f;stroke:#d3bc5f;stroke-width:0.04914"
     d="m 9.0171464,27.002404 -0.6871955,-0.688513 2.8128301,-2.812831 2.812831,-2.81283 0.688014,0.688014 0.688014,0.688014 -2.813649,2.81333 -2.813649,2.813329 z"
     id="path864" />
</svg>
