<?xml version="1.0" encoding="UTF-8" standalone="no"?>
<svg
   width="24px"
   height="30px"
   viewBox="0 0 24 30"
   version="1.1"
   id="svg43795"
   sodipodi:docname="ic-nav-master.svg"
   inkscape:version="1.2.1 (9c6d41e410, 2022-07-14)"
   xmlns:inkscape="http://www.inkscape.org/namespaces/inkscape"
   xmlns:sodipodi="http://sodipodi.sourceforge.net/DTD/sodipodi-0.dtd"
   xmlns="http://www.w3.org/2000/svg"
   xmlns:svg="http://www.w3.org/2000/svg">
  <defs
     id="defs43799" />
  <sodipodi:namedview
     id="namedview43797"
     pagecolor="#ffffff"
     bordercolor="#000000"
     borderopacity="0.25"
     inkscape:showpageshadow="2"
     inkscape:pageopacity="0.0"
     inkscape:pagecheckerboard="0"
     inkscape:deskcolor="#d1d1d1"
     showgrid="false"
     inkscape:zoom="27.9"
     inkscape:cx="12.007168"
     inkscape:cy="23.655914"
     inkscape:window-width="1920"
     inkscape:window-height="1017"
     inkscape:window-x="-8"
     inkscape:window-y="456"
     inkscape:window-maximized="1"
     inkscape:current-layer="svg43795" />
  <!-- Generator: Sketch 52.6 (67491) - http://www.bohemiancoding.com/sketch -->
  <title
     id="title43787">Master Active</title>
  <desc
     id="desc43789">Created with Sketch.</desc>
  <g
     id="Master-Active"
     stroke="none"
     stroke-width="1"
     fill="none"
     fill-rule="evenodd">
    <g
       id="Group-2"
       transform="translate(1.000000, 7.000000)"
       fill="#938DA5">
      <path
         d="M20.4074761,15.3510563 C20.7959509,14.2693875 20.9932272,13.1283659 20.9904761,11.9790563 C20.9667232,7.59826215 18.1142387,3.73511844 13.9344761,2.42305633 C13.6586172,1.01541681 12.4248914,-1.77635684e-15 10.9904761,-1.77635684e-15 C9.55606085,-1.77635684e-15 8.32233506,1.01541681 8.04647613,2.42305633 C5.43779562,3.22781817 3.27120239,5.06352412 2.04895358,7.50462293 C0.82670477,9.94572175 0.654939474,12.7802304 1.57347613,15.3510563 C0.536977576,15.9091966 -0.0758995445,17.023265 0.00756246666,18.1975238 C0.0910244778,19.3717827 0.855312151,20.3879672 1.9603332,20.7938962 C3.06535425,21.1998251 4.30571331,20.9200466 5.12947613,20.0790563 C8.62508464,22.6157834 13.3558676,22.6157834 16.8514761,20.0790563 C17.6740128,20.9257556 18.9173887,21.2098999 20.0260559,20.8045316 C21.134723,20.3991634 21.9015673,19.380011 21.9839578,18.2024381 C22.0663484,17.0248652 21.4488936,15.9088583 20.4074761,15.3530563 L20.4074761,15.3510563 Z M10.9904761,1.97905633 C11.5427609,1.97905633 11.9904761,2.42677158 11.9904761,2.97905633 C11.9904761,3.53134108 11.5427609,3.97905633 10.9904761,3.97905633 C10.4381914,3.97905633 9.99047613,3.53134108 9.99047613,2.97905633 C9.99047613,2.42677158 10.4381914,1.97905633 10.9904761,1.97905633 Z M2.99047613,18.9790563 C2.43819138,18.9790563 1.99047613,18.5313411 1.99047613,17.9790563 C1.99047613,17.4267716 2.43819138,16.9790563 2.99047613,16.9790563 C3.54276088,16.9790563 3.99047613,17.4267716 3.99047613,17.9790563 C3.99047613,18.5313411 3.54276088,18.9790563 2.99047613,18.9790563 Z M10.9904761,19.9790563 C9.16167556,19.9774289 7.38886578,19.3480144 5.96847613,18.1960563 C5.96847613,18.1230563 5.99047613,18.0530563 5.99047613,17.9790563 C5.98962097,16.5625961 4.99815745,15.3397355 3.61247613,15.0460563 C2.75768623,13.0113046 2.7848975,10.7131993 3.68762691,8.69925797 C4.59035632,6.68531661 6.28777453,5.13586515 8.37547613,4.42005633 C8.89501726,5.37979995 9.89863255,5.97774055 10.9899761,5.97774055 C12.0813197,5.97774055 13.084935,5.37979995 13.6044761,4.42005633 C16.8161933,5.54917859 18.9719561,8.57469133 18.9904761,11.9790563 C18.9894629,13.0326108 18.7779916,14.0753477 18.3684761,15.0460563 C16.9827948,15.3397355 15.9913313,16.5625961 15.9904761,17.9790563 C15.9904761,18.0530563 16.0074761,18.1230563 16.0124761,18.1960563 C14.592167,19.3481579 12.8193047,19.9775911 10.9904761,19.9790563 Z M18.9904761,18.9790563 C18.4381914,18.9790563 17.9904761,18.5313411 17.9904761,17.9790563 C17.9904761,17.4267716 18.4381914,16.9790563 18.9904761,16.9790563 C19.5427609,16.9790563 19.9904761,17.4267716 19.9904761,17.9790563 C19.9904761,18.5313411 19.5427609,18.9790563 18.9904761,18.9790563 Z"
         id="Path_18873"
         fill-rule="nonzero" />
      <polygon
         id="Path_18874"
         points="15.9904761 15.9790563 15.9904761 7.62805633 10.9904761 11.6910563 5.99047613 7.62805633 5.99047613 15.9790563 7.99047613 15.9790563 7.99047613 11.8300563 10.9904761 14.2680563 13.9904761 11.8310563 13.9904761 15.9790563" />
    </g>
  </g>
  <path
     style="fill:#a0892c;stroke:#a0892c;stroke-width:0.0358423"
     d="M 11.577061,28.955798 C 10.521385,28.903842 9.4607462,28.687408 8.5035806,28.328621 7.7725312,28.054593 6.873767,27.584995 6.3344258,27.195254 6.2404029,27.12731 6.1436287,27.081348 6.119372,27.093114 6.095115,27.104884 5.9623656,27.203813 5.8243728,27.312963 4.1400601,28.645235 1.6478894,27.792335 1.1081582,25.698925 1.0206832,25.359643 1.0039713,24.739108 1.0734082,24.408602 1.233114,23.648433 1.749508,22.886331 2.3603691,22.509286 c 0.1211519,-0.07478 0.2202763,-0.143045 0.2202763,-0.151703 0,-0.0087 -0.055103,-0.197507 -0.1224509,-0.419668 C 2.1340135,20.868543 2.0273764,20.134616 2.0282005,18.978495 2.0290897,17.731057 2.147574,16.988472 2.5314609,15.824373 3.4877855,12.924412 5.8146007,10.55961 8.6884355,9.5668824 L 9.0589649,9.438888 9.1236573,9.1997307 C 9.3885269,8.2205518 10.177265,7.4355257 11.202485,7.1306862 11.61681,7.0074908 12.236447,6.9915834 12.65233,7.0934657 c 0.697548,0.1708842 1.34735,0.6016921 1.743436,1.1558705 0.184453,0.2580741 0.415052,0.7398791 0.480816,1.0046001 l 0.04617,0.185836 0.325364,0.1124745 c 3.312825,1.1452052 5.822633,4.0316822 6.522001,7.5008182 0.144414,0.716345 0.183372,1.139951 0.182025,1.979193 -0.0017,1.079107 -0.111827,1.836958 -0.413335,2.845238 -0.07889,0.263805 -0.13784,0.485236 -0.131007,0.492069 0.0068,0.0068 0.108197,0.07495 0.225252,0.15137 0.452863,0.295655 0.768756,0.654728 1.025939,1.166177 0.667387,1.327204 0.219736,2.960315 -1.03861,3.789038 -1.114696,0.734118 -2.565256,0.628824 -3.58779,-0.260433 -0.08656,-0.07528 -0.171197,-0.136864 -0.188089,-0.136864 -0.01689,0 -0.107363,0.05469 -0.201047,0.121535 -0.758385,0.541114 -1.884851,1.076384 -2.86389,1.360852 -0.988075,0.287094 -2.24344,0.441759 -3.202501,0.394558 z m 1.487455,-2.037799 c 1.372155,-0.191357 2.701462,-0.739047 3.749488,-1.544834 l 0.201102,-0.154618 0.01817,-0.422894 c 0.01424,-0.331253 0.03921,-0.485029 0.115237,-0.709631 0.324183,-0.957712 1.047853,-1.671242 1.980881,-1.953129 l 0.25843,-0.07808 0.108148,-0.280438 c 0.157068,-0.407289 0.308389,-0.969681 0.402104,-1.494434 0.07013,-0.392693 0.08198,-0.581077 0.08185,-1.301449 -1.79e-4,-0.896223 -0.03056,-1.163294 -0.218296,-1.917563 -0.566918,-2.277774 -2.101066,-4.194552 -4.200442,-5.248068 -0.358996,-0.180153 -0.8711,-0.397093 -0.937367,-0.397093 -0.01859,0 -0.09279,0.09274 -0.164871,0.206093 -0.169826,0.267045 -0.659886,0.746468 -0.919772,0.899807 -0.435586,0.257005 -0.884589,0.394013 -1.390919,0.42442 -0.576789,0.03464 -1.148197,-0.104802 -1.662025,-0.405586 C 10.165113,12.352526 9.7237486,11.932355 9.5212536,11.621861 9.4473296,11.50851 9.3706078,11.415768 9.3507608,11.415768 c -0.019847,0 -0.2165656,0.07371 -0.4371523,0.163795 -3.9825262,1.626457 -5.9574796,6.2128 -4.4083978,10.23742 l 0.092347,0.239924 0.2549832,0.07703 c 1.214334,0.366849 2.0925613,1.513608 2.1071057,2.751388 l 0.00392,0.333356 0.2010122,0.154503 c 0.5333491,0.409947 1.3623635,0.865387 2.0289692,1.114666 0.6532573,0.244287 1.57649,0.442556 2.311828,0.496476 0.321918,0.0236 1.174257,-0.01266 1.55914,-0.06633 z M 4.4281176,25.895286 c 0.1951523,-0.09447 0.3899021,-0.292399 0.489457,-0.497442 0.06024,-0.124071 0.079671,-0.226955 0.078522,-0.415765 -0.00254,-0.417363 -0.1906215,-0.72949 -0.5441998,-0.90312 -0.1697018,-0.08334 -0.2504198,-0.100323 -0.473402,-0.09963 -0.4106728,0.0013 -0.6990267,0.17524 -0.889746,0.536804 -0.079062,0.149885 -0.094645,0.226134 -0.095224,0.46595 -6.172e-4,0.255429 0.011461,0.308166 0.1106145,0.482979 0.1347891,0.23764 0.3061104,0.382515 0.5591211,0.472813 0.2309108,0.08241 0.5424884,0.06506 0.7648575,-0.04259 z m 15.8505334,0.05362 C 20.970705,25.743388 21.232575,24.868418 20.765384,24.32261 20.564155,24.087515 20.324615,23.980334 20,23.980139 c -0.435091,-2.51e-4 -0.748163,0.192283 -0.932797,0.573686 -0.101154,0.208956 -0.111479,0.60437 -0.02121,0.812224 0.118425,0.272679 0.39228,0.51505 0.665073,0.588612 0.2224,0.05997 0.350622,0.05867 0.567583,-0.0058 z M 12.483256,10.866671 C 13.051565,10.53362 13.178601,9.803222 12.752428,9.3190636 12.352334,8.8645332 11.642421,8.8552953 11.242037,9.2994092 11.046122,9.5167226 10.99061,9.6671099 10.990049,9.9820789 c -5.81e-4,0.3252791 0.105888,0.5652271 0.339534,0.7652201 0.213777,0.182985 0.392034,0.239114 0.717614,0.225959 0.218263,-0.0088 0.305698,-0.03019 0.436059,-0.106587 z"
     id="path43801" />
  <path
     style="fill:#a0892c;stroke:#a0892c;stroke-width:0.0358423"
     d="m 7.0250896,18.832139 c 0,-2.340819 0.013558,-4.119684 0.031347,-4.112904 0.017241,0.0066 1.1224799,0.899045 2.4560861,1.983274 1.3336053,1.084229 2.4445003,1.975518 2.4686523,1.98064 0.02415,0.0051 1.155237,-0.894071 2.513522,-1.998208 1.358283,-1.104137 2.475218,-2.007522 2.482078,-2.007522 0.0069,0 0.01247,1.862904 0.01247,4.139785 v 4.139785 H 16.003582 15.01792 v -2.060932 c 0,-1.182192 -0.01362,-2.060932 -0.03194,-2.060932 -0.01757,0 -0.697057,0.540579 -1.509978,1.201286 -0.952567,0.774205 -1.492331,1.190465 -1.51824,1.17085 -0.02211,-0.01674 -0.689758,-0.557319 -1.483662,-1.201286 -0.7939036,-0.643967 -1.4592262,-1.17085 -1.4784942,-1.17085 -0.022409,0 -0.035033,0.74262 -0.035033,2.060932 v 2.060932 H 7.9928315 7.0250896 Z"
     id="path43803" />
  <path
     style="fill:#d3bc5f;stroke:#d3bc5f;stroke-width:0.0358423"
     d="m 11.719893,28.967041 c -0.01015,-0.01072 -0.179507,-0.03028 -0.376344,-0.04347 -0.196837,-0.01319 -0.406273,-0.02955 -0.465413,-0.03635 -0.250379,-0.02881 -0.414582,-0.05161 -0.52623,-0.0731 -0.06541,-0.01258 -0.155178,-0.02953 -0.19948,-0.03766 -0.2091156,-0.03836 -0.4057464,-0.07851 -0.4929278,-0.10063 -0.019713,-0.005 -0.060036,-0.01913 -0.089606,-0.03139 -0.02957,-0.01226 -0.1021506,-0.03168 -0.1612903,-0.04314 -0.1185578,-0.02298 -0.1533291,-0.0323 -0.232975,-0.06243 -0.080179,-0.03033 -0.2487656,-0.06484 -0.2631473,-0.05385 -0.00692,0.0053 -0.035214,-0.0085 -0.062885,-0.03053 C 8.8219236,28.432421 8.734767,28.395001 8.655914,28.371351 8.4977437,28.323901 8.3795599,28.276711 8.2437276,28.206788 8.1944446,28.181418 8.1414609,28.160348 8.125986,28.159978 8.054583,28.158278 7.5283731,27.899802 7.1471703,27.67921 6.9853545,27.58557 6.8407921,27.50896 6.8259204,27.50896 c -0.014872,0 -0.079905,-0.04032 -0.1445186,-0.08961 -0.064614,-0.04928 -0.1272943,-0.08961 -0.1392903,-0.08961 -0.011996,0 -0.054142,-0.03012 -0.093657,-0.06693 C 6.4089395,27.226 6.3227148,27.16685 6.2568445,27.131378 L 6.13708,27.066878 5.8472821,27.287915 c -0.1593885,0.121571 -0.2998383,0.221038 -0.3121107,0.221038 -0.012272,0 -0.065126,0.02958 -0.1174523,0.06573 -0.089388,0.06176 -0.546514,0.243327 -0.7044578,0.279809 -0.039427,0.0091 -0.1120071,0.02685 -0.1612903,0.03942 -0.1272713,0.03247 -1.0003192,0.03041 -1.1290322,-0.0027 -0.05914,-0.0152 -0.1236559,-0.0317 -0.1433692,-0.03667 C 2.6511096,27.696212 2.0466171,27.308727 1.6845878,26.832187 1.6353047,26.767315 1.578853,26.694789 1.5591398,26.671018 1.4557981,26.546402 1.1909551,26.009672 1.164854,25.871959 c -0.00683,-0.03603 -0.014884,-0.06551 -0.017901,-0.06551 -0.00705,0 -0.026323,-0.07552 -0.059466,-0.232975 -0.034623,-0.164485 -0.034361,-1.062683 3.512e-4,-1.200717 0.014872,-0.05914 0.033023,-0.131721 0.040335,-0.16129 0.00731,-0.02957 0.016546,-0.0578 0.020518,-0.06272 0.00397,-0.0049 0.011255,-0.02509 0.016183,-0.0448 0.00493,-0.01971 0.012993,-0.04391 0.017921,-0.05376 0.00493,-0.0099 0.011995,-0.03002 0.015703,-0.0448 0.00607,-0.02418 0.1527282,-0.317563 0.3269986,-0.654122 0.063186,-0.122027 0.6526715,-0.752688 0.7035458,-0.752688 0.061152,0 0.3516018,-0.225112 0.3516018,-0.272508 0,-0.02881 -0.023371,-0.108308 -0.051935,-0.176672 -0.028564,-0.06836 -0.044477,-0.124296 -0.035361,-0.124296 0.00912,0 -0.00714,-0.05674 -0.036114,-0.126099 -0.028978,-0.06935 -0.053388,-0.13387 -0.054244,-0.143369 -8.563e-4,-0.0095 -0.00279,-0.0213 -0.0043,-0.02623 -0.00991,-0.03239 -0.032431,-0.132194 -0.050545,-0.224015 -0.011667,-0.05914 -0.03169,-0.139785 -0.044497,-0.179211 -0.035265,-0.108565 -0.041071,-0.133027 -0.063811,-0.268817 -0.011554,-0.069 -0.03017,-0.149642 -0.041369,-0.179212 -0.011199,-0.02957 -0.026095,-0.09409 -0.033103,-0.143369 -0.03284,-0.230933 -0.050078,-0.356614 -0.076199,-0.555556 -0.036908,-0.281104 -0.034284,-2.119121 0.00345,-2.419354 0.016106,-0.128137 0.034958,-0.281362 0.041892,-0.340502 0.012085,-0.10306 0.019204,-0.139762 0.06605,-0.340502 0.011501,-0.04928 0.028317,-0.129928 0.037368,-0.179211 0.00905,-0.04928 0.025348,-0.125896 0.036215,-0.170251 0.010867,-0.04435 0.026909,-0.112964 0.035648,-0.152465 0.00874,-0.0395 0.024026,-0.08498 0.033972,-0.101078 0.00995,-0.01609 0.025713,-0.06845 0.035038,-0.116352 0.00933,-0.0479 0.04171,-0.155643 0.071965,-0.239424 0.030255,-0.08378 0.045686,-0.15233 0.03429,-0.15233 -0.011396,0 -6.409e-4,-0.02419 0.0239,-0.05376 0.024541,-0.02957 0.032605,-0.05376 0.017921,-0.05376 -0.014684,0 -0.00662,-0.02419 0.017921,-0.05376 0.024541,-0.02957 0.032605,-0.05376 0.017921,-0.05376 -0.014684,0 -0.00997,-0.02016 0.010485,-0.0448 0.020451,-0.02464 0.040487,-0.06093 0.044525,-0.08064 0.00404,-0.01971 0.02314,-0.07616 0.042449,-0.125448 0.019309,-0.04928 0.038314,-0.105735 0.042233,-0.125448 0.00392,-0.01971 0.029236,-0.07616 0.056261,-0.125448 0.027025,-0.04928 0.046083,-0.09381 0.042353,-0.09894 -0.00373,-0.0051 0.018064,-0.05739 0.048433,-0.116112 0.030369,-0.05873 0.057533,-0.119041 0.060366,-0.134033 0.0079,-0.04181 0.3129055,-0.649877 0.4271764,-0.85163 0.055827,-0.09857 0.1119784,-0.207437 0.1247809,-0.241935 0.012802,-0.0345 0.037525,-0.06272 0.054939,-0.06272 0.017414,0 0.031662,-0.01607 0.031662,-0.03571 0,-0.01964 0.080645,-0.148732 0.1792115,-0.286868 0.098566,-0.138135 0.1792114,-0.267226 0.1792114,-0.286868 0,-0.01964 0.015042,-0.03571 0.033427,-0.03571 0.018385,0 0.042536,-0.02823 0.05367,-0.06272 0.011134,-0.0345 0.06464,-0.111266 0.1189028,-0.170596 0.054263,-0.05933 0.1792892,-0.204491 0.2778361,-0.322581 0.2310514,-0.27687 0.9872934,-1.033207 1.218197,-1.218349 0.098304,-0.07882 0.2757236,-0.215396 0.3942652,-0.303498 0.1185416,-0.0881 0.2235946,-0.168793 0.2334512,-0.179313 0.024235,-0.02587 0.4301305,-0.29421 0.5197133,-0.343591 0.039426,-0.02173 0.2249104,-0.127425 0.4121864,-0.234871 0.3277186,-0.188022 0.5141846,-0.2826762 0.860215,-0.4366644 0.08871,-0.039477 0.1892972,-0.085513 0.223528,-0.1023032 0.034231,-0.01679 0.077535,-0.030527 0.096233,-0.030527 0.018698,0 0.0794,-0.01881 0.1348949,-0.041799 0.055495,-0.02299 0.1089642,-0.043398 0.1188208,-0.045352 0.00986,-0.00195 0.03405,-0.012915 0.053763,-0.024359 0.019713,-0.011444 0.1128706,-0.041635 0.2070165,-0.067092 0.1661516,-0.044927 0.2102856,-0.077565 0.2310437,-0.1708601 0.00548,-0.024641 0.014454,-0.064964 0.019937,-0.089606 0.00548,-0.024642 0.019382,-0.060932 0.030887,-0.080645 0.011505,-0.019713 0.032081,-0.084229 0.045725,-0.1433691 0.028845,-0.1250291 0.2412434,-0.567842 0.2808033,-0.5854242 0.014785,-0.00657 0.026882,-0.027439 0.026882,-0.046373 0,-0.039796 0.313895,-0.4235486 0.4484391,-0.5482396 0.050106,-0.046437 0.1470151,-0.1225066 0.2153521,-0.1690432 0.06834,-0.046537 0.12436,-0.096709 0.124495,-0.1114935 1.43e-4,-0.014785 0.01715,-0.026882 0.03781,-0.026882 0.02066,0 0.125811,-0.056452 0.23367,-0.1254481 0.107859,-0.068996 0.202808,-0.125448 0.210999,-0.125448 0.0082,0 0.0603,-0.01881 0.115791,-0.0418 0.0555,-0.02299 0.112997,-0.045167 0.127782,-0.049283 0.01478,-0.00412 0.03495,-0.011516 0.0448,-0.016444 0.0099,-0.00493 0.03405,-0.012993 0.05376,-0.017921 0.01971,-0.00493 0.03988,-0.012211 0.0448,-0.016183 0.0092,-0.0074 0.04901,-0.017841 0.206093,-0.054038 0.17035,-0.039254 0.377461,-0.055986 0.663083,-0.05357 0.439365,0.00372 0.565831,0.022304 0.842294,0.1237904 0.08871,0.032564 0.189126,0.065046 0.223147,0.072182 0.03402,0.00714 0.159886,0.070427 0.279698,0.1406469 0.119813,0.07022 0.226194,0.1276729 0.236402,0.1276729 0.01021,0 0.04021,0.020161 0.06667,0.044803 0.02646,0.024642 0.09737,0.082493 0.15757,0.1285591 0.172029,0.1316293 0.577732,0.5543802 0.577732,0.6020085 0,0.023666 0.0121,0.048405 0.02688,0.054976 0.06562,0.029164 0.426817,0.8289873 0.442425,0.9796893 0.01,0.096425 0.0806,0.1552651 0.237129,0.1975946 0.09443,0.025538 0.187829,0.055795 0.207543,0.067239 0.01971,0.011444 0.04391,0.022406 0.05376,0.024359 0.0099,0.00195 0.06631,0.023794 0.125448,0.048535 0.05914,0.02474 0.133925,0.050337 0.16619,0.056881 0.03226,0.00654 0.08872,0.028277 0.125448,0.048296 0.03673,0.020019 0.163559,0.078778 0.281839,0.1305756 0.118279,0.051798 0.263441,0.1191221 0.32258,0.1496101 0.248228,0.127966 0.497946,0.265363 0.534399,0.294032 0.02149,0.0169 0.13551,0.08379 0.253372,0.148647 0.117862,0.06485 0.23437,0.13799 0.258907,0.162526 0.02454,0.02454 0.105523,0.08102 0.17997,0.125512 0.07445,0.04449 0.175682,0.117013 0.224965,0.16115 0.04928,0.04414 0.154122,0.123384 0.232975,0.176103 0.288136,0.19264 0.981626,0.85045 1.362007,1.291932 0.11828,0.137279 0.231183,0.267372 0.250897,0.289097 0.01971,0.02172 0.07616,0.09299 0.125448,0.158377 0.04928,0.06538 0.109767,0.139367 0.134408,0.164406 0.02464,0.02504 0.0448,0.0559 0.0448,0.06857 0,0.01267 0.02016,0.04552 0.0448,0.073 0.09639,0.107487 0.134408,0.157803 0.134408,0.177895 0,0.01152 0.01709,0.04043 0.03797,0.06424 0.02088,0.02381 0.0733,0.09869 0.116488,0.166397 0.04319,0.06771 0.105577,0.164484 0.138648,0.215054 0.105963,0.162038 0.582624,1.091181 0.690731,1.346427 0.110936,0.261927 0.153366,0.366982 0.180948,0.448029 0.0034,0.0099 0.02608,0.06631 0.05051,0.125448 0.02442,0.05914 0.05357,0.155914 0.06476,0.215053 0.0112,0.05914 0.03339,0.124316 0.04932,0.144835 0.01593,0.02052 0.03856,0.09174 0.05028,0.158274 0.01172,0.06653 0.02959,0.13436 0.03971,0.150729 0.01012,0.01637 0.02555,0.06208 0.03428,0.101583 0.0087,0.0395 0.02395,0.104078 0.03381,0.143504 0.02668,0.106709 0.05237,0.222008 0.07189,0.322581 0.02868,0.147792 0.05189,0.263695 0.07175,0.358423 0.01033,0.04928 0.02788,0.154122 0.03899,0.232975 0.01111,0.07885 0.02645,0.183691 0.03409,0.232975 0.03466,0.223526 0.0548,0.713579 0.05303,1.290322 -0.0019,0.612436 -0.01119,0.818199 -0.05186,1.146954 -0.05105,0.41267 -0.111174,0.755931 -0.182048,1.039426 l -0.03584,0.143369 c -0.02838,0.113497 -0.05684,0.228414 -0.07104,0.286739 -0.0072,0.02957 -0.01555,0.05376 -0.01857,0.05376 -0.0057,0 -0.01877,0.04966 -0.04964,0.188307 -0.0099,0.04443 -0.02612,0.09395 -0.03607,0.110038 -0.0221,0.03576 -0.06199,0.213358 -0.06983,0.3109 -0.0035,0.04341 0.02601,0.08557 0.07489,0.107065 0.04435,0.0195 0.08065,0.04776 0.08065,0.0628 0,0.01504 0.02419,0.02734 0.05376,0.02734 0.02957,0 0.05376,0.01366 0.05376,0.03036 0,0.0167 0.03131,0.04493 0.06959,0.06272 0.08394,0.03904 0.461186,0.395555 0.548256,0.518141 0.224231,0.315694 0.273335,0.393092 0.351254,0.553644 0.04784,0.09857 0.08792,0.187276 0.08908,0.197133 0.0012,0.0099 0.03285,0.106631 0.07043,0.215054 0.03757,0.108423 0.07312,0.221326 0.07898,0.250896 0.07713,0.388921 0.07372,0.929544 -0.0081,1.290322 -0.01118,0.04928 -0.02841,0.128798 -0.03828,0.1767 -0.0099,0.0479 -0.02896,0.104354 -0.04242,0.125448 -0.01345,0.02109 -0.0261,0.04642 -0.02811,0.05627 -0.02644,0.130038 -0.258403,0.579937 -0.311073,0.603345 -0.01478,0.0066 -0.02688,0.02507 -0.02688,0.04112 0,0.06076 -0.495966,0.588795 -0.690804,0.735466 -0.09656,0.07269 -0.695398,0.397119 -0.751848,0.407326 -0.01479,0.0027 -0.03495,0.0069 -0.0448,0.0093 -0.0099,0.0025 -0.03405,0.0085 -0.05376,0.01344 -0.01971,0.0049 -0.03987,0.01221 -0.0448,0.01618 -0.009,0.0073 -0.04129,0.01578 -0.206093,0.05437 -0.289434,0.06777 -0.756991,0.08729 -1.021505,0.04263 -0.07885,-0.01331 -0.183692,-0.03061 -0.232975,-0.03843 -0.04928,-0.0078 -0.133961,-0.03148 -0.188172,-0.05257 -0.05421,-0.02108 -0.09857,-0.02869 -0.09857,-0.01691 0,0.01178 -0.02667,-7.13e-4 -0.05927,-0.02777 -0.0326,-0.02706 -0.06889,-0.04734 -0.08065,-0.04508 -0.02533,0.0049 -0.154171,-0.04563 -0.320538,-0.125634 -0.217939,-0.10481 -0.25639,-0.128174 -0.25639,-0.155792 0,-0.01504 -0.01728,-0.02734 -0.0384,-0.02734 -0.02112,0 -0.05878,-0.02016 -0.08369,-0.0448 -0.02491,-0.02464 -0.09025,-0.07706 -0.145205,-0.116487 -0.05496,-0.03943 -0.129223,-0.101904 -0.165038,-0.138839 -0.06729,-0.06939 -0.248669,-0.05913 -0.248669,0.01407 0,0.01934 -0.02419,0.03516 -0.05376,0.03516 -0.02957,0 -0.05376,0.01613 -0.05376,0.03584 0,0.01971 -0.02016,0.03592 -0.0448,0.03602 -0.02464,1.07e-4 -0.09319,0.04064 -0.152329,0.09008 -0.05914,0.04945 -0.155914,0.114323 -0.215054,0.144166 -0.05914,0.02984 -0.188172,0.102379 -0.286738,0.161191 -0.09857,0.05881 -0.316309,0.17218 -0.483871,0.251927 -0.167563,0.07975 -0.385305,0.184216 -0.483871,0.232153 -0.192473,0.09361 -0.733656,0.294182 -0.874174,0.323987 -0.0471,0.01 -0.139846,0.04081 -0.206093,0.06849 -0.06625,0.02768 -0.12045,0.04252 -0.12045,0.03297 0,-0.0095 -0.02976,-0.0014 -0.06614,0.01804 -0.06,0.03211 -0.137086,0.05249 -0.346047,0.09146 -0.03943,0.0074 -0.112007,0.02398 -0.16129,0.03695 -0.04928,0.01297 -0.121864,0.02896 -0.16129,0.03555 -0.03943,0.0066 -0.128136,0.02275 -0.197133,0.03594 -0.069,0.01318 -0.173835,0.03123 -0.232975,0.0401 -0.05914,0.0089 -0.155914,0.02369 -0.215054,0.03292 -0.135313,0.02113 -0.492788,0.05651 -0.681003,0.06739 -0.07885,0.0046 -0.320789,0.02104 -0.537635,0.03662 -0.216845,0.01558 -0.402571,0.01956 -0.412723,0.0088 z m 1.057885,-2.011116 c 0.301754,-0.02916 0.460584,-0.05295 0.734767,-0.110047 0.04928,-0.01026 0.137993,-0.02726 0.197132,-0.03778 0.05914,-0.01052 0.172043,-0.03625 0.250896,-0.05719 0.07885,-0.02094 0.147479,-0.03617 0.152501,-0.03386 0.005,0.0023 0.06551,-0.01935 0.134409,-0.04814 0.0689,-0.02879 0.125277,-0.04415 0.125277,-0.03414 0,0.01001 0.02016,0.0054 0.0448,-0.01024 0.02464,-0.01565 0.0569,-0.03071 0.07168,-0.03348 0.01478,-0.0028 0.03091,-0.0083 0.03584,-0.01225 0.0049,-0.004 0.04053,-0.01312 0.07911,-0.02032 0.03858,-0.0072 0.107132,-0.03016 0.15233,-0.05102 0.0452,-0.02086 0.126533,-0.05575 0.180744,-0.07754 0.05421,-0.02179 0.146953,-0.05927 0.206093,-0.0833 0.527051,-0.214133 1.40036,-0.729574 1.748279,-1.031863 l 0.135376,-0.11762 0.01883,-0.358423 c 0.01036,-0.197133 0.02553,-0.398746 0.03372,-0.448029 0.01873,-0.112711 0.04533,-0.230215 0.05478,-0.241935 0.004,-0.0049 0.01126,-0.02509 0.01618,-0.0448 0.0049,-0.01971 0.01299,-0.04391 0.01792,-0.05376 0.0049,-0.0099 0.01155,-0.03002 0.01471,-0.0448 0.0032,-0.01478 0.02647,-0.06422 0.05179,-0.109853 0.02532,-0.04563 0.05211,-0.114514 0.05954,-0.153066 0.0074,-0.03855 0.04662,-0.116608 0.0871,-0.173458 0.04048,-0.05685 0.0736,-0.114046 0.0736,-0.127103 0,-0.02316 0.16149,-0.249389 0.232975,-0.326374 0.01971,-0.02123 0.08441,-0.09381 0.143765,-0.16129 0.05936,-0.06748 0.188389,-0.187207 0.286738,-0.26606 0.09835,-0.07885 0.186881,-0.15261 0.196737,-0.163905 0.0099,-0.01129 0.04212,-0.03151 0.07169,-0.04492 0.02957,-0.01341 0.142473,-0.07471 0.250896,-0.136221 0.108423,-0.06151 0.221326,-0.116673 0.250896,-0.122587 0.02957,-0.0059 0.0578,-0.014 0.06272,-0.01797 0.0049,-0.004 0.02509,-0.01126 0.0448,-0.01618 0.01971,-0.0049 0.04391,-0.01299 0.05376,-0.01792 0.0099,-0.0049 0.03405,-0.01299 0.05376,-0.01792 0.01971,-0.0049 0.03987,-0.01218 0.0448,-0.0161 0.0049,-0.0039 0.04928,-0.01441 0.09857,-0.02329 0.0979,-0.01764 0.212994,-0.142487 0.214256,-0.232409 4.38e-4,-0.03121 0.01289,-0.06885 0.02768,-0.08363 0.01478,-0.01478 0.0289,-0.04167 0.03136,-0.05974 0.0025,-0.01807 0.0085,-0.04092 0.01344,-0.05078 0.0049,-0.0099 0.01237,-0.03002 0.01654,-0.0448 0.0042,-0.01478 0.01952,-0.05385 0.03412,-0.08681 0.0146,-0.03296 0.03214,-0.08941 0.03897,-0.125448 0.0068,-0.03604 0.01365,-0.06956 0.01516,-0.07448 0.0015,-0.0049 0.0034,-0.01673 0.0043,-0.02623 8.57e-4,-0.0095 0.02527,-0.07401 0.05424,-0.143369 0.02898,-0.06935 0.04384,-0.126098 0.03302,-0.126098 -0.01081,0 -0.0046,-0.02823 0.01385,-0.06272 0.01843,-0.0345 0.0429,-0.119176 0.05438,-0.188172 0.01148,-0.069 0.02938,-0.165771 0.0398,-0.215054 0.01042,-0.04928 0.02667,-0.129928 0.03612,-0.179212 0.0094,-0.04928 0.0259,-0.129928 0.03657,-0.179211 0.05105,-0.235966 0.07096,-0.57788 0.07096,-1.218638 0,-0.829534 -0.03406,-1.223209 -0.142659,-1.648746 -0.01258,-0.04928 -0.03074,-0.137992 -0.04037,-0.197132 -0.0096,-0.05914 -0.02724,-0.131721 -0.03914,-0.161291 -0.02624,-0.06519 -0.03734,-0.102696 -0.0593,-0.200286 -0.03156,-0.140266 -0.242345,-0.749101 -0.309129,-0.892904 -0.311724,-0.671222 -0.596391,-1.209085 -0.651295,-1.230585 -0.01678,-0.0066 -0.03051,-0.0323 -0.03051,-0.05717 0,-0.02487 -0.03226,-0.07441 -0.07168,-0.110095 -0.03943,-0.03568 -0.07169,-0.07918 -0.07169,-0.09666 0,-0.01748 -0.03328,-0.0674 -0.07397,-0.110933 -0.04068,-0.04353 -0.132635,-0.167856 -0.20434,-0.276279 -0.131891,-0.199431 -1.197928,-1.290323 -1.260923,-1.290323 -0.01877,0 -0.07386,-0.03629 -0.122421,-0.08065 -0.04856,-0.04435 -0.123874,-0.104838 -0.16737,-0.134408 -0.0435,-0.02957 -0.145728,-0.101983 -0.227181,-0.160919 -0.178092,-0.128857 -0.17584,-0.127464 -0.619361,-0.38314 -0.19421,-0.111956 -0.417626,-0.231092 -0.496479,-0.264747 -0.07885,-0.03365 -0.203853,-0.09228 -0.277778,-0.130278 -0.07392,-0.038 -0.134408,-0.05942 -0.134408,-0.04761 0,0.01181 -0.03629,0.0013 -0.08065,-0.02332 -0.04435,-0.02464 -0.0914,-0.04537 -0.10454,-0.04606 -0.01314,-6.99e-4 -0.03599,-0.01337 -0.05078,-0.02815 -0.06626,-0.06625 -0.162889,-0.01509 -0.270752,0.14337 -0.06374,0.09364 -0.278225,0.331541 -0.476632,0.528673 -0.279723,0.277927 -0.417088,0.385347 -0.611636,0.478306 -0.347962,0.166261 -0.464048,0.21207 -0.563853,0.222502 -0.01442,0.0015 -0.07894,0.01917 -0.143369,0.03926 -0.168975,0.05267 -0.323915,0.06799 -0.708549,0.07003 -0.331251,0.0018 -0.542551,-0.01627 -0.599352,-0.05112 -0.01534,-0.0094 -0.09118,-0.02713 -0.168546,-0.03938 -0.07736,-0.01224 -0.164519,-0.04206 -0.193681,-0.06627 -0.02916,-0.0242 -0.06264,-0.04216 -0.0744,-0.0399 -0.02577,0.005 -0.179694,-0.05348 -0.254348,-0.09655 -0.02957,-0.01706 -0.105441,-0.05715 -0.168603,-0.08908 -0.06316,-0.03193 -0.133685,-0.08076 -0.156718,-0.108517 -0.02303,-0.02776 -0.05804,-0.05046 -0.07778,-0.05046 -0.05649,0 -0.6473857,-0.610331 -0.756453,-0.78134 -0.1079556,-0.169265 -0.1701413,-0.2083 -0.2651746,-0.166451 -0.034498,0.01519 -0.070789,0.02981 -0.080645,0.03248 -0.1603186,0.04345 -1.0938322,0.491974 -1.3082437,0.628565 -0.05914,0.03767 -0.1584799,0.09455 -0.2207559,0.126397 -0.062276,0.03185 -0.1413885,0.08901 -0.1758057,0.127046 -0.034418,0.03803 -0.076887,0.06915 -0.094377,0.06915 -0.02911,0 -0.05235,0.01614 -0.182348,0.126627 -0.023958,0.02036 -0.098896,0.07596 -0.1665291,0.123545 -0.2024738,0.142461 -0.8032139,0.712992 -1.0801433,1.025826 -0.2042832,0.230769 -0.539928,0.672813 -0.6313126,0.831438 -0.053406,0.0927 -0.1317441,0.216937 -0.1740846,0.276076 -0.1528111,0.213441 -0.4186971,0.746109 -0.5904028,1.182796 -0.015502,0.03943 -0.052479,0.128136 -0.08217,0.197133 -0.055845,0.129774 -0.1919374,0.558326 -0.220266,0.693611 -0.016846,0.08045 -0.04132,0.182628 -0.07639,0.318934 -0.011412,0.04435 -0.028383,0.120967 -0.037712,0.17025 -0.00933,0.04928 -0.02338,0.121864 -0.031224,0.161291 -0.082616,0.415273 -0.1049294,0.719279 -0.1052324,1.433691 -3.118e-4,0.735646 0.026163,1.101508 0.1050425,1.451613 0.011104,0.04928 0.029656,0.154122 0.041226,0.232975 0.011571,0.07885 0.05994,0.272402 0.1074876,0.430108 0.047547,0.157706 0.090504,0.302867 0.095459,0.32258 0.00495,0.01971 0.018422,0.05197 0.029927,0.07168 0.011505,0.01971 0.032457,0.08423 0.046559,0.143369 0.023551,0.09876 0.096108,0.28492 0.1594338,0.409053 0.014206,0.02785 0.054445,0.05483 0.089422,0.05996 0.034976,0.0051 0.09056,0.02108 0.1235182,0.03543 0.032959,0.01435 0.083429,0.03079 0.1121559,0.03652 0.028727,0.0057 0.093243,0.02919 0.1433692,0.05212 0.050126,0.02293 0.14759,0.06732 0.2165864,0.09865 0.2681018,0.121708 0.641809,0.395647 0.8386746,0.614777 0.06113,0.06804 0.1447691,0.158851 0.1858638,0.201795 0.1529544,0.159835 0.4380487,0.663832 0.5001437,0.884166 0.00417,0.01479 0.011608,0.03495 0.016536,0.0448 0.00493,0.0099 0.012993,0.03405 0.017921,0.05376 0.00493,0.01971 0.012211,0.03987 0.016183,0.0448 0.016162,0.02005 0.081952,0.351682 0.090658,0.456989 0.00407,0.04928 0.00996,0.210573 0.013086,0.358423 l 0.00568,0.268817 0.1604244,0.107527 c 0.088233,0.05914 0.1607789,0.119623 0.1612125,0.134408 4.337e-4,0.01478 0.024981,0.02688 0.054551,0.02688 0.02957,0 0.053763,0.01357 0.053763,0.03015 0,0.01658 0.082094,0.07706 0.1824319,0.134409 0.2101233,0.120088 0.2824965,0.163111 0.4806506,0.285721 0.1421394,0.08795 0.58171,0.30645 0.7885304,0.391957 0.05914,0.02445 0.155914,0.06557 0.2150538,0.09139 0.05914,0.02581 0.1196237,0.0501 0.1344086,0.05397 0.014785,0.0039 0.034946,0.01107 0.044803,0.016 0.00986,0.0049 0.030018,0.01237 0.044803,0.01654 0.014785,0.0042 0.053848,0.01952 0.086807,0.03412 0.032959,0.0146 0.08941,0.03214 0.125448,0.03896 0.036038,0.0068 0.069555,0.01365 0.074483,0.01516 0.00493,0.0015 0.021057,0.0043 0.035842,0.0063 0.014785,0.0019 0.052612,0.01731 0.084061,0.03414 0.031448,0.01683 0.095965,0.03861 0.1433692,0.04839 0.088137,0.01819 0.1851466,0.04127 0.3281256,0.07806 0.04436,0.01141 0.116892,0.02794 0.161194,0.03672 0.0443,0.0088 0.120872,0.02403 0.170155,0.03389 0.2891,0.05782 0.450818,0.08271 0.697756,0.107385 0.107674,0.01076 0.200444,0.02424 0.206155,0.02995 0.01717,0.01717 1.158761,-0.0067 1.390188,-0.02904 z M 4.265233,25.960686 c 0.5064735,-0.136364 0.853757,-0.7254 0.7143243,-1.211582 -0.056304,-0.196324 -0.059055,-0.206835 -0.064683,-0.247136 -0.00996,-0.07132 -0.3194072,-0.358004 -0.4704302,-0.435825 -0.3072652,-0.158331 -0.8519401,-0.09943 -1.0909878,0.117976 -0.038215,0.03476 -0.079162,0.06319 -0.090993,0.06319 -0.011831,0 -0.076391,0.09055 -0.1434664,0.201226 -0.1127829,0.186091 -0.1218415,0.223158 -0.1204372,0.492831 8.351e-4,0.160383 0.010751,0.323864 0.022035,0.36329 0.011284,0.03943 0.02175,0.0805 0.023258,0.09128 0.012869,0.09194 0.4271697,0.500121 0.5076205,0.500121 0.035402,0 0.074499,0.01639 0.086881,0.03643 0.012382,0.02004 0.034265,0.02916 0.048629,0.02029 0.014364,-0.0089 0.046856,-0.0033 0.072205,0.01234 0.04484,0.02771 0.398152,0.02462 0.5060445,-0.0044 z m 15.985663,4.55e-4 c 0.02957,-0.0077 0.130765,-0.05271 0.224879,-0.10007 0.612017,-0.307987 0.706431,-1.191827 0.176192,-1.649397 -0.508196,-0.438547 -1.319078,-0.257078 -1.593946,0.356713 -0.07274,0.16242 -0.100719,0.505751 -0.05585,0.685237 0.02711,0.108442 0.239491,0.463222 0.2773,0.463222 0.01431,0 0.063,0.03446 0.108198,0.07657 0.175713,0.163702 0.577809,0.241829 0.863228,0.167725 z M 12.386394,10.910047 c 0.363349,-0.141961 0.626495,-0.555395 0.607739,-0.954832 -0.0162,-0.3450335 -0.07586,-0.4864935 -0.294046,-0.6971738 -0.507785,-0.4903256 -1.339399,-0.3324531 -1.645382,0.3123571 -0.102033,0.2150199 -0.08796,0.6748527 0.02724,0.8901117 0.07803,0.145806 0.294264,0.346609 0.464696,0.431538 0.226804,0.113022 0.577309,0.120534 0.839749,0.018 z"
     id="path397" />
  <path
     style="fill:#d3bc5f;stroke:#d3bc5f;stroke-width:0.0358423"
     d="m 7.0353482,18.868589 c 0.010117,-2.24862 0.024044,-4.09383 0.030949,-4.100466 0.00691,-0.0066 0.2544911,0.180491 0.5501901,0.415839 0.2956989,0.235348 0.5827267,0.463623 0.6378395,0.507277 0.055113,0.04365 0.1421454,0.115661 0.1934058,0.160015 0.05126,0.04435 0.1029423,0.08079 0.1148487,0.08096 0.011906,1.72e-4 0.0781,0.05322 0.1470959,0.117897 0.1095241,0.10266 0.3425552,0.294931 0.6932138,0.571963 0.055999,0.04424 0.1415072,0.116728 0.1900187,0.161083 0.048512,0.04435 0.099469,0.08085 0.1132378,0.08109 0.013769,2.47e-4 0.090609,0.06073 0.1707555,0.134409 0.080146,0.07368 0.199232,0.174284 0.264635,0.223567 0.0654,0.04928 0.146872,0.1138 0.181043,0.143369 0.03417,0.02957 0.115816,0.09409 0.181434,0.14337 0.06562,0.04928 0.176629,0.137992 0.246693,0.197132 0.07006,0.05914 0.146998,0.123656 0.170967,0.143369 0.02397,0.01971 0.07161,0.06004 0.10588,0.08961 0.08323,0.07183 0.260529,0.212601 0.406272,0.322581 0.06531,0.04928 0.136351,0.106067 0.15787,0.126188 0.02152,0.02012 0.115681,0.09863 0.209246,0.174459 0.204891,0.166061 0.10886,0.213908 0.981447,-0.489002 0.348599,-0.280813 0.715977,-0.573309 0.816395,-0.64999 0.100417,-0.07668 0.311609,-0.246217 0.469315,-0.376745 0.157706,-0.130529 0.407706,-0.332682 0.555556,-0.449228 0.147849,-0.116547 0.294329,-0.237334 0.325511,-0.268416 0.03118,-0.03108 0.110747,-0.09684 0.176813,-0.146119 0.06607,-0.04928 0.188415,-0.146058 0.271888,-0.215054 0.08347,-0.069 0.286166,-0.2338 0.450428,-0.366231 0.164261,-0.13243 0.479387,-0.38686 0.700278,-0.565398 l 0.401621,-0.324616 0.01057,0.637083 c 0.0058,0.350396 0.01532,2.205631 0.02114,4.122746 l 0.01058,3.485663 h -0.987279 -0.98728 l -0.0072,-1.926523 c -0.004,-1.059588 -0.0037,-1.987007 6.48e-4,-2.060932 0.0043,-0.07392 -0.0075,-0.134409 -0.02631,-0.134409 -0.02963,0 -0.428529,0.303602 -0.659718,0.502116 -0.04293,0.03686 -0.112188,0.09622 -0.153915,0.131913 -0.04173,0.03569 -0.12869,0.105219 -0.193251,0.154502 -0.06456,0.04928 -0.167518,0.134952 -0.228792,0.190375 -0.06128,0.05542 -0.16786,0.13911 -0.236857,0.185969 -0.069,0.04686 -0.176921,0.130545 -0.239833,0.185969 -0.06291,0.05542 -0.151622,0.129261 -0.197133,0.164084 -0.106947,0.08183 -0.384738,0.302084 -0.477719,0.378772 -0.03982,0.03284 -0.13659,0.107822 -0.215054,0.166632 -0.07846,0.05881 -0.180172,0.139454 -0.226019,0.179211 -0.142536,0.123604 -0.202478,0.128164 -0.322856,0.02456 -0.06112,-0.0526 -0.164077,-0.138541 -0.228799,-0.190976 -0.06472,-0.05243 -0.190257,-0.154391 -0.278967,-0.226571 -0.08871,-0.07218 -0.206376,-0.166375 -0.261482,-0.209324 -0.05511,-0.04295 -0.127686,-0.103766 -0.16129,-0.135149 -0.0336,-0.03138 -0.174002,-0.143472 -0.311995,-0.249086 -0.137992,-0.105614 -0.269162,-0.20897 -0.291489,-0.229678 C 10.231474,19.794965 9.962224,19.57674 9.78846,19.443917 9.6978184,19.374631 9.5913978,19.290461 9.5519713,19.256873 9.3230077,19.061819 9.0227663,18.835125 8.9933915,18.835125 c -0.018765,0 -0.030591,0.06048 -0.02628,0.134409 0.00431,0.07392 0.0046,1.001344 6.502e-4,2.060932 l -0.00719,1.926523 H 7.9887641 7.0169547 Z"
     id="path399" />
</svg>
