<?xml version="1.0" encoding="UTF-8" standalone="no"?>
<svg
   width="24px"
   height="40px"
   viewBox="0 0 24 40"
   version="1.1"
   id="svg1008"
   sodipodi:docname="ic-nav-settings.svg"
   inkscape:version="1.2.1 (9c6d41e410, 2022-07-14)"
   xmlns:inkscape="http://www.inkscape.org/namespaces/inkscape"
   xmlns:sodipodi="http://sodipodi.sourceforge.net/DTD/sodipodi-0.dtd"
   xmlns="http://www.w3.org/2000/svg"
   xmlns:svg="http://www.w3.org/2000/svg">
  <defs
     id="defs1012" />
  <sodipodi:namedview
     id="namedview1010"
     pagecolor="#ffffff"
     bordercolor="#000000"
     borderopacity="0.25"
     inkscape:showpageshadow="2"
     inkscape:pageopacity="0.0"
     inkscape:pagecheckerboard="0"
     inkscape:deskcolor="#d1d1d1"
     showgrid="false"
     inkscape:zoom="20.35"
     inkscape:cx="11.990172"
     inkscape:cy="20"
     inkscape:window-width="1920"
     inkscape:window-height="1017"
     inkscape:window-x="-8"
     inkscape:window-y="456"
     inkscape:window-maximized="1"
     inkscape:current-layer="svg1008" />
  <!-- Generator: Sketch 52.6 (67491) - http://www.bohemiancoding.com/sketch -->
  <title
     id="title998">Settings</title>
  <desc
     id="desc1000">Created with Sketch.</desc>
  <g
     id="Settings"
     stroke="none"
     stroke-width="1"
     fill="none"
     fill-rule="evenodd">
    <g
       id="Group_8818"
       transform="translate(1.000000, 13.000000)"
       fill="#938DA5"
       fill-rule="nonzero">
      <g
         id="Group_8816">
        <path
           d="M13.9,22 L8.1,22 L7.787,18.864 L7.72,18.837 L5.281,20.837 L1.167,16.725 L3.167,14.285 L3.139,14.219 L0,13.9 L0,8.1 L3.135,7.786 L3.163,7.72 L1.163,5.28 L5.276,1.168 L7.715,3.168 L7.782,3.141 L8.1,0 L13.9,0 L14.213,3.136 L14.28,3.163 L16.719,1.163 L20.828,5.27 L18.828,7.71 L18.856,7.776 L22,8.1 L22,13.9 L18.865,14.214 L18.837,14.28 L20.837,16.72 L16.728,20.827 L14.289,18.827 L14.222,18.854 L13.9,22 Z M9.9,20 L12.1,20 L12.361,17.39 L12.987,17.19 C13.3287124,17.08012 13.660554,16.9416296 13.979,16.776 L14.562,16.476 L16.595,18.14 L18.143,16.591 L16.479,14.556 L16.779,13.972 C16.9446037,13.6542337 17.0830952,13.3230586 17.193,12.982 L17.393,12.357 L20,12.1 L20,9.9 L17.39,9.639 L17.19,9.014 C17.0800952,8.67294144 16.9416037,8.3417663 16.776,8.024 L16.476,7.44 L18.138,5.41 L16.59,3.861 L14.557,5.525 L13.974,5.225 C13.655552,5.05937466 13.3237108,4.92088448 12.982,4.811 L12.356,4.611 L12.1,2 L9.9,2 L9.639,4.61 L9.013,4.81 C8.67128919,4.91988448 8.33944799,5.05837466 8.021,5.224 L7.438,5.524 L5.41,3.861 L3.862,5.41 L5.526,7.445 L5.226,8.029 C5.06039627,8.3467663 4.92190485,8.67794144 4.812,9.019 L4.612,9.644 L2,9.9 L2,12.1 L4.61,12.361 L4.81,12.986 C4.91990485,13.3270586 5.05839627,13.6582337 5.224,13.976 L5.524,14.56 L3.862,16.59 L5.41,18.139 L7.443,16.475 L8.026,16.775 C8.34444598,16.9406296 8.67628755,17.07912 9.018,17.189 L9.644,17.389 L9.9,20 Z"
           id="Path_18871" />
      </g>
      <g
         id="Group_8817"
         transform="translate(7.000000, 7.000000)">
        <path
           d="M4,8 C1.790861,8 0,6.209139 0,4 C0,1.790861 1.790861,0 4,0 C6.209139,0 8,1.790861 8,4 C8,5.06086596 7.57857264,6.07828161 6.82842712,6.82842712 C6.07828161,7.57857264 5.06086596,8 4,8 Z M4,2 C2.8954305,2 2,2.8954305 2,4 C2,5.1045695 2.8954305,6 4,6 C5.1045695,6 6,5.1045695 6,4 C6,2.8954305 5.1045695,2 4,2 Z"
           id="Path_18872" />
      </g>
    </g>
  </g>
  <path
     style="fill:#d3bc5f;stroke:#d3bc5f;stroke-width:0.04914"
     d="M 9.1181052,34.90172 C 9.1077322,34.867936 9.0409553,34.22113 8.969712,33.464373 8.826888,31.947279 8.809087,31.818182 8.7427214,31.818182 c -0.025046,0 -0.5769332,0.436732 -1.2264153,0.970516 -0.649482,0.533784 -1.1967179,0.976069 -1.2160796,0.982856 -0.019362,0.0068 -0.9487552,-0.90141 -2.0653188,-2.018217 l -2.0301154,-2.030558 0.985332,-1.200456 c 0.5419326,-0.66025 0.9856578,-1.225204 0.9860559,-1.255451 9.347e-4,-0.071 -0.056359,-0.07911 -1.7314628,-0.245048 L 1.031941,26.881873 v -2.888111 c 0,-2.669872 0.00623,-2.888111 0.082404,-2.888111 0.1691073,0 3.0344147,-0.299455 3.0541508,-0.319192 0.043845,-0.04385 -0.062488,-0.185119 -0.9968424,-1.324408 l -0.9650935,-1.17677 2.0292317,-2.029674 c 1.1160774,-1.116321 2.0452581,-2.024121 2.0648463,-2.017333 0.019588,0.0068 0.5671494,0.449072 1.2168035,0.982856 1.0987032,0.902742 1.274112,1.03055 1.2813995,0.933661 0.00152,-0.02027 0.073762,-0.722359 0.1605278,-1.560196 l 0.1577557,-1.523342 2.8861556,-0.01268 c 2.198742,-0.0097 2.886155,0.0012 2.886155,0.04555 0,0.268815 0.309036,3.023093 0.343009,3.057067 0.0259,0.0259 0.539225,-0.362955 1.248223,-0.945574 0.662323,-0.544265 1.222154,-0.989573 1.244067,-0.989573 0.02191,0 0.943727,0.904086 2.048475,2.00908 1.443013,1.443335 1.997318,2.027971 1.968453,2.076167 -0.03493,0.05833 -1.676539,2.080763 -1.880221,2.316406 -0.04593,0.05314 -0.05757,0.104394 -0.02981,0.131323 0.0376,0.03648 2.798819,0.347352 3.080313,0.346801 0.08159,-1.48e-4 0.08568,0.160179 0.07371,2.886284 l -0.01268,2.886454 -1.538128,0.152903 c -0.845971,0.0841 -1.559839,0.174613 -1.586375,0.201149 -0.03157,0.03157 0.292056,0.46264 0.936163,1.246988 0.541425,0.659308 0.984409,1.210405 0.984409,1.224658 0,0.01426 -0.912162,0.937247 -2.027027,2.051095 l -2.027027,2.025178 -1.195096,-0.981174 c -0.657303,-0.539646 -1.226713,-0.981174 -1.265356,-0.981174 -0.03864,0 -0.07026,0.04119 -0.07026,0.09153 0,0.05034 -0.06628,0.730317 -0.147284,1.511057 -0.08101,0.78074 -0.147345,1.447169 -0.14742,1.480953 -9.8e-5,0.04844 -0.608216,0.06142 -2.876371,0.06142 -2.2581699,0 -2.8802879,-0.0132 -2.8950947,-0.06142 z m 4.0170188,-2.039312 c 0.01501,-0.101351 0.07669,-0.694768 0.137056,-1.318702 l 0.109765,-1.134427 0.555608,-0.182864 c 0.305585,-0.100576 0.797177,-0.301422 1.092428,-0.446326 l 0.536819,-0.263461 1.021123,0.834633 1.021124,0.834634 0.778339,-0.777199 c 0.428086,-0.427459 0.768157,-0.803729 0.755714,-0.836157 -0.01244,-0.03243 -0.377557,-0.491036 -0.811364,-1.01913 -0.433806,-0.528094 -0.788738,-0.982933 -0.788738,-1.010754 0,-0.02782 0.109725,-0.269238 0.243835,-0.536482 0.13411,-0.267245 0.325415,-0.725688 0.425122,-1.018764 0.09971,-0.293075 0.196676,-0.550492 0.215485,-0.572037 0.02838,-0.03251 2.242162,-0.278475 2.518506,-0.279819 0.0794,-3.93e-4 0.086,-0.08716 0.086,-1.130639 0,-0.621622 -0.01518,-1.130221 -0.03373,-1.130221 -0.19934,0 -2.553618,-0.261796 -2.575551,-0.286402 -0.01618,-0.01815 -0.110966,-0.272693 -0.21063,-0.565641 -0.09966,-0.292948 -0.298971,-0.768378 -0.442904,-1.056511 l -0.261699,-0.523879 0.827766,-1.007371 c 0.45527,-0.554054 0.828137,-1.018686 0.828593,-1.032517 4.42e-4,-0.01383 -0.350909,-0.376368 -0.780811,-0.80564 l -0.78164,-0.780494 -1.021864,0.836304 -1.021865,0.836303 -0.580426,-0.285657 c -0.431947,-0.212584 -1.309281,-0.548178 -1.593508,-0.609542 -0.0038,-8.3e-4 -0.05417,-0.499051 -0.111848,-1.10716 -0.05767,-0.608108 -0.117853,-1.199631 -0.133729,-1.314496 l -0.02887,-0.208845 h -1.115919 -1.115918 l -0.110562,1.142506 c -0.06081,0.628378 -0.122224,1.221559 -0.136478,1.31818 -0.02588,0.175455 -0.02656,0.175881 -0.544633,0.342005 -0.285294,0.09148 -0.7747756,0.290269 -1.0877368,0.441748 L 8.4289666,18.483001 7.4224074,17.655758 6.4158486,16.828515 5.6403568,17.602871 c -0.4265206,0.425895 -0.7754919,0.79325 -0.7754919,0.816344 0,0.02309 0.3459426,0.465614 0.7687613,0.983377 0.422819,0.517764 0.7883178,0.966531 0.81222,0.997262 0.027595,0.03548 -0.065334,0.276928 -0.2545691,0.661433 -0.1639154,0.333059 -0.3652838,0.822044 -0.4474856,1.086633 -0.082202,0.26459 -0.1753818,0.481261 -0.2070668,0.481491 -0.031685,2.3e-4 -0.5993783,0.0551 -1.2615404,0.121934 -0.6621622,0.06683 -1.220516,0.121928 -1.2407863,0.122432 -0.02027,5.04e-4 -0.036855,0.509515 -0.036855,1.131137 0,0.871395 0.014067,1.13023 0.061425,1.130262 0.033784,2.3e-5 0.6031941,0.05529 1.2653562,0.122809 0.6621622,0.06752 1.2187988,0.122786 1.2369704,0.122809 0.018171,2.3e-5 0.1002951,0.216524 0.1824968,0.481114 0.082202,0.264589 0.2835343,0.753501 0.447406,1.08647 l 0.297948,0.605398 -0.4653543,0.572007 c -0.2559452,0.314603 -0.6206628,0.759966 -0.8104838,0.989696 -0.189821,0.22973 -0.3458746,0.440063 -0.3467858,0.467407 -9.11e-4,0.02734 0.3466234,0.397068 0.772299,0.82161 l 0.7739558,0.771894 1.0172801,-0.833741 1.0172801,-0.833742 0.6023848,0.296465 c 0.3313115,0.163056 0.8171223,0.363178 1.0795787,0.444717 l 0.477194,0.148254 0.02767,0.181663 c 0.01522,0.09992 0.0733,0.668151 0.129062,1.262746 0.05576,0.594594 0.1107,1.108722 0.122083,1.142506 0.01573,0.0467 0.284674,0.06142 1.121607,0.06142 h 1.100913 z"
     id="path1014" />
  <path
     style="fill:#d3bc5f;stroke:#d3bc5f;stroke-width:0.04914"
     d="M 11.30517,27.913597 C 10.861734,27.829261 10.61262,27.73922 10.09828,27.477371 9.7883349,27.319578 9.600516,27.172788 9.2105702,26.78358 8.7678356,26.341683 8.6896539,26.23583 8.4648766,25.773956 8.1250142,25.075604 8.0400154,24.713323 8.0440571,23.980344 c 0.0038,-0.688497 0.1086867,-1.154509 0.3827889,-1.700676 0.3525471,-0.702474 0.7873897,-1.196438 1.4124374,-1.604474 2.2449986,-1.46555 5.2435796,-0.323597 5.9949836,2.283077 0.144861,0.50253 0.155896,1.536707 0.02166,2.029444 -0.377451,1.385457 -1.496167,2.499545 -2.864367,2.852515 -0.509597,0.131467 -1.218691,0.162316 -1.686386,0.07337 z m 1.528926,-2.077256 c 0.457876,-0.216429 0.742539,-0.493511 0.960875,-0.935283 0.180597,-0.365412 0.185373,-0.389069 0.185373,-0.918165 0,-0.493639 -0.01236,-0.568253 -0.135774,-0.819453 -0.388127,-0.790015 -1.100339,-1.209695 -1.974989,-1.163788 -0.896994,0.04708 -1.598706,0.62927 -1.824654,1.513862 -0.2592322,1.014899 0.326903,2.081621 1.323041,2.407835 0.450723,0.147602 1.047184,0.113018 1.466128,-0.08501 z"
     id="path1016" />
</svg>
