<?xml version="1.0" encoding="UTF-8" standalone="no"?>
<svg
   width="24px"
   height="40px"
   viewBox="0 0 24 40"
   version="1.1"
   id="svg687"
   sodipodi:docname="ic-nav-receive.svg"
   inkscape:version="1.2.1 (9c6d41e410, 2022-07-14)"
   xmlns:inkscape="http://www.inkscape.org/namespaces/inkscape"
   xmlns:sodipodi="http://sodipodi.sourceforge.net/DTD/sodipodi-0.dtd"
   xmlns="http://www.w3.org/2000/svg"
   xmlns:svg="http://www.w3.org/2000/svg">
  <defs
     id="defs691" />
  <sodipodi:namedview
     id="namedview689"
     pagecolor="#ffffff"
     bordercolor="#000000"
     borderopacity="0.25"
     inkscape:showpageshadow="2"
     inkscape:pageopacity="0.0"
     inkscape:pagecheckerboard="0"
     inkscape:deskcolor="#d1d1d1"
     showgrid="false"
     inkscape:zoom="20.35"
     inkscape:cx="11.990172"
     inkscape:cy="20"
     inkscape:window-width="1920"
     inkscape:window-height="1017"
     inkscape:window-x="-8"
     inkscape:window-y="456"
     inkscape:window-maximized="1"
     inkscape:current-layer="svg687" />
  <!-- Generator: Sketch 52.6 (67491) - http://www.bohemiancoding.com/sketch -->
  <title
     id="title676">Receive off</title>
  <desc
     id="desc678">Created with Sketch.</desc>
  <g
     id="Receive-off"
     stroke="none"
     stroke-width="1"
     fill="none"
     fill-rule="evenodd">
    <g
       id="ic-receive-on"
       transform="translate(-1.000000, 11.000000)">
      <polygon
         id="Rectangle_4413"
         points="0 0 26 0 26 26 0 26" />
      <g
         id="Group_8987"
         transform="translate(2.000000, 2.000000)"
         fill="#938DA5">
        <g
           id="Group_8986">
          <polygon
             id="Path_18953"
             points="18.178 10.734 16.822 9.265 12 13.716 12 0 10 0 10 13.716 5.178 9.266 3.822 10.734 11 17.361" />
          <polygon
             id="Path_18954"
             points="20 15 20 20 2 20 2 15 0 15 0 22 22 22 22 15" />
        </g>
      </g>
    </g>
  </g>
  <path
     style="fill:#d3bc5f;stroke:#d3bc5f;stroke-width:0.04914"
     d="M 8.4766585,27.072501 C 6.5577396,25.300953 4.960339,23.824686 4.9268794,23.791909 c -0.048062,-0.04708 0.074525,-0.206797 0.5838145,-0.760632 0.3545575,-0.385569 0.6632045,-0.694627 0.685882,-0.686795 0.022678,0.0078 1.0951125,0.987213 2.3831887,2.176403 1.2880762,1.189189 2.3612284,2.169533 2.3847814,2.178542 0.02421,0.0093 0.04282,-2.953955 0.04282,-6.818182 v -6.834562 h 0.982801 0.982801 v 6.830467 c 0,3.756757 0.01757,6.830467 0.03905,6.830467 0.02148,0 1.106179,-0.985485 2.410445,-2.189966 1.304265,-1.204482 2.388817,-2.182983 2.410114,-2.174448 0.05098,0.02043 1.282893,1.350051 1.282893,1.384642 0,0.03787 -7.076584,6.567138 -7.116747,6.566324 -0.01822,-3.69e-4 -1.603155,-1.45012 -3.5220735,-3.221668 z"
     id="path693" />
  <path
     style="fill:#d3bc5f;stroke:#d3bc5f;stroke-width:0.04914"
     d="m 1.031941,31.498771 v -3.464373 h 0.982801 0.982801 v 2.506274 2.506274 l 9.004914,-0.01242 9.004914,-0.01242 0.01273,-2.493857 0.01274,-2.493858 h 0.98235 0.982351 v 3.464373 3.464374 H 12.014742 1.031941 Z"
     id="path695" />
</svg>
