<?xml version="1.0" encoding="UTF-8" standalone="no"?>
<svg
   width="24px"
   height="40px"
   viewBox="0 0 24 40"
   version="1.1"
   id="svg41153"
   sodipodi:docname="ic-nav-address.svg"
   inkscape:version="1.2.1 (9c6d41e410, 2022-07-14)"
   xmlns:inkscape="http://www.inkscape.org/namespaces/inkscape"
   xmlns:sodipodi="http://sodipodi.sourceforge.net/DTD/sodipodi-0.dtd"
   xmlns="http://www.w3.org/2000/svg"
   xmlns:svg="http://www.w3.org/2000/svg">
  <defs
     id="defs41157" />
  <sodipodi:namedview
     id="namedview41155"
     pagecolor="#ffffff"
     bordercolor="#000000"
     borderopacity="0.25"
     inkscape:showpageshadow="2"
     inkscape:pageopacity="0.0"
     inkscape:pagecheckerboard="0"
     inkscape:deskcolor="#d1d1d1"
     showgrid="false"
     inkscape:zoom="20.925"
     inkscape:cx="11.995221"
     inkscape:cy="20.071685"
     inkscape:window-width="1920"
     inkscape:window-height="1017"
     inkscape:window-x="-8"
     inkscape:window-y="456"
     inkscape:window-maximized="1"
     inkscape:current-layer="svg41153" />
  <!-- Generator: Sketch 52.6 (67491) - http://www.bohemiancoding.com/sketch -->
  <title
     id="title41145">Address</title>
  <desc
     id="desc41147">Created with Sketch.</desc>
  <g
     id="Address"
     stroke="none"
     stroke-width="1"
     fill="none"
     fill-rule="evenodd">
    <g
       id="Group-2"
       transform="translate(3.000000, 12.000000)"
       fill="#938DA5"
       fill-rule="nonzero">
      <path
         d="M4,0 L0,0 L0,22 L18,22 L18,0 L4,0 Z M2,20 L2,2 L3,2 L3,20 L2,20 Z M16,20 L5,20 L5,2 L16,2 L16,20 Z"
         id="Path_18863" />
      <path
         d="M15,4 L6,4 L6,10 L15,10 L15,4 Z M13,8 L8,8 L8,6 L13,6 L13,8 Z"
         id="Path_18864" />
    </g>
  </g>
  <path
     style="fill:#a0892c;stroke:#a0892c;stroke-width:0.0477897"
     d="M 3.0107527,22.986858 V 12.019116 h 8.9844683 8.984468 V 22.986858 33.9546 H 11.995221 3.0107527 Z m 3.0107527,0.02389 V 13.97849 h -0.525687 -0.525687 v 9.032258 9.032258 h 0.525687 0.525687 z m 12.9988056,0 V 13.978495 H 13.500597 7.9808841 v 9.032258 9.032258 h 5.5197129 5.519714 z"
     id="path41159" />
  <path
     style="fill:#a0892c;stroke:#a0892c;stroke-width:0.0477897"
     d="m 9.0322581,18.996416 v -2.962963 h 4.4683389 4.46834 v 2.962963 2.962963 h -4.46834 -4.4683389 z m 6.9772999,0 v -1.003584 h -2.508961 -2.50896 V 18.996416 20 h 2.50896 2.508961 z"
     id="path41161" />
  <path
     style="fill:#d3bc5f;stroke:#d3bc5f;stroke-width:0.0477897"
     d="M 3.0107527,22.986858 V 12.019116 h 8.9844683 8.984468 V 22.986858 33.9546 H 11.995221 3.0107527 Z m 3.0107527,0.02389 V 13.97849 h -0.525687 -0.525687 v 9.032258 9.032258 h 0.525687 0.525687 z m 12.9988056,0 V 13.978495 H 13.500597 7.9808841 v 9.032258 9.032258 h 5.5197129 5.519714 z"
     id="path46363" />
  <path
     style="fill:#d3bc5f;stroke:#d3bc5f;stroke-width:0.0477897"
     d="M 3.0107527,22.986858 V 12.019116 h 8.9844683 8.984468 V 22.986858 33.9546 H 11.995221 3.0107527 Z m 3.0107527,0.02389 V 13.97849 h -0.525687 -0.525687 v 9.032258 9.032258 h 0.525687 0.525687 z m 12.9988056,0 V 13.978495 H 13.500597 7.9808841 v 9.032258 9.032258 h 5.5197129 5.519714 z"
     id="path46434" />
  <path
     style="fill:#d3bc5f;stroke:#d3bc5f;stroke-width:0.0477897"
     d="m 9.0322581,18.996416 v -2.962963 h 4.4683389 4.46834 v 2.962963 2.962963 h -4.46834 -4.4683389 z m 6.9772999,0 v -1.003584 h -2.508961 -2.50896 V 18.996416 20 h 2.50896 2.508961 z"
     id="path46436" />
</svg>
