<?xml version="1.0" encoding="UTF-8" standalone="no"?>
<svg
   width="24px"
   height="40px"
   viewBox="0 0 24 40"
   version="1.1"
   id="svg44956"
   sodipodi:docname="ic-nav-settings-active.svg"
   inkscape:version="1.2.1 (9c6d41e410, 2022-07-14)"
   xmlns:inkscape="http://www.inkscape.org/namespaces/inkscape"
   xmlns:sodipodi="http://sodipodi.sourceforge.net/DTD/sodipodi-0.dtd"
   xmlns="http://www.w3.org/2000/svg"
   xmlns:svg="http://www.w3.org/2000/svg">
  <defs
     id="defs44960" />
  <sodipodi:namedview
     id="namedview44958"
     pagecolor="#ffffff"
     bordercolor="#000000"
     borderopacity="0.25"
     inkscape:showpageshadow="2"
     inkscape:pageopacity="0.0"
     inkscape:pagecheckerboard="0"
     inkscape:deskcolor="#d1d1d1"
     showgrid="false"
     inkscape:zoom="20.925"
     inkscape:cx="11.995221"
     inkscape:cy="20.023895"
     inkscape:window-width="1920"
     inkscape:window-height="1017"
     inkscape:window-x="-8"
     inkscape:window-y="456"
     inkscape:window-maximized="1"
     inkscape:current-layer="svg44956" />
  <!-- Generator: Sketch 52.6 (67491) - http://www.bohemiancoding.com/sketch -->
  <title
     id="title44945">Artboard</title>
  <desc
     id="desc44947">Created with Sketch.</desc>
  <g
     id="Artboard"
     stroke="none"
     stroke-width="1"
     fill="none"
     fill-rule="evenodd">
    <g
       id="ic_settings-active"
       transform="translate(1.000000, 13.000000)"
       fill="#B088FF"
       fill-rule="nonzero">
      <g
         id="Group_8818">
        <g
           id="Group_8816">
          <path
             d="M13.9,22 L8.1,22 L7.787,18.864 L7.72,18.837 L5.281,20.837 L1.167,16.725 L3.167,14.285 L3.139,14.219 L0,13.9 L0,8.1 L3.135,7.786 L3.163,7.72 L1.163,5.28 L5.276,1.168 L7.715,3.168 L7.782,3.141 L8.1,0 L13.9,0 L14.213,3.136 L14.28,3.163 L16.719,1.163 L20.828,5.27 L18.828,7.71 L18.856,7.776 L22,8.1 L22,13.9 L18.865,14.214 L18.837,14.28 L20.837,16.72 L16.728,20.827 L14.289,18.827 L14.222,18.854 L13.9,22 Z M9.9,20 L12.1,20 L12.361,17.39 L12.987,17.19 C13.3287124,17.08012 13.660554,16.9416296 13.979,16.776 L14.562,16.476 L16.595,18.14 L18.143,16.591 L16.479,14.556 L16.779,13.972 C16.9446037,13.6542337 17.0830952,13.3230586 17.193,12.982 L17.393,12.357 L20,12.1 L20,9.9 L17.39,9.639 L17.19,9.014 C17.0800952,8.67294144 16.9416037,8.3417663 16.776,8.024 L16.476,7.44 L18.138,5.41 L16.59,3.861 L14.557,5.525 L13.974,5.225 C13.655552,5.05937466 13.3237108,4.92088448 12.982,4.811 L12.356,4.611 L12.1,2 L9.9,2 L9.639,4.61 L9.013,4.81 C8.67128919,4.91988448 8.33944799,5.05837466 8.021,5.224 L7.438,5.524 L5.41,3.861 L3.862,5.41 L5.526,7.445 L5.226,8.029 C5.06039627,8.3467663 4.92190485,8.67794144 4.812,9.019 L4.612,9.644 L2,9.9 L2,12.1 L4.61,12.361 L4.81,12.986 C4.91990485,13.3270586 5.05839627,13.6582337 5.224,13.976 L5.524,14.56 L3.862,16.59 L5.41,18.139 L7.443,16.475 L8.026,16.775 C8.34444598,16.9406296 8.67628755,17.07912 9.018,17.189 L9.644,17.389 L9.9,20 Z"
             id="Path_18871" />
        </g>
        <g
           id="Group_8817"
           transform="translate(7.000000, 7.000000)">
          <path
             d="M4,8 C1.790861,8 0,6.209139 0,4 C0,1.790861 1.790861,0 4,0 C6.209139,0 8,1.790861 8,4 C8,5.06086596 7.57857264,6.07828161 6.82842712,6.82842712 C6.07828161,7.57857264 5.06086596,8 4,8 Z M4,2 C2.8954305,2 2,2.8954305 2,4 C2,5.1045695 2.8954305,6 4,6 C5.1045695,6 6,5.1045695 6,4 C6,2.8954305 5.1045695,2 4,2 Z"
             id="Path_18872" />
        </g>
      </g>
    </g>
  </g>
  <path
     style="fill:#a0892c;stroke:#a0892c;stroke-width:0.0477897"
     d="M 11.30227,27.913278 C 9.297619,27.520296 7.9349662,25.799967 8.0443643,23.800219 c 0.032997,-0.603166 0.1164986,-0.953341 0.3459748,-1.450889 0.423646,-0.918546 1.2704754,-1.713265 2.1926889,-2.05776 0.956225,-0.3572 2.114239,-0.332715 3.010503,0.06366 0.566652,0.2506 1.246417,0.799797 1.630622,1.317414 0.191568,0.25809 0.478157,0.850827 0.601905,1.244891 0.09654,0.307427 0.111762,0.453985 0.111423,1.072911 -4.3e-4,0.81354 -0.056,1.078624 -0.361348,1.724144 -0.481647,1.01823 -1.478531,1.845191 -2.56425,2.127165 -0.481037,0.12493 -1.269022,0.157899 -1.709613,0.07153 z m 1.18616,-1.96323 c 0.704338,-0.183456 1.220014,-0.668035 1.442206,-1.355234 0.132666,-0.410313 0.08648,-1.04005 -0.106501,-1.452198 -0.548727,-1.171894 -2.083296,-1.523588 -3.093539,-0.708979 -0.886708,0.714997 -0.9926116,2.0655 -0.228887,2.918812 0.489297,0.546692 1.274911,0.783002 1.986721,0.597599 z"
     id="path44962" />
  <path
     style="fill:#a0892c;stroke:#a0892c;stroke-width:0.0477897"
     d="m 9.1139393,34.851028 c -0.013445,-0.05934 -0.085146,-0.7394 -0.1593348,-1.511235 -0.074189,-0.771836 -0.1569639,-1.433527 -0.183944,-1.470424 -0.047202,-0.06455 -0.2172803,0.06759 -2.4408564,1.896383 -0.031793,0.02615 -0.7962524,-0.705157 -2.090312,-1.999659 L 2.1993043,29.725209 3.1997001,28.506571 C 3.9532645,27.588612 4.1860228,27.275083 4.1430587,27.235855 4.1116882,27.207211 3.483871,27.124658 2.7479092,27.052401 2.0119474,26.980145 1.318399,26.909259 1.2066906,26.894877 L 1.0035842,26.868729 V 23.9943 21.11987 l 1.3739546,-0.133749 c 1.7802671,-0.173302 1.7801673,-0.173288 1.7801673,-0.253372 0,-0.05803 -0.3465922,-0.492626 -1.6541413,-2.074159 l -0.2990567,-0.361722 2.0425203,-2.042106 2.0425205,-2.042106 1.2001252,0.982083 c 0.6600688,0.540146 1.2224406,0.982083 1.2497147,0.982083 0.066144,0 0.080568,-0.102838 0.2211847,-1.577061 0.066438,-0.696535 0.1322576,-1.336488 0.1462657,-1.422116 l 0.025469,-0.155689 2.8768938,0.01232 2.876894,0.01232 0.151764,1.54543 c 0.08347,0.849986 0.16328,1.556944 0.177353,1.571017 0.04826,0.04827 0.151603,-0.02933 1.313703,-0.986469 0.640486,-0.527521 1.178215,-0.95913 1.194954,-0.95913 0.01674,0 0.940593,0.910347 2.053008,2.022994 l 2.022573,2.022993 -0.983357,1.200636 c -0.917374,1.120072 -1.074735,1.349653 -0.923621,1.347513 0.03286,-4.78e-4 0.742533,0.06837 1.577061,0.152963 l 1.517324,0.15381 v 2.875189 2.875188 l -0.203107,0.02682 c -0.111708,0.01475 -0.813315,0.08742 -1.559125,0.161488 -0.91481,0.09085 -1.363296,0.153631 -1.378379,0.19294 -0.0123,0.03205 0.422902,0.599581 0.967111,1.261185 l 0.989471,1.202919 -2.024473,2.025095 c -1.11346,1.113802 -2.051109,2.014926 -2.083664,2.002497 -0.03256,-0.01243 -0.587653,-0.456443 -1.233549,-0.986697 -0.740881,-0.608232 -1.191099,-0.947357 -1.219713,-0.918743 -0.02494,0.02495 -0.11544,0.732214 -0.201099,1.571708 l -0.155744,1.526353 -2.873101,0.01232 -2.8731008,0.01232 z m 4.1373887,-3.126809 c 0.06985,-0.701021 0.143754,-1.289741 0.164238,-1.308264 0.02048,-0.01852 0.278986,-0.113341 0.574452,-0.210706 0.295466,-0.09736 0.76727,-0.29235 1.048454,-0.433302 0.281183,-0.140951 0.532144,-0.243357 0.55769,-0.227569 0.02555,0.01579 0.475737,0.380139 1.000423,0.809667 0.524687,0.429529 0.978471,0.780961 1.008408,0.780961 0.08831,0 1.573815,-1.513921 1.539688,-1.569139 -0.01715,-0.02776 -0.38549,-0.483595 -0.818521,-1.012973 -0.433032,-0.529378 -0.787331,-0.982601 -0.787331,-1.007161 0,-0.02456 0.100395,-0.243151 0.223099,-0.485756 0.122705,-0.242605 0.321757,-0.720504 0.442338,-1.061997 l 0.219239,-0.620896 1.266145,-0.128703 c 0.69638,-0.07079 1.282274,-0.130093 1.301987,-0.131792 0.01971,-0.0017 0.03584,-0.508465 0.03584,-1.126147 0,-1.037705 -0.0064,-1.123061 -0.08363,-1.123099 -0.046,-2.2e-5 -0.610514,-0.05377 -1.25448,-0.119434 -0.643967,-0.06567 -1.193998,-0.119412 -1.222292,-0.119434 -0.02829,-2.2e-5 -0.132578,-0.246697 -0.231743,-0.548166 -0.09916,-0.30147 -0.303932,-0.792728 -0.455037,-1.091685 l -0.274737,-0.543558 0.834197,-1.017341 0.834197,-1.01734 -0.781312,-0.782389 c -0.429721,-0.430314 -0.797324,-0.776952 -0.816896,-0.770306 -0.01957,0.0066 -0.478799,0.374618 -1.020504,0.817716 l -0.984919,0.805634 -0.604754,-0.286402 c -0.332615,-0.157522 -0.823056,-0.357265 -1.089869,-0.443875 -0.48227,-0.15655 -0.485262,-0.158473 -0.510489,-0.328073 -0.01396,-0.09383 -0.07439,-0.68173 -0.134298,-1.306446 l -0.108922,-1.135847 -1.124381,0.01279 -1.124381,0.01279 -0.127617,1.282002 c -0.07019,0.705102 -0.134944,1.287614 -0.143901,1.294471 -0.009,0.0069 -0.252844,0.09254 -0.541972,0.190406 -0.2891277,0.09786 -0.7623903,0.294923 -1.0516949,0.437906 -0.2893047,0.142983 -0.5419709,0.25997 -0.561481,0.25997 -0.01951,0 -0.4801396,-0.365592 -1.0236206,-0.812426 -0.543481,-0.446833 -1.0007364,-0.812425 -1.0161228,-0.812425 -0.015387,0 -0.3782328,0.350741 -0.8063251,0.779423 l -0.7783494,0.779423 0.8352291,1.020269 0.8352294,1.020268 -0.2579991,0.514435 c -0.1418996,0.28294 -0.3452989,0.767613 -0.4519981,1.077053 -0.1066994,0.30944 -0.2000118,0.568631 -0.2073608,0.57598 -0.014685,0.01469 -2.3940038,0.254102 -2.5286487,0.254443 -0.07726,1.91e-4 -0.083632,0.08538 -0.083632,1.117952 v 1.11774 l 0.1553166,0.02637 c 0.085424,0.0145 0.6606929,0.07381 1.2783751,0.131786 0.6176822,0.05798 1.1469689,0.129151 1.1761927,0.15816 0.029224,0.02901 0.1258628,0.278529 0.2147531,0.554486 0.088891,0.275958 0.2838203,0.745633 0.433177,1.043723 l 0.271558,0.54198 -0.8305897,1.011236 -0.8305897,1.011236 0.7738429,0.776583 c 0.4256137,0.427121 0.7915759,0.776583 0.81325,0.776583 0.029975,0 1.404303,-1.101177 1.9506781,-1.562975 0.067173,-0.05678 0.1541472,-0.02766 0.6577286,0.220178 0.3191751,0.157083 0.797956,0.356807 1.0639573,0.443831 0.346671,0.113416 0.494591,0.185293 0.522314,0.253805 0.02127,0.05257 0.08471,0.611708 0.140976,1.242533 0.05627,0.630824 0.110593,1.173835 0.120728,1.20669 0.01405,0.04556 0.283241,0.05974 1.134064,0.05974 h 1.115638 z"
     id="path44964" />
</svg>
