<?xml version="1.0" encoding="UTF-8" standalone="no"?>
<!-- Generator: Adobe Illustrator 23.1.1, SVG Export Plug-In . SVG Version: 6.00 Build 0)  -->

<svg
   version="1.1"
   id="Layer_1"
   x="0px"
   y="0px"
   width="24px"
   height="31px"
   viewBox="0 0 24 30"
   style="enable-background:new 0 0 24 30;"
   xml:space="preserve"
   sodipodi:docname="ic-nav-cold-staking-active.svg"
   inkscape:version="1.2.1 (9c6d41e410, 2022-07-14)"
   xmlns:inkscape="http://www.inkscape.org/namespaces/inkscape"
   xmlns:sodipodi="http://sodipodi.sourceforge.net/DTD/sodipodi-0.dtd"
   xmlns="http://www.w3.org/2000/svg"
   xmlns:svg="http://www.w3.org/2000/svg"><defs
   id="defs42486" /><sodipodi:namedview
   id="namedview42484"
   pagecolor="#ffffff"
   bordercolor="#000000"
   borderopacity="0.25"
   inkscape:showpageshadow="2"
   inkscape:pageopacity="0.0"
   inkscape:pagecheckerboard="0"
   inkscape:deskcolor="#d1d1d1"
   showgrid="false"
   inkscape:zoom="27"
   inkscape:cx="12"
   inkscape:cy="15.518519"
   inkscape:window-width="1920"
   inkscape:window-height="1017"
   inkscape:window-x="-8"
   inkscape:window-y="456"
   inkscape:window-maximized="1"
   inkscape:current-layer="Layer_1" />
<style
   type="text/css"
   id="style42475">
	.st0{fill:#B088FF;}
</style>
	<title
   id="title42477">Cold Staking</title>
	<desc
   id="desc42479">Created with Sketch.</desc>
	<path
   class="st0"
   d="M21.7,22.1l-3-1.6l2.7-0.5c0.5,0,0.8-0.5,0.5-1.1c0-0.5-0.5-0.8-1.1-0.5l-4.3,1.1l-3-1.6l3-1.6l4.3,1.1h0.3  c0.3,0,0.8-0.3,0.8-0.5c0-0.5-0.3-0.8-0.5-1.1l-2.7-0.5l3-1.6c0.5-0.3,0.5-0.8,0.3-1.1c-0.3-0.3-0.8-0.5-1.1-0.3l-3,1.6l0.8-2.4  c0-0.5-0.3-0.8-0.5-1.1c-0.5,0-1.1,0.3-1.1,0.5L16,14.8l-3,1.6v-3.3l3.3-3c0.3-0.3,0.3-0.8,0-1.1c-0.3-0.3-0.8-0.3-1.4,0L13.1,11  V7.8c0-0.5-0.3-0.8-0.8-0.8c-0.5,0-0.8,0.3-0.8,0.8V11L9.3,8.9C9,8.6,8.5,8.6,7.9,8.9c-0.3,0.3-0.3,0.8,0,1.1l3.3,3v3.3l-3-1.6  l-1.1-4.1c0-0.5-0.5-0.8-1.1-0.5c-0.5,0-0.8,0.5-0.5,1.1l0.8,2.4l-3-1.6c-0.5-0.3-1.1,0-1.1,0.3c-0.3,0.3,0,0.8,0.3,1.1l3,1.6  l-2.7,0.5c-0.5,0-0.8,0.5-0.5,1.1C2.2,16.7,2.8,17,3,17h0.3l4.3-1.1l3,1.6l-3,1.6l-4.3-1.1c-0.5,0-1.1,0.3-1.1,0.5  c0,0.5,0.3,0.8,0.5,1.1l2.7,0.5l-3,1.6c-0.5,0.3-0.5,0.8-0.3,1.1c0.3,0.3,0.5,0.5,0.8,0.5s0.3,0,0.5,0l2.7-1.6l-0.8,2.7  c0,0.5,0.3,0.8,0.5,1.1h0.3c0.3,0,0.8-0.3,0.8-0.5l1.1-4.1l3-1.6v3.3l-3.3,3c-0.3,0.3-0.3,0.8,0,1.1s0.8,0.3,1.4,0l1.9-1.9v3.3  c0,0.5,0.3,0.8,0.8,0.8c0.5,0,0.8-0.3,0.8-0.8v-3.3l1.9,1.9C15,27,15,27,15.2,27c0.3,0,0.5,0,0.5-0.3c0.3-0.3,0.3-0.8,0-1.1l-3.3-3  v-3.5l3,1.6l1.1,4.1c0,0.3,0.5,0.5,0.8,0.5h0.3c0.5,0,0.8-0.5,0.5-1.1v-2.4l3,1.6c0.3,0,0.3,0,0.5,0c0.3,0,0.5-0.3,0.8-0.5  C22.6,23,22.3,22.4,21.7,22.1z"
   id="path42481" />
<path
   style="fill:#a0892c;stroke:#a0892c;stroke-width:0.037037"
   d="M 11.549727,29.354993 C 11.258889,29.260617 11.096445,29.072516 11.037539,28.761903 11.015698,28.646738 11,27.873091 11,26.911874 v -1.652091 l -0.972222,0.970199 c -1.104341,1.102042 -1.1325721,1.121609 -1.6574076,1.148785 -0.2799489,0.0145 -0.3332734,0.0064 -0.4814815,-0.073 C 7.5277315,27.112264 7.3876407,26.630929 7.59321,26.289853 7.6482081,26.198601 8.3515133,25.531851 9.3425926,24.631398 L 11,23.125547 v -1.664626 c 0,-0.915543 -0.0073,-1.664625 -0.01633,-1.664625 -0.009,0 -0.687439,0.357798 -1.5076898,0.795105 L 7.9846204,21.386507 7.4221052,23.483044 C 7.0000807,25.05596 6.8396496,25.600807 6.7797515,25.664566 6.6253374,25.828932 6.3385644,25.95396 6.0722781,25.973013 L 5.8223656,25.990894 5.6890033,25.810262 C 5.4856211,25.534791 5.3587527,25.252831 5.3431899,25.041704 5.331544,24.883715 5.3947819,24.631677 5.7199881,23.539958 5.9349241,22.818417 6.1039493,22.221233 6.0955993,22.212883 6.0747156,22.192 6.0854533,22.185878 4.6398865,23.042731 l -1.2869684,0.762845 -0.3239547,-0.01847 c -0.3490798,-0.0199 -0.3951263,-0.0394 -0.7102558,-0.300773 -0.3935922,-0.326446 -0.4241941,-0.81053 -0.0721,-1.140526 0.057884,-0.05425 0.7552439,-0.443948 1.5496883,-0.865993 C 5.3025804,20.679606 5.4221291,20.613487 5.4009585,20.592317 5.3891094,20.580467 2.7875589,20.09243 2.7368478,20.092543 2.6904955,20.092646 2.3909335,19.628059 2.3091223,19.429189 2.19773,19.158411 2.1965414,18.971596 2.3055556,18.868588 c 0.1736716,-0.164103 0.6100331,-0.327241 0.8981481,-0.335781 0.083297,-0.0025 1.0784868,0.234322 2.273432,0.540929 L 7.6024196,19.619056 7.92158,19.45008 C 9.7076456,18.504469 10.572557,18.030921 10.570078,18 10.567611,17.969221 9.549937,17.412034 7.9216333,16.549948 l -0.319107,-0.168947 -2.1994114,0.56286 c -2.408429,0.616351 -2.365863,0.609622 -2.7310867,0.431722 -0.3399262,-0.165579 -0.385652,-0.22821 -0.4679788,-0.641002 -0.0548,-0.274769 0.1687489,-0.646627 0.4156912,-0.691475 0.056365,-0.01024 0.7316057,-0.132456 1.5005352,-0.2716 C 4.8892053,15.632363 5.5179494,15.510185 5.5174851,15.5 5.5170207,15.489815 4.8404931,15.123148 4.0140904,14.685185 2.414214,13.83731 2.3794774,13.813538 2.1896511,13.436661 2.0853574,13.229598 2.0900971,13.029406 2.2046941,12.801249 2.3149159,12.581802 2.43451,12.478466 2.6433411,12.422234 c 0.2970058,-0.07997 0.3966142,-0.03905 2.0478766,0.841325 0.8643496,0.460832 1.5811401,0.828281 1.5928675,0.816554 0.011728,-0.01173 -0.180727,-0.623508 -0.4276774,-1.359511 -0.2719356,-0.81047 -0.449,-1.395803 -0.449,-1.484288 0,-0.319998 0.1728322,-0.529512 0.5070048,-0.614612 0.4608289,-0.117355 0.5554348,-0.132128 0.6874745,-0.107358 0.2238166,0.04199 0.4721874,0.301453 0.4721874,0.493278 0,0.06209 1.1008478,4.202199 1.1206689,4.214656 0.1249103,0.0785 2.9680646,1.574018 2.9923916,1.574018 0.0216,0 0.03429,-0.637097 0.03301,-1.657407 l -0.0021,-1.657408 -1.6449107,-1.491688 C 8.6684607,11.169364 7.882557,10.438197 7.8267093,10.364976 7.6253263,10.10095 7.6857696,9.5715599 7.9356626,9.410715 8.2167185,9.2298121 8.7975885,9.1490864 9.0523359,9.2555267 c 0.068521,0.02863 0.6329993,0.5383345 1.2612761,1.1388893 0.625485,0.597886 1.15247,1.092621 1.171077,1.099411 0.0201,0.0073 0.03383,-0.67057 0.03383,-1.670399 0,-1.7351659 0.0065,-1.8211831 0.154071,-2.0332122 0.226149,-0.3249687 0.946212,-0.3501452 1.224146,-0.042801 0.172977,0.1912812 0.177338,0.2417175 0.177338,2.0507787 0,1.0372105 0.01353,1.7031305 0.03445,1.6956335 0.01895,-0.0068 0.433274,-0.45512 0.920728,-0.996289 0.756087,-0.8394035 0.912887,-0.9953395 1.067405,-1.0615217 0.23672,-0.1013911 0.58156,-0.1631894 0.75545,-0.1353833 0.548604,0.087725 0.829909,0.699004 0.529143,1.149835 -0.05215,0.07817 -0.834263,0.813348 -1.738031,1.633732 L 13,13.575807 v 1.668886 c 0,0.940531 0.01417,1.663499 0.03246,1.656541 0.01786,-0.0068 0.697021,-0.36703 1.509259,-0.800534 l 1.476797,-0.78819 0.552004,-1.97107 c 0.387058,-1.382088 0.5752,-1.997066 0.62963,-2.058069 0.04269,-0.04785 0.158857,-0.128344 0.25814,-0.178875 0.187424,-0.09539 0.669546,-0.214012 0.726578,-0.178765 0.0662,0.04091 0.37301,0.53451 0.426525,0.686186 0.0304,0.08616 0.05527,0.217357 0.05527,0.291549 0,0.07419 -0.17505,0.659447 -0.389,1.300568 -0.213949,0.641121 -0.384783,1.176837 -0.379629,1.190481 0.0052,0.01364 0.717662,-0.352875 1.583352,-0.814484 1.764492,-0.940875 1.714885,-0.923681 2.114557,-0.732885 0.340442,0.16252 0.51413,0.387516 0.514957,0.667075 4.63e-4,0.156006 -0.09812,0.380401 -0.22118,0.503462 -0.08407,0.08407 -0.674629,0.420406 -1.658296,0.944431 -0.840248,0.447622 -1.527724,0.823562 -1.527724,0.835423 0,0.01186 0.570833,0.126399 1.268518,0.254529 0.697685,0.12813 1.304526,0.241097 1.348534,0.251038 0.08452,0.01909 0.373984,0.422512 0.472714,0.658807 0.03102,0.07424 0.06694,0.214393 0.07981,0.311441 0.0231,0.174095 0.0211,0.178481 -0.149212,0.328398 -0.09494,0.08357 -0.249665,0.178198 -0.34383,0.210283 -0.346638,0.118112 -0.490642,0.09278 -2.721294,-0.4787 -1.152917,-0.29537 -2.117543,-0.537037 -2.143614,-0.537037 -0.04572,0 -2.949555,1.534301 -3.006145,1.588359 -0.01532,0.01463 0.650477,0.38827 1.479546,0.830302 l 1.5074,0.803696 2.113046,-0.538806 c 1.162175,-0.296344 2.208946,-0.571374 2.326157,-0.611179 0.266064,-0.09035 0.410546,-0.09027 0.610198,3.71e-4 0.165366,0.07507 0.287642,0.234287 0.326979,0.42577 0.01272,0.06193 0.04661,0.184022 0.07531,0.271308 0.06828,0.20767 0.06596,0.379419 -0.0076,0.563249 -0.107871,0.269595 -0.138945,0.279873 -1.74885,0.578425 -0.808038,0.149849 -1.477493,0.273263 -1.487678,0.274253 -0.05518,0.0054 0.26012,0.181129 1.639919,0.914158 1.211519,0.643629 1.563638,0.847537 1.735037,1.004742 0.248803,0.228199 0.406611,0.455826 0.333018,0.480357 -0.026,0.0087 -0.142639,0.09512 -0.259205,0.192133 -0.318749,0.265257 -0.399505,0.296936 -0.756963,0.296936 h -0.311873 l -1.491903,-0.796296 c -0.820546,-0.437963 -1.497698,-0.796296 -1.504781,-0.796296 -0.0071,0 -0.01288,0.539631 -0.01288,1.199181 0,0.982152 0.01006,1.223244 0.05556,1.332143 0.0863,0.206548 0.07273,0.543341 -0.0279,0.692678 -0.145013,0.215184 -0.29549,0.276246 -0.6758,0.274234 -0.363243,-0.0019 -0.639176,-0.09025 -0.792806,-0.25378 -0.05721,-0.0609 -0.21572,-0.598117 -0.597423,-2.024784 -0.285753,-1.068042 -0.543484,-2.025959 -0.572736,-2.128704 l -0.05318,-0.186809 -1.48916,-0.794672 c -0.819039,-0.43707 -1.502906,-0.800228 -1.519704,-0.807018 -0.0168,-0.0068 -0.02955,0.784876 -0.02833,1.759259 l 0.0022,1.771605 1.671252,1.518519 c 0.919188,0.835185 1.705695,1.565574 1.747792,1.623086 0.06181,0.08444 0.07654,0.159905 0.07654,0.392055 0,0.249202 -0.013,0.306796 -0.09759,0.43247 -0.05367,0.07974 -0.107878,0.189704 -0.120457,0.244365 -0.02767,0.120237 -0.100263,0.146492 -0.409976,0.148279 -0.390075,0.0023 -0.523521,-0.0962 -1.657338,-1.222738 l -0.98906,-0.982708 -0.01094,1.793707 -0.01094,1.793706 -0.09306,0.166201 c -0.119284,0.21304 -0.33485,0.336168 -0.621504,0.354995 -0.11625,0.0076 -0.255653,-4.89e-4 -0.309785,-0.01806 z"
   id="path42488"
   transform="translate(0,-0.5)" /></svg>
