<?xml version="1.0" encoding="UTF-8" standalone="no"?>
<svg
   width="24px"
   height="40px"
   viewBox="0 0 24 40"
   version="1.1"
   id="svg44372"
   sodipodi:docname="ic-nav-privacy-active.svg"
   inkscape:version="1.2.1 (9c6d41e410, 2022-07-14)"
   xmlns:inkscape="http://www.inkscape.org/namespaces/inkscape"
   xmlns:sodipodi="http://sodipodi.sourceforge.net/DTD/sodipodi-0.dtd"
   xmlns="http://www.w3.org/2000/svg"
   xmlns:svg="http://www.w3.org/2000/svg">
  <defs
     id="defs44376" />
  <sodipodi:namedview
     id="namedview44374"
     pagecolor="#ffffff"
     bordercolor="#000000"
     borderopacity="0.25"
     inkscape:showpageshadow="2"
     inkscape:pageopacity="0.0"
     inkscape:pagecheckerboard="0"
     inkscape:deskcolor="#d1d1d1"
     showgrid="false"
     inkscape:zoom="20.925"
     inkscape:cx="11.995221"
     inkscape:cy="20.023895"
     inkscape:window-width="1920"
     inkscape:window-height="1017"
     inkscape:window-x="-8"
     inkscape:window-y="456"
     inkscape:window-maximized="1"
     inkscape:current-layer="svg44372" />
  <!-- Generator: Sketch 52.6 (67491) - http://www.bohemiancoding.com/sketch -->
  <title
     id="title44364">Privacy Active</title>
  <desc
     id="desc44366">Created with Sketch.</desc>
  <g
     id="Privacy-Active"
     stroke="none"
     stroke-width="1"
     fill="none"
     fill-rule="evenodd">
    <g
       id="Group"
       transform="translate(1.000000, 13.000000)"
       fill="#B088FF"
       fill-rule="nonzero">
      <path
         d="M20.025,10.116 L17.771,0.009 L11,1.156 L4.229,0 L1.975,10.116 L0,10.116 L0,12.116 L22,12.116 L22,10.116 L20.025,10.116 Z M5.771,2.294 L11,3.183 L16.229,2.283 L17.976,10.116 L4.024,10.116 L5.771,2.294 Z"
         id="Path_18869" />
      <path
         d="M12,16.116 L10,16.116 L10,14.116 L1,14.116 L1,17.854 C1.08087292,20.2726593 3.08016383,22.1830929 5.5,22.154 C7.77023475,22.0683766 9.65187105,20.366305 9.964,18.116 L12.036,18.116 C12.3490129,20.3655153 14.2304203,22.0665369 16.5,22.152 C18.9198362,22.1810929 20.9191271,20.2706593 21,17.852 L21,14.116 L12,14.116 L12,16.116 Z M8,17.854 C7.90893564,19.1676128 6.81676551,20.186691 5.5,20.186691 C4.18323449,20.186691 3.09106436,19.1676128 3,17.854 L3,16.116 L8,16.116 L8,17.854 Z M14,16.116 L19,16.116 L19,17.854 C18.9089356,19.1676128 17.8167655,20.186691 16.5,20.186691 C15.1832345,20.186691 14.0910644,19.1676128 14,17.854 L14,16.116 Z"
         id="Path_18870" />
    </g>
  </g>
  <path
     style="fill:#a0892c;stroke:#a0892c;stroke-width:0.0477897"
     d="M 1.0035842,24.133811 V 23.154122 H 1.9968838 2.9901834 L 4.107901,18.124253 c 0.6147447,-2.766427 1.1301255,-5.044368 1.1452906,-5.06209 0.015165,-0.01772 1.5406034,0.226347 3.3898626,0.542377 l 3.3622898,0.5746 3.304377,-0.55728 c 1.817407,-0.306504 3.335706,-0.561327 3.373998,-0.566273 0.05457,-0.007 0.312952,1.080699 1.195476,5.032824 l 1.125855,5.041816 0.990904,0.01292 0.990904,0.01292 v 0.97872 0.97872 H 11.995221 1.0035842 Z M 18.972222,23.07049 c -3.82e-4,-0.105953 -1.705463,-7.755144 -1.735368,-7.78505 -0.01219,-0.01218 -1.192398,0.179513 -2.622696,0.425995 l -2.600542,0.44815 -2.6227682,-0.444319 C 7.9483254,15.470891 6.763502,15.275845 6.7579068,15.28183 c -0.018077,0.01934 -1.7400009,7.750761 -1.7399932,7.812555 6e-6,0.04752 1.4273313,0.05974 6.9773074,0.05974 6.613301,0 6.977284,-0.0044 6.977001,-0.08363 z"
     id="path44378" />
  <path
     style="fill:#a0892c;stroke:#a0892c;stroke-width:0.0477897"
     d="M 5.9020311,35.095853 C 5.2676964,35.017352 4.4931568,34.726684 3.9665472,34.369508 3.649171,34.154246 3.0780774,33.590204 2.8372671,33.254171 2.5574352,32.863686 2.2720209,32.24506 2.1438365,31.751183 2.0463143,31.375443 2.0384507,31.216241 2.0195708,29.235364 l -0.020155,-2.114695 h 4.4961106 4.4961106 v 1.003584 1.003585 h 1.003584 1.003584 v -1.003585 -1.003584 h 4.49533 4.495329 l -0.01753,2.13859 c -0.01639,2.000153 -0.02407,2.162037 -0.118525,2.500792 -0.377703,1.354552 -1.219201,2.372852 -2.426887,2.936788 -1.274771,0.595262 -2.578659,0.566554 -3.870967,-0.08523 -1.221922,-0.616284 -2.199024,-1.89498 -2.437502,-3.189866 -0.06728,-0.365303 0.03577,-0.334528 -1.120162,-0.334528 H 10.95563 l -0.102431,0.442055 c -0.444836,1.919758 -2.0270767,3.325701 -4.0180148,3.570317 -0.4482233,0.05507 -0.4582989,0.05503 -0.9331531,-0.0037 z M 7.1717324,33.113721 C 7.5896072,32.99098 7.9841329,32.756638 8.2915102,32.448592 8.882702,31.856111 9.0322581,31.362614 9.0322581,30.004303 V 29.080048 H 6.4994026 3.9665472 l 8.296e-4,0.896057 c 5.596e-4,0.604169 0.02381,1.005029 0.071377,1.230586 0.1886754,0.894683 0.7968088,1.566821 1.6960133,1.874512 0.3854881,0.131908 1.0475835,0.146891 1.4369656,0.03252 z m 11.1181156,-0.04516 c 0.641943,-0.215493 1.125996,-0.621097 1.436527,-1.203714 0.244974,-0.459617 0.296016,-0.776206 0.296814,-1.84095 l 7.06e-4,-0.943847 h -2.538116 -2.538116 l 0.02077,1.039426 c 0.01848,0.924642 0.03274,1.07373 0.129154,1.35006 0.218743,0.626949 0.689619,1.17432 1.259138,1.463686 0.565117,0.287129 1.322903,0.340182 1.933119,0.135339 z"
     id="path44380" />
</svg>
