<?xml version="1.0" encoding="UTF-8" standalone="no"?>
<svg
   width="24px"
   height="40px"
   viewBox="0 0 24 40"
   version="1.1"
   id="svg44072"
   sodipodi:docname="ic-nav-privacy.svg"
   inkscape:version="1.2.1 (9c6d41e410, 2022-07-14)"
   xmlns:inkscape="http://www.inkscape.org/namespaces/inkscape"
   xmlns:sodipodi="http://sodipodi.sourceforge.net/DTD/sodipodi-0.dtd"
   xmlns="http://www.w3.org/2000/svg"
   xmlns:svg="http://www.w3.org/2000/svg">
  <defs
     id="defs44076" />
  <sodipodi:namedview
     id="namedview44074"
     pagecolor="#ffffff"
     bordercolor="#000000"
     borderopacity="0.25"
     inkscape:showpageshadow="2"
     inkscape:pageopacity="0.0"
     inkscape:pagecheckerboard="0"
     inkscape:deskcolor="#d1d1d1"
     showgrid="false"
     inkscape:zoom="20.925"
     inkscape:cx="11.995221"
     inkscape:cy="20.023895"
     inkscape:window-width="1920"
     inkscape:window-height="1017"
     inkscape:window-x="-8"
     inkscape:window-y="456"
     inkscape:window-maximized="1"
     inkscape:current-layer="svg44072" />
  <!-- Generator: Sketch 52.6 (67491) - http://www.bohemiancoding.com/sketch -->
  <title
     id="title44064">Privacy</title>
  <desc
     id="desc44066">Created with Sketch.</desc>
  <g
     id="Privacy"
     stroke="none"
     stroke-width="1"
     fill="none"
     fill-rule="evenodd">
    <g
       id="Group"
       transform="translate(1.000000, 13.000000)"
       fill="#938DA5"
       fill-rule="nonzero">
      <path
         d="M20.025,10.116 L17.771,0.009 L11,1.156 L4.229,0 L1.975,10.116 L0,10.116 L0,12.116 L22,12.116 L22,10.116 L20.025,10.116 Z M5.771,2.294 L11,3.183 L16.229,2.283 L17.976,10.116 L4.024,10.116 L5.771,2.294 Z"
         id="Path_18869" />
      <path
         d="M12,16.116 L10,16.116 L10,14.116 L1,14.116 L1,17.854 C1.08087292,20.2726593 3.08016383,22.1830929 5.5,22.154 C7.77023475,22.0683766 9.65187105,20.366305 9.964,18.116 L12.036,18.116 C12.3490129,20.3655153 14.2304203,22.0665369 16.5,22.152 C18.9198362,22.1810929 20.9191271,20.2706593 21,17.852 L21,14.116 L12,14.116 L12,16.116 Z M8,17.854 C7.90893564,19.1676128 6.81676551,20.186691 5.5,20.186691 C4.18323449,20.186691 3.09106436,19.1676128 3,17.854 L3,16.116 L8,16.116 L8,17.854 Z M14,16.116 L19,16.116 L19,17.854 C18.9089356,19.1676128 17.8167655,20.186691 16.5,20.186691 C15.1832345,20.186691 14.0910644,19.1676128 14,17.854 L14,16.116 Z"
         id="Path_18870" />
    </g>
  </g>
  <path
     style="fill:#a0892c;stroke:#a0892c;stroke-width:0.0477897"
     d="M 5.8821198,35.092652 C 4.9906195,34.981084 4.1092616,34.556954 3.4317515,33.91348 2.7842253,33.298483 2.3793597,32.618394 2.1475376,31.756272 2.0432302,31.368364 2.0374318,31.254768 2.0188618,29.235364 l -0.019446,-2.114695 h 4.4961106 4.4961106 v 1.004535 1.004534 l 1.015531,-0.0129 1.015532,-0.0129 0.01292,-0.991637 0.01292,-0.991637 h 4.470847 4.470846 l -0.01837,2.13859 c -0.01738,2.023757 -0.02401,2.159119 -0.123436,2.520908 -0.499739,1.818401 -1.990294,3.11074 -3.823989,3.315466 -1.528218,0.170621 -3.125085,-0.561184 -4.106209,-1.881774 -0.35674,-0.480172 -0.700237,-1.249488 -0.800172,-1.792115 -0.06727,-0.36528 0.03547,-0.334528 -1.117635,-0.334528 h -1.039735 l -0.123737,0.500051 c -0.465529,1.881321 -2.0436521,3.27312 -3.9791211,3.509318 -0.4780664,0.05834 -0.4780991,0.05834 -0.9757058,-0.0039 z m 1.341042,-1.996532 c 0.7859259,-0.242836 1.3600411,-0.784423 1.6544067,-1.560672 0.1178394,-0.310744 0.1257452,-0.387019 0.1442886,-1.392079 l 0.019618,-1.063321 H 6.4994026 3.9573302 l 0.019618,1.063321 c 0.018543,1.00506 0.026449,1.081335 0.1442884,1.392079 0.2922942,0.770785 0.8165871,1.273056 1.6135303,1.545755 0.4139191,0.141636 1.057405,0.148085 1.4883948,0.01492 z M 18.289848,33.06856 c 0.641943,-0.215493 1.125996,-0.621097 1.436527,-1.203714 0.244974,-0.459617 0.296016,-0.776206 0.296814,-1.84095 l 7.06e-4,-0.943847 h -2.538116 -2.538116 l 0.02077,1.039426 c 0.01848,0.924642 0.03274,1.07373 0.129154,1.35006 0.212631,0.609431 0.685844,1.169342 1.2226,1.446593 0.592441,0.306012 1.339843,0.363854 1.969657,0.152432 z"
     id="path44078" />
  <path
     style="fill:#a0892c;stroke:#a0892c;stroke-width:0.0477897"
     d="M 1.0035842,24.133811 V 23.154122 H 1.9980651 2.992546 l 1.1163562,-5.029869 c 0.6139959,-2.766427 1.128845,-5.044267 1.1441093,-5.061864 0.015264,-0.0176 1.5398903,0.226623 3.388058,0.542713 l 3.3603045,0.57471 3.306362,-0.557616 c 1.818499,-0.306689 3.337455,-0.561663 3.375457,-0.566609 0.05389,-0.007 0.316882,1.100849 1.194743,5.032824 l 1.125648,5.041816 0.991637,0.01292 0.991637,0.01292 v 0.97872 0.97872 H 11.995221 1.0035842 Z M 18.972521,23.06875 c 0,-0.107749 -1.70568,-7.753323 -1.736621,-7.784264 -0.01256,-0.01255 -1.194524,0.178972 -2.626595,0.425616 L 12.005538,16.158546 9.3876951,15.713861 C 7.9478815,15.469284 6.7643503,15.274678 6.7576258,15.281403 c -0.0195,0.0195 -1.7397047,7.743231 -1.7397047,7.811286 0,0.04977 1.3245797,0.06143 6.9772999,0.06143 6.667363,0 6.9773,-0.0038 6.9773,-0.08537 z"
     id="path44080" />
  <path
     style="fill:#d3bc5f;stroke:#d3bc5f;stroke-width:0.0477897"
     d="m 1.0035842,24.133811 v -0.979689 h 1.0035843 c 0.5519713,0 1.0052296,-0.01613 1.0072406,-0.03584 0.00562,-0.05507 0.066377,-0.327729 0.1304558,-0.585425 0.022876,-0.092 0.04331,-0.178016 0.04541,-0.191158 0.0021,-0.01314 0.016106,-0.07766 0.031125,-0.14337 0.015019,-0.06571 0.037308,-0.173237 0.049532,-0.238948 0.022826,-0.122703 0.053356,-0.26817 0.1002971,-0.477898 0.014708,-0.06571 0.036213,-0.162485 0.04779,-0.215053 0.011577,-0.05257 0.033082,-0.149343 0.04779,-0.215054 0.014707,-0.06571 0.036213,-0.162485 0.04779,-0.215054 0.011577,-0.05257 0.033082,-0.149343 0.04779,-0.215054 0.014708,-0.06571 0.036213,-0.162485 0.04779,-0.215053 0.011577,-0.05257 0.033082,-0.149343 0.04779,-0.215054 0.014707,-0.06571 0.036213,-0.162485 0.04779,-0.215054 0.011577,-0.05257 0.033082,-0.149343 0.04779,-0.215054 0.014708,-0.06571 0.036213,-0.162485 0.04779,-0.215053 0.011577,-0.05257 0.033082,-0.149343 0.04779,-0.215054 0.014708,-0.06571 0.038438,-0.173238 0.052735,-0.238949 0.028516,-0.131065 0.035151,-0.1586 0.080609,-0.334528 0.016979,-0.06571 0.039927,-0.173238 0.050996,-0.238948 0.011069,-0.06571 0.031781,-0.151733 0.046026,-0.191159 0.014246,-0.03943 0.036528,-0.136201 0.049516,-0.215054 0.012988,-0.07885 0.037558,-0.207885 0.0546,-0.286738 0.033524,-0.155116 0.039095,-0.178443 0.0856,-0.358423 0.016979,-0.06571 0.040872,-0.173238 0.053097,-0.238949 0.037056,-0.199191 0.1031836,-0.499807 0.1498041,-0.681004 0.015216,-0.05914 0.035563,-0.150537 0.045215,-0.203106 0.00965,-0.05257 0.031157,-0.149343 0.04779,-0.215054 0.016632,-0.06571 0.038603,-0.162485 0.048823,-0.215054 0.018936,-0.09739 0.030787,-0.147144 0.085379,-0.358422 0.016979,-0.06571 0.041159,-0.173238 0.053734,-0.238949 0.012574,-0.06571 0.041579,-0.194743 0.064455,-0.286738 0.022876,-0.092 0.04331,-0.178017 0.04541,-0.191159 0.0021,-0.01314 0.016106,-0.07766 0.031125,-0.143369 0.015019,-0.06571 0.037181,-0.173238 0.049249,-0.238949 0.012068,-0.06571 0.035495,-0.173238 0.052058,-0.238949 0.016564,-0.06571 0.038478,-0.162485 0.048699,-0.215054 0.018936,-0.09739 0.030787,-0.147144 0.085379,-0.358422 0.016979,-0.06571 0.042977,-0.183991 0.057774,-0.262844 0.014797,-0.07885 0.033383,-0.175627 0.041302,-0.215054 0.015463,-0.07699 0.1672228,-0.08408 0.5540563,-0.0259 0.1182795,0.01779 0.2742026,0.04123 0.346496,0.05208 0.072293,0.01086 0.190573,0.03153 0.2628435,0.04594 0.072271,0.01441 0.2049276,0.03667 0.2947933,0.04946 0.089866,0.01279 0.2242743,0.03368 0.2986858,0.04641 0.074412,0.01274 0.1944334,0.03296 0.2667154,0.04494 0.072282,0.01198 0.2066906,0.0359 0.2986858,0.05315 0.091995,0.01725 0.2102748,0.03754 0.2628435,0.04509 0.2313854,0.03323 0.4906595,0.07448 0.5973715,0.09503 0.063606,0.01225 0.1926385,0.03376 0.2867384,0.04779 0.0941,0.01403 0.2239928,0.03667 0.2886514,0.05029 0.064658,0.01363 0.1713247,0.03381 0.2370356,0.04486 0.2943699,0.04949 0.4172822,0.06945 0.5734767,0.09314 0.091995,0.01395 0.2201667,0.03606 0.2848257,0.04915 0.06466,0.01308 0.194551,0.03527 0.288651,0.0493 0.0941,0.01403 0.223993,0.03665 0.288652,0.05026 0.107089,0.02254 0.341634,0.06287 0.523774,0.09006 0.03943,0.0059 0.1362,0.02427 0.215053,0.04085 0.469346,0.09868 0.586864,0.10703 0.860216,0.06112 0.105137,-0.01766 0.234169,-0.03935 0.286738,-0.04821 0.05257,-0.0089 0.161838,-0.02893 0.24282,-0.04461 0.08098,-0.01568 0.231521,-0.04057 0.334528,-0.05532 0.242186,-0.03466 0.397917,-0.06091 0.543797,-0.09165 0.06466,-0.01363 0.194552,-0.03626 0.288652,-0.05029 0.0941,-0.01403 0.223993,-0.03665 0.288651,-0.05026 0.06466,-0.01361 0.19283,-0.03615 0.284825,-0.05009 0.092,-0.01394 0.221028,-0.03429 0.286739,-0.04522 0.06571,-0.01093 0.194743,-0.03199 0.286738,-0.04679 0.092,-0.01481 0.23178,-0.03767 0.310633,-0.05081 l 0.286739,-0.04779 c 0.30488,-0.05081 0.433587,-0.07287 0.525687,-0.09011 0.05257,-0.0098 0.181601,-0.03167 0.286738,-0.04852 0.251173,-0.04025 0.421893,-0.06806 0.597221,-0.09728 0.07885,-0.01314 0.213296,-0.03545 0.298761,-0.04958 0.279249,-0.04616 0.344592,-0.05761 0.493792,-0.0865 0.08098,-0.01568 0.23152,-0.04057 0.334528,-0.05532 0.103008,-0.01474 0.245149,-0.0354 0.315871,-0.0459 0.112008,-0.01664 0.136313,0.0037 0.188552,0.157485 0.03298,0.09712 0.06526,0.198087 0.07173,0.224372 0.01807,0.07343 0.06248,0.252216 0.08903,0.358422 0.06043,0.241729 0.07807,0.318734 0.09853,0.430108 0.02001,0.108967 0.06227,0.284853 0.09759,0.406213 0.0077,0.02628 0.02602,0.112305 0.04081,0.191159 0.0244,0.130053 0.06602,0.304602 0.102555,0.430107 0.0077,0.02628 0.02562,0.101553 0.03992,0.167264 0.01431,0.06571 0.03821,0.173238 0.05313,0.238949 0.01491,0.06571 0.03761,0.18399 0.05045,0.262843 0.01283,0.07885 0.03499,0.175627 0.04923,0.215054 0.01425,0.03943 0.03496,0.125448 0.04603,0.191159 0.01809,0.10737 0.05772,0.275459 0.09578,0.406213 0.0077,0.02628 0.02562,0.101553 0.03992,0.167264 0.01431,0.06571 0.03804,0.173237 0.05275,0.238948 0.01471,0.06571 0.03621,0.162485 0.04779,0.215054 0.01158,0.05257 0.03308,0.149343 0.04779,0.215054 0.01471,0.06571 0.03621,0.162485 0.04779,0.215054 0.01158,0.05257 0.03308,0.149342 0.04779,0.215053 0.01471,0.06571 0.03661,0.173238 0.04868,0.238949 0.01207,0.06571 0.03583,0.173238 0.05281,0.238949 0.01698,0.06571 0.03621,0.140979 0.04274,0.167264 0.02194,0.08832 0.06856,0.309548 0.09315,0.442055 0.01341,0.07228 0.03828,0.185185 0.05526,0.250896 0.05459,0.211277 0.06644,0.261028 0.08538,0.358423 0.01022,0.05257 0.03219,0.149342 0.04882,0.215053 0.01663,0.06571 0.03826,0.162485 0.04807,0.215054 0.03881,0.208004 0.0775,0.386121 0.100378,0.462132 0.02642,0.08777 0.06333,0.250136 0.0905,0.398083 0.0097,0.05257 0.0311,0.149343 0.04766,0.215054 0.01656,0.06571 0.03959,0.162485 0.05116,0.215054 0.01158,0.05257 0.03308,0.149343 0.04779,0.215053 0.01471,0.06571 0.03621,0.162485 0.04779,0.215054 0.01158,0.05257 0.03308,0.149343 0.04779,0.215054 0.01471,0.06571 0.03621,0.162485 0.04779,0.215054 0.01158,0.05257 0.03308,0.149343 0.04779,0.215053 0.01471,0.06571 0.03661,0.173238 0.04868,0.238949 0.05167,0.281369 0.07325,0.324598 0.175741,0.35206 0.05943,0.01592 0.511276,0.02925 1.004107,0.02961 l 0.896058,6.52e-4 V 24.13381 25.1135 H 11.995221 1.0035842 Z M 18.919084,23.110822 c 0.06251,-0.03958 0.05662,-0.143015 -0.02746,-0.482387 -0.0098,-0.03943 -0.02612,-0.114695 -0.03635,-0.167264 -0.01022,-0.05257 -0.03121,-0.149343 -0.04664,-0.215054 -0.03791,-0.161395 -0.07591,-0.338396 -0.09748,-0.454002 -0.0098,-0.05257 -0.03028,-0.143967 -0.0455,-0.203107 -0.0266,-0.103391 -0.0523,-0.213812 -0.0973,-0.41816 -0.01158,-0.05257 -0.03329,-0.149343 -0.04826,-0.215053 -0.01497,-0.06571 -0.03883,-0.194744 -0.05302,-0.286739 -0.0142,-0.092 -0.03938,-0.210275 -0.05595,-0.262843 -0.04448,-0.141062 -0.07992,-0.302681 -0.130986,-0.597372 -0.01594,-0.092 -0.04064,-0.199522 -0.05489,-0.238949 -0.01425,-0.03943 -0.03496,-0.125448 -0.04603,-0.191158 -0.01107,-0.06571 -0.03402,-0.173238 -0.051,-0.238949 -0.05459,-0.211278 -0.06644,-0.261028 -0.08538,-0.358423 -0.01022,-0.05257 -0.03103,-0.143967 -0.04625,-0.203106 -0.04376,-0.170091 -0.113489,-0.484634 -0.145663,-0.657109 -0.0098,-0.05257 -0.03028,-0.143967 -0.0455,-0.203106 -0.0266,-0.103391 -0.0523,-0.213813 -0.0973,-0.41816 -0.01158,-0.05257 -0.0346,-0.149343 -0.05116,-0.215054 -0.01656,-0.06571 -0.03801,-0.162485 -0.04767,-0.215054 -0.0097,-0.05257 -0.03062,-0.149343 -0.04659,-0.215054 -0.01597,-0.06571 -0.03694,-0.162485 -0.04659,-0.215054 -0.0097,-0.05257 -0.03,-0.143966 -0.04521,-0.203106 -0.08444,-0.328174 -0.116223,-0.468026 -0.149348,-0.657109 -0.05454,-0.311326 -0.06562,-0.324004 -0.253639,-0.290209 -0.206087,0.03704 -0.352922,0.06111 -0.580474,0.09516 -0.092,0.01376 -0.23178,0.03641 -0.310633,0.05031 -0.236828,0.04177 -0.470745,0.08165 -0.597372,0.101828 -0.216482,0.0345 -0.404459,0.06682 -0.523774,0.09007 -0.06466,0.0126 -0.204443,0.03469 -0.310633,0.0491 -0.106189,0.01441 -0.257588,0.03993 -0.336441,0.05672 -0.07885,0.01679 -0.175627,0.03524 -0.215054,0.04101 -0.08494,0.01243 -0.40009,0.06841 -0.54369,0.09658 -0.05581,0.01095 -0.198245,0.03211 -0.316525,0.04704 -0.118279,0.01492 -0.2533,0.03811 -0.300046,0.05152 -0.04675,0.01342 -0.154272,0.03457 -0.238949,0.04702 -0.180219,0.02649 -0.276333,0.04304 -0.536273,0.09234 -0.219458,0.04162 -0.271976,0.04173 -0.501793,0.0011 -0.09199,-0.01627 -0.221027,-0.03818 -0.286738,-0.04868 -0.137013,-0.02189 -0.36079,-0.06162 -0.585424,-0.103928 -0.08542,-0.01609 -0.198327,-0.03652 -0.250896,-0.0454 -0.304733,-0.05149 -0.398582,-0.0671 -0.549582,-0.0914 -0.091995,-0.01481 -0.2317801,-0.03767 -0.3106332,-0.05081 l -0.2867383,-0.04779 -0.2867384,-0.04779 c -0.078853,-0.01314 -0.1971326,-0.03329 -0.2628435,-0.04476 -0.065711,-0.01148 -0.1947431,-0.03299 -0.2867383,-0.04779 -0.091995,-0.0148 -0.2317802,-0.03767 -0.3106333,-0.05081 l -0.2867383,-0.04779 c -0.2375135,-0.03959 -0.363059,-0.06167 -0.8078227,-0.14209 -0.3502523,-0.06333 -0.4354418,-0.06586 -0.4816918,-0.01431 -0.047767,0.05325 -0.1525806,0.451884 -0.2363622,0.898954 -0.012314,0.06571 -0.035942,0.173237 -0.052505,0.238948 -0.016564,0.06571 -0.038013,0.162485 -0.047665,0.215054 -0.00965,0.05257 -0.029639,0.149343 -0.044415,0.215054 -0.014776,0.06571 -0.036338,0.162485 -0.047914,0.215054 -0.011577,0.05257 -0.033082,0.149342 -0.04779,0.215053 -0.014708,0.06571 -0.036213,0.162485 -0.04779,0.215054 -0.011577,0.05257 -0.034601,0.149343 -0.051165,0.215054 -0.016564,0.06571 -0.038478,0.162485 -0.048699,0.215054 -0.018936,0.09739 -0.030787,0.147145 -0.085379,0.358423 -0.016979,0.06571 -0.041159,0.173237 -0.053734,0.238948 -0.012574,0.06571 -0.041579,0.194743 -0.064455,0.286739 -0.022875,0.092 -0.044684,0.183489 -0.048463,0.203321 -0.00378,0.01983 -0.017785,0.08435 -0.031125,0.143369 -0.013339,0.05902 -0.034256,0.161075 -0.04648,0.226786 -0.023675,0.127268 -0.075656,0.374848 -0.095319,0.454003 -0.00653,0.02628 -0.025764,0.101553 -0.042743,0.167264 -0.016979,0.06571 -0.041159,0.173237 -0.053733,0.238948 -0.012575,0.06571 -0.041579,0.194743 -0.064455,0.286739 -0.022875,0.092 -0.046009,0.188769 -0.051407,0.215053 -0.0054,0.02628 -0.019405,0.0908 -0.031125,0.14337 -0.01172,0.05257 -0.030366,0.149343 -0.041435,0.215053 -0.011069,0.06571 -0.031781,0.151733 -0.046026,0.191159 -0.014246,0.03943 -0.038945,0.146954 -0.054887,0.238949 -0.043253,0.249589 -0.062754,0.345947 -0.096719,0.477897 -0.016914,0.06571 -0.036469,0.151733 -0.043455,0.191159 -0.00699,0.03943 -0.02634,0.125448 -0.043008,0.191159 -0.016669,0.06571 -0.0392,0.173238 -0.050069,0.238949 -0.010869,0.06571 -0.035509,0.180922 -0.054755,0.256025 -0.024353,0.09503 -0.015026,0.148892 0.030676,0.177137 0.087399,0.05402 13.763151,0.05543 13.84843,0.0014 z"
     id="path508" />
  <path
     style="fill:#d3bc5f;stroke:#d3bc5f;stroke-width:0.0477897"
     d="m 6.0978523,35.114181 c -0.00688,-0.0069 -0.1075132,-0.02243 -0.2236365,-0.03457 -0.1161234,-0.01214 -0.2595205,-0.03367 -0.3186602,-0.04785 -0.05914,-0.01418 -0.1522556,-0.03564 -0.2069241,-0.04767 -0.054668,-0.01204 -0.1460662,-0.03552 -0.2031063,-0.05218 -0.1617538,-0.04724 -1.0098272,-0.467959 -1.0276439,-0.509797 -0.00876,-0.02057 -0.044604,-0.03741 -0.079649,-0.03741 -0.035046,0 -0.070888,-0.01629 -0.07965,-0.0362 -0.00876,-0.0199 -0.1121887,-0.111301 -0.2298382,-0.203101 C 3.421229,33.905455 2.9829362,33.446383 2.8194544,33.193005 2.7420604,33.073053 2.6618308,32.953405 2.6411663,32.927121 2.5984706,32.872813 2.3913683,32.450156 2.3367458,32.305854 2.2838099,32.166009 2.1827178,31.831822 2.1849529,31.804062 2.1860111,31.79092 2.1661276,31.726404 2.1407674,31.660693 2.0686716,31.473885 2.059075,31.24327 2.0348709,29.11589 l -0.0227,-1.995221 h 4.4897332 4.4897329 v 1.003584 1.003585 l 0.943847,-7.32e-4 c 0.519116,-4.02e-4 0.976105,-0.0211 1.015532,-0.046 0.05889,-0.03719 0.07459,-0.216138 0.08795,-1.002853 l 0.01627,-0.957582 h 4.462459 4.46246 l -0.02278,2.043011 c -0.02297,2.060058 -0.04463,2.535187 -0.119788,2.628435 -0.0053,0.0066 -0.01232,0.03166 -0.0156,0.05575 -0.0033,0.02409 -0.0221,0.05994 -0.04182,0.07965 -0.01971,0.01971 -0.03584,0.07556 -0.03584,0.124105 0,0.04855 -0.01995,0.125606 -0.04434,0.171247 -0.02438,0.04564 -0.136283,0.271155 -0.248665,0.501143 -0.112381,0.229988 -0.221462,0.41816 -0.242403,0.41816 -0.02094,0 -0.03807,0.01968 -0.03807,0.04373 0,0.127801 -0.741567,0.8715 -1.123887,1.127119 -0.15725,0.105137 -0.296662,0.202437 -0.309804,0.216223 -0.04647,0.04874 -0.56089,0.284072 -0.669057,0.306068 -0.01314,0.0027 -0.04691,0.01954 -0.07503,0.03748 -0.02813,0.01794 -0.103395,0.04339 -0.167264,0.05655 -0.06387,0.01317 -0.169889,0.03707 -0.2356,0.05311 -0.336933,0.08226 -0.453727,0.09273 -1.027479,0.09213 -0.615904,-6.46e-4 -0.802407,-0.02174 -1.060865,-0.120008 -0.07363,-0.028 -0.144631,-0.04965 -0.157773,-0.04811 -0.144078,0.01681 -0.767917,-0.278232 -1.225183,-0.579447 -0.35743,-0.23545 -0.963649,-0.803376 -1.162708,-1.089262 -0.06406,-0.092 -0.128253,-0.178017 -0.142662,-0.191159 -0.05373,-0.04901 -0.390805,-0.685427 -0.404986,-0.764636 -0.0024,-0.01314 -0.04146,-0.101825 -0.08692,-0.197073 -0.04545,-0.09525 -0.09207,-0.22428 -0.103601,-0.286738 -0.01153,-0.06246 -0.02421,-0.11356 -0.02817,-0.11356 -0.0087,0 -0.02876,-0.08884 -0.06963,-0.308679 -0.0169,-0.09092 -0.05249,-0.191531 -0.07909,-0.223577 -0.05504,-0.06632 -2.094558,-0.09626 -2.100952,-0.03084 -0.002,0.02057 -0.01151,0.06966 -0.0211,0.10909 -0.0096,0.03943 -0.03056,0.125448 -0.04658,0.191159 -0.01603,0.06571 -0.03896,0.166472 -0.05096,0.223914 -0.012,0.05744 -0.06402,0.202879 -0.11559,0.323195 -0.05157,0.120316 -0.09806,0.234609 -0.103306,0.253984 -0.01195,0.04412 -0.269126,0.572142 -0.348139,0.714764 -0.08448,0.152485 -0.2586397,0.37657 -0.5054087,0.650279 C 9.5679985,33.788755 9.399782,33.937886 8.9034685,34.337569 8.7638561,34.45 7.8223459,34.892512 7.6452439,34.928938 c -0.065099,0.01339 -0.1667489,0.0362 -0.2258887,0.05069 -0.3793744,0.09295 -0.642139,0.129214 -1.0069489,0.138974 -0.1661278,0.0044 -0.3076769,0.0025 -0.3145536,-0.0044 z m 1.0945013,-1.990598 c 0.6329472,-0.141135 1.401849,-0.833073 1.6626548,-1.496229 0.1222977,-0.310969 0.1359713,-0.416552 0.1565978,-1.209194 0.010602,-0.407407 0.029529,-0.875149 0.042061,-1.039426 l 0.022785,-0.298686 H 6.4991004 3.9217493 l 0.023229,0.37037 c 0.012776,0.203704 0.032914,0.671446 0.044751,1.039427 0.02605,0.809863 0.02385,0.794844 0.1679769,1.146953 0.021518,0.05257 0.05201,0.127838 0.067762,0.167264 0.05723,0.143247 0.2211075,0.38724 0.3736211,0.556273 0.1927135,0.213586 0.788088,0.63847 0.8946661,0.63847 0.04319,0 0.098957,0.02031 0.1239269,0.04514 0.02497,0.02482 0.1200157,0.05822 0.2112125,0.07421 0.091197,0.01599 0.1737714,0.03704 0.1834993,0.04676 0.028502,0.0285 1.0229943,-0.0063 1.1799596,-0.04134 z m 10.8878604,0.01156 c 0.08336,-0.0253 0.187044,-0.05392 0.230407,-0.06361 0.286201,-0.06392 0.667641,-0.309071 0.984481,-0.63273 0.190561,-0.194663 0.346475,-0.384857 0.346475,-0.422654 0,-0.0378 0.01917,-0.06872 0.0426,-0.06872 0.04066,0 0.184525,-0.313238 0.22498,-0.489844 0.01054,-0.046 0.03317,-0.132019 0.05031,-0.191159 0.01713,-0.05914 0.04045,-0.575269 0.05182,-1.146954 l 0.02067,-1.039426 h -2.562773 -2.562773 l 0.02613,0.346475 c 0.01437,0.190562 0.0352,0.686464 0.04629,1.102004 0.01302,0.487886 0.0404,0.779917 0.07729,0.824373 0.03143,0.03786 0.04112,0.06884 0.02154,0.06884 -0.01958,0 -0.0088,0.03226 0.02389,0.07168 0.03272,0.03943 0.04546,0.07169 0.02831,0.07169 -0.03701,0 0.229889,0.488607 0.345298,0.632141 0.320241,0.398282 0.870831,0.80979 1.163584,0.869654 0.03507,0.0072 0.09602,0.02578 0.13545,0.04135 0.208389,0.08231 1.065257,0.09995 1.30602,0.02688 z"
     id="path510" />
</svg>
