<?xml version="1.0" encoding="UTF-8" standalone="no"?>
<svg
   width="30"
   height="30"
   viewBox="0 0 30 30"
   fill="none"
   version="1.1"
   id="svg43566"
   sodipodi:docname="ic-nav-governance.svg"
   inkscape:version="1.2.1 (9c6d41e410, 2022-07-14)"
   xmlns:inkscape="http://www.inkscape.org/namespaces/inkscape"
   xmlns:sodipodi="http://sodipodi.sourceforge.net/DTD/sodipodi-0.dtd"
   xmlns="http://www.w3.org/2000/svg"
   xmlns:svg="http://www.w3.org/2000/svg">
  <sodipodi:namedview
     id="namedview43568"
     pagecolor="#ffffff"
     bordercolor="#000000"
     borderopacity="0.25"
     inkscape:showpageshadow="2"
     inkscape:pageopacity="0.0"
     inkscape:pagecheckerboard="0"
     inkscape:deskcolor="#d1d1d1"
     showgrid="false"
     inkscape:zoom="27.9"
     inkscape:cx="15.017921"
     inkscape:cy="15.017921"
     inkscape:window-width="1920"
     inkscape:window-height="1017"
     inkscape:window-x="-8"
     inkscape:window-y="456"
     inkscape:window-maximized="1"
     inkscape:current-layer="svg43566" />
  <g
     clip-path="url(#clip0)"
     id="g43559">
    <path
       d="M19.3474 21.1944C19.3693 21.1717 19.3886 21.1476 19.405 21.1211L22.1103 16.9644L23.0203 17.8719L26 14.9007L18.0773 7L15.0976 9.9712L16.2976 11.1678L12.5248 12.1237C10.9154 12.5329 9.56967 13.6106 8.83078 15.0825C8.44069 15.8712 8.23338 16.744 8.23338 17.6086C8.23338 18.0864 8.29446 18.5607 8.41402 19.0213H5.8352C5.58187 19.0213 5.37629 19.0222 5.37629 19.0222V29.0852H4V30H5.8352H17.7788H19.5981V29.0852H18.2373V22.3189L19.3474 21.1944ZM18.1461 8.1031L24.8443 14.7823L22.9666 16.6548L16.2683 9.9755L18.1461 8.1031ZM17.3199 29.0856H6.29367V19.9361H14.7944L12.4448 22.2829C11.7382 22.9909 11.5825 24.0524 12.0659 24.863C12.4448 25.4968 13.111 25.876 13.8486 25.876C14.4091 25.876 14.9351 25.659 15.3295 25.264L17.3195 23.2483V29.0856H17.3199ZM12.7674 19.0213C13.105 18.6323 13.5872 18.3934 14.114 18.3664C14.7226 18.336 15.2774 18.5778 15.6619 19.0213H12.7674ZM14.6792 24.6189C14.1652 25.1306 13.2276 25.0251 12.8526 24.3946C12.5872 23.9508 12.6891 23.334 13.093 22.9288L16.203 19.8229C16.2189 19.8091 16.2339 19.7941 16.2477 19.7783L16.6202 19.4064C16.7724 19.2473 16.7892 19.002 16.6606 18.8236L16.5174 18.625C15.9505 17.8402 15.0301 17.3997 14.0658 17.4521C13.0977 17.5031 12.2328 18.0349 11.752 18.8738C11.7253 18.9209 11.7081 18.9707 11.6995 19.0209H9.36409C9.36108 19.0033 9.35721 18.9861 9.35162 18.9685C9.21872 18.5268 9.15163 18.0692 9.15163 17.6082C9.15163 16.8834 9.32581 16.1509 9.65354 15.4891C10.272 14.2565 11.4006 13.3529 12.7511 13.0089L17.052 11.9192L21.4492 16.304L18.6639 20.5837L14.6792 24.6189Z"
       fill="#938DA5"
       stroke="#938DA5"
       stroke-width="0.6"
       id="path43557" />
  </g>
  <defs
     id="defs43564">
    <clipPath
       id="clip0">
      <rect
         width="30"
         height="30"
         fill="white"
         id="rect43561" />
    </clipPath>
  </defs>
  <path
     style="fill:#a0892c;stroke:#a0892c;stroke-width:0.0358423"
     d="m 3.7275986,29.390681 v -0.591398 h 0.6810036 0.6810035 v -5.035842 -5.035842 h 1.49129 c 1.2324674,0 1.4880878,-0.0083 1.4728412,-0.04808 -0.060552,-0.157795 -0.1046344,-0.806594 -0.08656,-1.273969 0.021434,-0.55424 0.081211,-0.933677 0.2279914,-1.44719 0.4966949,-1.737692 1.8073217,-3.177902 3.5132357,-3.860595 0.230877,-0.0924 0.985745,-0.303891 2.060932,-0.577424 0.933137,-0.237395 1.759627,-0.448052 1.836644,-0.468128 l 0.140031,-0.0365 -0.526684,-0.527564 -0.526684,-0.5275637 1.694897,-1.6681884 1.694897,-1.6681884 4.15753,4.1341645 4.15753,4.134164 -1.684071,1.684357 -1.684072,1.684358 -0.413064,-0.411989 c -0.227186,-0.226594 -0.428952,-0.411683 -0.44837,-0.411308 -0.01942,3.72e-4 -0.591744,0.859245 -1.271838,1.908602 l -1.236535,1.907921 -0.56454,0.578894 -0.564541,0.578894 v 3.193508 3.193507 h 0.681004 0.681003 v 0.591398 0.591398 H 11.810036 3.7275986 Z m 13.2965554,-3.019713 -9.35e-4,-2.428316 -0.832742,0.842294 c -0.458007,0.463262 -0.921296,0.899844 -1.02953,0.970183 -0.457672,0.297431 -0.897482,0.412442 -1.465235,0.383162 -1.61789,-0.08344 -2.648728,-1.791397 -1.976285,-3.274438 0.176277,-0.388772 0.30778,-0.543707 1.358366,-1.600412 l 1.024499,-1.030466 H 10.330716 6.5591398 v 4.283154 4.283154 h 5.2329752 5.232975 z m -2.73064,-1.815087 c 0.05878,-0.03039 1.015977,-0.975438 2.127108,-2.100095 l 2.020238,-2.04483 1.302905,-1.997593 c 0.716597,-1.098676 1.309931,-2.0148 1.31852,-2.035831 0.01075,-0.02632 -3.42738,-3.498943 -4.09041,-4.131444 -0.0069,-0.0066 -0.630821,0.144206 -1.38648,0.335096 -3.458438,0.873649 -3.488268,0.883171 -4.159164,1.327655 -1.166707,0.772972 -1.8832317,2.021882 -1.9832077,3.456752 -0.023828,0.341982 0.021315,0.909019 0.095975,1.205518 l 0.039404,0.15649 0.9724477,-2.87e-4 0.972447,-2.87e-4 0.0832,-0.145678 c 0.116573,-0.204104 0.555429,-0.657073 0.818423,-0.844742 0.885362,-0.631781 2.106544,-0.743878 3.083718,-0.283067 0.538615,0.253998 0.980405,0.630977 1.317319,1.124068 0.133617,0.195556 0.177365,0.294491 0.190454,0.430717 0.03434,0.357361 0.08204,0.300167 -1.962907,2.353663 -1.040452,1.044803 -1.917209,1.950414 -1.948349,2.012469 -0.34803,0.693542 0.148865,1.379198 0.914687,1.262161 0.09174,-0.01402 0.21489,-0.05036 0.273669,-0.08076 z m 0.2943,-5.864125 c -0.120373,-0.03855 -0.645056,-0.03855 -0.734767,0 -0.0449,0.01929 0.09572,0.03041 0.376344,0.02975 0.276508,-6.48e-4 0.413724,-0.01204 0.358423,-0.02975 z m 9.54301,-3.58393 c 0.172491,-0.165267 0.31362,-0.310447 0.31362,-0.322622 0,-0.01218 -1.420601,-1.431144 -3.156892,-3.153263 l -3.156892,-3.1311258 -0.732123,0.7314693 -0.732122,0.7314693 3.14499,3.1451432 3.144991,3.145142 0.430404,-0.422864 c 0.236722,-0.232575 0.571533,-0.558083 0.744024,-0.723349 z"
     id="path43570" />
  <path
     style="fill:#d3bc5f;stroke:#d3bc5f;stroke-width:0.0358423"
     d="m 3.7275986,29.390681 v -0.591398 h 0.6810036 0.6810035 v -5.035842 -5.035842 l 1.4247312,-0.0042 c 0.7836022,-0.0023 1.4448925,-0.0016 1.4695341,0.0016 0.041209,0.0054 0.063617,-0.07188 0.04602,-0.158615 C 7.985267,18.346437 7.972208,17.30235 8.009494,16.93556 c 0.031657,-0.311417 0.04903,-0.406138 0.144628,-0.788531 0.00986,-0.03943 0.024993,-0.103596 0.033636,-0.142598 0.066968,-0.302196 0.3637323,-0.993151 0.5776147,-1.344857 0.047953,-0.07885 0.097746,-0.167563 0.1106509,-0.197132 0.1101649,-0.252425 0.8365971,-1.076338 1.2221994,-1.386208 0.09383,-0.0754 0.178659,-0.145524 0.188515,-0.155833 0.0099,-0.01031 0.163083,-0.115458 0.340502,-0.233666 0.486748,-0.324301 1.19985,-0.663005 1.516941,-0.720505 0.04902,-0.0089 0.118894,-0.03209 0.155271,-0.05156 0.03638,-0.01947 0.06614,-0.02716 0.06614,-0.0171 0,0.01006 0.04435,0.0011 0.09857,-0.01984 0.097,-0.03753 0.156601,-0.0537 0.329029,-0.08924 0.0479,-0.0099 0.100261,-0.02609 0.116353,-0.03604 0.01609,-0.0099 0.06158,-0.02523 0.101078,-0.03397 0.0395,-0.0087 0.104077,-0.02395 0.143504,-0.03381 l 0.143369,-0.03584 c 0.03943,-0.0099 0.107975,-0.02742 0.15233,-0.03902 0.04435,-0.0116 0.120968,-0.02904 0.170251,-0.03875 0.04928,-0.0097 0.113799,-0.02545 0.143369,-0.03498 0.02957,-0.0095 0.05376,-0.01515 0.05376,-0.01249 0,0.0027 0.04478,-0.01219 0.0995,-0.033 0.05473,-0.02081 0.135371,-0.04531 0.179211,-0.05444 0.07559,-0.01576 0.149756,-0.03332 0.312684,-0.07405 l 0.143369,-0.03584 0.14337,-0.03584 0.143369,-0.03584 0.143369,-0.03584 c 0.03943,-0.0099 0.09991,-0.02569 0.134408,-0.03519 0.0345,-0.0095 0.175363,-0.0423 0.313032,-0.07289 0.13767,-0.03059 0.26542,-0.07073 0.283889,-0.0892 0.02088,-0.02088 -0.165625,-0.227158 -0.493117,-0.545392 L 14.693592,9.9641577 15.937984,8.7455197 C 16.6224,8.0752688 17.383598,7.3252688 17.629537,7.078853 l 0.447161,-0.4480286 2.564948,2.5448028 c 1.410721,1.3996418 3.277908,3.2602478 4.149305,4.1346818 l 1.584359,1.589878 -1.664522,1.673626 -1.664522,1.673626 -0.267908,-0.255183 c -0.532954,-0.507641 -0.592726,-0.558748 -0.627986,-0.536956 -0.04754,0.02938 -0.537469,0.767082 -0.537469,0.809285 0,0.0181 -0.01429,0.03291 -0.03176,0.03291 -0.01747,0 -0.05749,0.05423 -0.08894,0.12051 -0.03145,0.06628 -0.08168,0.140837 -0.111611,0.165679 -0.02993,0.02484 -0.05443,0.05766 -0.05443,0.07293 0,0.01527 -0.104839,0.181299 -0.232975,0.368957 -0.128136,0.187658 -0.232975,0.358676 -0.232975,0.380038 0,0.02136 -0.0134,0.03884 -0.02979,0.03884 -0.01638,0 -0.05202,0.04435 -0.0792,0.09857 -0.02718,0.05421 -0.102485,0.173308 -0.167347,0.264659 -0.06486,0.09135 -0.117932,0.184092 -0.117932,0.206093 0,0.022 -0.0134,0.04 -0.02979,0.04 -0.01638,0 -0.05222,0.04435 -0.07965,0.09857 -0.02743,0.05421 -0.118861,0.197389 -0.203189,0.318171 C 20.068995,20.591285 20,20.70822 20,20.730358 c 0,0.02214 -0.01613,0.04025 -0.03584,0.04025 -0.01971,0 -0.03584,0.01495 -0.03584,0.03322 0,0.09912 -0.369191,0.547809 -0.851254,1.034557 l -0.546595,0.551907 v 3.204496 3.204497 h 0.681004 0.681003 v 0.591398 0.591398 H 11.810036 3.7275986 Z M 17.02509,26.403823 c 0,-1.317503 -0.009,-2.404442 -0.01996,-2.415419 -0.01098,-0.01098 -0.369849,0.329769 -0.797491,0.757215 -0.427642,0.427446 -0.850112,0.838833 -0.938822,0.914195 -0.132007,0.112143 -0.451519,0.287268 -0.565246,0.309813 -0.01438,0.0029 -0.05542,0.02085 -0.0912,0.04 -0.03578,0.01915 -0.100293,0.04258 -0.143369,0.05207 -0.04307,0.0095 -0.118642,0.02618 -0.167925,0.03709 -0.116538,0.0258 -0.739398,0.02576 -0.878136,-3.5e-5 -0.224864,-0.04184 -0.278542,-0.0585 -0.468097,-0.145283 -0.107242,-0.04911 -0.194985,-0.08147 -0.194985,-0.07193 0,0.0095 -0.02016,5.63e-4 -0.0448,-0.01995 -0.02464,-0.02052 -0.143827,-0.108518 -0.264857,-0.195556 -0.342846,-0.246556 -0.777502,-0.855445 -0.808059,-1.131972 -0.0011,-0.0099 -0.01609,-0.05504 -0.03334,-0.100409 -0.05473,-0.143961 -0.07283,-0.302824 -0.07225,-0.634358 6.13e-4,-0.350868 0.0078,-0.395882 0.120686,-0.752688 0.05772,-0.182476 0.16473,-0.415611 0.205653,-0.448029 0.01244,-0.0099 0.07016,-0.0819 0.128256,-0.160086 0.153682,-0.206835 0.405847,-0.473564 1.279467,-1.353366 0.428764,-0.431798 0.77957,-0.800173 0.77957,-0.818613 0,-0.02059 -1.444892,-0.03353 -3.74552,-0.03353 H 6.5591398 v 4.283154 4.283154 h 5.2329752 5.232975 z m -2.846165,-1.802546 c 0.02153,-0.01692 0.05085,-0.01905 0.06516,-0.0047 0.03193,0.03193 4.176545,-4.131278 4.247635,-4.266685 0.02797,-0.05328 0.06426,-0.09687 0.08065,-0.09687 0.01638,0 0.02979,-0.01727 0.02979,-0.03838 0,-0.02111 0.07258,-0.140093 0.16129,-0.264409 0.08871,-0.124315 0.16129,-0.244141 0.16129,-0.266279 0,-0.02214 0.01613,-0.04025 0.03584,-0.04025 0.01971,0 0.03584,-0.02115 0.03584,-0.04701 0,-0.02585 0.03226,-0.08163 0.07168,-0.12395 0.03943,-0.04232 0.07168,-0.08683 0.07168,-0.0989 0,-0.01208 0.07258,-0.123671 0.16129,-0.247986 0.08871,-0.124316 0.161291,-0.244142 0.161291,-0.26628 0,-0.02214 0.01613,-0.04025 0.03584,-0.04025 0.01971,0 0.03584,-0.01591 0.03584,-0.03536 0,-0.01945 0.08518,-0.160579 0.189294,-0.31362 0.104112,-0.153042 0.211676,-0.322612 0.239032,-0.376823 0.02736,-0.05421 0.06314,-0.09857 0.07952,-0.09857 0.01638,0 0.02979,-0.02115 0.02979,-0.04701 0,-0.02585 0.03054,-0.07979 0.06787,-0.119859 0.03733,-0.04007 0.09423,-0.119724 0.126448,-0.177009 0.114956,-0.204414 0.208399,-0.35533 0.230932,-0.372972 0.01259,-0.0099 0.04575,-0.06228 0.07369,-0.116488 0.02794,-0.05421 0.06421,-0.09857 0.08059,-0.09857 0.01638,0 0.02979,-0.01864 0.02979,-0.04142 0,-0.02278 0.04032,-0.09429 0.0896,-0.158899 0.04928,-0.06461 0.08961,-0.134684 0.08961,-0.155713 0,-0.02103 0.01314,-0.03823 0.0292,-0.03823 0.03349,0 0.150173,-0.231466 0.149677,-0.296916 -1.8e-4,-0.02397 -0.911267,-0.960829 -2.024633,-2.081902 -1.890196,-1.903281 -2.030863,-2.036821 -2.123325,-2.015752 -0.05446,0.01241 -0.139346,0.03092 -0.188629,0.04114 -0.04928,0.01022 -0.112409,0.02669 -0.14028,0.03659 -0.02787,0.0099 -0.108516,0.02719 -0.179212,0.0384 -0.07069,0.01121 -0.15273,0.03309 -0.1823,0.04862 -0.02957,0.01553 -0.150538,0.04901 -0.268817,0.0744 -0.11828,0.02539 -0.231183,0.05045 -0.250896,0.05568 -0.06265,0.01664 -0.194954,0.04906 -0.259997,0.06372 -0.03458,0.0078 -0.135381,0.0347 -0.224014,0.0598 -0.203935,0.05775 -0.216071,0.06105 -0.31348,0.08523 -0.04436,0.01101 -0.112904,0.02808 -0.15233,0.03794 l -0.143369,0.03584 -0.14337,0.03584 -0.143369,0.03584 -0.143369,0.03584 c -0.03943,0.0099 -0.107975,0.02736 -0.15233,0.03891 -0.08047,0.02094 -0.289554,0.07005 -0.454477,0.106745 -0.0479,0.01066 -0.100261,0.02752 -0.116353,0.03746 -0.01609,0.0099 -0.06561,0.02618 -0.110038,0.03607 -0.04443,0.0099 -0.09691,0.02258 -0.116623,0.0282 -0.01971,0.0056 -0.08423,0.02221 -0.143369,0.03686 -1.090118,0.270094 -1.668184,0.587245 -2.374552,1.302778 -0.202061,0.204682 -0.367383,0.384763 -0.367383,0.400178 0,0.01542 -0.04735,0.08761 -0.105221,0.160432 -0.103936,0.130786 -0.4682561,0.814683 -0.4682561,0.879003 0,0.01827 -0.017263,0.07862 -0.038362,0.13411 -0.021099,0.05549 -0.034503,0.1009 -0.029786,0.1009 0.00472,0 -0.00951,0.03379 -0.031616,0.0751 -0.022106,0.04131 -0.048198,0.113886 -0.057983,0.161291 -0.039999,0.193789 -0.054024,0.249018 -0.069705,0.274496 -0.037516,0.06095 -0.071381,0.485431 -0.072194,0.904883 -8.746e-4,0.451928 0.015263,0.625598 0.094923,1.021506 0.014007,0.06961 0.043126,0.07168 1.0078881,0.07168 h 0.993466 l 0.06047,-0.103013 c 0.202156,-0.344408 0.76344,-0.857502 1.191202,-1.08893 0.107486,-0.05815 0.203493,-0.105473 0.21335,-0.105159 0.0099,3.23e-4 0.106631,-0.02944 0.215053,-0.06611 0.108423,-0.03668 0.221327,-0.072 0.250897,-0.07849 0.02957,-0.0065 0.10215,-0.02188 0.16129,-0.03418 0.157951,-0.03286 1.051914,-0.03095 1.218638,0.0026 0.07885,0.01587 0.171595,0.04394 0.206093,0.06237 0.0345,0.01843 0.06272,0.02291 0.06272,0.0099 0,-0.01296 0.02667,-0.0014 0.05927,0.02562 0.0326,0.02705 0.06889,0.04721 0.08064,0.04479 0.06154,-0.01266 0.469402,0.167178 0.469402,0.206974 0,0.01597 0.04032,0.03915 0.08961,0.05152 0.04928,0.01237 0.08961,0.03687 0.08961,0.05445 0,0.01758 0.01595,0.03196 0.03543,0.03196 0.05085,0 0.159181,0.09119 0.447091,0.376344 0.327854,0.324712 0.409983,0.427479 0.515594,0.645162 0.118602,0.244459 0.125533,0.46682 0.01946,0.624272 -0.129808,0.192682 -0.478006,0.564487 -1.380752,1.474365 -1.557447,1.569749 -2.383894,2.418417 -2.442093,2.507753 -0.100615,0.154446 -0.139878,0.511258 -0.08078,0.734111 0.06417,0.241982 0.348005,0.494624 0.606941,0.540242 0.05966,0.01051 0.115856,0.0265 0.124884,0.03552 0.02498,0.02498 0.374611,-0.02549 0.419169,-0.06051 z m 0.412267,-5.907433 c -0.0606,-0.03745 -0.716007,-0.03791 -0.739119,-5.12e-4 -0.0097,0.01565 0.163218,0.02869 0.384203,0.02897 0.220984,2.87e-4 0.380696,-0.01252 0.354916,-0.02846 z m 9.129209,-3.176091 0.741965,-0.736728 -3.152919,-3.13424 C 19.575341,9.9229529 18.147111,8.5125448 18.135602,8.5125448 c -0.0311,0 -1.432435,1.4106242 -1.437205,1.4467331 -0.0048,0.036229 6.208956,6.2923841 6.251395,6.2940661 0.01576,6.24e-4 0.36253,-0.330391 0.770609,-0.735591 z"
     id="path50755" />
</svg>
