<?xml version="1.0" encoding="UTF-8" standalone="no"?>
<svg
   width="24px"
   height="40px"
   viewBox="0 0 24 40"
   version="1.1"
   id="svg44592"
   sodipodi:docname="ic-nav-receive-active.svg"
   inkscape:version="1.2.1 (9c6d41e410, 2022-07-14)"
   xmlns:inkscape="http://www.inkscape.org/namespaces/inkscape"
   xmlns:sodipodi="http://sodipodi.sourceforge.net/DTD/sodipodi-0.dtd"
   xmlns="http://www.w3.org/2000/svg"
   xmlns:svg="http://www.w3.org/2000/svg">
  <defs
     id="defs44596" />
  <sodipodi:namedview
     id="namedview44594"
     pagecolor="#ffffff"
     bordercolor="#000000"
     borderopacity="0.25"
     inkscape:showpageshadow="2"
     inkscape:pageopacity="0.0"
     inkscape:pagecheckerboard="0"
     inkscape:deskcolor="#d1d1d1"
     showgrid="false"
     inkscape:zoom="20.925"
     inkscape:cx="11.995221"
     inkscape:cy="20.023895"
     inkscape:window-width="1920"
     inkscape:window-height="1017"
     inkscape:window-x="-8"
     inkscape:window-y="456"
     inkscape:window-maximized="1"
     inkscape:current-layer="svg44592" />
  <!-- Generator: Sketch 52.6 (67491) - http://www.bohemiancoding.com/sketch -->
  <title
     id="title44581">Receive off</title>
  <desc
     id="desc44583">Created with Sketch.</desc>
  <g
     id="Receive-off"
     stroke="none"
     stroke-width="1"
     fill="none"
     fill-rule="evenodd">
    <g
       id="ic-receive-on"
       transform="translate(-1.000000, 11.000000)">
      <polygon
         id="Rectangle_4413"
         points="0 0 26 0 26 26 0 26" />
      <g
         id="Group_8987"
         transform="translate(2.000000, 2.000000)"
         fill="#B088FF">
        <g
           id="Group_8986">
          <polygon
             id="Path_18953"
             points="18.178 10.734 16.822 9.265 12 13.716 12 0 10 0 10 13.716 5.178 9.266 3.822 10.734 11 17.361" />
          <polygon
             id="Path_18954"
             points="20 15 20 20 2 20 2 15 0 15 0 22 22 22 22 15" />
        </g>
      </g>
    </g>
  </g>
  <path
     style="fill:#a0892c;stroke:#a0892c;stroke-width:0.0477897"
     d="M 1.0035842,31.493429 V 28.028674 H 1.9832736 2.962963 v 2.485066 2.485065 h 9.032258 9.032258 V 30.51374 28.028674 h 0.979689 0.97969 v 3.464755 3.464755 H 11.995221 1.0035842 Z"
     id="path44598" />
  <path
     style="fill:#a0892c;stroke:#a0892c;stroke-width:0.0477897"
     d="M 8.4504559,27.047083 C 6.4968509,25.243586 4.8984468,23.75146 4.8984468,23.731248 c 0,-0.02021 0.2891841,-0.352339 0.6426312,-0.738059 l 0.6426312,-0.701311 0.2414787,0.232834 c 0.5156717,0.497212 4.5615171,4.213639 4.5871301,4.213639 0.01491,0 0.02711,-3.086021 0.02711,-6.857825 V 13.0227 h 0.979527 0.979527 l 0.01211,6.854419 0.01211,6.854419 2.376587,-2.194921 c 1.307124,-1.207206 2.396248,-2.19492 2.420279,-2.19492 0.04239,0 1.259756,1.304971 1.285015,1.377492 0.01044,0.02998 -1.286049,1.236445 -6.828463,6.35429 l -0.273653,0.25269 z"
     id="path44600" />
</svg>
