<?xml version="1.0" encoding="UTF-8" standalone="no"?>
<!-- Generator: Adobe Illustrator 23.1.1, SVG Export Plug-In . SVG Version: 6.00 Build 0)  -->

<svg
   version="1.1"
   id="Layer_1"
   x="0px"
   y="0px"
   width="24px"
   height="31px"
   viewBox="0 0 24 30"
   style="enable-background:new 0 0 24 30;"
   xml:space="preserve"
   sodipodi:docname="ic-nav-cold-staking.svg"
   inkscape:version="1.2.1 (9c6d41e410, 2022-07-14)"
   xmlns:inkscape="http://www.inkscape.org/namespaces/inkscape"
   xmlns:sodipodi="http://sodipodi.sourceforge.net/DTD/sodipodi-0.dtd"
   xmlns="http://www.w3.org/2000/svg"
   xmlns:svg="http://www.w3.org/2000/svg"><defs
   id="defs42121" /><sodipodi:namedview
   id="namedview42119"
   pagecolor="#ffffff"
   bordercolor="#000000"
   borderopacity="0.25"
   inkscape:showpageshadow="2"
   inkscape:pageopacity="0.0"
   inkscape:pagecheckerboard="0"
   inkscape:deskcolor="#d1d1d1"
   showgrid="false"
   inkscape:zoom="27"
   inkscape:cx="12"
   inkscape:cy="15.555556"
   inkscape:window-width="1920"
   inkscape:window-height="1017"
   inkscape:window-x="-8"
   inkscape:window-y="456"
   inkscape:window-maximized="1"
   inkscape:current-layer="Layer_1" />
<style
   type="text/css"
   id="style42110">
	.st0{fill:#938DA5;}
</style>
	<title
   id="title42112">Cold Staking</title>
	<desc
   id="desc42114">Created with Sketch.</desc>
	<path
   class="st0"
   d="M21.7,22.1l-3-1.6l2.7-0.5c0.5,0,0.8-0.5,0.5-1.1c0-0.5-0.5-0.8-1.1-0.5l-4.3,1.1l-3-1.6l3-1.6l4.3,1.1h0.3  c0.3,0,0.8-0.3,0.8-0.5c0-0.5-0.3-0.8-0.5-1.1l-2.7-0.5l3-1.6c0.5-0.3,0.5-0.8,0.3-1.1c-0.3-0.3-0.8-0.5-1.1-0.3l-3,1.6l0.8-2.4  c0-0.5-0.3-0.8-0.5-1.1c-0.5,0-1.1,0.3-1.1,0.5L16,14.8l-3,1.6v-3.3l3.3-3c0.3-0.3,0.3-0.8,0-1.1c-0.3-0.3-0.8-0.3-1.4,0L13.1,11  V7.8c0-0.5-0.3-0.8-0.8-0.8c-0.5,0-0.8,0.3-0.8,0.8V11L9.3,8.9C9,8.6,8.5,8.6,7.9,8.9c-0.3,0.3-0.3,0.8,0,1.1l3.3,3v3.3l-3-1.6  l-1.1-4.1c0-0.5-0.5-0.8-1.1-0.5c-0.5,0-0.8,0.5-0.5,1.1l0.8,2.4l-3-1.6c-0.5-0.3-1.1,0-1.1,0.3c-0.3,0.3,0,0.8,0.3,1.1l3,1.6  l-2.7,0.5c-0.5,0-0.8,0.5-0.5,1.1C2.2,16.7,2.8,17,3,17h0.3l4.3-1.1l3,1.6l-3,1.6l-4.3-1.1c-0.5,0-1.1,0.3-1.1,0.5  c0,0.5,0.3,0.8,0.5,1.1l2.7,0.5l-3,1.6c-0.5,0.3-0.5,0.8-0.3,1.1c0.3,0.3,0.5,0.5,0.8,0.5s0.3,0,0.5,0l2.7-1.6l-0.8,2.7  c0,0.5,0.3,0.8,0.5,1.1h0.3c0.3,0,0.8-0.3,0.8-0.5l1.1-4.1l3-1.6v3.3l-3.3,3c-0.3,0.3-0.3,0.8,0,1.1s0.8,0.3,1.4,0l1.9-1.9v3.3  c0,0.5,0.3,0.8,0.8,0.8c0.5,0,0.8-0.3,0.8-0.8v-3.3l1.9,1.9C15,27,15,27,15.2,27c0.3,0,0.5,0,0.5-0.3c0.3-0.3,0.3-0.8,0-1.1l-3.3-3  v-3.5l3,1.6l1.1,4.1c0,0.3,0.5,0.5,0.8,0.5h0.3c0.5,0,0.8-0.5,0.5-1.1v-2.4l3,1.6c0.3,0,0.3,0,0.5,0c0.3,0,0.5-0.3,0.8-0.5  C22.6,23,22.3,22.4,21.7,22.1z"
   id="path42116" />
<path
   style="fill:#a0892c;stroke:#a0892c;stroke-width:0.037037"
   d="m 11.505084,29.336893 c -0.177593,-0.06611 -0.3472,-0.222246 -0.426312,-0.392449 -0.05245,-0.112847 -0.06175,-0.359368 -0.07181,-1.9042 l -0.01156,-1.774571 -0.988442,0.982781 C 9.0456252,27.204284 9.0119733,27.233397 8.7798456,27.310062 8.4489841,27.419336 8.1008985,27.416463 7.8854548,27.30268 7.528387,27.1141 7.3880533,26.628449 7.59321,26.291312 7.6467544,26.203321 8.3777096,25.510846 9.3425926,24.634021 L 11,23.127874 v -1.669751 c 0,-1.320775 -0.0097,-1.665964 -0.0463,-1.65163 -0.02546,0.01 -0.70396,0.369185 -1.507771,0.798261 L 7.9844585,21.384894 7.4215333,23.48276 C 7.00112,25.049524 6.8385204,25.602009 6.7792604,25.665088 6.6253115,25.82896 6.3382656,25.953982 6.0722781,25.973013 L 5.8223656,25.990894 5.6890033,25.810262 C 5.6156539,25.710914 5.5113886,25.540881 5.4573024,25.432412 5.2767072,25.070228 5.2822019,25.030767 5.7184478,23.556973 5.9346667,22.826509 6.104563,22.221847 6.0959956,22.213279 6.0742774,22.191561 6.0578474,22.200905 4.6366454,23.04318 L 3.3658833,23.796296 H 3.1437869 c -0.1221531,0 -0.29429,-0.01818 -0.3825266,-0.0404 -0.2176325,-0.0548 -0.6251121,-0.398613 -0.7029302,-0.593099 -0.1166291,-0.291485 -0.04616,-0.597271 0.1882779,-0.816995 0.057884,-0.05425 0.7552439,-0.443948 1.5496883,-0.865993 1.5038094,-0.798892 1.6258119,-0.866347 1.6048445,-0.887314 -0.012421,-0.01242 -2.6066665,-0.499906 -2.6603476,-0.499906 -0.047912,0 -0.3782069,-0.520276 -0.4496339,-0.708256 -0.1063235,-0.279821 -0.092332,-0.411678 0.057657,-0.54337 0.1462764,-0.128433 0.4633334,-0.256015 0.7380981,-0.297009 0.1696634,-0.02531 0.3245646,0.0057 1.3945672,0.279157 0.662037,0.169198 1.6372559,0.417352 2.1671529,0.551454 l 0.9634493,0.243821 1.4809952,-0.78735 c 0.8145474,-0.433043 1.494367,-0.798886 1.510711,-0.812985 0.02613,-0.02254 -2.9376066,-1.629166 -3.0053229,-1.629166 -0.014578,0 -1.0093637,0.251478 -2.2106345,0.558841 C 2.9463153,17.572427 3.0603022,17.556519 2.6098649,17.335438 2.3627993,17.214174 2.3456918,17.197446 2.278271,17.011196 2.1900369,16.76745 2.1877024,16.483491 2.2726084,16.322436 2.3378041,16.198769 2.513011,16.066485 2.6481481,16.038899 2.6888889,16.030581 3.3513463,15.910094 4.1202758,15.771148 4.8892053,15.632201 5.5179494,15.510185 5.5174851,15.5 5.5170207,15.489815 4.8404931,15.123148 4.0140904,14.685185 2.414214,13.83731 2.3794774,13.813538 2.1896511,13.436661 2.0853574,13.229598 2.0900971,13.029406 2.2046941,12.801249 2.3149159,12.581802 2.43451,12.478466 2.6433411,12.422234 c 0.2950571,-0.07945 0.3934454,-0.03883 2.0621982,0.851398 0.8749165,0.466742 1.5907574,0.828639 1.5907574,0.804216 0,-0.02442 -0.2,-0.642095 -0.4444444,-1.372605 -0.2627074,-0.785089 -0.4444445,-1.386845 -0.4444445,-1.471616 0,-0.317238 0.1738702,-0.52709 0.5070048,-0.611925 0.4608289,-0.117355 0.5554348,-0.132128 0.6874745,-0.107358 0.224137,0.04205 0.4721874,0.301473 0.4721874,0.493839 0,0.06418 1.0983966,4.198178 1.1195192,4.213496 0.072388,0.05249 2.9635593,1.574617 2.9908803,1.574617 0.0251,0 0.03725,-0.55537 0.03627,-1.657407 l -0.0015,-1.657408 -1.6828455,-1.52757 C 8.3672433,10.892619 7.8306963,10.381507 7.7786363,10.279461 7.6397252,10.007172 7.7208485,9.549123 7.9320819,9.4130607 8.2426367,9.2130216 8.8147389,9.1454749 9.0747915,9.2781438 c 0.080253,0.040942 0.6474196,0.5534421 1.2603695,1.1388892 0.612951,0.585447 1.129959,1.070004 1.148907,1.076794 0.02092,0.0075 0.03445,-0.648626 0.03445,-1.670399 0,-1.7351659 0.0065,-1.8211831 0.154071,-2.0332122 0.105167,-0.1511217 0.365643,-0.2605862 0.620077,-0.2605862 0.299359,0 0.524715,0.1050686 0.658345,0.3069424 l 0.104544,0.1579333 0.01031,1.7527474 c 0.0057,0.9640113 0.02268,1.7527473 0.0378,1.7527473 0.01512,0 0.425145,-0.442431 0.911168,-0.983181 0.596783,-0.6639818 0.93149,-1.0075726 1.030946,-1.0583114 0.200267,-0.1021684 0.607097,-0.1831066 0.787563,-0.1566843 0.386934,0.056652 0.668157,0.3763293 0.662816,0.7534467 -0.0052,0.366087 0.112246,0.241061 -2.139698,2.278063 l -1.351189,1.222223 -0.0026,1.675925 c -0.0014,0.92176 0.0035,1.675926 0.01105,1.675926 0.0075,0 0.685987,-0.357576 1.50769,-0.794613 l 1.494006,-0.794613 0.557866,-1.980096 c 0.372714,-1.322914 0.582205,-2.007028 0.631198,-2.061242 0.04033,-0.04463 0.154564,-0.122338 0.253847,-0.172684 0.181939,-0.09226 0.669088,-0.213958 0.723026,-0.180623 0.06413,0.03964 0.379421,0.544808 0.430652,0.690011 0.03008,0.08526 0.0547,0.215727 0.0547,0.289919 0,0.07419 -0.175049,0.659447 -0.388999,1.300568 -0.21395,0.641121 -0.384783,1.176837 -0.37963,1.190481 0.0052,0.01364 0.715698,-0.351858 1.578988,-0.812226 1.424854,-0.759833 1.585644,-0.83679 1.743387,-0.83441 0.222769,0.0034 0.556735,0.164412 0.723338,0.348822 0.233572,0.258537 0.203329,0.661812 -0.07005,0.934035 -0.0673,0.06701 -0.772978,0.466294 -1.643956,0.930165 -0.839327,0.447014 -1.526047,0.822952 -1.526047,0.835418 0,0.01247 0.3375,0.08495 0.75,0.161071 0.4125,0.07612 1.017319,0.188977 1.344042,0.250788 l 0.594043,0.112383 0.170165,0.247259 c 0.199894,0.290455 0.275493,0.458984 0.310444,0.69205 0.02486,0.165796 0.02128,0.174161 -0.141037,0.329691 -0.09513,0.09115 -0.242825,0.185571 -0.34444,0.220195 -0.350941,0.119577 -0.486042,0.09596 -2.725308,-0.476423 -1.155544,-0.29537 -2.122963,-0.53695 -2.149819,-0.536845 -0.04839,1.85e-4 -2.948276,1.533522 -3.003477,1.588108 -0.0158,0.01562 0.649958,0.39028 1.479454,0.832576 l 1.508176,0.804175 1.539064,-0.393185 c 2.550039,-0.65146 2.67919,-0.6853 2.900322,-0.759936 0.11721,-0.03956 0.26721,-0.07156 0.333333,-0.07112 0.166591,0.0011 0.416686,0.121932 0.492746,0.238015 0.08065,0.123086 0.200886,0.538775 0.225523,0.77969 0.02421,0.236735 -0.0933,0.475749 -0.283398,0.576406 -0.07807,0.04134 -0.629369,0.158653 -1.388722,0.295515 -1.53533,0.276719 -1.616259,0.29349 -1.593557,0.330222 0.0099,0.01608 0.720695,0.402171 1.579465,0.857988 1.244894,0.660763 1.605141,0.868738 1.777189,1.02599 0.251097,0.229504 0.407697,0.455713 0.332771,0.480688 -0.02654,0.0088 -0.138398,0.0895 -0.248564,0.179236 -0.354399,0.288662 -0.404698,0.309218 -0.756996,0.309372 l -0.3171,1.38e-4 -1.492854,-0.796296 c -0.82107,-0.437963 -1.499209,-0.796296 -1.506975,-0.796296 -0.0078,0 -0.01412,0.539571 -0.01412,1.199047 0,0.971145 0.01056,1.228976 0.05556,1.356508 0.131437,0.372533 0.0396,0.703607 -0.240867,0.868368 -0.189151,0.111116 -0.719059,0.104074 -0.986971,-0.01312 -0.348771,-0.15256 -0.240307,0.163717 -1.27077,-3.705531 L 15.41937,21.188331 13.906519,20.381202 c -0.832069,-0.44392 -1.518094,-0.807128 -1.5245,-0.807128 -0.0064,0 -0.01083,0.795833 -0.0098,1.768519 l 0.0018,1.768518 1.671199,1.518519 c 0.91916,0.835185 1.705836,1.565574 1.748169,1.623086 0.06234,0.0847 0.07697,0.159199 0.07697,0.392055 0,0.253302 -0.01211,0.304965 -0.101852,0.43446 -0.05602,0.08084 -0.101851,0.17266 -0.101851,0.204056 0,0.123144 -0.129937,0.18356 -0.400255,0.186104 -0.416434,0.0039 -0.531481,-0.07971 -1.681398,-1.222244 l -0.989063,-0.982708 -0.01094,1.793707 -0.01094,1.793706 -0.09306,0.166201 c -0.167195,0.298607 -0.626868,0.448784 -0.975932,0.31884 z"
   id="path42123"
   transform="translate(0,-0.5)" /><path
   style="fill:#d3bc5f;stroke:#decd87;stroke-width:0.037037"
   d="m 11.612981,29.35995 c -0.0057,-0.0057 -0.04824,-0.01771 -0.09452,-0.02663 -0.192804,-0.03713 -0.438398,-0.332628 -0.466805,-0.561656 -0.0096,-0.0777 -0.02339,-0.716439 -0.03056,-1.419428 -0.0072,-0.70299 -0.01485,-1.448996 -0.01707,-1.657793 -0.0024,-0.221896 -0.01919,-0.379629 -0.04052,-0.379629 -0.02007,0 -0.415905,0.376651 -0.87963,0.837003 -1.0052048,0.997892 -1.1308748,1.110129 -1.2824885,1.145402 -0.063912,0.01487 -0.1412033,0.03441 -0.1717589,0.04341 -0.030556,0.009 -0.1653663,0.02135 -0.2995789,0.02742 -0.2791463,0.01263 -0.4667626,-0.05783 -0.6376581,-0.239472 -0.1147319,-0.121946 -0.2272193,-0.444778 -0.1927833,-0.553276 0.012113,-0.03816 0.02922,-0.10822 0.038016,-0.15568 0.015954,-0.08608 0.6220848,-0.698434 1.2585589,-1.271478 0.1810015,-0.162963 0.4050726,-0.368411 0.4979363,-0.456552 0.2285789,-0.216954 0.4982007,-0.461983 0.8017625,-0.728633 0.3066,-0.269319 0.655397,-0.591223 0.79924,-0.737618 l 0.106106,-0.107988 -0.002,-1.657051 c -0.0015,-1.277278 -0.01229,-1.655264 -0.04691,-1.64925 -0.02471,0.0043 -0.09492,0.03442 -0.156032,0.06696 -0.230027,0.122483 -0.604837,0.320622 -0.9629625,0.509061 -0.4168848,0.219356 -0.8469237,0.450226 -1.2037037,0.646216 -0.1324074,0.07273 -0.3357911,0.176631 -0.451964,0.230879 -0.1598845,0.07466 -0.2162989,0.122056 -0.2321063,0.195006 -0.011486,0.05301 -0.028935,0.133874 -0.038777,0.179707 -0.043103,0.200735 -0.051767,0.233436 -0.069417,0.261994 -0.010277,0.01663 -0.027034,0.07073 -0.037238,0.120231 -0.010204,0.0495 -0.028595,0.131664 -0.040869,0.18259 -0.012274,0.05093 -0.030664,0.133091 -0.040868,0.18259 -0.010204,0.0495 -0.026961,0.103602 -0.037238,0.120231 -0.010277,0.01663 -0.027048,0.0678 -0.037269,0.113706 -0.029595,0.13293 -0.034455,0.150429 -0.079756,0.287176 -0.023619,0.0713 -0.051022,0.171297 -0.060896,0.222223 -0.035649,0.183862 -0.054921,0.260077 -0.073273,0.289771 -0.010277,0.01663 -0.027034,0.07073 -0.037238,0.120231 -0.041904,0.203272 -0.056083,0.258391 -0.073873,0.287177 -0.010277,0.01663 -0.027034,0.07073 -0.037238,0.120231 -0.010204,0.0495 -0.028595,0.131664 -0.040869,0.18259 -0.012274,0.05093 -0.030588,0.132671 -0.040699,0.181655 -0.010111,0.04898 -0.034843,0.119818 -0.05496,0.157408 -0.020117,0.03759 -0.028508,0.06834 -0.018645,0.06834 0.00986,0 -0.00644,0.05833 -0.036231,0.12963 -0.029789,0.0713 -0.046456,0.129629 -0.037037,0.129629 0.00942,0 -0.00725,0.05833 -0.037037,0.12963 -0.029789,0.0713 -0.045849,0.12963 -0.035687,0.12963 0.010161,0 -0.01273,0.07917 -0.050868,0.175925 -0.038139,0.09676 -0.070057,0.18426 -0.07093,0.194445 -0.00669,0.07811 -0.098187,0.247147 -0.1656215,0.305977 -0.1717393,0.149827 -0.3282919,0.203423 -0.6818122,0.233422 -0.1828204,0.01551 -0.1972419,0.01011 -0.2870371,-0.107621 -0.052001,-0.06817 -0.094546,-0.143215 -0.094546,-0.166755 0,-0.02354 -0.013024,-0.0428 -0.028942,-0.0428 -0.015918,0 -0.077576,-0.109041 -0.1370173,-0.242314 -0.1201392,-0.269361 -0.1278655,-0.422886 -0.039529,-0.785464 0.011167,-0.04583 0.027156,-0.1125 0.035533,-0.148148 0.00838,-0.03565 0.032964,-0.110648 0.054639,-0.166666 0.021675,-0.05602 0.032339,-0.101852 0.023697,-0.101852 -0.00864,0 0.00866,-0.05833 0.038451,-0.12963 0.029789,-0.0713 0.043565,-0.12963 0.030612,-0.12963 -0.012953,0 -0.00592,-0.02125 0.015638,-0.04722 0.021554,-0.02597 0.04485,-0.08847 0.051769,-0.138889 0.00692,-0.05042 0.025642,-0.112503 0.041606,-0.137966 0.015964,-0.02546 0.020559,-0.0463 0.010211,-0.0463 -0.010348,0 0.00556,-0.05833 0.035348,-0.12963 0.029789,-0.0713 0.046456,-0.129629 0.037037,-0.129629 -0.00942,0 0.00725,-0.05833 0.037037,-0.12963 0.029789,-0.0713 0.045019,-0.129629 0.033844,-0.129629 -0.011176,0 -0.00371,-0.03104 0.016595,-0.06897 0.020302,-0.03794 0.046531,-0.123564 0.058286,-0.190287 0.011755,-0.06672 0.040213,-0.156517 0.063241,-0.199545 0.023028,-0.04303 0.039135,-0.08657 0.035794,-0.09675 -0.00334,-0.01018 0.01217,-0.0738 0.03447,-0.14137 0.04918,-0.149019 0.020084,-0.187947 -0.088893,-0.118933 -0.044907,0.02844 -0.1233156,0.07458 -0.1742415,0.102526 C 5.7638789,22.37016 5.6722123,22.4249 5.6111012,22.463847 5.55,22.502809 5.45,22.560173 5.3888889,22.591335 c -0.061111,0.03116 -0.1611111,0.08886 -0.2222222,0.128214 -0.061111,0.03936 -0.1944445,0.116334 -0.2962963,0.171062 -0.1018519,0.05473 -0.2077961,0.117745 -0.2354316,0.140038 -0.051607,0.04163 -0.1526346,0.103019 -0.2830869,0.172014 -0.040741,0.02155 -0.1240741,0.07184 -0.1851852,0.111756 -0.061111,0.03992 -0.2092987,0.12717 -0.3293057,0.193894 -0.2947089,0.163859 -0.3385781,0.19048 -0.4057393,0.246219 -0.077391,0.06423 -0.5897796,0.03007 -0.7818336,-0.05212 -0.1655438,-0.07085 -0.6308545,-0.513526 -0.5971321,-0.56809 0.012444,-0.02013 0.00897,-0.04505 -0.00771,-0.05536 -0.039547,-0.02444 -0.023897,-0.348788 0.022574,-0.467849 0.08494,-0.217621 0.4167814,-0.428038 1.9803486,-1.25572 0.1383627,-0.07324 0.3633627,-0.193981 0.5,-0.268308 0.1366372,-0.07433 0.3484313,-0.187138 0.4706535,-0.250693 0.406198,-0.211222 0.4079418,-0.212572 0.3284667,-0.254361 -0.061356,-0.03226 -0.1592716,-0.05361 -0.4951333,-0.10795 -0.1722045,-0.02786 -0.4027913,-0.07129 -0.5555556,-0.104638 -0.050926,-0.01112 -0.1342593,-0.02659 -0.1851852,-0.0344 -0.109589,-0.01679 -0.278533,-0.04859 -0.4074074,-0.07669 -0.050926,-0.0111 -0.1425926,-0.02769 -0.2037037,-0.03687 -0.1192887,-0.01792 -0.2052294,-0.035 -0.3518519,-0.06992 -0.050926,-0.01213 -0.1545397,-0.02903 -0.2302528,-0.03757 -0.075713,-0.0085 -0.1525254,-0.0247 -0.1706941,-0.03593 -0.051033,-0.03154 -0.3981503,-0.563189 -0.4079043,-0.624751 -0.00245,-0.01549 -0.027961,-0.07382 -0.056682,-0.12963 -0.028721,-0.0558 -0.0466,-0.163089 -0.039733,-0.238407 0.011897,-0.130479 0.1224519,-0.288983 0.2015623,-0.288983 0.02037,0 0.037037,-0.01667 0.037037,-0.03704 0,-0.02037 0.020833,-0.03714 0.046296,-0.03727 0.025463,-1.11e-4 0.094092,-0.02515 0.1525102,-0.05562 0.1454393,-0.07585 0.2656757,-0.09991 0.5048972,-0.101017 0.1913607,-8.89e-4 0.2509963,0.0072 0.4814815,0.0653 0.050926,0.01284 0.1259259,0.02946 0.1666666,0.03694 0.1093319,0.02007 0.1946981,0.04252 0.4752633,0.124945 0.1391725,0.04089 0.2975059,0.08248 0.3518518,0.09242 0.054346,0.0099 0.1363109,0.02739 0.1821442,0.03878 0.045833,0.01139 0.1166667,0.02904 0.1574074,0.03923 L 5.1481481,19 l 0.1481482,0.03704 0.1481481,0.03704 0.1481482,0.03704 0.1481481,0.03704 c 0.1691312,0.04228 0.2092752,0.05318 0.3247593,0.08817 0.06658,0.02017 0.1249137,0.03536 0.1296296,0.03375 0.00472,-0.0016 0.1002408,0.0236 0.2122778,0.05603 0.112037,0.03243 0.262037,0.06853 0.3333333,0.08023 0.071296,0.0117 0.1712963,0.03756 0.2222223,0.05746 0.050926,0.0199 0.1675926,0.05147 0.2592592,0.07015 0.091667,0.01868 0.2083334,0.04503 0.2592593,0.05855 0.1500759,0.03984 0.1583359,0.03754 0.4274129,-0.11876 0.1417749,-0.08236 0.4577723,-0.25393 0.7022167,-0.381274 1.5676229,-0.816659 1.9808879,-1.042018 1.9812479,-1.080402 1.11e-4,-0.01375 -0.1456,-0.105706 -0.32384,-0.204353 C 10.090278,17.709043 9.8944444,17.600529 9.8333333,17.566547 9.7722222,17.532566 9.5722222,17.426916 9.3888889,17.33177 9.2055556,17.236624 9.035197,17.142239 9.0103141,17.122026 8.9854315,17.101812 8.8270981,17.014314 8.6584622,16.927586 8.4898267,16.840859 8.1851852,16.681846 7.9814815,16.574225 l -0.3703704,-0.195674 -0.3888889,0.09842 c -0.2138889,0.05413 -0.4180555,0.106459 -0.4537037,0.11628 -0.035648,0.0098 -0.098148,0.02619 -0.1388889,0.03637 l -0.1481481,0.03704 C 7.20934,16.484702 5.3164509,16.957924 6.1851852,16.740741 l -0.1481482,0.03704 c -0.1814251,0.04536 -0.2466389,0.0605 -0.3333333,0.07743 -0.050926,0.0099 -0.1259259,0.0289 -0.1666667,0.04213 -0.075266,0.02445 -0.08438,0.02695 -0.2314814,0.06346 -0.2001452,0.04968 -0.2553395,0.06259 -0.3425926,0.08018 -0.050926,0.01026 -0.1842593,0.04586 -0.2962963,0.07911 -0.1120371,0.03325 -0.2203704,0.06469 -0.2407408,0.06987 -0.02037,0.0052 -0.074537,0.01873 -0.1203703,0.03011 -0.045833,0.01138 -0.1166667,0.02902 -0.1574075,0.0392 -0.190218,0.04755 -0.2459301,0.0605 -0.3148148,0.07315 -0.040741,0.0075 -0.1157407,0.02405 -0.1666666,0.03683 -0.2890401,0.0725 -0.712168,0.095 -0.8831694,0.04695 -0.2461499,-0.06916 -0.4884782,-0.28285 -0.4929542,-0.434705 -3.004e-4,-0.01018 -0.013223,-0.03518 -0.028717,-0.05555 -0.015494,-0.02037 -0.02905,-0.143121 -0.030125,-0.272779 -0.00238,-0.287178 0.077218,-0.442567 0.2770168,-0.540789 0.1476161,-0.07257 0.1484283,-0.07278 0.4345121,-0.111529 0.1011839,-0.01371 0.1953304,-0.03194 0.2092144,-0.04052 0.013884,-0.0086 0.097764,-0.02446 0.1863995,-0.03529 0.088636,-0.01083 0.1889913,-0.02826 0.2230121,-0.03872 0.07678,-0.02362 0.2004206,-0.04893 0.3455513,-0.07073 0.061111,-0.0092 0.1527778,-0.02585 0.2037037,-0.03704 0.050926,-0.01119 0.1425926,-0.02795 0.2037037,-0.03725 0.061111,-0.0093 0.1611111,-0.02723 0.2222222,-0.03984 0.1074877,-0.02219 0.1546289,-0.03099 0.3518519,-0.06571 0.097393,-0.01714 0.313304,-0.05993 0.4074074,-0.08073 0.030556,-0.0068 0.093056,-0.01356 0.1388889,-0.01511 0.1399305,-0.0048 0.09431,-0.06121 -0.1481482,-0.183324 C 5.1597222,15.292426 4.9305556,15.171066 4.7777778,15.086859 4.625,15.002653 4.3583333,14.857923 4.1851852,14.765238 3.8832351,14.603607 3.7357823,14.52407 3.2167878,14.242883 3.0873693,14.172765 2.9010356,14.073269 2.8027129,14.021781 2.4001069,13.810949 2.1423242,13.477336 2.1419662,13.166667 c -1.055e-4,-0.09167 0.00333,-0.179167 0.00762,-0.194445 0.016163,-0.05744 0.02648,-0.10294 0.030965,-0.136562 0.00994,-0.07456 0.3245124,-0.37581 0.412037,-0.394599 0.1810656,-0.03887 0.3238754,-0.02887 0.5033214,0.03524 0.1925656,0.0688 0.872724,0.39657 0.904086,0.435688 0.010185,0.0127 0.1351852,0.08088 0.2777778,0.151496 0.1425926,0.07062 0.4175926,0.212474 0.6111111,0.315234 0.9751637,0.517818 1.3780192,0.718573 1.3992867,0.697305 0.012886,-0.01289 -0.1250163,-0.468596 -0.30645,-1.012689 -0.1814337,-0.544092 -0.3223782,-0.990864 -0.31321,-0.992826 0.00917,-0.002 -0.0062,-0.03113 -0.034161,-0.06481 -0.027957,-0.03369 -0.038417,-0.06125 -0.023243,-0.06125 0.015174,0 0.00684,-0.025 -0.018518,-0.05556 -0.025359,-0.03056 -0.035509,-0.05556 -0.022556,-0.05556 0.012953,0 -8.226e-4,-0.05833 -0.030612,-0.129629 -0.02979,-0.0713 -0.046456,-0.12963 -0.037037,-0.12963 0.00942,0 -0.00489,-0.05417 -0.031791,-0.12037 -0.026904,-0.0662 -0.045893,-0.199014 -0.042197,-0.295135 0.00976,-0.253927 0.1487558,-0.406058 0.4604896,-0.504021 0.3609392,-0.113425 0.4466055,-0.130373 0.6379452,-0.126205 0.2999207,0.0065 0.4446107,0.166807 0.5735748,0.635349 0.095313,0.346285 0.1124555,0.409989 0.1403318,0.521493 0.04555,0.182198 0.060507,0.246693 0.077306,0.333334 0.00987,0.05093 0.037277,0.150925 0.060896,0.222222 0.023619,0.0713 0.047045,0.146296 0.052057,0.166666 0.04063,0.165103 0.056749,0.2342 0.072832,0.31222 0.010204,0.0495 0.026961,0.103603 0.037238,0.120231 0.010277,0.01663 0.026074,0.06363 0.035104,0.104447 0.00903,0.04082 0.025607,0.111714 0.036836,0.157547 0.01123,0.04583 0.028496,0.125 0.03837,0.175926 0.00987,0.05093 0.037277,0.150926 0.060896,0.222222 0.023619,0.0713 0.047044,0.146296 0.052057,0.166667 0.00501,0.02037 0.019396,0.0787 0.031963,0.129629 0.012567,0.05093 0.028933,0.117593 0.036369,0.148148 C 7.8401004,13.975 7.8487348,14 7.8518519,14 c 0.00312,0 0.011751,0.025 0.019187,0.05556 0.00744,0.03056 0.023682,0.09722 0.036102,0.148148 0.01242,0.05093 0.030931,0.133091 0.041135,0.18259 0.010204,0.0495 0.026961,0.103602 0.037238,0.120231 0.01779,0.02879 0.031969,0.0839 0.073873,0.287176 0.010204,0.0495 0.027631,0.104687 0.038727,0.12264 0.011096,0.01795 0.028271,0.08579 0.038167,0.150744 0.0099,0.06495 0.029114,0.129481 0.042707,0.143391 0.032508,0.03327 0.4032589,0.233004 0.7284189,0.392428 0.1425926,0.06991 0.2675926,0.13937 0.2777778,0.15435 0.010185,0.01498 0.1768518,0.108008 0.3703704,0.206728 0.453665,0.231429 0.857517,0.441932 1.214745,0.63317 0.15689,0.08399 0.321511,0.163885 0.365825,0.177545 l 0.08057,0.02484 0.004,-1.662418 0.004,-1.662417 -0.218839,-0.200313 C 10.807188,13.09255 10.36269,12.689923 10.1158,12.468184 10.062295,12.42013 9.9261763,12.29513 9.8133137,12.190407 9.5915841,11.984667 9.3457259,11.760141 8.8342519,11.296296 8.3183393,10.828426 7.8293159,10.341304 7.7790967,10.245245 7.7370881,10.16489 7.7196756,9.8577614 7.7494441,9.7222222 7.7750311,9.605722 7.9050059,9.4304725 7.9968619,9.3886201 c 0.052652,-0.02399 0.095731,-0.03926 0.095731,-0.033935 0,0.00533 0.038582,-0.010965 0.085737,-0.036202 0.1294445,-0.069277 0.2207878,-0.083542 0.5335719,-0.083328 0.25487,1.741e-4 0.3011981,0.011457 0.4259259,0.103731 0.1645148,0.1217081 0.4321182,0.3644074 1.0496623,0.9519779 0.682487,0.64936 1.266332,1.191153 1.295418,1.202112 0.01678,0.0063 0.0333,-0.560344 0.03671,-1.259259 0.0067,-1.3660593 0.02281,-2.0752619 0.05012,-2.202082 0.02483,-0.1153111 0.181692,-0.3454564 0.235818,-0.3459923 0.02546,-2.523e-4 0.0463,-0.013047 0.0463,-0.028433 0,-0.056823 0.282464,-0.1138385 0.520867,-0.1051381 0.274737,0.010026 0.406203,0.079476 0.578801,0.3057643 l 0.0995,0.1304499 0.01276,1.6725232 c 0.007,0.919888 0.01239,1.710023 0.01194,1.755857 -0.0014,0.145806 0.0115,0.134619 0.590946,-0.511447 0.921813,-1.0277891 1.36474,-1.4639089 1.518518,-1.4951811 0.01018,-0.00207 0.03935,-0.016994 0.06481,-0.033162 0.02546,-0.016168 0.0463,-0.022146 0.0463,-0.013283 0,0.00886 0.10231,-0.00524 0.227354,-0.031331 0.287175,-0.059928 0.502896,-0.00435 0.726731,0.1872495 0.168555,0.1442764 0.230643,0.2984725 0.230756,0.5730806 1.11e-4,0.288878 -0.07444,0.372892 -1.364032,1.537037 -0.112827,0.101851 -0.239499,0.219789 -0.281493,0.262083 -0.04199,0.04229 -0.276353,0.252197 -0.520797,0.466452 -0.244445,0.214254 -0.512122,0.45465 -0.594839,0.534213 -0.08272,0.07956 -0.27855,0.260095 -0.435185,0.401182 L 13,13.550084 v 1.678662 c 0,0.923264 0.01094,1.678661 0.0243,1.678661 0.02142,0 0.385357,-0.1895 1.105327,-0.575533 0.679768,-0.364478 0.839724,-0.44993 1.092592,-0.58369 0.152778,-0.08081 0.369445,-0.193206 0.481482,-0.24976 0.273387,-0.138001 0.330572,-0.185549 0.354449,-0.29472 C 16.090391,15.056307 16.105029,15 16.111111,15 c 0.0031,0 0.01273,-0.02917 0.02135,-0.06481 0.02579,-0.106564 0.04031,-0.154459 0.06458,-0.212963 0.01267,-0.03055 0.03032,-0.09722 0.03922,-0.148148 0.0089,-0.05093 0.03397,-0.138426 0.05571,-0.194444 0.02174,-0.05602 0.03246,-0.101852 0.02382,-0.101852 -0.0086,0 0.0087,-0.05833 0.03845,-0.12963 0.02979,-0.0713 0.04502,-0.129629 0.03384,-0.129629 -0.01118,0 -0.0039,-0.03075 0.01626,-0.06834 0.02012,-0.03759 0.0457,-0.112589 0.05686,-0.166667 0.01115,-0.05408 0.02941,-0.142567 0.04056,-0.196644 0.01116,-0.05408 0.03674,-0.129077 0.05686,-0.166667 0.02012,-0.03759 0.02562,-0.06834 0.01222,-0.06834 -0.0134,0 -0.0067,-0.02125 0.01483,-0.04722 0.02155,-0.02597 0.04722,-0.0968 0.05704,-0.157408 0.0098,-0.0606 0.0205,-0.110188 0.02374,-0.110188 0.0057,0 0.01396,-0.03037 0.05031,-0.185185 0.0096,-0.04074 0.03671,-0.124074 0.06033,-0.185185 0.02361,-0.06111 0.04176,-0.115278 0.04033,-0.120371 -0.0014,-0.0051 -0.0013,-0.01343 2.22e-4,-0.01852 0.0043,-0.01413 0.03291,-0.13308 0.0445,-0.185185 0.0057,-0.02546 0.02331,-0.06713 0.03922,-0.09259 0.01591,-0.02546 0.01902,-0.0463 0.0069,-0.0463 -0.0121,0 -0.0054,-0.03104 0.01491,-0.06897 0.0203,-0.03794 0.04674,-0.124754 0.05875,-0.19293 0.01201,-0.06818 0.0355,-0.141305 0.05221,-0.162509 0.0167,-0.0212 0.05242,-0.126381 0.07937,-0.233729 0.05666,-0.22569 0.150314,-0.338036 0.367953,-0.441383 0.108326,-0.05144 0.221989,-0.0877 0.425926,-0.135863 0.04074,-0.0096 0.10362,-0.02919 0.139732,-0.04349 0.07166,-0.02837 0.274458,0.158473 0.374126,0.344696 0.224079,0.418674 0.270805,0.63627 0.182713,0.850846 -0.02718,0.0662 -0.04171,0.120371 -0.03229,0.120371 0.0094,0 -0.0072,0.05833 -0.03704,0.129629 -0.02979,0.0713 -0.04357,0.12963 -0.03061,0.12963 0.01295,0 0.0028,0.025 -0.02256,0.05556 -0.02536,0.03056 -0.03369,0.05556 -0.01852,0.05556 0.01517,0 0.0103,0.02083 -0.01083,0.0463 -0.02113,0.02546 -0.03984,0.0588 -0.04157,0.07407 -0.0017,0.01528 -0.0044,0.03195 -0.006,0.03704 -0.0016,0.0051 -0.0082,0.03426 -0.01467,0.06481 -0.0065,0.03056 -0.08786,0.276389 -0.180788,0.546297 -0.09292,0.269907 -0.159282,0.49074 -0.147462,0.49074 0.01182,0 7.4e-4,0.025 -0.02462,0.05556 -0.02536,0.03055 -0.03369,0.05556 -0.01852,0.05556 0.01517,0 0.0068,0.025 -0.01852,0.05556 -0.02536,0.03056 -0.03369,0.05556 -0.01852,0.05556 0.01517,0 0.01118,0.02083 -0.0089,0.0463 -0.06437,0.08173 -0.09012,0.250075 -0.03813,0.249289 0.02585,-3.92e-4 0.205335,-0.08587 0.398854,-0.189955 0.92972,-0.500054 1.463132,-0.779532 2.185185,-1.144914 0.635224,-0.321444 0.76692,-0.344115 1.080408,-0.185989 0.453032,0.228514 0.585469,0.543086 0.409065,0.971633 -0.06122,0.148726 -0.262605,0.286304 -1.007992,0.688623 -0.132407,0.07147 -0.257407,0.142844 -0.277778,0.158618 -0.02037,0.01577 -0.212037,0.119904 -0.425925,0.2314 -0.213889,0.111496 -0.455556,0.240656 -0.537038,0.287021 -0.08148,0.04636 -0.256481,0.141755 -0.388888,0.211976 -0.689802,0.365832 -0.757154,0.412786 -0.601852,0.419576 0.03565,0.0016 0.08982,0.0084 0.12037,0.01511 0.03056,0.0068 0.105556,0.02197 0.166667,0.03382 0.226795,0.04397 0.285161,0.05668 0.345551,0.07526 0.03402,0.01047 0.128523,0.02757 0.210004,0.038 0.167578,0.02146 0.292008,0.04524 0.382589,0.07311 0.03402,0.01047 0.128522,0.02757 0.210004,0.038 0.08148,0.01044 0.189815,0.02815 0.240741,0.03937 0.05093,0.01122 0.142592,0.0279 0.203703,0.03708 0.06111,0.0092 0.152778,0.02544 0.203704,0.03613 0.147402,0.03095 0.308711,0.06127 0.388889,0.0731 0.126906,0.01872 0.203704,0.06253 0.203704,0.116212 0,0.02838 0.01667,0.05159 0.03704,0.05159 0.02037,0 0.03704,0.02186 0.03704,0.04857 0,0.02671 0.02954,0.08088 0.06565,0.12037 0.06802,0.07439 0.256168,0.474172 0.269097,0.571799 0.02367,0.178744 -0.0092,0.270146 -0.140308,0.3906 -0.07639,0.07016 -0.159722,0.127644 -0.185185,0.127741 -0.02546,1.11e-4 -0.0463,0.01476 -0.0463,0.03258 0,0.07617 -0.49352,0.115218 -0.777778,0.06154 -0.245413,-0.04634 -0.273154,-0.05246 -0.481482,-0.106293 -0.05092,-0.01316 -0.134259,-0.03158 -0.185185,-0.04093 -0.08631,-0.01585 -0.145993,-0.02952 -0.333333,-0.07636 l -0.148148,-0.03704 -0.148148,-0.03704 -0.148149,-0.03704 -0.148148,-0.03704 c -0.173024,-0.04326 -0.216162,-0.05491 -0.463303,-0.125195 -0.14278,-0.0406 -0.301113,-0.08236 -0.351852,-0.09279 -0.08696,-0.01788 -0.159002,-0.03482 -0.332993,-0.07831 l -0.148148,-0.03704 -0.148148,-0.03704 C 19.081997,17.427909 16.662693,16.823083 17.370363,17 c -0.04074,-0.01018 -0.103241,-0.02692 -0.138889,-0.03719 -0.03565,-0.01027 -0.214815,-0.05422 -0.398148,-0.09768 l -0.333334,-0.07901 -0.481481,0.250152 c -0.264815,0.137583 -0.639815,0.334202 -0.833334,0.436931 -0.193518,0.102729 -0.468518,0.24526 -0.611111,0.316735 -0.142592,0.07148 -0.268159,0.143136 -0.279036,0.159246 -0.01088,0.01611 -0.110878,0.07193 -0.222222,0.124056 -0.321768,0.150619 -0.535779,0.279008 -0.535779,0.321425 0,0.02155 0.1,0.09349 0.222222,0.159851 0.122223,0.06637 0.288889,0.159456 0.370371,0.206869 0.08148,0.04741 0.248148,0.138696 0.37037,0.20285 0.122222,0.06415 0.338889,0.179853 0.481482,0.257109 0.259485,0.140588 0.566579,0.303754 1.178086,0.625947 0.202482,0.106684 0.357026,0.165456 0.407407,0.154934 0.07705,-0.01609 0.15435,-0.03441 0.321914,-0.0763 l 0.148148,-0.03704 0.148148,-0.03704 0.148149,-0.03704 0.148148,-0.03704 c 0.04074,-0.01018 0.103305,-0.0251 0.139033,-0.03316 0.03573,-0.0081 0.139894,-0.03586 0.231482,-0.06179 0.210732,-0.05968 0.223273,-0.06309 0.323929,-0.08807 0.04583,-0.01138 0.116667,-0.02902 0.157408,-0.0392 l 0.148148,-0.03704 0.148148,-0.03704 0.148148,-0.03704 c 0.04074,-0.01018 0.103241,-0.02558 0.138889,-0.03421 0.162347,-0.0393 0.558539,-0.140703 0.675926,-0.173001 0.184358,-0.05072 0.249139,-0.06804 0.333333,-0.08909 l 0.148148,-0.03704 c 0.172839,-0.04321 0.245803,-0.0604 0.330738,-0.07791 0.0495,-0.0102 0.104687,-0.02763 0.122641,-0.03873 0.01795,-0.0111 0.08579,-0.02846 0.150743,-0.03859 0.06496,-0.01013 0.138934,-0.03555 0.164397,-0.0565 0.02546,-0.02095 0.0463,-0.02749 0.0463,-0.01454 0,0.01295 0.05417,0.002 0.12037,-0.02429 0.100232,-0.03984 0.32764,-0.05628 0.398149,-0.02878 0.01018,0.004 0.04708,0.01272 0.082,0.01943 0.152302,0.0293 0.283954,0.170211 0.338744,0.362571 0.145918,0.512301 0.15692,0.586174 0.128404,0.862186 -0.0077,0.07422 -0.261875,0.336636 -0.330151,0.34081 -0.02878,0.0018 -0.09399,0.01373 -0.14492,0.02659 -0.05093,0.01286 -0.13426,0.03104 -0.185185,0.0404 -0.05093,0.0094 -0.13426,0.02673 -0.185186,0.03861 -0.154347,0.03602 -0.383734,0.08196 -0.537037,0.107557 -0.04074,0.0068 -0.109462,0.02065 -0.152714,0.03078 -0.07353,0.01721 -0.24219,0.04712 -0.458397,0.08129 -0.08946,0.01414 -0.135122,0.02349 -0.333333,0.06825 -0.05093,0.0115 -0.150926,0.02953 -0.222222,0.04006 -0.0713,0.01053 -0.17963,0.02919 -0.240741,0.04147 -0.06111,0.01228 -0.144445,0.0282 -0.185185,0.03538 -0.04074,0.0072 -0.107408,0.02106 -0.148148,0.03085 -0.04074,0.0098 -0.09015,0.01907 -0.109789,0.02063 -0.09954,0.0079 0.131808,0.144861 1.072752,0.635097 0.142592,0.07429 0.375925,0.198122 0.518518,0.275179 0.368654,0.19922 0.6593,0.355252 1,0.536845 0.162963,0.08686 0.322609,0.180761 0.354768,0.208671 0.03216,0.02791 0.07077,0.05074 0.08581,0.05074 0.07911,0 0.456918,0.341629 0.604951,0.547026 l 0.08256,0.114553 -0.126239,0.07802 c -0.06943,0.04291 -0.131584,0.08989 -0.138117,0.104396 -0.01593,0.03537 -0.248347,0.20643 -0.36373,0.2677 -0.05093,0.02704 -0.237532,0.05641 -0.414681,0.06527 -0.27798,0.01389 -0.336308,0.006 -0.425926,-0.05752 -0.05711,-0.04049 -0.203837,-0.123151 -0.32606,-0.183692 -0.122222,-0.06054 -0.340181,-0.175017 -0.484354,-0.254392 -0.506395,-0.278802 -2.044847,-1.088763 -2.068008,-1.088763 -0.04692,0 -0.02037,2.410216 0.02811,2.551232 0.105695,0.307438 0.0055,0.720531 -0.207006,0.853226 -0.182499,0.113973 -0.566977,0.125181 -0.935404,0.02727 -0.11278,-0.02997 -0.28195,-0.148374 -0.351454,-0.245982 -0.04373,-0.06142 -0.06801,-0.11167 -0.05394,-0.11167 0.01407,0 0.0072,-0.02214 -0.01526,-0.0492 -0.02246,-0.02706 -0.04826,-0.08956 -0.05734,-0.138889 -0.0091,-0.04933 -0.01982,-0.09385 -0.02388,-0.09895 -0.0041,-0.0051 -0.0097,-0.02176 -0.01258,-0.03704 -0.0029,-0.01528 -0.01843,-0.04861 -0.03459,-0.07407 -0.01617,-0.02546 -0.02049,-0.0463 -0.0096,-0.0463 0.01088,0 0.0021,-0.04583 -0.01962,-0.101851 -0.03871,-0.100052 -0.05541,-0.161565 -0.09205,-0.339063 -0.01011,-0.04898 -0.03484,-0.119819 -0.05496,-0.157408 -0.02012,-0.03759 -0.02845,-0.06834 -0.01853,-0.06834 0.0099,0 -0.0069,-0.07917 -0.03733,-0.175926 -0.06041,-0.1919 -0.08325,-0.276681 -0.111576,-0.414072 -0.0102,-0.0495 -0.02696,-0.103602 -0.03724,-0.120231 -0.01028,-0.01663 -0.02607,-0.06363 -0.0351,-0.104447 -0.009,-0.04082 -0.02475,-0.107546 -0.03494,-0.148287 -0.01018,-0.04074 -0.0251,-0.103306 -0.03316,-0.139034 -0.008,-0.03573 -0.03586,-0.139894 -0.06179,-0.231481 -0.02594,-0.09159 -0.05181,-0.183189 -0.05749,-0.203559 -0.0057,-0.02037 -0.02041,-0.08587 -0.03273,-0.145553 -0.01232,-0.05968 -0.03081,-0.122121 -0.04108,-0.13875 -0.01028,-0.01663 -0.02607,-0.06363 -0.0351,-0.104447 -0.009,-0.04082 -0.02561,-0.111713 -0.03684,-0.157547 -0.01123,-0.04583 -0.02877,-0.123832 -0.03897,-0.17333 -0.0102,-0.0495 -0.02696,-0.103603 -0.03724,-0.120231 -0.01028,-0.01663 -0.02608,-0.06363 -0.0351,-0.104447 -0.009,-0.04082 -0.02475,-0.107547 -0.03494,-0.148288 -0.04925,-0.197005 -0.06063,-0.244536 -0.06988,-0.292024 -0.0194,-0.09949 -0.167322,-0.212807 -0.50982,-0.39054 -0.190422,-0.09881 -0.362889,-0.191595 -0.383259,-0.206177 -0.06499,-0.04652 -2.157872,-1.148296 -2.181255,-1.148296 -0.01235,0 -0.02245,0.79664 -0.02245,1.770312 v 1.770313 l 0.301527,0.275984 c 0.16584,0.151791 0.346633,0.31765 0.401763,0.368576 0.05513,0.05093 0.221146,0.200926 0.368924,0.333334 0.147778,0.132407 0.330478,0.299074 0.406,0.37037 0.07552,0.0713 0.277257,0.25463 0.448301,0.407407 0.331551,0.296146 0.652414,0.592253 0.903,0.833334 0.08469,0.08148 0.259879,0.24579 0.3893,0.36513 0.182454,0.168243 0.242942,0.250949 0.269286,0.3682 0.04074,0.181309 0.0035,0.529069 -0.06392,0.596459 -0.02657,0.02657 -0.07472,0.111525 -0.107005,0.188795 -0.03229,0.07727 -0.08586,0.160351 -0.119056,0.184623 -0.122485,0.08956 -0.753674,0.04042 -0.753674,-0.05868 0,-0.01838 -0.0193,-0.03341 -0.04288,-0.03341 -0.06525,0 -0.55347,-0.453171 -1.385383,-1.285923 -0.47535,-0.47583 -0.761497,-0.736636 -0.778329,-0.709401 -0.01464,0.02369 -0.03001,0.828742 -0.03415,1.78901 l -0.0075,1.745942 -0.09796,0.155175 c -0.109365,0.173244 -0.196489,0.238176 -0.411047,0.306344 -0.131692,0.04184 -0.418464,0.07022 -0.444554,0.04399 z"
   id="path49313"
   transform="translate(0,-0.5)" /><path
   style="fill:#d3bc5f;stroke:#d3bc5f;stroke-width:0.037037"
   d="m 11.499679,29.28073 c -0.08131,-0.03699 -0.184532,-0.107181 -0.229393,-0.155979 -0.184112,-0.200272 -0.188855,-0.2442 -0.213525,-1.977655 -0.02355,-1.655004 -0.03425,-1.869318 -0.09333,-1.869318 -0.01827,0 -0.468633,0.425152 -1.000814,0.944782 -0.5321811,0.51963 -1.016554,0.970096 -1.0763851,1.001036 -0.1124641,0.05816 -0.5775352,0.1311 -0.6917882,0.1085 -0.035648,-0.007 -0.1110678,-0.02258 -0.1675996,-0.03451 C 7.8621481,27.262834 7.6416707,27.036848 7.5741604,26.833593 7.4712704,26.52382 7.5147256,26.445401 8.1195089,25.849462 8.6567241,25.320103 9.2981104,24.721276 10,24.093752 c 0.213889,-0.191227 0.534722,-0.48586 0.712963,-0.65474 l 0.324074,-0.307054 v -1.440176 c 0,-1.592098 -0.01657,-1.895486 -0.103518,-1.895486 -0.03076,0 -0.515886,0.244692 -1.0780568,0.54376 -0.5621711,0.299067 -1.2077052,0.640875 -1.4345207,0.759573 -0.2268156,0.118697 -0.4315022,0.23884 -0.4548593,0.266983 -0.023357,0.02814 -0.09919,0.273836 -0.1685185,0.545983 -0.1553085,0.609662 -0.5865922,2.217168 -0.6892163,2.568886 -0.041606,0.142593 -0.093028,0.325926 -0.1142722,0.407408 C 6.783423,25.69684 6.6442244,25.84981 6.0504452,25.925876 5.8171744,25.95576 5.7785474,25.921806 5.5592596,25.494111 5.3456636,25.077519 5.3476552,25.035081 5.6293762,24 c 0.016633,-0.06111 0.065954,-0.227778 0.1096034,-0.37037 0.043649,-0.142593 0.097168,-0.325926 0.1189311,-0.407408 0.021763,-0.08148 0.053063,-0.189815 0.069555,-0.240741 0.1731688,-0.53472 0.2237996,-0.780421 0.165127,-0.801328 -0.034953,-0.01245 -0.6485033,0.336065 -2.126634,1.208007 L 3.3208061,23.768732 3.0654846,23.745002 C 2.7185795,23.712761 2.5915849,23.651865 2.3126239,23.383993 L 2.0740741,23.154926 v -0.23671 c 0,-0.136447 0.023196,-0.281565 0.054764,-0.34261 0.094017,-0.181809 0.4839221,-0.416656 2.3077596,-1.390007 0.5339456,-0.284958 0.9708102,-0.53814 0.9708102,-0.562629 0,-0.02449 -0.017533,-0.05536 -0.038962,-0.0686 -0.032964,-0.02037 -2.5151262,-0.49881 -2.5878568,-0.49881 -0.049073,0 -0.403288,-0.577335 -0.4627708,-0.75427 -0.056855,-0.169118 -0.056532,-0.188473 0.00525,-0.314815 0.050538,-0.103356 0.1217332,-0.162507 0.3065658,-0.254703 0.334556,-0.16688 0.6521432,-0.166614 1.3150441,0.0011 0.2646887,0.06697 1.203054,0.304215 2.0852563,0.527219 l 1.6040041,0.405462 0.1182181,-0.06869 c 0.06502,-0.03778 0.6670508,-0.360049 1.3378463,-0.716148 1.233288,-0.654703 1.478491,-0.793225 1.518384,-0.857772 0.01211,-0.01959 -0.07399,-0.09313 -0.191331,-0.163419 -0.251528,-0.150666 -1.7258393,-0.95289 -2.3614959,-1.284972 l -0.4444445,-0.232189 -2,0.506212 c -2.4367238,0.616749 -2.7135196,0.653588 -3.0633571,0.407713 -0.3620704,-0.254472 -0.3870992,-0.899844 -0.042607,-1.09862 0.063942,-0.0369 0.2556088,-0.09244 0.425926,-0.123432 0.1703171,-0.03099 0.3846674,-0.07 0.4763341,-0.08668 0.8813092,-0.160394 2.0646331,-0.381941 2.1012275,-0.393402 0.074537,-0.02334 0.018124,-0.104427 -0.1296417,-0.186333 -0.076039,-0.04215 -0.7113463,-0.383815 -1.4117943,-0.759259 -1.6285781,-0.872928 -1.7820137,-1.003813 -1.7820137,-1.52012 0,-0.227806 0.00132,-0.230653 0.1980676,-0.427401 0.1907345,-0.190735 0.2054753,-0.198051 0.3981482,-0.197616 0.2629794,5.93e-4 0.4585026,0.08823 1.9963768,0.894789 1.2034774,0.631181 1.4954733,0.76978 1.5361196,0.729133 0.010705,-0.0107 -0.04004,-0.209734 -0.1127659,-0.442289 -0.1904574,-0.609022 -0.4972304,-1.561566 -0.5238345,-1.626529 -0.012513,-0.03056 -0.02563,-0.06389 -0.029149,-0.07407 -0.00352,-0.01018 -0.015493,-0.04352 -0.026609,-0.07407 -0.011117,-0.03055 -0.038949,-0.122222 -0.061849,-0.203703 -0.1344766,-0.478478 -0.1176493,-0.680089 0.069929,-0.837841 0.1492838,-0.125547 0.5886097,-0.255019 0.8648256,-0.254869 0.1957915,1.07e-4 0.2284778,0.01193 0.3392541,0.122704 0.1453471,0.145347 0.1711015,0.226174 0.6454267,2.025561 0.1852548,0.702778 0.3939318,1.494445 0.4637267,1.759259 0.2195329,0.83295 0.148917,0.733185 0.7423333,1.048761 2.1289734,1.132179 2.4600574,1.303091 2.5242914,1.303091 0.04101,0 0.04923,-0.298744 0.04663,-1.694444 l -0.0032,-1.694445 -0.433336,-0.388888 C 9.7787837,12.121483 8.3287444,10.780739 8.0648148,10.508397 L 7.7777778,10.21221 V 9.9572952 c 0,-0.3412556 0.094214,-0.4862766 0.3892689,-0.5991875 0.269947,-0.1033029 0.7678529,-0.1132994 0.9080455,-0.018231 0.1390956,0.094325 0.31649,0.2540009 1.2031978,1.0830233 1.151413,1.076508 1.205229,1.124445 1.232141,1.097533 0.01326,-0.01326 0.03463,-0.794111 0.0475,-1.7352315 0.02251,-1.6463595 0.02637,-1.7169444 0.101951,-1.8648027 0.119411,-0.2335898 0.291735,-0.3220047 0.632949,-0.3247505 0.318739,-0.00257 0.471403,0.065285 0.633644,0.2816168 L 13.018519,8 l 0.01026,1.7222222 c 0.0056,0.9472218 0.01751,1.7427748 0.02637,1.7678938 0.03054,0.08654 0.128302,0.0016 0.599693,-0.521245 0.707598,-0.78479 1.308335,-1.3912637 1.475319,-1.4894071 0.106331,-0.062495 0.233371,-0.094449 0.446001,-0.1121818 0.329754,-0.027501 0.491245,0.025042 0.69104,0.2248383 0.213224,0.2132233 0.234403,0.6041356 0.04611,0.8510046 -0.106208,0.139246 -0.920802,0.900805 -1.961458,1.833755 -0.305556,0.273931 -0.743836,0.672316 -0.973958,0.8853 l -0.418401,0.387242 0.01099,1.675942 c 0.006,0.921769 0.0227,1.687633 0.03701,1.70192 0.02336,0.02333 2.598662,-1.317851 2.920768,-1.521091 0.140826,-0.08886 0.116206,-0.02599 0.376643,-0.961749 0.03969,-0.142592 0.08612,-0.309259 0.103192,-0.37037 0.01707,-0.06111 0.07221,-0.261111 0.122542,-0.444444 0.05033,-0.183334 0.161115,-0.566667 0.246191,-0.851852 0.08508,-0.285185 0.161968,-0.555366 0.17087,-0.600402 0.03153,-0.159514 0.272248,-0.833713 0.316868,-0.887477 0.06661,-0.08026 0.276031,-0.178759 0.561601,-0.26414 l 0.252095,-0.07537 0.134045,0.117399 c 0.08002,0.07008 0.185284,0.228144 0.261165,0.39215 0.111142,0.240218 0.124648,0.300732 0.107462,0.481481 -0.01081,0.113702 -0.02667,0.231731 -0.03525,0.262287 -0.0086,0.03055 -0.02792,0.105555 -0.04299,0.166666 -0.01507,0.06111 -0.03707,0.136111 -0.04889,0.166667 -0.01182,0.03056 -0.02436,0.06389 -0.02788,0.07407 -0.0035,0.01018 -0.01614,0.04352 -0.02805,0.07407 -0.04913,0.126037 -0.323762,0.998308 -0.382218,1.213968 -0.03466,0.127867 -0.07736,0.241351 -0.09489,0.252186 -0.01753,0.01083 -0.03187,0.07817 -0.03187,0.149639 0,0.117577 0.0079,0.127526 0.08333,0.104573 0.04583,-0.01395 0.55,-0.271442 1.120371,-0.572202 1.90217,-1.003028 2.07209,-1.077118 2.308107,-1.006395 0.205585,0.0616 0.479189,0.249088 0.562203,0.385243 0.147663,0.242189 0.07538,0.597202 -0.161315,0.792307 -0.148584,0.122476 -0.885829,0.542619 -2.005292,1.14278 -0.938867,0.503342 -1.133421,0.619118 -1.118022,0.665316 0.01564,0.04693 0.468874,0.142168 1.76617,0.371143 0.989545,0.174657 0.899529,0.140835 1.06881,0.401583 0.400979,0.617635 0.396974,0.87601 -0.01734,1.118815 -0.161815,0.09483 -0.191322,0.09942 -0.546445,0.08494 -0.33207,-0.01354 -0.61048,-0.07466 -2.41243,-0.529597 L 16.5,16.745189 15.388889,17.33185 c -0.611111,0.322663 -1.252778,0.661463 -1.425926,0.752887 -0.337941,0.178437 -0.444483,0.254956 -0.444378,0.319152 7.4e-5,0.05417 0.188537,0.168796 0.981415,0.596941 1.387256,0.749103 1.929444,1.017689 2.054385,1.017689 0.125261,0 3.92254,-0.95923 4.223393,-1.06687 0.100513,-0.03596 0.28912,-0.06025 0.475175,-0.0612 0.299008,-0.0015 0.311667,0.002 0.41108,0.113137 0.122384,0.136857 0.261893,0.614042 0.261893,0.89579 0,0.160133 -0.01826,0.211437 -0.114158,0.320653 -0.132803,0.151254 -0.166258,0.161948 -1.052509,0.33643 -0.662293,0.13039 -0.82262,0.160905 -1.657407,0.315446 -0.239352,0.04431 -0.435185,0.09429 -0.435185,0.111064 0,0.05659 0.199961,0.173186 1.333333,0.777465 0.621296,0.331257 1.246296,0.668967 1.388889,0.750467 0.142592,0.0815 0.309259,0.173472 0.37037,0.204381 0.06111,0.03091 0.233168,0.179357 0.382348,0.329885 l 0.271236,0.273687 -0.141607,0.108945 c -0.44847,0.34503 -0.501305,0.370046 -0.830252,0.393109 l -0.311354,0.02183 -1.111111,-0.592937 c -1.726053,-0.921098 -1.919623,-1.014403 -1.95905,-0.94431 -0.0409,0.07271 -2.7e-5,2.409329 0.04601,2.630209 0.06503,0.31203 -0.05345,0.637951 -0.270585,0.744338 -0.125258,0.06137 -0.572638,0.06603 -0.786912,0.0082 -0.327859,-0.0885 -0.45056,-0.270861 -0.625044,-0.928974 -0.0297,-0.112037 -0.07867,-0.287037 -0.108807,-0.388889 -0.03014,-0.101851 -0.229419,-0.843518 -0.442842,-1.648148 -0.376136,-1.418073 -0.391918,-1.466372 -0.514343,-1.574074 -0.196056,-0.172477 -2.940208,-1.632757 -2.98472,-1.588296 -0.0112,0.01119 -0.02037,0.822677 -0.02037,1.803301 v 1.782953 l 1.29567,1.178664 c 0.712618,0.648266 1.489988,1.365393 1.727488,1.593614 0.379522,0.364696 0.434849,0.433477 0.456839,0.567933 0.03452,0.211092 -0.006,0.401624 -0.139707,0.656182 -0.135366,0.257801 -0.215869,0.298467 -0.534386,0.269941 -0.313285,-0.02806 -0.416194,-0.10876 -1.558459,-1.222182 -0.514864,-0.501864 -0.952523,-0.91248 -0.972573,-0.91248 -0.02005,0 -0.04289,0.02083 -0.05075,0.0463 -0.0079,0.02546 -0.02336,0.836599 -0.03444,1.802525 l -0.02014,1.756227 -0.10518,0.132661 c -0.208044,0.262402 -0.644895,0.388826 -0.916532,0.265243 z"
   id="path49393"
   transform="translate(0,-0.5)" /><path
   style="fill:#d3bc5f;stroke:#d3bc5f;stroke-width:0.037037"
   d="m 11.53468,29.312204 c -0.154379,-0.04485 -0.378323,-0.276857 -0.423457,-0.438697 -0.02036,-0.07302 -0.04593,-0.732766 -0.05681,-1.4661 -0.02517,-1.696332 -0.04634,-2.100267 -0.109319,-2.085336 -0.02613,0.0062 -0.436962,0.387859 -0.912966,0.848143 -1.1731556,1.13441 -1.085393,1.065179 -1.4384663,1.134738 -0.5309759,0.104608 -0.8646081,-0.04213 -1.0198181,-0.448544 -0.088458,-0.231624 -0.05168,-0.385315 0.1482533,-0.619544 0.2072492,-0.242799 0.9868785,-0.982508 2.2408641,-2.126124 0.539815,-0.492303 1.004607,-0.923086 1.032872,-0.957296 0.04268,-0.05166 0.04841,-0.330758 0.03382,-1.646604 -0.01057,-0.953382 -0.03233,-1.610777 -0.05463,-1.650623 -0.03366,-0.06014 -0.09283,-0.03725 -0.644934,0.249482 -1.1039946,0.573358 -2.2586871,1.194933 -2.3245086,1.251291 -0.041338,0.0354 -0.1423582,0.349436 -0.2791397,0.867758 -0.4180829,1.584296 -0.7666588,2.852297 -0.8443748,3.071548 -0.1541489,0.434886 -0.3472137,0.584607 -0.8157478,0.63261 l -0.2462355,0.02523 -0.1339467,-0.209392 c -0.3901356,-0.60988 -0.3881335,-0.638754 0.1794415,-2.587918 0.1350382,-0.463747 0.2455237,-0.867914 0.2455237,-0.898148 0,-0.115688 -0.021965,-0.104211 -1.7592592,0.919271 l -1,0.589123 -0.2808111,-0.01849 C 2.7347328,23.726425 2.5819566,23.654832 2.28855,23.381888 2.0639046,23.17291 2.0545277,23.14569 2.0688971,22.744265 2.078557,22.474405 2.2879615,22.329381 4,21.406874 5.3663561,20.670633 5.4161294,20.640678 5.3611415,20.587716 5.3222179,20.550225 3.5347053,20.186406 3,20.107143 2.7580153,20.071272 2.7265386,20.046713 2.5409812,19.748998 2.2229963,19.238812 2.1988845,19.026274 2.4379202,18.840547 c 0.3638976,-0.282743 0.7725042,-0.303812 1.6381228,-0.08447 0.3146578,0.07973 1.2418371,0.313851 2.0603985,0.520261 l 1.4882929,0.375289 1.3265219,-0.708891 c 1.3695337,-0.731876 1.6411567,-0.886287 1.6412697,-0.933017 3.7e-5,-0.01502 -0.06243,-0.06649 -0.138822,-0.11437 -0.17089,-0.107115 -1.6623673,-0.92061 -2.3431292,-1.27801 L 7.6100389,16.354562 5.8513156,16.79762 C 3.6590641,17.349893 3.4586135,17.393616 3.0925926,17.399361 2.6559372,17.406216 2.4050359,17.25541 2.2941627,16.919461 2.2339986,16.737162 2.267219,16.40869 2.358279,16.285501 2.4764824,16.125591 2.6322675,16.076523 3.5555556,15.908394 4.8262529,15.677001 5.4852692,15.545595 5.5127239,15.51814 5.551861,15.479003 5.4568781,15.423387 4.1137654,14.699005 3.4095277,14.319187 2.7583333,13.957084 2.6666667,13.894332 2.3040444,13.64609 2.1851852,13.445867 2.1851852,13.083258 v -0.233937 l 0.2002037,-0.197716 0.2002037,-0.197717 0.2349814,0.01619 c 0.299758,0.02066 0.5005977,0.109871 1.8831297,0.836507 1.1617741,0.610608 1.5537204,0.800187 1.5865282,0.767379 0.024337,-0.02434 -0.124973,-0.523508 -0.4929545,-1.64804 -0.149981,-0.458333 -0.2926605,-0.93632 -0.3170657,-1.062193 -0.039579,-0.204132 -0.036905,-0.244097 0.024745,-0.369882 0.088487,-0.180542 0.2451099,-0.283396 0.5470314,-0.359236 0.5114363,-0.128469 0.7582544,-0.06588 0.9070552,0.229997 0.074167,0.147478 0.3306314,1.078969 0.9676392,3.514522 0.1769137,0.676417 0.23912,0.840435 0.3449767,0.909597 0.1232378,0.08052 2.6794608,1.432323 2.8177118,1.490088 l 0.121914,0.05094 0.02379,-0.359323 c 0.01309,-0.197627 0.02388,-0.953092 0.02399,-1.67881 l 1.91e-4,-1.319487 -0.527206,-0.47681 C 9.5076907,11.888004 8.7656626,11.199436 8.287037,10.726461 L 7.7777778,10.223215 7.7779259,9.9634591 C 7.7781111,9.6202485 7.8554281,9.4900685 8.1316459,9.3679118 8.4021878,9.2482654 8.916427,9.2383814 9.098383,9.3493304 9.2096074,9.4171506 9.5334307,9.711326 10.863742,10.95306 11.186007,11.253877 11.462515,11.5 11.478194,11.5 c 0.03207,0 0.07638,-1.323147 0.07926,-2.3670966 10e-4,-0.3786524 0.0144,-0.8008852 0.02968,-0.938295 0.04416,-0.3971024 0.217136,-0.564176 0.628653,-0.607188 0.296663,-0.031007 0.514465,0.048993 0.689221,0.2531558 l 0.128021,0.1495642 0.01126,1.7333609 c 0.0062,0.9533487 0.02486,1.7469487 0.04149,1.7635547 0.01663,0.01661 0.141626,-0.08763 0.277777,-0.231633 1.144536,-1.210553 1.664563,-1.7314703 1.798289,-1.8013677 0.122814,-0.064194 0.219135,-0.08032 0.4887,-0.081819 0.305862,-0.0017 0.349465,0.0072 0.490009,0.1000268 0.08485,0.056041 0.187935,0.1678773 0.229078,0.2485245 0.08874,0.1739539 0.09913,0.4765844 0.02152,0.6266834 -0.07103,0.137363 -0.599798,0.640071 -2.147228,2.041418 l -1.288287,1.166667 0.02542,1.64767 c 0.01398,0.906218 0.03309,1.66008 0.04246,1.675247 0.03806,0.06158 2.886261,-1.435269 2.985665,-1.569088 0.03561,-0.04794 0.121239,-0.287163 0.190285,-0.531607 0.06905,-0.244445 0.261892,-0.927778 0.428547,-1.518519 0.166655,-0.59074 0.362864,-1.257407 0.436021,-1.481481 0.170725,-0.522914 0.24756,-0.605249 0.691065,-0.740526 0.31643,-0.09652 0.326794,-0.09731 0.404585,-0.03112 0.135828,0.115586 0.173612,0.170282 0.310267,0.44915 0.191656,0.391107 0.174414,0.522947 -0.228652,1.748418 -0.373081,1.134304 -0.385902,1.185185 -0.298631,1.185185 0.03421,0 0.633479,-0.298248 1.331714,-0.662772 1.891271,-0.987368 1.951087,-1.009402 2.290035,-0.84357 0.107667,0.05268 0.252806,0.154634 0.322532,0.226572 0.108845,0.1123 0.129,0.161581 0.142518,0.34847 0.01993,0.275551 -0.05264,0.437932 -0.262841,0.588131 -0.189712,0.135558 -0.818219,0.493091 -1.723487,0.980426 -0.982263,0.528784 -1.339445,0.733728 -1.339445,0.768547 0,0.01689 0.02133,0.0389 0.0474,0.0489 0.0584,0.02241 1.225795,0.248261 1.952598,0.377761 0.29537,0.05263 0.566167,0.104631 0.601772,0.115561 0.07858,0.02412 0.236956,0.249692 0.393304,0.560172 0.147594,0.293097 0.153066,0.479142 0.01878,0.638727 -0.255768,0.303964 -0.650286,0.338077 -1.550896,0.134101 -0.305556,-0.0692 -1.251403,-0.302834 -2.101883,-0.519178 -1.517729,-0.386079 -1.548553,-0.392241 -1.666667,-0.333201 -0.657071,0.328442 -2.748024,1.451653 -2.81019,1.50957 l -0.08034,0.07485 0.09642,0.0768 c 0.123376,0.09827 2.077074,1.149616 2.555651,1.375273 l 0.363356,0.171328 0.655162,-0.156489 c 0.557616,-0.133189 3.036454,-0.769884 3.672493,-0.943287 0.111384,-0.03037 0.308884,-0.05521 0.438889,-0.05521 0.218067,0 0.245846,0.0095 0.358693,0.122321 0.149856,0.149855 0.241574,0.42688 0.267455,0.807814 l 0.01916,0.281987 -0.133738,0.148031 c -0.154583,0.171106 -0.120954,0.162307 -1.964156,0.513861 -0.592738,0.113053 -1.09149,0.218933 -1.108337,0.235289 -0.04905,0.04762 0.101583,0.136756 1.563717,0.925305 0.761715,0.410803 1.453382,0.794655 1.537037,0.853005 0.228561,0.15942 0.599677,0.5506 0.558003,0.588171 -0.182344,0.164394 -0.562661,0.417157 -0.674332,0.44817 -0.07644,0.02123 -0.247705,0.03869 -0.380592,0.0388 -0.239545,2.22e-4 -0.249691,-0.0041 -1.185185,-0.503847 -0.518965,-0.277229 -1.193572,-0.628414 -1.499128,-0.78041 l -0.555555,-0.276357 -0.02544,0.141521 c -0.03417,0.190133 0.0016,2.027199 0.04682,2.406706 0.05301,0.444552 -0.02293,0.70474 -0.24893,0.852818 -0.114806,0.07522 -0.607514,0.08568 -0.848102,0.01799 -0.200942,-0.05653 -0.368096,-0.228476 -0.459437,-0.472607 -0.06761,-0.1807 -0.471432,-1.636919 -0.779666,-2.811539 -0.20892,-0.796155 -0.328291,-1.149017 -0.416168,-1.230196 -0.103747,-0.09584 -0.31699,-0.221158 -1.120936,-0.658751 -0.647343,-0.352354 -1.805162,-0.944386 -1.846907,-0.944386 -0.0129,0 -0.02341,0.804167 -0.02334,1.787037 l 1.11e-4,1.787037 0.693274,0.62963 c 1.961285,1.781235 2.66725,2.448066 2.739356,2.587503 0.08917,0.172444 0.04587,0.510938 -0.09901,0.773869 -0.06462,0.117274 -0.152229,0.231818 -0.194692,0.254544 -0.04571,0.02446 -0.178394,0.03408 -0.325274,0.02357 -0.200204,-0.01432 -0.280706,-0.0402 -0.417213,-0.134123 -0.09303,-0.06401 -0.580679,-0.512065 -1.083666,-0.995688 -0.959297,-0.922363 -1.042799,-0.995922 -1.083931,-0.954841 -0.01396,0.01394 -0.03372,0.812947 -0.0439,1.775562 l -0.01852,1.75021 -0.105,0.151415 c -0.108045,0.155808 -0.229829,0.231057 -0.487593,0.301281 -0.171287,0.04666 -0.252262,0.04689 -0.409764,0.0011 z"
   id="path49395"
   transform="translate(0,-0.5)" /></svg>
