<?xml version="1.0" encoding="UTF-8" standalone="no"?>
<svg
   width="24"
   height="24"
   viewBox="0 0 24 24"
   version="1.1"
   id="svg45077"
   sodipodi:docname="ic-radio-liliac-on.svg"
   inkscape:version="1.2.1 (9c6d41e410, 2022-07-14)"
   xmlns:inkscape="http://www.inkscape.org/namespaces/inkscape"
   xmlns:sodipodi="http://sodipodi.sourceforge.net/DTD/sodipodi-0.dtd"
   xmlns="http://www.w3.org/2000/svg"
   xmlns:svg="http://www.w3.org/2000/svg">
  <sodipodi:namedview
     id="namedview45079"
     pagecolor="#ffffff"
     bordercolor="#000000"
     borderopacity="0.25"
     inkscape:showpageshadow="2"
     inkscape:pageopacity="0.0"
     inkscape:pagecheckerboard="0"
     inkscape:deskcolor="#d1d1d1"
     showgrid="false"
     inkscape:zoom="34.875"
     inkscape:cx="11.985663"
     inkscape:cy="12.014337"
     inkscape:window-width="1920"
     inkscape:window-height="1017"
     inkscape:window-x="-8"
     inkscape:window-y="456"
     inkscape:window-maximized="1"
     inkscape:current-layer="svg45077" />
  <defs
     id="defs45073">
    <style
       type="text/css"
       id="style45071">
            .cls-1{fill:#b088ff;fill-rule:evenodd}
        </style>
  </defs>
  <g
     id="radiobttom_active"
     transform="translate(-508 -240)">
    <path
       id="radio_on"
       d="M14 8a6 6 0 1 0 6 6 5.942 5.942 0 0 0-6-6zm0-6a12 12 0 1 0 12 12A12.035 12.035 0 0 0 14 2zm0 21.6a9.6 9.6 0 1 1 9.6-9.6 9.628 9.628 0 0 1-9.6 9.6z"
       class="cls-1"
       transform="translate(506 238)" />
  </g>
  <path
     style="fill:#a0892c;stroke:#a0892c;stroke-width:0.0286738"
     d="M 11.126004,23.956523 C 9.7512642,23.842019 8.436892,23.517544 7.2397437,22.997133 3.4038627,21.329642 0.71615375,17.800375 0.13140793,13.663082 c -0.14594894,-1.032642 -0.14594894,-2.293522 0,-3.326164 C 0.44303728,8.1320249 1.3565906,6.0682368 2.7887954,4.3336734 3.1772034,3.8632668 3.9734153,3.0771713 4.4377907,2.7056299 6.3026578,1.2135706 8.3233267,0.36964958 10.724014,0.0802239 c 0.580181,-0.06994626 1.934609,-0.06897791 2.537635,0.0018143 1.662118,0.19512437 3.230492,0.70258006 4.645161,1.5029672 0.407571,0.2305943 1.194143,0.76744 1.591398,1.0861499 0.457243,0.3668378 1.159734,1.0442317 1.541625,1.4865508 1.540612,1.7843854 2.538123,3.9977004 2.84304,6.3082439 0.130597,0.989613 0.125143,2.210658 -0.01428,3.197132 -0.37185,2.630978 -1.626004,5.099442 -3.522028,6.932162 -1.927629,1.86327 -4.364371,3.012219 -7.041905,3.320331 -0.455783,0.05245 -1.748808,0.07675 -2.178655,0.04095 z m 1.6912,-2.380865 c 2.279552,-0.206562 4.371815,-1.18475 5.979079,-2.795374 2.149352,-2.153847 3.162205,-5.218627 2.708354,-8.195181 C 21.196264,8.5626578 20.300034,6.7528006 18.886186,5.2973715 17.463545,3.8328909 15.608423,2.860482 13.594581,2.5236422 12.463317,2.3344245 11.185306,2.3551894 10.078853,2.5807652 7.2073482,3.1661872 4.7457643,5.0462191 3.4220169,7.6649158 2.1293051,10.222216 2.0479125,13.244965 3.201171,15.866649 c 1.3894928,3.158713 4.3593569,5.32768 7.795245,5.693067 0.454978,0.04838 1.37397,0.05643 1.820788,0.01594 z"
     id="path45081" />
  <path
     style="fill:#a0892c;stroke:#a0892c;stroke-width:0.0286738"
     d="M 11.44086,17.959378 C 10.522518,17.872879 9.5268516,17.526891 8.7640307,17.029197 7.2367751,16.032755 6.2708534,14.477326 6.0509151,12.66025 c -0.037793,-0.312239 -0.037793,-1.008261 0,-1.3205 C 6.2682676,9.5440378 7.2160971,8.0002834 8.7168459,6.9976793 9.7094016,6.3345835 11.078609,5.9576475 12.272401,6.0188528 c 1.597436,0.0819 2.96465,0.6951112 4.043449,1.8135341 1.0589,1.0977926 1.612787,2.4215041 1.654836,3.9548181 0.02085,0.760258 -0.05027,1.318128 -0.2507,1.966448 -0.836576,2.706062 -3.470526,4.470267 -6.279126,4.205725 z"
     id="path45083" />
</svg>
