<?xml version="1.0" encoding="UTF-8" standalone="no"?>
<svg
   id="ic_receive_on"
   width="26"
   height="26"
   viewBox="0 0 26 26"
   version="1.1"
   sodipodi:docname="ic-receive-on.svg"
   inkscape:version="1.2.1 (9c6d41e410, 2022-07-14)"
   xmlns:inkscape="http://www.inkscape.org/namespaces/inkscape"
   xmlns:sodipodi="http://sodipodi.sourceforge.net/DTD/sodipodi-0.dtd"
   xmlns="http://www.w3.org/2000/svg"
   xmlns:svg="http://www.w3.org/2000/svg">
  <sodipodi:namedview
     id="namedview45301"
     pagecolor="#ffffff"
     bordercolor="#000000"
     borderopacity="0.25"
     inkscape:showpageshadow="2"
     inkscape:pageopacity="0.0"
     inkscape:pagecheckerboard="0"
     inkscape:deskcolor="#d1d1d1"
     showgrid="false"
     inkscape:zoom="32.192308"
     inkscape:cx="13.015532"
     inkscape:cy="13.015532"
     inkscape:window-width="1920"
     inkscape:window-height="1017"
     inkscape:window-x="-8"
     inkscape:window-y="456"
     inkscape:window-maximized="1"
     inkscape:current-layer="ic_receive_on" />
  <defs
     id="defs45294">
    <style
       type="text/css"
       id="style45292">
            .cls-1{fill:#b088ff}.cls-2{fill:none}
        </style>
  </defs>
  <g
     id="Group_8834"
     data-name="Group 8834"
     transform="translate(1 1)">
    <path
       id="Path_18892"
       d="M18.676 11.737l-1.352-1.475L13 14.227V2h-2v12.227l-4.324-3.964-1.352 1.474L12 17.856z"
       class="cls-1"
       data-name="Path 18892" />
    <path
       id="Path_18893"
       d="M20 16v4H4v-4H2v6h20v-6z"
       class="cls-1"
       data-name="Path 18893" />
  </g>
  <path
     id="Rectangle_4413"
     d="M0 0h26v26H0z"
     class="cls-2"
     data-name="Rectangle 4413" />
  <path
     style="fill:#a0892c;stroke:#a0892c;stroke-width:0.0310633"
     d="M 9.6736349,15.785638 6.3472697,12.735962 6.8158093,12.224558 C 7.073506,11.943286 7.3752091,11.6182 7.4862605,11.502145 l 0.2019115,-0.21101 2.1495518,1.972712 c 1.1822532,1.084992 2.1572532,1.972712 2.1666662,1.972712 0.0094,0 0.01711,-2.746774 0.01711,-6.1039425 V 3.0286738 H 13 13.978495 V 9.135205 c 0,3.544901 0.01157,6.102188 0.02759,6.096177 0.01517,-0.0057 0.98765,-0.891 2.161062,-1.967344 1.173411,-1.076344 2.142987,-1.959331 2.154613,-1.962192 0.03004,-0.0074 1.316084,1.409381 1.307057,1.43993 -0.0041,0.01389 -1.448341,1.344436 -3.209415,2.956776 -1.761075,1.61234 -3.250878,2.977706 -3.310675,3.034145 L 13,18.835315 Z"
     id="path45303" />
  <path
     style="fill:#a0892c;stroke:#a0892c;stroke-width:0.0310633"
     d="m 3.0131422,19.989247 v -2.982079 h 0.9782663 0.9782664 l 0.00799,1.995819 0.00799,1.995818 H 13 21.014337 l 0.008,-1.995818 0.008,-1.995819 h 0.978267 0.978266 v 2.982079 2.982079 H 13 3.0131422 Z"
     id="path45305" />
</svg>
