<?xml version="1.0" encoding="UTF-8" standalone="no"?>
<svg
   width="40"
   height="26"
   viewBox="0 0 40 26"
   version="1.1"
   id="svg45865"
   sodipodi:docname="ic-switch-liliac-on.svg"
   inkscape:version="1.2.1 (9c6d41e410, 2022-07-14)"
   xmlns:inkscape="http://www.inkscape.org/namespaces/inkscape"
   xmlns:sodipodi="http://sodipodi.sourceforge.net/DTD/sodipodi-0.dtd"
   xmlns="http://www.w3.org/2000/svg"
   xmlns:svg="http://www.w3.org/2000/svg">
  <sodipodi:namedview
     id="namedview45867"
     pagecolor="#ffffff"
     bordercolor="#000000"
     borderopacity="0.25"
     inkscape:showpageshadow="2"
     inkscape:pageopacity="0.0"
     inkscape:pagecheckerboard="0"
     inkscape:deskcolor="#d1d1d1"
     showgrid="false"
     inkscape:zoom="30.25"
     inkscape:cx="20"
     inkscape:cy="12.991736"
     inkscape:window-width="1920"
     inkscape:window-height="1017"
     inkscape:window-x="-8"
     inkscape:window-y="456"
     inkscape:window-maximized="1"
     inkscape:current-layer="svg45865" />
  <defs
     id="defs45858">
    <style
       type="text/css"
       id="style45845">
            .cls-1,.cls-2{fill:#b088ff}.cls-1{fill-rule:evenodd;opacity:.5}.cls-3{filter:url(#switch_button)}
        </style>
    <filter
       id="switch_button"
       width="26"
       height="26"
       x="14"
       y="0"
       filterUnits="userSpaceOnUse">
      <feOffset
         dy="2"
         id="feOffset45847" />
      <feGaussianBlur
         result="blur"
         stdDeviation="1"
         id="feGaussianBlur45849" />
      <feFlood
         flood-opacity=".239"
         id="feFlood45851" />
      <feComposite
         in2="blur"
         operator="in"
         id="feComposite45853"
         result="result1" />
      <feComposite
         in="SourceGraphic"
         in2="result1"
         id="feComposite45855" />
    </filter>
  </defs>
  <g
     id="switch_on"
     transform="translate(0 1)"
     style="fill:#d3bc5f">
    <path
       id="switch_path"
       d="M37 10a6.957 6.957 0 0 1-7 7H10a6.957 6.957 0 0 1-7-7 6.957 6.957 0 0 1 7-7h20a6.957 6.957 0 0 1 7 7z"
       class="cls-1"
       transform="translate(-3 .223)"
       style="fill:#d3bc5f" />
    <g
       class="cls-3"
       transform="translate(0 -1)"
       id="g45862"
       style="fill:#d3bc5f">
      <path
         id="switch_button-2"
         d="M10 0A10 10 0 1 1 0 10 10 10 0 0 1 10 0z"
         class="cls-2"
         data-name="switch_button"
         transform="translate(17 1)"
         style="fill:#d3bc5f" />
    </g>
  </g>
  <path
     style="fill:#a0892c;stroke:#a0892c;stroke-width:0.0330578"
     d="m 26.016529,20.937705 c -1.64823,-0.168446 -3.315209,-0.77889 -4.661157,-1.706908 -1.002179,-0.690992 -1.963043,-1.654729 -2.61188,-2.619687 -0.880274,-1.309155 -1.397266,-2.657731 -1.641909,-4.282926 -0.09187,-0.610324 -0.08348,-2.143963 0.01519,-2.774465 0.338118,-2.1606552 1.274041,-4.0312694 2.776417,-5.549177 1.783147,-1.8015805 3.974633,-2.7990018 6.520666,-2.9677808 1.733212,-0.11489629 3.499472,0.2573798 5.122565,1.0796874 2.431585,1.2319136 4.227808,3.3951497 5.036325,6.0653696 0.279046,0.9215795 0.396862,1.7559997 0.396748,2.8099178 -9.9e-5,1.016388 -0.08431,1.665956 -0.340993,2.630712 -0.559394,2.102485 -1.852446,4.0043 -3.655495,5.376485 -0.650534,0.49508 -1.791322,1.106917 -2.608316,1.398915 -0.762279,0.272442 -1.616946,0.462033 -2.444812,0.542332 -0.418975,0.04064 -1.495173,0.03924 -1.903349,-0.0025 z"
     id="path45869" />
</svg>
