<?xml version="1.0" encoding="UTF-8" standalone="no"?>
<svg
   id="ic_send"
   width="26"
   height="26"
   viewBox="0 0 26 26"
   version="1.1"
   sodipodi:docname="ic-send.svg"
   inkscape:version="1.2.1 (9c6d41e410, 2022-07-14)"
   xmlns:inkscape="http://www.inkscape.org/namespaces/inkscape"
   xmlns:sodipodi="http://sodipodi.sourceforge.net/DTD/sodipodi-0.dtd"
   xmlns="http://www.w3.org/2000/svg"
   xmlns:svg="http://www.w3.org/2000/svg">
  <sodipodi:namedview
     id="namedview1471"
     pagecolor="#ffffff"
     bordercolor="#000000"
     borderopacity="0.25"
     inkscape:showpageshadow="2"
     inkscape:pageopacity="0.0"
     inkscape:pagecheckerboard="0"
     inkscape:deskcolor="#d1d1d1"
     showgrid="false"
     inkscape:zoom="31.307692"
     inkscape:cx="13"
     inkscape:cy="13"
     inkscape:window-width="1920"
     inkscape:window-height="1017"
     inkscape:window-x="-8"
     inkscape:window-y="456"
     inkscape:window-maximized="1"
     inkscape:current-layer="ic_send" />
  <defs
     id="defs1463">
    <style
       id="style1461">
            .cls-1{fill:#7c7687}.cls-2{fill:none}
        </style>
  </defs>
  <g
     id="Group_8811"
     data-name="Group 8811">
    <path
       id="Path_18865"
       d="M1.352 10.1l7.21 4.506 1.452-1.452-4.1-2.564 14.8-5.307-5.307 14.8-2.565-4.1-1.451 1.451 4.509 7.214 8.125-22.673z"
       class="cls-1"
       data-name="Path 18865" />
    <g
       id="Group_8810"
       data-name="Group 8810">
      <path
         id="Rectangle_4394"
         d="M0 0h8v2H0z"
         class="cls-1"
         data-name="Rectangle 4394"
         transform="rotate(-45 23.11 -3.563)" />
    </g>
  </g>
  <path
     id="Rectangle_4395"
     d="M0 0h26v26H0z"
     class="cls-2"
     data-name="Rectangle 4395" />
  <path
     style="fill:#aa8800;stroke:#aa8800;stroke-width:0.031941"
     d="m 10.005352,15.978331 -0.6783665,-0.678917 2.8106035,-2.810467 2.810603,-2.8104676 0.686943,0.6863856 0.686943,0.686386 -2.802863,2.802998 c -1.541574,1.54165 -2.810205,2.802999 -2.81918,2.802999 -0.009,0 -0.321582,-0.305513 -0.694683,-0.678917 z"
     id="path1611" />
  <path
     style="fill:#a0892c;stroke:#a0892c;stroke-width:0.031941;fill-opacity:1;stroke-opacity:1"
     d="m 13.650981,21.017046 -2.239683,-3.586118 0.710016,-0.709491 0.710017,-0.70949 0.06297,0.09108 c 0.03463,0.05009 0.613103,0.972333 1.285491,2.049422 0.672388,1.077089 1.227335,1.953533 1.233215,1.947653 0.0059,-0.0059 1.196145,-3.316251 2.645033,-7.356379 1.448888,-4.0401274 2.644769,-7.372105 2.657513,-7.4043942 0.01853,-0.046943 0.01,-0.056544 -0.0426,-0.047912 -0.103877,0.01705 -14.7633587,5.2789602 -14.7636206,5.2992912 -1.278e-4,0.01002 0.9191916,0.592148 2.0429346,1.293611 L 9.9954295,13.159705 9.2814337,13.87467 8.5674379,14.589635 5.0023923,12.361512 C 3.0416171,11.136045 1.4373464,10.123305 1.4373464,10.110979 c 0,-0.02592 22.5132516,-8.0986449 22.5321146,-8.0794888 0.0106,0.010765 -7.986669,22.3684758 -8.055132,22.5194778 -0.01708,0.03766 -0.647396,-0.946504 -2.263348,-3.533922 z"
     id="path1613" />
  <path
     style="fill:#a0892c;fill-opacity:1;stroke:#a0892c;stroke-width:0.031941;stroke-opacity:1"
     d="m 10.013514,15.962766 -0.6707622,-0.662234 2.8025332,-2.794689 2.802532,-2.7946897 0.67904,0.6697487 0.67904,0.669749 -2.795086,2.787328 C 11.973514,15.37101 10.708649,16.625238 10.7,16.625153 c -0.0086,-8.5e-5 -0.317568,-0.298159 -0.686486,-0.662387 z"
     id="path3131" />
  <path
     style="fill:#a0892c;fill-opacity:1;stroke:#a0892c;stroke-width:0.031941;stroke-opacity:1"
     d="m 15.785586,24.360276 c -0.09567,-0.135638 -0.649292,-0.988136 -0.725389,-1.116999 -0.01757,-0.02975 -0.03927,-0.06127 -0.04822,-0.07006 -0.009,-0.0088 -0.04456,-0.06987 -0.07913,-0.13575 -0.03457,-0.06588 -0.07396,-0.119779 -0.08753,-0.119779 -0.01357,0 -0.02468,-0.02156 -0.02468,-0.04791 0,-0.02635 -0.01437,-0.04791 -0.03194,-0.04791 -0.01757,0 -0.03194,-0.01533 -0.03194,-0.03407 0,-0.01874 -0.03593,-0.08118 -0.07985,-0.138764 -0.04392,-0.05758 -0.07985,-0.114698 -0.07985,-0.126926 0,-0.0212 -0.02765,-0.06554 -0.185378,-0.297345 -0.03818,-0.05611 -0.107695,-0.1711 -0.154475,-0.255529 -0.04678,-0.08443 -0.0938,-0.160693 -0.104479,-0.169477 -0.01068,-0.0088 -0.04771,-0.06987 -0.08228,-0.135749 -0.03457,-0.06588 -0.07396,-0.119779 -0.08753,-0.119779 -0.01357,0 -0.02468,-0.01661 -0.02468,-0.03691 0,-0.0203 -0.03593,-0.08402 -0.07985,-0.141604 -0.04392,-0.05758 -0.07985,-0.113146 -0.07985,-0.123478 0,-0.02874 -0.172423,-0.28747 -0.199632,-0.299563 -0.01318,-0.0059 -0.02395,-0.02451 -0.02395,-0.04146 0,-0.01695 -0.05327,-0.11277 -0.118384,-0.21294 -0.06511,-0.10017 -0.145966,-0.232434 -0.179679,-0.29392 -0.03371,-0.06149 -0.07027,-0.11898 -0.08125,-0.127764 -0.01097,-0.0088 -0.04762,-0.06628 -0.08143,-0.127764 -0.03381,-0.06149 -0.06975,-0.118981 -0.07985,-0.127764 -0.01011,-0.0088 -0.04604,-0.06628 -0.07985,-0.127765 -0.03381,-0.06149 -0.06988,-0.11898 -0.08016,-0.127764 -0.01028,-0.0088 -0.04697,-0.06987 -0.08154,-0.135749 C 12.758229,19.5539 12.71884,19.5 12.705267,19.5 c -0.01357,0 -0.02468,-0.02156 -0.02468,-0.04791 0,-0.02635 -0.01437,-0.04791 -0.03194,-0.04791 -0.01757,0 -0.03194,-0.02053 -0.03194,-0.04563 0,-0.0251 -0.01797,-0.06489 -0.03993,-0.08842 -0.02196,-0.02354 -0.06759,-0.09284 -0.101403,-0.154001 -0.03381,-0.06117 -0.06974,-0.118396 -0.07985,-0.12718 -0.01011,-0.0088 -0.04604,-0.06628 -0.07985,-0.127764 -0.03381,-0.06149 -0.06988,-0.11898 -0.08016,-0.127764 -0.01028,-0.0088 -0.04697,-0.06987 -0.08154,-0.135749 -0.03457,-0.06588 -0.07396,-0.119779 -0.08753,-0.119779 -0.01357,0 -0.02468,-0.01661 -0.02468,-0.03691 0,-0.0203 -0.03593,-0.08402 -0.07985,-0.141604 -0.04392,-0.05758 -0.07985,-0.114212 -0.07985,-0.125848 0,-0.01164 -0.03234,-0.0662 -0.07187,-0.121247 -0.08139,-0.11335 -0.106821,-0.153822 -0.206531,-0.328658 -0.03893,-0.06826 -0.09724,-0.157446 -0.12957,-0.19819 l -0.05879,-0.07408 0.704509,-0.712398 0.704509,-0.712398 0.117858,0.179598 c 0.06482,0.09878 0.129502,0.193972 0.143734,0.211539 0.01423,0.01757 0.0543,0.08584 0.08904,0.15172 0.03474,0.06588 0.07427,0.119779 0.08784,0.119779 0.01357,0 0.02468,0.01323 0.02468,0.0294 0,0.02861 0.791099,1.312207 0.828366,1.344062 0.01028,0.0088 0.04697,0.06987 0.08154,0.135749 0.03457,0.06588 0.07396,0.119779 0.08753,0.119779 0.01357,0 0.02468,0.01661 0.02468,0.03691 0,0.0203 0.03593,0.08402 0.07985,0.141604 0.04392,0.05758 0.07985,0.115074 0.07985,0.127764 0,0.01269 0.03593,0.07018 0.07985,0.127764 0.04392,0.05758 0.07985,0.113146 0.07985,0.123479 0,0.01879 0.160636,0.274739 0.191347,0.304886 0.02366,0.02322 0.09308,0.136012 0.117951,0.191646 0.01178,0.02635 0.0298,0.0551 0.04003,0.06388 0.01023,0.0088 0.04689,0.06987 0.08146,0.135749 0.03457,0.06588 0.07396,0.119779 0.08753,0.119779 0.01357,0 0.02468,0.02156 0.02468,0.04791 0,0.02635 0.01437,0.04791 0.03194,0.04791 0.01757,0 0.03194,0.01466 0.03194,0.03258 0,0.01792 0.03762,0.09217 0.0836,0.165008 0.06547,0.103714 0.08941,0.122057 0.110376,0.08459 0.02706,-0.04835 0.76665,-2.091581 0.7785,-2.150721 0.0035,-0.01757 0.03107,-0.08895 0.06121,-0.158621 0.03015,-0.06967 0.05924,-0.148728 0.06465,-0.175676 0.0054,-0.02695 0.02641,-0.08946 0.04666,-0.138913 0.02025,-0.04945 0.03682,-0.107666 0.03682,-0.129361 0,-0.02169 0.01725,-0.05669 0.03833,-0.07777 0.02108,-0.02108 0.02651,-0.03833 0.01206,-0.03833 -0.01445,0 -0.01201,-0.01797 0.0054,-0.03993 0.01743,-0.02196 0.04894,-0.09742 0.07002,-0.16769 0.02108,-0.07027 0.05143,-0.156511 0.06743,-0.191646 0.03334,-0.07318 0.221344,-0.587482 0.219019,-0.599155 -8.46e-4,-0.0042 0.01527,-0.05084 0.03582,-0.103548 0.02055,-0.0527 0.04091,-0.110196 0.04525,-0.127764 0.0043,-0.01757 0.02436,-0.0721 0.04449,-0.121187 0.02013,-0.04909 0.04588,-0.12814 0.05724,-0.175676 0.01135,-0.04754 0.02921,-0.100803 0.03969,-0.11837 0.01048,-0.01757 0.02051,-0.03913 0.0223,-0.04791 0.0018,-0.0088 0.01252,-0.03753 0.02386,-0.06388 0.0394,-0.09159 0.251835,-0.687027 0.262097,-0.734644 0.0057,-0.02635 0.01322,-0.05151 0.01676,-0.0559 0.0035,-0.0044 0.0094,-0.01877 0.01311,-0.03194 0.0037,-0.01318 0.02343,-0.06442 0.04392,-0.113873 0.02049,-0.04945 0.03725,-0.108146 0.03725,-0.130425 0,-0.02228 0.01078,-0.05129 0.02396,-0.06447 0.01318,-0.01318 0.0252,-0.03354 0.02671,-0.04525 0.0015,-0.01171 0.01203,-0.04285 0.02337,-0.06921 0.02836,-0.06593 0.249916,-0.679199 0.259633,-0.718674 0.0043,-0.01757 0.02433,-0.0721 0.04446,-0.121187 0.02013,-0.04909 0.04588,-0.12814 0.05724,-0.175676 0.01135,-0.04754 0.02921,-0.100802 0.03969,-0.11837 0.01048,-0.01757 0.02051,-0.03913 0.0223,-0.04791 0.0018,-0.0088 0.01252,-0.03753 0.02386,-0.06388 0.02836,-0.06593 0.249916,-0.679198 0.259633,-0.718673 0.0043,-0.01757 0.02433,-0.0721 0.04446,-0.121187 0.02013,-0.04909 0.04588,-0.12814 0.05722,-0.175676 0.01135,-0.04754 0.03478,-0.104396 0.05208,-0.126355 0.0173,-0.02196 0.02074,-0.03993 0.0077,-0.03993 -0.01309,0 -0.0095,-0.01797 0.0079,-0.03993 0.01743,-0.02196 0.04903,-0.09742 0.07022,-0.16769 0.02119,-0.07027 0.04698,-0.149325 0.0573,-0.175676 0.01032,-0.02635 0.02122,-0.0551 0.02421,-0.06388 0.003,-0.0088 0.0222,-0.05643 0.04269,-0.105888 0.02049,-0.04945 0.03734,-0.106948 0.03745,-0.127764 9.6e-5,-0.02082 0.01997,-0.07575 0.04415,-0.122081 0.03472,-0.06654 0.144248,-0.361119 0.164638,-0.442793 0.0022,-0.0088 0.022,-0.05909 0.04401,-0.111794 0.02201,-0.0527 0.08282,-0.225184 0.135122,-0.383292 0.0523,-0.1581081 0.114629,-0.3305897 0.138499,-0.3832924 0.02387,-0.052703 0.05368,-0.1389434 0.06624,-0.1916461 0.01256,-0.052703 0.03699,-0.11379 0.05429,-0.1357494 0.0173,-0.021959 0.02074,-0.039926 0.0077,-0.039926 -0.01309,0 -0.0059,-0.02156 0.01597,-0.047912 0.02187,-0.026351 0.02906,-0.047911 0.01597,-0.047911 -0.01309,0 -0.0095,-0.017967 0.0079,-0.039926 0.03675,-0.046303 0.107295,-0.2544736 0.09575,-0.2825603 -0.0043,-0.010475 0.0083,-0.039222 0.02794,-0.063882 0.02966,-0.037182 0.106264,-0.2334717 0.126571,-0.3243194 0.0029,-0.013176 0.0089,-0.031142 0.01334,-0.039926 0.0044,-0.00878 0.01099,-0.026751 0.01465,-0.039926 0.0037,-0.013176 0.02343,-0.064418 0.04392,-0.1138729 0.02049,-0.049454 0.03725,-0.108146 0.03725,-0.1304258 0,-0.02228 0.01078,-0.051289 0.02396,-0.064465 0.01318,-0.013176 0.02516,-0.033538 0.02663,-0.04525 0.0015,-0.011712 0.01804,-0.058076 0.03682,-0.1030321 0.01878,-0.044956 0.05243,-0.1455703 0.07478,-0.2235873 0.02235,-0.078017 0.05063,-0.1562226 0.06283,-0.1737902 0.01939,-0.027923 0.09813,-0.2449216 0.112994,-0.311425 0.0029,-0.013176 0.0089,-0.031143 0.01334,-0.039926 0.0044,-0.00878 0.01,-0.026751 0.01247,-0.039926 0.0025,-0.013176 0.01315,-0.038329 0.02375,-0.055897 0.01576,-0.026118 0.09354,-0.2430055 0.108828,-0.3034398 0.0022,-0.00878 0.01977,-0.05371 0.03899,-0.099837 0.01922,-0.046126 0.05176,-0.1467406 0.07231,-0.2235872 0.02055,-0.076846 0.04843,-0.1540944 0.06196,-0.171662 0.02117,-0.027495 0.138904,-0.3538983 0.144016,-0.3992629 9.91e-4,-0.00878 0.01047,-0.030344 0.02107,-0.047912 0.01767,-0.029285 0.09758,-0.2552395 0.110143,-0.311425 0.0029,-0.013176 0.0089,-0.031143 0.01334,-0.039926 0.0044,-0.00878 0.0098,-0.029146 0.01198,-0.04525 0.0022,-0.016103 0.01477,-0.040059 0.02795,-0.053235 0.04039,-0.040388 0.02661,-0.109132 -0.02188,-0.109132 -0.02521,0 -0.0863,0.016762 -0.13575,0.03725 -0.04945,0.020487 -0.100697,0.040251 -0.113873,0.043919 -0.01318,0.00367 -0.03114,0.010262 -0.03993,0.014654 -0.0088,0.00439 -0.02675,0.010002 -0.03993,0.012467 -0.01318,0.00247 -0.03833,0.013055 -0.0559,0.023532 -0.01757,0.010478 -0.07083,0.028339 -0.11837,0.039692 -0.04754,0.011353 -0.12659,0.037289 -0.175676,0.057637 -0.04909,0.020347 -0.100027,0.039996 -0.113202,0.043664 -0.01318,0.00367 -0.03114,0.010262 -0.03993,0.014654 -0.0088,0.00439 -0.02915,0.00978 -0.04525,0.011978 -0.0161,0.00219 -0.04006,0.014773 -0.05323,0.027948 -0.01318,0.013176 -0.04218,0.023956 -0.06446,0.023956 -0.02228,0 -0.08097,0.016762 -0.130426,0.03725 -0.04945,0.020487 -0.100697,0.040251 -0.113873,0.043919 -0.01317,0.00367 -0.03114,0.010262 -0.03993,0.014654 -0.0088,0.00439 -0.02915,0.00978 -0.04525,0.011978 -0.0161,0.00219 -0.04006,0.014773 -0.05324,0.027948 -0.01318,0.013176 -0.04218,0.023956 -0.06447,0.023956 -0.02228,0 -0.08097,0.01657 -0.130425,0.036823 -0.04945,0.020253 -0.118357,0.042224 -0.153116,0.048826 -0.03476,0.0066 -0.07716,0.025964 -0.09423,0.043029 -0.01707,0.017065 -0.04878,0.031027 -0.07047,0.031027 -0.02169,0 -0.07991,0.016762 -0.129361,0.03725 -0.04945,0.020487 -0.100697,0.040251 -0.113873,0.043919 -0.01318,0.00367 -0.03114,0.010262 -0.03993,0.014654 -0.0088,0.00439 -0.03034,0.011579 -0.04791,0.01597 -0.01757,0.00439 -0.03553,0.010882 -0.03993,0.014422 -0.0044,0.00354 -0.02955,0.011096 -0.0559,0.016792 -0.02635,0.0057 -0.09103,0.028544 -0.143734,0.050776 -0.0527,0.022232 -0.106603,0.043423 -0.119779,0.047091 -0.01318,0.00367 -0.03114,0.010262 -0.03993,0.014654 -0.0088,0.00439 -0.02675,0.011023 -0.03993,0.014737 -0.01318,0.00371 -0.04552,0.015175 -0.07187,0.02547 -0.02635,0.010295 -0.126966,0.043296 -0.223587,0.073335 -0.09662,0.030039 -0.190049,0.065106 -0.207617,0.077927 -0.01757,0.012821 -0.07083,0.032594 -0.11837,0.04394 -0.04754,0.011346 -0.12659,0.037277 -0.175676,0.057625 -0.04908,0.020347 -0.09883,0.038199 -0.11054,0.039671 -0.01171,0.00147 -0.03207,0.013456 -0.04525,0.026632 -0.01318,0.013176 -0.04218,0.023956 -0.06446,0.023956 -0.02228,0 -0.08097,0.016762 -0.130426,0.03725 -0.04945,0.020487 -0.100697,0.040251 -0.113872,0.043919 -0.01318,0.00367 -0.03114,0.010262 -0.03993,0.014654 -0.0088,0.00439 -0.02915,0.00978 -0.04525,0.011978 -0.0161,0.00219 -0.04006,0.014773 -0.05324,0.027948 -0.01317,0.013176 -0.04218,0.023956 -0.06446,0.023956 -0.02228,0 -0.08097,0.016762 -0.130426,0.03725 -0.04946,0.020487 -0.100697,0.040251 -0.113873,0.043919 -0.01318,0.00367 -0.02755,0.00957 -0.03194,0.013105 -0.0044,0.00354 -0.02954,0.011096 -0.0559,0.016792 -0.02635,0.0057 -0.09103,0.028544 -0.143734,0.050776 -0.0527,0.022232 -0.106604,0.043423 -0.119779,0.047091 -0.01318,0.00367 -0.03114,0.010262 -0.03993,0.014654 -0.0088,0.00439 -0.02675,0.011023 -0.03993,0.014737 -0.01318,0.00371 -0.04552,0.015198 -0.07187,0.025522 -0.02635,0.010324 -0.105406,0.036109 -0.175676,0.057301 -0.07027,0.021191 -0.145731,0.05279 -0.16769,0.070219 -0.02196,0.017429 -0.03993,0.020983 -0.03993,0.0079 0,-0.013086 -0.01797,-0.00964 -0.03993,0.00766 -0.02196,0.017296 -0.07882,0.040731 -0.126355,0.052078 -0.04754,0.011346 -0.12659,0.037277 -0.175676,0.057625 -0.04908,0.020347 -0.09883,0.038199 -0.110541,0.039671 -0.01171,0.00147 -0.03207,0.013456 -0.04525,0.026632 -0.01318,0.013176 -0.04218,0.023956 -0.06447,0.023956 -0.02228,0 -0.08097,0.016762 -0.130426,0.03725 -0.04945,0.020487 -0.100697,0.040251 -0.113873,0.043919 -0.01318,0.00367 -0.03114,0.010262 -0.03993,0.014654 -0.0088,0.00439 -0.02915,0.00978 -0.04525,0.011978 -0.0161,0.00219 -0.04006,0.014773 -0.05324,0.027948 -0.01317,0.013176 -0.04218,0.023956 -0.06446,0.023956 -0.02228,0 -0.08097,0.016762 -0.130426,0.03725 -0.04946,0.020487 -0.100697,0.040251 -0.113873,0.043919 -0.01318,0.00367 -0.02755,0.00957 -0.03194,0.013105 -0.0044,0.00354 -0.02955,0.011096 -0.0559,0.016792 -0.02635,0.0057 -0.09103,0.028544 -0.143735,0.050776 -0.0527,0.022232 -0.106603,0.043422 -0.119778,0.047091 -0.01318,0.00367 -0.03114,0.010262 -0.03993,0.014654 -0.0088,0.00439 -0.02675,0.010002 -0.03993,0.012467 -0.01318,0.00247 -0.03833,0.013055 -0.0559,0.023532 -0.01757,0.010478 -0.07083,0.028339 -0.11837,0.039692 -0.04754,0.011353 -0.12659,0.03729 -0.175676,0.057637 -0.04908,0.020347 -0.09643,0.038812 -0.105217,0.041033 -0.06043,0.015283 -0.277322,0.093069 -0.30344,0.1088279 -0.01757,0.0106 -0.04272,0.021289 -0.0559,0.023754 -0.01318,0.00247 -0.03114,0.00807 -0.03993,0.012467 -0.0088,0.00439 -0.02675,0.010395 -0.03993,0.01334 -0.08549,0.019109 -0.286069,0.096035 -0.31941,0.1224977 -0.02196,0.017429 -0.03993,0.020983 -0.03993,0.0079 0,-0.013086 -0.01797,-0.00964 -0.03993,0.00766 -0.02196,0.017296 -0.07882,0.040731 -0.126355,0.052078 -0.04754,0.011346 -0.12659,0.037278 -0.175676,0.057625 -0.04908,0.020347 -0.09883,0.038199 -0.110541,0.039671 -0.01171,0.00147 -0.03207,0.013457 -0.04525,0.026632 -0.01318,0.013176 -0.04218,0.023956 -0.06447,0.023956 -0.02228,0 -0.08097,0.015384 -0.130426,0.034187 -0.04945,0.018802 -0.0971,0.034398 -0.105887,0.034657 -0.0088,2.555e-4 -0.03034,0.01164 -0.04791,0.025291 -0.01757,0.013651 -0.07083,0.034104 -0.11837,0.045451 -0.04754,0.011346 -0.12659,0.037277 -0.175676,0.057624 -0.04908,0.020347 -0.09643,0.03944 -0.105217,0.04243 -0.0088,0.00299 -0.04112,0.014974 -0.07187,0.026632 -0.105831,0.040133 -0.167698,0.057238 -0.170767,0.047215 -0.0017,-0.00553 -0.02685,0.00968 -0.0559,0.03379 -0.02905,0.024111 -0.05282,0.033131 -0.05282,0.020045 0,-0.013086 -0.01797,-0.00964 -0.03993,0.00766 -0.02196,0.017296 -0.07882,0.040731 -0.126356,0.052078 -0.04754,0.011346 -0.12659,0.037277 -0.175676,0.057624 -0.04908,0.020347 -0.09883,0.038199 -0.11054,0.039671 -0.01171,0.00147 -0.03207,0.013456 -0.04525,0.026632 -0.01318,0.013176 -0.04218,0.023956 -0.06446,0.023956 -0.02228,0 -0.08097,0.016762 -0.130426,0.03725 -0.04946,0.020487 -0.100697,0.040251 -0.113873,0.043919 -0.01318,0.00367 -0.03114,0.010262 -0.03993,0.014654 -0.0088,0.00439 -0.02915,0.00978 -0.04525,0.011978 -0.016104,0.00219 -0.040059,0.014773 -0.053235,0.027948 -0.013176,0.013176 -0.042185,0.023956 -0.064465,0.023956 -0.02228,0 -0.080971,0.016762 -0.1304257,0.03725 -0.049455,0.020487 -0.0995,0.038454 -0.1112114,0.039926 -0.011711,0.00147 -0.032074,0.013456 -0.045249,0.026632 -0.013176,0.013176 -0.042185,0.023956 -0.064465,0.023956 -0.02228,0 -0.080972,0.016762 -0.1304258,0.03725 -0.049455,0.020487 -0.1006973,0.040251 -0.113873,0.043919 -0.013176,0.00367 -0.031142,0.010262 -0.039926,0.014654 -0.00878,0.00439 -0.026751,0.010395 -0.039926,0.01334 -0.085486,0.019109 -0.2860687,0.096035 -0.3194104,0.1224977 -0.021959,0.017429 -0.039926,0.019868 -0.039926,0.00542 0,-0.014448 -0.017248,-0.00902 -0.038329,0.01206 -0.021081,0.021081 -0.056079,0.038329 -0.077773,0.038329 -0.021694,0 -0.079907,0.016762 -0.1293612,0.03725 -0.049455,0.020487 -0.1006973,0.040251 -0.113873,0.043919 -0.013176,0.00367 -0.031143,0.010262 -0.039926,0.014654 -0.00878,0.00439 -0.029146,0.00978 -0.04525,0.011978 -0.016103,0.00219 -0.040059,0.014773 -0.053235,0.027949 -0.013176,0.013176 -0.042185,0.023956 -0.064465,0.023956 -0.02228,0 -0.080971,0.016762 -0.1304257,0.03725 -0.049455,0.020487 -0.099499,0.038454 -0.1112114,0.039926 -0.011712,0.00147 -0.032074,0.013456 -0.04525,0.026632 -0.013176,0.013176 -0.042185,0.023956 -0.064465,0.023956 -0.02228,0 -0.073785,0.012652 -0.1144553,0.028114 -0.040671,0.015463 -0.082518,0.026243 -0.092993,0.023956 -0.010475,-0.00229 -0.039222,0.011826 -0.063882,0.031363 -0.024659,0.019537 -0.083728,0.044806 -0.1312645,0.056152 -0.047536,0.011347 -0.12659,0.037278 -0.1756757,0.057624 -0.049085,0.02035 -0.098829,0.0382 -0.1105406,0.03967 -0.011711,0.0015 -0.032074,0.01346 -0.045249,0.02663 -0.013176,0.01318 -0.042185,0.02396 -0.064465,0.02396 -0.02228,0 -0.080971,0.01676 -0.1304258,0.03725 -0.049455,0.02049 -0.0995,0.03845 -0.1112113,0.03993 -0.011712,0.0015 -0.032074,0.01346 -0.04525,0.02663 -0.013176,0.01318 -0.042185,0.02396 -0.064465,0.02396 -0.02228,0 -0.080971,0.01676 -0.1304257,0.03725 -0.049455,0.02049 -0.098724,0.03845 -0.1094878,0.03993 -0.07265,0.0099 -0.6351784,0.230803 -0.6351973,0.249399 -1.28e-5,0.01272 0.04669,0.04719 0.1037851,0.0766 0.057095,0.02941 0.1482856,0.08727 0.2026463,0.128585 0.054361,0.04131 0.1154483,0.07512 0.1357494,0.07512 0.020301,0 0.036911,0.0127 0.036911,0.02822 0,0.01552 0.025154,0.03666 0.055897,0.04698 0.054869,0.01842 0.1681651,0.08468 0.1996314,0.116752 0.00878,0.009 0.069871,0.04456 0.1357494,0.07913 0.065878,0.03457 0.1197789,0.07396 0.1197789,0.08753 0,0.01357 0.02156,0.02468 0.047911,0.02468 0.026351,0 0.047912,0.01206 0.047912,0.0268 0,0.01474 0.057329,0.05427 0.1273978,0.08784 0.070069,0.03357 0.1275625,0.07182 0.1277641,0.08499 1.916e-4,0.01318 0.019691,0.02396 0.04331,0.02396 0.023619,0 0.080699,0.03244 0.1268439,0.07209 0.046145,0.03965 0.1382149,0.100602 0.2045996,0.135444 0.066385,0.03484 0.1278858,0.07176 0.1366696,0.08203 0.00878,0.01028 0.066278,0.04635 0.1277641,0.08016 0.061486,0.03381 0.1189803,0.06866 0.1277641,0.07745 0.032272,0.03227 0.1453052,0.09821 0.1996315,0.116447 0.030743,0.01032 0.055897,0.02979 0.055897,0.04326 0,0.01347 0.025154,0.03294 0.055897,0.04326 0.05852,0.01965 0.1722736,0.08737 0.1996314,0.118851 0.00878,0.01011 0.066278,0.04604 0.1277642,0.07985 0.061486,0.03381 0.1189803,0.07045 0.1277641,0.08143 0.00878,0.01097 0.066338,0.04691 0.1278979,0.07985 0.06156,0.03294 0.1572065,0.09224 0.2125475,0.131767 0.055341,0.03953 0.1163679,0.07187 0.1356155,0.07187 0.019248,0 0.034996,0.01111 0.034996,0.02468 0,0.01357 0.0539,0.05307 0.1197789,0.08776 0.065878,0.0347 0.1387722,0.08108 0.1619867,0.103087 0.023214,0.022 0.062741,0.04 0.087838,0.04 0.025096,0 0.04563,0.01437 0.04563,0.03194 0,0.01757 0.02156,0.03194 0.047912,0.03194 0.026351,0 0.047911,0.01297 0.047911,0.02882 0,0.01585 0.045969,0.04484 0.1021522,0.06443 0.098108,0.0342 0.099646,0.03737 0.03885,0.07995 -0.034816,0.02439 -0.3581851,0.346577 -0.7185978,0.71598 L 8.5730059,14.576785 8.0395491,14.243553 C 7.7461477,14.060274 7.4929279,13.910319 7.4768382,13.910319 c -0.01609,0 -0.034045,-0.01144 -0.039901,-0.02542 -0.014412,-0.03441 -0.9436201,-0.613402 -0.9844274,-0.613402 -0.017799,0 -0.032362,-0.01341 -0.032362,-0.02979 0,-0.01638 -0.03234,-0.03988 -0.071867,-0.05222 -0.039527,-0.01234 -0.079054,-0.03279 -0.087838,-0.04545 -0.020946,-0.0302 -1.1999416,-0.766891 -1.2273243,-0.766891 -0.011576,0 -0.048224,-0.02515 -0.081439,-0.0559 -0.033216,-0.03074 -0.1152621,-0.08451 -0.1823255,-0.119473 -0.067063,-0.03497 -0.12912,-0.0709 -0.1379038,-0.07985 C 4.6082362,12.098263 4.4954564,12.028853 4.439804,12.003965 4.413453,11.992185 4.384706,11.973545 4.375922,11.962555 4.3617394,11.944812 4.2042442,11.843986 4.050609,11.7543 4.0205152,11.736732 3.8268984,11.614558 3.6203496,11.482801 3.2210566,11.228094 3.1424868,11.179803 3.0663391,11.142298 3.0399877,11.129319 3.0040541,11.106993 2.9864865,11.092684 2.8794967,11.00554 1.8524814,10.364865 1.819777,10.364865 c -0.017093,0 -0.031079,-0.01437 -0.031079,-0.03194 0,-0.01757 -0.015332,-0.03194 -0.034072,-0.03194 -0.057136,0 -0.2580828,-0.167932 -0.2309147,-0.192976 0.013986,-0.01289 0.2122842,-0.09166 0.4406626,-0.1750456 0.2283783,-0.083382 0.4332002,-0.1658094 0.4551597,-0.1831716 0.021959,-0.017362 0.039926,-0.020861 0.039926,-0.00778 0,0.013086 0.017967,0.00989 0.039926,-0.0071 0.021959,-0.016993 0.1085706,-0.049471 0.1924691,-0.072175 0.083898,-0.022703 0.1602074,-0.053681 0.1695755,-0.068838 0.00937,-0.015158 0.036809,-0.02756 0.06098,-0.02756 0.024171,0 0.08441,-0.016762 0.1338643,-0.03725 0.049454,-0.020487 0.097104,-0.039695 0.1058878,-0.042685 0.00878,-0.00299 0.037531,-0.013859 0.063882,-0.024154 0.026351,-0.010295 0.1269656,-0.043161 0.2235872,-0.073035 0.096622,-0.029874 0.1893305,-0.066923 0.2060197,-0.082331 0.016689,-0.015408 0.048094,-0.028015 0.069788,-0.028015 0.021694,0 0.079907,-0.016762 0.1293611,-0.03725 0.049454,-0.020487 0.0995,-0.038454 0.1112113,-0.039926 0.011712,-0.00147 0.032074,-0.013456 0.04525,-0.026632 0.013176,-0.013176 0.042185,-0.023956 0.064464,-0.023956 0.02228,0 0.080972,-0.016762 0.1304259,-0.03725 0.049454,-0.020487 0.097104,-0.039695 0.1058877,-0.042685 0.00878,-0.00299 0.037531,-0.013859 0.063882,-0.024154 0.026351,-0.010295 0.1269656,-0.043161 0.2235872,-0.073035 0.096622,-0.029874 0.1893305,-0.066923 0.2060197,-0.082331 0.016689,-0.015408 0.048094,-0.028015 0.069788,-0.028015 0.021694,0 0.079907,-0.016762 0.1293612,-0.03725 0.049455,-0.020487 0.097104,-0.039695 0.1058877,-0.042685 0.00878,-0.00299 0.037531,-0.013413 0.063882,-0.023163 0.026351,-0.00975 0.1844594,-0.064509 0.3513513,-0.1216861 0.1668919,-0.057177 0.3393735,-0.118621 0.3832924,-0.1365421 0.043919,-0.017921 0.089435,-0.033789 0.1011467,-0.035261 0.011711,-0.00147 0.032074,-0.013456 0.04525,-0.026632 0.013176,-0.013176 0.042185,-0.023956 0.064465,-0.023956 0.02228,0 0.080971,-0.016762 0.1304257,-0.03725 0.049455,-0.020487 0.097104,-0.039695 0.1058878,-0.042685 0.00878,-0.00299 0.037531,-0.013859 0.063882,-0.024154 0.026351,-0.010295 0.1269656,-0.043161 0.2235872,-0.073035 0.096622,-0.029874 0.1893305,-0.066923 0.2060197,-0.082331 0.016689,-0.015408 0.048094,-0.028015 0.069788,-0.028015 0.021694,0 0.079907,-0.016762 0.1293611,-0.03725 0.049455,-0.020487 0.097104,-0.039695 0.1058878,-0.042685 0.00878,-0.00299 0.037531,-0.013859 0.063882,-0.024154 0.026351,-0.010295 0.1269656,-0.043296 0.2235872,-0.073335 0.096622,-0.030039 0.1900492,-0.065106 0.2076167,-0.077927 0.017568,-0.012821 0.070834,-0.032594 0.1183703,-0.04394 0.047536,-0.011346 0.12659,-0.037278 0.1756757,-0.057625 0.049085,-0.020347 0.098829,-0.038199 0.1105406,-0.039671 0.011712,-0.00147 0.032074,-0.013457 0.04525,-0.026632 0.013176,-0.013176 0.042185,-0.023956 0.064465,-0.023956 0.02228,0 0.080972,-0.016762 0.1304258,-0.03725 0.049455,-0.020487 0.097104,-0.039695 0.1058877,-0.042685 0.00878,-0.00299 0.037531,-0.013413 0.063882,-0.023163 0.026351,-0.00975 0.1844594,-0.064509 0.3513513,-0.1216861 0.1668919,-0.057177 0.3393735,-0.118621 0.3832924,-0.1365421 0.043919,-0.017921 0.089435,-0.033789 0.1011467,-0.035261 0.011712,-0.00147 0.032074,-0.013456 0.04525,-0.026632 0.013176,-0.013176 0.042185,-0.023956 0.064465,-0.023956 0.02228,0 0.080971,-0.016762 0.1304257,-0.03725 0.049455,-0.020487 0.097104,-0.039695 0.1058877,-0.042685 0.00878,-0.00299 0.037531,-0.013859 0.063882,-0.024154 0.026351,-0.010295 0.1269656,-0.043161 0.2235872,-0.073035 0.096622,-0.029874 0.1893303,-0.066923 0.2060203,-0.082331 0.01669,-0.015408 0.04809,-0.028015 0.06979,-0.028015 0.02169,0 0.07991,-0.016762 0.129361,-0.03725 0.04945,-0.020487 0.100697,-0.040251 0.113873,-0.043919 0.01318,-0.00367 0.03114,-0.010262 0.03993,-0.014654 0.0088,-0.00439 0.02675,-0.010395 0.03993,-0.01334 0.08549,-0.019109 0.286069,-0.096035 0.319411,-0.1224977 0.02196,-0.017429 0.03993,-0.020983 0.03993,-0.0079 0,0.013086 0.01797,0.00964 0.03993,-0.00766 0.02196,-0.017296 0.07882,-0.040731 0.126356,-0.052078 0.04754,-0.011346 0.12659,-0.037277 0.175675,-0.057625 0.04909,-0.020347 0.09883,-0.038199 0.110541,-0.039671 0.01171,-0.00147 0.03207,-0.013457 0.04525,-0.026632 C 11.402815,6.5107801 11.431824,6.5 11.454104,6.5 c 0.02228,0 0.08097,-0.016762 0.130426,-0.03725 0.04945,-0.020487 0.0971,-0.038674 0.105888,-0.040415 0.0088,-0.00174 0.03034,-0.011738 0.04791,-0.022216 0.01757,-0.010478 0.07083,-0.028339 0.118371,-0.039692 0.04753,-0.011353 0.126589,-0.037289 0.175675,-0.057637 0.04909,-0.020347 0.09643,-0.038789 0.105217,-0.040982 0.101195,-0.025264 0.376434,-0.12883 0.407248,-0.1532378 0.02196,-0.017394 0.03993,-0.019804 0.03993,-0.00536 0,0.014448 0.01725,0.00902 0.03833,-0.01206 0.02108,-0.021081 0.05608,-0.038329 0.07777,-0.038329 0.02169,0 0.07991,-0.016762 0.129361,-0.03725 0.04946,-0.020487 0.0971,-0.038674 0.105888,-0.040415 0.0088,-0.00174 0.03034,-0.011738 0.04791,-0.022216 0.01757,-0.010478 0.07084,-0.028339 0.118371,-0.039692 0.04754,-0.011353 0.12659,-0.03729 0.175675,-0.057637 0.04909,-0.020347 0.100027,-0.039996 0.113203,-0.043664 0.01318,-0.00367 0.03114,-0.010262 0.03993,-0.014654 0.0088,-0.00439 0.02675,-0.010395 0.03993,-0.01334 0.08549,-0.019109 0.286069,-0.096035 0.319411,-0.1224977 0.02196,-0.017429 0.03993,-0.020983 0.03993,-0.0079 0,0.013086 0.01797,0.00964 0.03993,-0.00766 0.02196,-0.017296 0.07882,-0.040731 0.126356,-0.052078 0.04754,-0.011346 0.12659,-0.037277 0.175675,-0.057624 0.04909,-0.020347 0.09643,-0.038789 0.105217,-0.040982 0.101196,-0.025264 0.376435,-0.12883 0.407248,-0.1532377 0.02196,-0.017394 0.03993,-0.020919 0.03993,-0.00783 0,0.013086 0.01797,0.00964 0.03993,-0.00766 0.02196,-0.017296 0.07882,-0.040731 0.126356,-0.052078 0.04753,-0.011346 0.12659,-0.037277 0.175675,-0.057625 0.04909,-0.020347 0.09883,-0.038199 0.110541,-0.039671 0.01171,-0.00147 0.03207,-0.013457 0.04525,-0.026632 0.01318,-0.013176 0.04219,-0.023956 0.06447,-0.023956 0.02228,0 0.08097,-0.016762 0.130426,-0.03725 0.04945,-0.020487 0.100697,-0.040251 0.113873,-0.043919 0.01318,-0.00367 0.03114,-0.010263 0.03993,-0.014654 0.0088,-0.00439 0.02915,-0.00978 0.04525,-0.011978 0.0161,-0.0022 0.04006,-0.014773 0.05324,-0.027948 0.01317,-0.013176 0.04218,-0.023956 0.06446,-0.023956 0.02228,0 0.08097,-0.016763 0.130426,-0.03725 0.04946,-0.020487 0.0971,-0.039696 0.105888,-0.042685 0.0088,-0.00299 0.03753,-0.013858 0.06388,-0.024154 0.02635,-0.010295 0.126966,-0.043296 0.223587,-0.073335 0.09662,-0.030039 0.190049,-0.064572 0.207617,-0.076739 0.01757,-0.012167 0.09662,-0.040373 0.175676,-0.062679 0.07905,-0.022306 0.186855,-0.059031 0.239557,-0.08161 0.0527,-0.022579 0.232371,-0.087999 0.399263,-0.1453773 0.166892,-0.057378 0.339374,-0.1189865 0.383293,-0.1369077 0.04392,-0.017921 0.08943,-0.033789 0.101146,-0.035261 0.01171,-0.00147 0.03207,-0.013457 0.04525,-0.026632 0.01318,-0.013176 0.04218,-0.023956 0.06446,-0.023956 0.02228,0 0.08097,-0.016762 0.130425,-0.03725 0.04945,-0.020487 0.100698,-0.040251 0.113873,-0.043919 0.01318,-0.00367 0.03114,-0.010262 0.03993,-0.014654 0.0088,-0.00439 0.02915,-0.00978 0.04525,-0.011978 0.0161,-0.0022 0.04006,-0.014773 0.05323,-0.027948 0.01318,-0.013176 0.04218,-0.023956 0.06446,-0.023956 0.02228,0 0.08097,-0.016762 0.130426,-0.03725 0.04945,-0.020487 0.0971,-0.038674 0.105888,-0.040415 0.0088,-0.00174 0.03034,-0.011738 0.04791,-0.022216 0.01757,-0.010478 0.07083,-0.028339 0.11837,-0.039692 0.04754,-0.011353 0.12659,-0.037289 0.175676,-0.057636 0.04909,-0.020347 0.100027,-0.039996 0.113202,-0.043664 0.01318,-0.00367 0.03114,-0.010262 0.03993,-0.014654 0.0088,-0.00439 0.02675,-0.010395 0.03993,-0.01334 0.05354,-0.011967 0.285617,-0.092611 0.375307,-0.1304137 0.0527,-0.022213 0.253931,-0.094358 0.447174,-0.1603227 0.193244,-0.065965 0.394472,-0.1382564 0.447175,-0.1606486 0.0527,-0.022392 0.174877,-0.065439 0.271499,-0.09566 0.09662,-0.030221 0.190049,-0.065437 0.207616,-0.078258 0.01757,-0.012821 0.07083,-0.032594 0.118371,-0.04394 0.04754,-0.011346 0.12659,-0.037278 0.175675,-0.057625 0.04909,-0.020347 0.09643,-0.039441 0.105217,-0.04243 0.0088,-0.00299 0.03753,-0.013882 0.06388,-0.024206 0.02635,-0.010324 0.105406,-0.036109 0.175676,-0.057301 0.07027,-0.021191 0.145731,-0.05279 0.16769,-0.070219 0.02196,-0.017429 0.03993,-0.020983 0.03993,-0.0079 0,0.013086 0.01797,0.00964 0.03993,-0.00766 0.02196,-0.017296 0.07882,-0.040731 0.126356,-0.052077 0.04753,-0.011346 0.126589,-0.037278 0.175675,-0.057625 0.04909,-0.020347 0.100027,-0.039996 0.113202,-0.043664 0.01318,-0.00367 0.03114,-0.010262 0.03993,-0.014654 0.0088,-0.00439 0.02915,-0.00978 0.04525,-0.011978 0.0161,-0.0022 0.04006,-0.014773 0.05323,-0.027948 0.01318,-0.013176 0.04218,-0.023956 0.06446,-0.023956 0.02228,0 0.08097,-0.016762 0.130426,-0.03725 0.04945,-0.020487 0.100697,-0.040251 0.113873,-0.043919 0.01318,-0.00367 0.03114,-0.010263 0.03993,-0.014654 0.0088,-0.00439 0.03034,-0.011579 0.04791,-0.01597 0.01757,-0.00439 0.03553,-0.00982 0.03993,-0.012069 0.07942,-0.040617 1.205774,-0.4097985 1.205774,-0.3952118 0,0.0188 -0.331737,1.0146167 -0.37509,1.1259542 -0.01026,0.026351 -0.02012,0.055098 -0.0219,0.063882 -0.0018,0.00878 -0.01189,0.030344 -0.02246,0.047912 -0.01839,0.03058 -0.134959,0.3661422 -0.138692,0.3992629 -9.9e-4,0.00878 -0.01045,0.030344 -0.02101,0.047912 -0.01551,0.025779 -0.125368,0.3371342 -0.140879,0.3992629 -0.0022,0.00878 -0.02063,0.056131 -0.04098,0.105217 -0.02035,0.049086 -0.04628,0.1281397 -0.05762,0.1756757 -0.01135,0.047536 -0.03478,0.104396 -0.05208,0.1263554 -0.0173,0.02196 -0.02074,0.039926 -0.0077,0.039926 0.01309,0 0.009,0.017967 -0.009,0.039926 -0.01806,0.021959 -0.05751,0.1261671 -0.08768,0.2315725 -0.03016,0.1054054 -0.06364,0.2060196 -0.0744,0.2235872 -0.01076,0.017568 -0.02098,0.039128 -0.02272,0.047912 -0.0017,0.00878 -0.01993,0.056433 -0.04042,0.1058877 -0.02049,0.049454 -0.03725,0.1081459 -0.03725,0.1304257 0,0.02228 -0.01078,0.051289 -0.02396,0.064465 -0.01318,0.013176 -0.02575,0.037132 -0.02795,0.053235 -0.0022,0.016104 -0.0076,0.036466 -0.01198,0.04525 -0.0044,0.00878 -0.01099,0.026751 -0.01465,0.039926 -0.0037,0.013176 -0.02343,0.064418 -0.04392,0.113873 -0.02049,0.049454 -0.03725,0.1076669 -0.03725,0.1293612 0,0.021694 -0.01725,0.056692 -0.03833,0.077773 -0.02108,0.021081 -0.02651,0.038329 -0.01206,0.038329 0.01445,0 0.0084,0.02156 -0.01349,0.047912 -0.02187,0.026351 -0.02906,0.047912 -0.01597,0.047912 0.01309,0 0.0095,0.017967 -0.0079,0.039926 -0.03111,0.039191 -0.1008,0.2326208 -0.106454,0.2954546 -0.0016,0.017568 -0.01779,0.049908 -0.03601,0.071867 -0.01822,0.02196 -0.02243,0.039926 -0.0093,0.039926 0.01309,0 0.0095,0.017967 -0.0079,0.039926 -0.02646,0.033342 -0.103389,0.2339243 -0.122498,0.3194103 -0.0029,0.013176 -0.0089,0.031143 -0.01334,0.039926 -0.0044,0.00878 -0.01099,0.026751 -0.01465,0.039926 -0.0037,0.013176 -0.02332,0.064117 -0.04366,0.1132022 -0.02035,0.049086 -0.04628,0.1281398 -0.05763,0.1756757 -0.01135,0.047536 -0.0318,0.1008027 -0.04545,0.1183702 -0.01365,0.017568 -0.02503,0.039128 -0.02529,0.047912 -2.56e-4,0.00878 -0.01586,0.056433 -0.03466,0.1058877 -0.0188,0.049454 -0.03419,0.108146 -0.03419,0.1304258 0,0.02228 -0.01078,0.051289 -0.02396,0.064465 -0.01318,0.013176 -0.02575,0.037131 -0.02795,0.053235 -0.0022,0.016104 -0.0076,0.036466 -0.01198,0.04525 -0.0044,0.00878 -0.01099,0.026751 -0.01465,0.039926 -0.0037,0.013176 -0.02343,0.064418 -0.04392,0.113873 -0.02049,0.049454 -0.03725,0.1024192 -0.03725,0.1176995 0,0.01528 -0.01676,0.068245 -0.03725,0.1176995 -0.02049,0.049455 -0.03966,0.097104 -0.0426,0.1058877 -0.0029,0.00878 -0.02211,0.056433 -0.0426,0.1058877 -0.02049,0.049454 -0.03725,0.1081459 -0.03725,0.1304258 0,0.02228 -0.01078,0.051289 -0.02396,0.064465 -0.01318,0.013176 -0.02516,0.033538 -0.02663,0.04525 -0.0015,0.011712 -0.01933,0.061455 -0.03967,0.1105406 -0.02035,0.049086 -0.04628,0.1281397 -0.05762,0.1756757 -0.01135,0.047536 -0.03112,0.1008027 -0.04394,0.1183702 -0.01282,0.017568 -0.04789,0.1109951 -0.07793,0.2076167 -0.03004,0.096622 -0.06304,0.1972359 -0.07334,0.2235873 -0.0103,0.026351 -0.02116,0.055098 -0.02415,0.063882 -0.003,0.00878 -0.02208,0.056132 -0.04243,0.105217 -0.02035,0.049086 -0.04628,0.1281397 -0.05762,0.1756757 -0.01135,0.047536 -0.03661,0.1066051 -0.05615,0.1312645 -0.01954,0.02466 -0.03092,0.04622 -0.02529,0.047912 0.0056,0.00169 -0.005,0.043237 -0.0237,0.092322 -0.01866,0.04909 -0.04322,0.12814 -0.05456,0.175676 -0.01135,0.04754 -0.03478,0.104396 -0.05208,0.126356 -0.0173,0.02196 -0.02074,0.03993 -0.0077,0.03993 0.01309,0 0.0096,0.01797 -0.0078,0.03993 -0.0262,0.03308 -0.14497,0.353293 -0.15105,0.407248 -9.9e-4,0.0088 -0.01045,0.03034 -0.02101,0.04791 -0.0184,0.03058 -0.134959,0.366142 -0.138691,0.399263 -9.9e-4,0.0088 -0.01045,0.03034 -0.02101,0.04791 -0.01839,0.03058 -0.134959,0.366143 -0.138691,0.399263 -9.91e-4,0.0088 -0.01045,0.03034 -0.02101,0.04791 -0.01839,0.03058 -0.134959,0.366142 -0.138692,0.399263 -9.9e-4,0.0088 -0.01045,0.03034 -0.02101,0.04791 -0.01745,0.02901 -0.129511,0.349952 -0.142195,0.407248 -0.0029,0.01318 -0.0089,0.03114 -0.01329,0.03993 -0.0044,0.0088 -0.01,0.02675 -0.01247,0.03993 -0.0025,0.01318 -0.01315,0.03833 -0.02375,0.0559 -0.01576,0.02612 -0.09354,0.243005 -0.108828,0.30344 -0.0022,0.0088 -0.02069,0.05613 -0.04103,0.105217 -0.02035,0.04908 -0.04628,0.128139 -0.05764,0.175675 -0.01135,0.04754 -0.02921,0.100803 -0.03969,0.118371 -0.01048,0.01757 -0.02047,0.03913 -0.02222,0.04791 -0.0017,0.0088 -0.01993,0.05643 -0.04041,0.105888 -0.02049,0.04945 -0.03725,0.102419 -0.03725,0.117699 0,0.01528 -0.01676,0.06824 -0.03725,0.1177 -0.02049,0.04945 -0.03966,0.0971 -0.0426,0.105888 -0.0029,0.0088 -0.02211,0.05643 -0.0426,0.105887 -0.02049,0.04946 -0.03725,0.102419 -0.03725,0.1177 0,0.01528 -0.01676,0.06824 -0.03725,0.117699 -0.02049,0.04946 -0.03966,0.0971 -0.0426,0.105888 -0.0029,0.0088 -0.02211,0.05643 -0.0426,0.105888 -0.02049,0.04945 -0.03725,0.107666 -0.03725,0.129361 0,0.02169 -0.01396,0.05341 -0.03103,0.07047 -0.01707,0.01707 -0.03643,0.05947 -0.04303,0.09423 -0.0066,0.03476 -0.02857,0.103661 -0.04883,0.153116 -0.02025,0.04945 -0.03682,0.107667 -0.03682,0.129361 0,0.02169 -0.01725,0.05669 -0.03833,0.07777 -0.02108,0.02108 -0.02651,0.03833 -0.01206,0.03833 0.01445,0 0.0084,0.02156 -0.01349,0.04791 -0.02187,0.02635 -0.02906,0.04791 -0.01597,0.04791 0.01309,0 0.0095,0.01797 -0.0079,0.03993 -0.02499,0.03148 -0.09754,0.217932 -0.121182,0.311425 -0.0022,0.0088 -0.02069,0.05613 -0.04103,0.105217 -0.02035,0.04909 -0.04628,0.12814 -0.05762,0.175676 -0.01135,0.04754 -0.03478,0.104396 -0.05208,0.126355 -0.0173,0.02196 -0.02074,0.03993 -0.0077,0.03993 0.01309,0 0.0095,0.01797 -0.0079,0.03993 -0.03111,0.03919 -0.100801,0.232621 -0.106455,0.295454 -0.0016,0.01757 -0.01779,0.04991 -0.03601,0.07187 -0.01823,0.02196 -0.02243,0.03993 -0.0093,0.03993 0.01309,0 0.0095,0.01797 -0.0079,0.03993 -0.03668,0.04621 -0.120514,0.293954 -0.101024,0.298531 0.0072,0.0017 -0.0066,0.02684 -0.03074,0.0559 -0.02411,0.02905 -0.03313,0.05282 -0.02004,0.05282 0.01309,0 0.0095,0.01797 -0.0079,0.03993 -0.02646,0.03334 -0.103389,0.233924 -0.122497,0.31941 -0.0029,0.01318 -0.0089,0.03114 -0.01334,0.03993 -0.0044,0.0088 -0.01099,0.02675 -0.01465,0.03993 -0.0037,0.01318 -0.02343,0.06442 -0.04392,0.113873 -0.02049,0.04945 -0.03725,0.102419 -0.03725,0.117699 0,0.01528 -0.01676,0.06825 -0.03725,0.1177 -0.02049,0.04945 -0.03867,0.0971 -0.04041,0.105887 -0.0017,0.0088 -0.01184,0.03034 -0.02244,0.04791 -0.01576,0.02612 -0.09354,0.243005 -0.108828,0.30344 -0.0022,0.0088 -0.02069,0.05613 -0.04103,0.105217 -0.02035,0.04909 -0.04628,0.128139 -0.05763,0.175675 -0.01135,0.04754 -0.03478,0.104396 -0.05208,0.126356 -0.0173,0.02196 -0.02074,0.03993 -0.0077,0.03993 0.01309,0 0.0095,0.01797 -0.0079,0.03993 -0.02646,0.03334 -0.103389,0.233924 -0.122498,0.31941 -0.0029,0.01318 -0.0089,0.03114 -0.01334,0.03993 -0.0044,0.0088 -0.01,0.02675 -0.01247,0.03993 -0.0025,0.01318 -0.01315,0.03833 -0.02375,0.0559 -0.01767,0.02929 -0.09759,0.25524 -0.110144,0.311425 -0.0029,0.01318 -0.0089,0.03114 -0.01334,0.03993 -0.0044,0.0088 -0.01099,0.02675 -0.01466,0.03993 -0.0037,0.01318 -0.02343,0.06442 -0.04392,0.113873 -0.02049,0.04945 -0.03725,0.102419 -0.03725,0.117699 0,0.01528 -0.01538,0.06825 -0.03419,0.1177 -0.0188,0.04945 -0.0344,0.0971 -0.03466,0.105888 -2.56e-4,0.0088 -0.01175,0.03034 -0.02553,0.04791 -0.02133,0.02718 -0.099,0.235932 -0.11587,0.311425 -0.0029,0.01318 -0.0089,0.03114 -0.01334,0.03993 -0.0044,0.0088 -0.01066,0.02675 -0.01392,0.03993 -0.0033,0.01318 -0.03078,0.08096 -0.06114,0.150635 -0.03036,0.06968 -0.05964,0.148729 -0.06505,0.175676 -0.0054,0.02695 -0.02629,0.08916 -0.0464,0.138242 -0.02011,0.04909 -0.04585,0.12814 -0.0572,0.175676 -0.01135,0.04754 -0.03478,0.104396 -0.05208,0.126356 -0.0173,0.02196 -0.02074,0.03993 -0.0077,0.03993 0.01309,0 0.0096,0.01797 -0.0078,0.03993 -0.02441,0.03081 -0.127973,0.306053 -0.153237,0.407248 -0.0022,0.0088 -0.02075,0.05643 -0.04124,0.105888 -0.02049,0.04945 -0.03725,0.107667 -0.03725,0.129361 0,0.02169 -0.01261,0.0531 -0.02801,0.06979 -0.01541,0.01669 -0.05237,0.109398 -0.08213,0.20602 -0.02977,0.09662 -0.06705,0.204422 -0.08286,0.239558 -0.03224,0.07165 -0.184981,0.483111 -0.192856,0.519513 -0.0028,0.01292 -0.01773,0.05676 -0.03319,0.09743 -0.01546,0.04067 -0.02811,0.0917 -0.02811,0.11339 0,0.02169 -0.01205,0.0531 -0.02677,0.06979 -0.02421,0.02744 -0.161292,0.38989 -0.179511,0.474631 -0.0041,0.01916 -0.0255,0.07795 -0.04751,0.130652 -0.02201,0.0527 -0.04468,0.117383 -0.05037,0.143735 -0.0057,0.02635 -0.01325,0.0515 -0.01679,0.0559 -0.0035,0.0044 -0.0094,0.01877 -0.0131,0.03194 -0.0037,0.01318 -0.02343,0.06442 -0.04392,0.113873 -0.02049,0.04946 -0.03725,0.108782 -0.03725,0.131839 0,0.02306 -0.01797,0.05682 -0.03993,0.07503 -0.02971,0.02463 -0.06682,-0.005 -0.145004,-0.115867 z"
     id="path3133" />
</svg>
