<?xml version="1.0" encoding="UTF-8" standalone="no"?>
<svg
   width="40"
   height="26"
   viewBox="0 0 40 26"
   version="1.1"
   id="svg3791"
   sodipodi:docname="ic-switch-on.svg"
   inkscape:version="1.2.1 (9c6d41e410, 2022-07-14)"
   xmlns:inkscape="http://www.inkscape.org/namespaces/inkscape"
   xmlns:sodipodi="http://sodipodi.sourceforge.net/DTD/sodipodi-0.dtd"
   xmlns="http://www.w3.org/2000/svg"
   xmlns:svg="http://www.w3.org/2000/svg">
  <sodipodi:namedview
     id="namedview3793"
     pagecolor="#ffffff"
     bordercolor="#000000"
     borderopacity="0.25"
     inkscape:showpageshadow="2"
     inkscape:pageopacity="0.0"
     inkscape:pagecheckerboard="0"
     inkscape:deskcolor="#d1d1d1"
     showgrid="false"
     inkscape:zoom="31.307692"
     inkscape:cx="19.995086"
     inkscape:cy="13"
     inkscape:window-width="1920"
     inkscape:window-height="1017"
     inkscape:window-x="-8"
     inkscape:window-y="456"
     inkscape:window-maximized="1"
     inkscape:current-layer="svg3791" />
  <defs
     id="defs3784">
    <style
       type="text/css"
       id="style3771">
            .cls-1,.cls-2{fill:#5c4b7d}.cls-1{fill-rule:evenodd;opacity:.5}.cls-3{filter:url(#switch_button)}
        </style>
    <filter
       id="switch_button"
       width="26"
       height="26"
       x="14"
       y="0"
       filterUnits="userSpaceOnUse">
      <feOffset
         dy="2"
         id="feOffset3773" />
      <feGaussianBlur
         result="blur"
         stdDeviation="1"
         id="feGaussianBlur3775" />
      <feFlood
         flood-opacity=".239"
         id="feFlood3777" />
      <feComposite
         in2="blur"
         operator="in"
         id="feComposite3779"
         result="result1" />
      <feComposite
         in="SourceGraphic"
         in2="result1"
         id="feComposite3781" />
    </filter>
  </defs>
  <g
     id="switch_on"
     transform="translate(0 1)"
     style="fill:#d3bc5f">
    <path
       id="switch_path"
       d="M37 10a6.957 6.957 0 0 1-7 7H10a6.957 6.957 0 0 1-7-7 6.957 6.957 0 0 1 7-7h20a6.957 6.957 0 0 1 7 7z"
       class="cls-1"
       transform="translate(-3 .223)"
       style="fill:#d3bc5f" />
    <g
       class="cls-3"
       transform="translate(0 -1)"
       id="g3788"
       style="fill:#d3bc5f">
      <path
         id="switch_button-2"
         d="M10 0A10 10 0 1 1 0 10 10 10 0 0 1 10 0z"
         class="cls-2"
         data-name="switch_button"
         transform="translate(17 1)"
         style="fill:#d3bc5f" />
    </g>
  </g>
  <path
     style="fill:#a0892c;fill-opacity:1;stroke:#a0892c;stroke-width:0.031941;stroke-opacity:1"
     d="m 25.872236,20.918858 c -4.141209,-0.491302 -7.528578,-3.45217 -8.543875,-7.468124 -0.234833,-0.928867 -0.287553,-1.381192 -0.287076,-2.463019 4.36e-4,-0.9898238 0.02751,-1.277127 0.195511,-2.0749207 0.311136,-1.4774849 0.993745,-2.9178842 1.962372,-4.140876 0.337917,-0.4266552 1.132889,-1.2215626 1.559861,-1.5597345 1.190471,-0.9428803 2.487581,-1.5779098 3.926524,-1.922319 2.22545,-0.53265843 4.560193,-0.279344 6.632629,0.7196254 1.227962,0.5919104 2.27955,1.3849349 3.147446,2.373554 1.353964,1.5422983 2.159596,3.3230865 2.446083,5.4068821 0.07768,0.5650347 0.07738,1.8421307 -5.65e-4,2.4115477 -0.319213,2.33186 -1.285546,4.292674 -2.909917,5.904601 -1.607921,1.595602 -3.763132,2.604202 -6.048225,2.83046 -0.455523,0.0451 -1.636129,0.03507 -2.080768,-0.01768 z"
     id="path4158" />
</svg>
