<?xml version="1.0" encoding="UTF-8" standalone="no"?>
<svg
   width="24px"
   height="24px"
   viewBox="0 0 24 24"
   version="1.1"
   id="svg9023"
   sodipodi:docname="ic-update-liliac.svg"
   inkscape:version="1.2.1 (9c6d41e410, 2022-07-14)"
   xmlns:inkscape="http://www.inkscape.org/namespaces/inkscape"
   xmlns:sodipodi="http://sodipodi.sourceforge.net/DTD/sodipodi-0.dtd"
   xmlns="http://www.w3.org/2000/svg"
   xmlns:svg="http://www.w3.org/2000/svg">
  <defs
     id="defs9027" />
  <sodipodi:namedview
     id="namedview9025"
     pagecolor="#ffffff"
     bordercolor="#000000"
     borderopacity="0.25"
     inkscape:showpageshadow="2"
     inkscape:pageopacity="0.0"
     inkscape:pagecheckerboard="0"
     inkscape:deskcolor="#d1d1d1"
     showgrid="false"
     inkscape:zoom="33.916667"
     inkscape:cx="12"
     inkscape:cy="12"
     inkscape:window-width="1920"
     inkscape:window-height="1017"
     inkscape:window-x="-8"
     inkscape:window-y="456"
     inkscape:window-maximized="1"
     inkscape:current-layer="svg9023" />
  <!-- Generator: Sketch 55.2 (78181) - https://sketchapp.com -->
  <title
     id="title9015">Artboard</title>
  <desc
     id="desc9017">Created with Sketch.</desc>
  <g
     id="Artboard"
     stroke="none"
     stroke-width="1"
     fill="none"
     fill-rule="evenodd">
    <g
       id="ic-update-liliac"
       transform="translate(2.000000, 2.000000)">
      <polygon
         id="Rectangle_4642"
         points="0 0 20 0 20 20 0 20" />
      <path
         d="M13,8.5 L18,8.5 L18,3.5 L16,3.5 L16,4.715 C13.5656847,1.94871304 9.55671298,1.2030267 6.29053814,2.90899747 C3.0243633,4.61496824 1.34594778,8.33125994 2.22552783,11.9096078 C3.10510789,15.4879556 6.31513536,18.0026378 10,18.0000301 C12.1229023,18.0058338 14.1599129,17.1621506 15.657,15.657 L14.243,14.243 C12.4656191,16.0235516 9.76616433,16.5061689 7.48194074,15.4517642 C5.19771716,14.3973595 3.81387589,12.02988 4.01596945,9.52217092 C4.21806302,7.01446183 5.96316833,4.89914079 8.38676331,4.2241341 C10.8103583,3.5491274 13.3976904,4.45780116 14.867,6.5 L13,6.5 L13,8.5 Z"
         id="Path_18962"
         fill="#B088FF"
         fill-rule="nonzero" />
    </g>
  </g>
  <path
     style="fill:#a0892c;fill-opacity:1;stroke:#a0892c;stroke-width:0.029484;stroke-opacity:1"
     d="M 11.167397,19.945164 C 9.3023219,19.733829 7.6679832,18.948803 6.3529985,17.632653 4.8943704,16.172731 4.0892855,14.31617 4.0189831,12.250314 3.9273649,9.5580858 5.235955,6.9631678 7.4554095,5.4359224 8.4770011,4.7329475 9.5765528,4.2995403 10.864865,4.0920269 c 0.47196,-0.07602 1.773885,-0.074554 2.27027,0.00256 1.336068,0.2075523 2.561529,0.7169015 3.626536,1.5073294 0.372217,0.2762528 0.884846,0.7332622 1.070551,0.9543982 0.06988,0.083218 0.13954,0.1513048 0.154791,0.1513048 0.01639,0 0.02773,-0.241098 0.02773,-0.5896806 V 5.5282555 h 0.987715 0.987715 v 2.4766585 2.476658 h -2.491401 -2.4914 V 9.4938575 8.5061425 h 0.928747 c 0.510811,0 0.928747,-0.010988 0.928747,-0.024419 0,-0.048729 -0.468753,-0.5860888 -0.725052,-0.8311707 C 14.519292,6.1009563 12.178737,5.5960638 10.009828,6.3282239 9.4394429,6.5207692 8.7120121,6.9246834 8.2260442,7.3186897 7.9728251,7.5239914 7.4991326,7.9984541 7.2974096,8.2488339 6.5965991,9.1186847 6.1389137,10.245098 6.0128312,11.410319 c -0.042547,0.393212 -0.020244,1.153167 0.045428,1.547912 0.5618626,3.377245 3.7816645,5.609212 7.1211018,4.936349 1.060809,-0.213742 2.096762,-0.734865 2.851835,-1.434578 0.100943,-0.09354 0.193924,-0.170076 0.206625,-0.170076 0.0127,0 0.332674,0.309794 0.711054,0.68843 l 0.687961,0.68843 -0.231194,0.209446 c -1.020804,0.924774 -2.204256,1.560411 -3.48918,1.874052 -0.688149,0.167972 -0.964304,0.200674 -1.783784,0.211236 -0.405405,0.0052 -0.839782,-0.0021 -0.965281,-0.01636 z"
     id="path9392" />
</svg>
