<?xml version="1.0" encoding="UTF-8" standalone="no"?>
<svg
   width="24px"
   height="24px"
   viewBox="0 0 24 24"
   version="1.1"
   id="svg7314"
   sodipodi:docname="ic-update.svg"
   inkscape:version="1.2.1 (9c6d41e410, 2022-07-14)"
   xmlns:inkscape="http://www.inkscape.org/namespaces/inkscape"
   xmlns:sodipodi="http://sodipodi.sourceforge.net/DTD/sodipodi-0.dtd"
   xmlns="http://www.w3.org/2000/svg"
   xmlns:svg="http://www.w3.org/2000/svg">
  <defs
     id="defs7318" />
  <sodipodi:namedview
     id="namedview7316"
     pagecolor="#ffffff"
     bordercolor="#000000"
     borderopacity="0.25"
     inkscape:showpageshadow="2"
     inkscape:pageopacity="0.0"
     inkscape:pagecheckerboard="0"
     inkscape:deskcolor="#d1d1d1"
     showgrid="false"
     inkscape:zoom="33.916667"
     inkscape:cx="12"
     inkscape:cy="12"
     inkscape:window-width="1920"
     inkscape:window-height="1017"
     inkscape:window-x="-8"
     inkscape:window-y="456"
     inkscape:window-maximized="1"
     inkscape:current-layer="svg7314" />
  <!-- Generator: Sketch 55.2 (78181) - https://sketchapp.com -->
  <title
     id="title7306">Artboard</title>
  <desc
     id="desc7308">Created with Sketch.</desc>
  <g
     id="Artboard"
     stroke="none"
     stroke-width="1"
     fill="none"
     fill-rule="evenodd">
    <g
       id="ic-update"
       transform="translate(2.000000, 2.000000)">
      <polygon
         id="Rectangle_4642"
         points="0 0 20 0 20 20 0 20" />
      <path
         d="M13,8.5 L18,8.5 L18,3.5 L16,3.5 L16,4.715 C13.5656847,1.94871304 9.55671298,1.2030267 6.29053814,2.90899747 C3.0243633,4.61496824 1.34594778,8.33125994 2.22552783,11.9096078 C3.10510789,15.4879556 6.31513536,18.0026378 10,18.0000301 C12.1229023,18.0058338 14.1599129,17.1621506 15.657,15.657 L14.243,14.243 C12.4656191,16.0235516 9.76616433,16.5061689 7.48194074,15.4517642 C5.19771716,14.3973595 3.81387589,12.02988 4.01596945,9.52217092 C4.21806302,7.01446183 5.96316833,4.89914079 8.38676331,4.2241341 C10.8103583,3.5491274 13.3976904,4.45780116 14.867,6.5 L13,6.5 L13,8.5 Z"
         id="Path_18962"
         fill="#5C4B7D"
         fill-rule="nonzero" />
    </g>
  </g>
  <path
     style="fill:#a0892c;fill-opacity:1;stroke:#a0892c;stroke-width:0.029484;stroke-opacity:1"
     d="M 11.056511,19.928639 C 9.5958009,19.754303 8.1582056,19.149152 6.987715,18.215892 6.6496348,17.946332 6.0454166,17.340505 5.7726021,16.997543 4.3158493,15.166222 3.7259801,12.832548 4.143835,10.553723 4.3748262,9.2939823 4.9553979,8.0249705 5.7685352,7.002457 6.07485,6.6172687 6.7566791,5.9541457 7.1498771,5.6590124 8.327484,4.7751039 9.6643026,4.2373927 11.102441,4.0691646 c 0.486419,-0.0569 1.306588,-0.057146 1.79051,-5.391e-4 1.822474,0.2131863 3.479165,1.0197249 4.775108,2.3246998 l 0.346683,0.3490993 V 6.13534 5.5282555 h 0.987715 0.987715 v 2.4766585 2.476658 h -2.491401 -2.4914 V 9.4938575 8.5061425 h 0.928747 c 0.510811,0 0.928747,-0.010455 0.928747,-0.023234 0,-0.012779 -0.08456,-0.128872 -0.187905,-0.2579853 C 16.429686,7.9160002 15.913699,7.4202374 15.58231,7.1731763 14.79381,6.585326 13.77437,6.1750202 12.777683,6.044366 12.385023,5.9928927 11.651892,5.9862976 11.29161,6.0309976 9.2481703,6.2845257 7.4975853,7.5225526 6.6035385,9.3464373 5.063693,12.487773 6.5060731,16.267693 9.7444717,17.577608 c 1.1551083,0.467236 2.5101873,0.563401 3.6964473,0.262324 0.977286,-0.248039 1.810416,-0.687787 2.568357,-1.355644 0.121318,-0.106899 0.227566,-0.194362 0.236108,-0.194362 0.0085,0 0.32506,0.309742 0.703376,0.688314 l 0.687846,0.688315 -0.290047,0.258772 c -1.272424,1.135222 -2.765491,1.811246 -4.432373,2.006871 -0.455537,0.05346 -1.394992,0.05166 -1.857675,-0.0036 z"
     id="path8547" />
</svg>
