<?xml version="1.0" encoding="UTF-8" standalone="no"?>
<svg
   id="ic_unlock_staking"
   width="24"
   height="24"
   viewBox="0 0 24 24"
   version="1.1"
   sodipodi:docname="ic-wallet-status-staking.svg"
   inkscape:version="1.2.1 (9c6d41e410, 2022-07-14)"
   xmlns:inkscape="http://www.inkscape.org/namespaces/inkscape"
   xmlns:sodipodi="http://sodipodi.sourceforge.net/DTD/sodipodi-0.dtd"
   xmlns="http://www.w3.org/2000/svg"
   xmlns:svg="http://www.w3.org/2000/svg">
  <sodipodi:namedview
     id="namedview5485"
     pagecolor="#ffffff"
     bordercolor="#000000"
     borderopacity="0.25"
     inkscape:showpageshadow="2"
     inkscape:pageopacity="0.0"
     inkscape:pagecheckerboard="0"
     inkscape:deskcolor="#d1d1d1"
     showgrid="false"
     inkscape:zoom="33.916667"
     inkscape:cx="12"
     inkscape:cy="12"
     inkscape:window-width="1920"
     inkscape:window-height="1017"
     inkscape:window-x="-8"
     inkscape:window-y="456"
     inkscape:window-maximized="1"
     inkscape:current-layer="ic_unlock_staking" />
  <defs
     id="defs5479">
    <style
       type="text/css"
       id="style5477">
            .cls-1{fill:none}.cls-2{fill:#7c7687}
        </style>
  </defs>
  <g
     id="Group_8891"
     data-name="Group 8891">
    <path
       id="Rectangle_4445"
       d="M0 0h24v24H0z"
       class="cls-1"
       data-name="Rectangle 4445" />
  </g>
  <path
     id="Path_18910"
     d="M19.448 11.966l1.259-1.259-1.414-1.414-1.259 1.259A10.963 10.963 0 0 0 13 8.191V7A5 5 0 0 0 3 7v1H2v10h7.16l2-2H4v-6h8v5.16l2-2v-2.635a8.992 8.992 0 0 1 2.611 1.45l-8.818 8.818 1.414 1.414 8.818-8.818A8.948 8.948 0 0 1 20 19v1h2v-1a10.953 10.953 0 0 0-2.552-7.034zM11 8H5V7a3 3 0 0 1 6 0z"
     class="cls-2"
     data-name="Path 18910" />
  <path
     style="fill:#d3bc5f;fill-opacity:1;stroke:#d3bc5f;stroke-width:0.029484;stroke-opacity:1"
     d="M 8.513436,21.486564 7.8132268,20.786355 12.224255,16.375253 16.635284,11.964152 16.326961,11.739457 C 15.643978,11.241726 14.653922,10.71668 14.041769,10.527576 l -0.06634,-0.02049 v 1.321562 1.321562 L 12.987715,14.137592 12,15.124977 V 12.55266 9.980344 H 7.990172 3.980344 v 3.022113 3.022113 H 7.5403754 11.100407 L 10.113022,17.012285 9.1256371,18 H 5.5652757 2.004914 V 13.002457 8.004914 H 2.5061425 3.007371 V 7.4330993 c 0,-0.9152533 0.075015,-1.4584016 0.2848416,-2.0623982 C 3.7138357,4.1570358 4.6218259,3.1216672 5.7641278,2.5520103 6.5509967,2.1596051 7.3178241,1.9943423 8.195773,2.0279545 c 0.7161113,0.027416 1.3036844,0.1726406 1.946381,0.4810669 1.409076,0.6762073 2.363983,1.8821802 2.731026,3.4490709 0.07936,0.3387986 0.08274,0.3857021 0.09351,1.2989944 l 0.01117,0.9475044 0.181834,0.035028 c 0.789131,0.1520178 1.734588,0.4640226 2.525814,0.8335294 0.646949,0.3021287 1.498791,0.8279679 2.063882,1.2740285 l 0.280098,0.221099 0.626626,-0.6254943 0.626625,-0.6254936 0.699988,0.6999889 0.699989,0.699988 -0.625494,0.626625 -0.625494,0.626626 0.221817,0.280098 c 0.93472,1.180315 1.63465,2.620324 2.013504,4.142506 0.214812,0.863083 0.294216,1.536902 0.318784,2.70516 l 0.01845,0.87715 h -0.992309 -0.99231 v -0.613271 c 0,-0.337299 -0.01383,-0.791721 -0.03073,-1.009828 -0.133539,-1.723157 -0.716618,-3.299241 -1.735123,-4.690102 L 18.0359,13.364665 13.624773,17.775719 9.2136448,22.186773 Z M 11.027002,7.5257985 C 11.026943,6.6274788 10.943074,6.1493399 10.700408,5.6641781 10.307607,4.8788499 9.5971527,4.3003109 8.7567568,4.081418 8.3871464,3.9851478 7.7754581,3.9698368 7.4000981,4.0474599 6.2546598,4.2843325 5.3829181,5.115332 5.0798282,6.2592882 5.0108235,6.5197336 5.0027593,6.6110432 4.9901083,7.2751843 L 4.9762078,8.004914 h 3.0254096 3.0254096 z"
     id="path5919" />
</svg>
