<?xml version="1.0" encoding="UTF-8" standalone="no"?>
<svg
   id="ic_empty_dark_error"
   width="100"
   height="100"
   viewBox="0 0 100 100"
   version="1.1"
   sodipodi:docname="img-empty-dark-error.svg"
   inkscape:version="1.2.1 (9c6d41e410, 2022-07-14)"
   xmlns:inkscape="http://www.inkscape.org/namespaces/inkscape"
   xmlns:sodipodi="http://sodipodi.sourceforge.net/DTD/sodipodi-0.dtd"
   xmlns="http://www.w3.org/2000/svg"
   xmlns:svg="http://www.w3.org/2000/svg">
  <sodipodi:namedview
     id="namedview18805"
     pagecolor="#ffffff"
     bordercolor="#000000"
     borderopacity="0.25"
     inkscape:showpageshadow="2"
     inkscape:pageopacity="0.0"
     inkscape:pagecheckerboard="0"
     inkscape:deskcolor="#d1d1d1"
     showgrid="false"
     inkscape:zoom="8.37"
     inkscape:cx="49.940263"
     inkscape:cy="50.059737"
     inkscape:window-width="1920"
     inkscape:window-height="1017"
     inkscape:window-x="-8"
     inkscape:window-y="456"
     inkscape:window-maximized="1"
     inkscape:current-layer="ic_empty_dark_error" />
  <defs
     id="defs18789">
    <style
       type="text/css"
       id="style18787">
            .cls-1{fill:#413d4a}.cls-2{fill:#a09ea5}.cls-3{fill:none}
        </style>
  </defs>
  <path
     id="Path_19009"
     d="M 50,24 28,64 h 44 z m 3,13 -1,12 H 48 L 47,37 Z m -3,22 a 3,3 0 1 1 3,-3 3,3 0 0 1 -3,3 z"
     class="cls-1"
     data-name="Path 19009" />
  <path
     id="Path_19012"
     d="m 64,65 h 9.691 L 50,21.925 26.309,65 H 60 V 63 H 29.691 L 50,26.075 70.309,63 H 64 Z"
     class="cls-2"
     data-name="Path 19012" />
  <path
     id="Path_19013"
     d="m 45.913,36 1.167,14 h 5.84 L 54.087,36 Z M 51.08,48 H 48.92 L 48.087,38 h 3.826 z"
     class="cls-2"
     data-name="Path 19013" />
  <path
     id="Path_19014"
     d="m 50,52 a 4,4 0 1 0 4,4 4,4 0 0 0 -4,-4 z m 0,6 a 2,2 0 1 1 2,-2 2,2 0 0 1 -2,2 z"
     class="cls-2"
     data-name="Path 19014" />
  <path
     id="Rectangle_4727"
     d="M0 0h100v100H0z"
     class="cls-3"
     data-name="Rectangle 4727" />
</svg>
