<?xml version="1.0" encoding="UTF-8" standalone="no"?>
<svg
   id="ic_staking_on"
   width="100"
   height="100"
   viewBox="0 0 100 100"
   version="1.1"
   sodipodi:docname="img-empty-staking-on.svg"
   inkscape:version="1.2.1 (9c6d41e410, 2022-07-14)"
   xmlns:inkscape="http://www.inkscape.org/namespaces/inkscape"
   xmlns:sodipodi="http://sodipodi.sourceforge.net/DTD/sodipodi-0.dtd"
   xmlns="http://www.w3.org/2000/svg"
   xmlns:svg="http://www.w3.org/2000/svg">
  <sodipodi:namedview
     id="namedview15706"
     pagecolor="#ffffff"
     bordercolor="#000000"
     borderopacity="0.25"
     inkscape:showpageshadow="2"
     inkscape:pageopacity="0.0"
     inkscape:pagecheckerboard="0"
     inkscape:deskcolor="#d1d1d1"
     showgrid="false"
     inkscape:zoom="16.74"
     inkscape:cx="50.059737"
     inkscape:cy="54.540024"
     inkscape:window-width="1920"
     inkscape:window-height="1017"
     inkscape:window-x="-8"
     inkscape:window-y="456"
     inkscape:window-maximized="1"
     inkscape:current-layer="ic_staking_on" />
  <defs
     id="defs15692">
    <style
       type="text/css"
       id="style15690">
            .cls-1{fill:#d6d6d6}.cls-2{fill:#666}.cls-3{fill:none}
        </style>
  </defs>
  <g
     id="Group_9016"
     data-name="Group 9016">
    <ellipse
       id="Ellipse_613"
       cx="12"
       cy="4"
       class="cls-1"
       data-name="Ellipse 613"
       rx="12"
       ry="4"
       transform="translate(68,52)" />
    <ellipse
       id="Ellipse_614"
       cx="12"
       cy="4"
       class="cls-1"
       data-name="Ellipse 614"
       rx="12"
       ry="4"
       transform="translate(52,64)" />
    <path
       id="Rectangle_4669"
       d="M 0,0 H 14 V 14 H 0 Z"
       class="cls-1"
       data-name="Rectangle 4669"
       transform="translate(32,24)" />
  </g>
  <path
     id="Rectangle_4670"
     d="m 12,60 h 2 v 4 h -2 z"
     class="cls-2"
     data-name="Rectangle 4670" />
  <path
     id="Path_18975"
     d="M 92.046,57.994 A 2.767,2.767 0 0 0 93,56 c 0,-3.283 -6.54,-5 -13,-5 -6.46,0 -13,1.717 -13,5 a 2.767,2.767 0 0 0 0.954,1.994 2.573,2.573 0 0 0 0,4 3.171,3.171 0 0 0 -0.774,1.151 Q 66.6,63.093 66,63.06 V 39 h 5 V 23 H 52.644 A 8.993,8.993 0 1 0 39,11.9 8.994,8.994 0 1 0 25.356,23 H 7 v 16 h 5 v 17 h 2 V 39 h 50 v 24 c -6.46,0 -13,1.717 -13,5 a 2.767,2.767 0 0 0 0.954,1.994 2.573,2.573 0 0 0 0,4 A 3.325,3.325 0 0 0 51.226,75 H 14 v -7 h -2 v 9 h 39.23 a 3.369,3.369 0 0 0 0.724,0.994 2.573,2.573 0 0 0 0,4 2.573,2.573 0 0 0 0,4 A 2.768,2.768 0 0 0 51,88 c 0,3.283 6.54,5 13,5 5.874,0 11.8,-1.424 12.826,-4.15 1.042,0.093 2.106,0.15 3.174,0.15 6.46,0 13,-1.717 13,-5 a 2.768,2.768 0 0 0 -0.954,-2.006 2.573,2.573 0 0 0 0,-4 2.573,2.573 0 0 0 0,-4 2.573,2.573 0 0 0 0,-4 2.573,2.573 0 0 0 0,-4 2.573,2.573 0 0 0 0,-4 2.573,2.573 0 0 0 0,-4 z M 31,37 H 9 V 25 H 31 Z M 24,16 a 7,7 0 0 1 14,0 v 7 H 31 A 7.008,7.008 0 0 1 24,16 Z M 45,37 H 33 V 25 H 45 Z M 40,23 v -7 a 7,7 0 1 1 7,7 z m 7,14 V 25 h 22 v 12 z m 4,39 A 2.311,2.311 0 0 0 51.061,76.515 2.2,2.2 0 0 1 51,76 Z M 64,91 C 56.883,91 53,89.018 53,88 53,87.759 53.247,87.461 53.678,87.151 56.179,88.37 60.1,89 64,89 67.9,89 71.821,88.37 74.322,87.151 74.753,87.461 75,87.759 75,88 c 0,1.018 -3.883,3 -11,3 z m 0,-4 C 56.883,87 53,85.018 53,84 53,83.759 53.247,83.461 53.678,83.151 56.179,84.37 60.1,85 64,85 67.9,85 71.821,84.37 74.322,83.151 74.753,83.461 75,83.759 75,84 c 0,1.018 -3.883,3 -11,3 z m 0,-4 C 56.883,83 53,81.018 53,80 53,79.759 53.247,79.461 53.678,79.151 56.179,80.37 60.1,81 64,81 67.9,81 71.821,80.37 74.322,79.151 74.753,79.461 75,79.759 75,80 c 0,1.018 -3.883,3 -11,3 z m 0,-4 C 56.883,79 53,77.018 53,76 53,75.759 53.247,75.461 53.678,75.151 56.179,76.37 60.1,77 64,77 67.9,77 71.821,76.37 74.322,75.151 74.753,75.461 75,75.759 75,76 c 0,1.018 -3.883,3 -11,3 z m 0,-4 C 56.883,75 53,73.018 53,72 53,71.759 53.247,71.461 53.678,71.151 56.179,72.37 60.1,73 64,73 67.9,73 71.821,72.37 74.322,71.151 74.753,71.461 75,71.759 75,72 c 0,1.018 -3.883,3 -11,3 z m 0,-4 c -7.117,0 -11,-1.982 -11,-3 0,-1.018 3.883,-3 11,-3 7.117,0 11,1.982 11,3 0,1.018 -3.883,3 -11,3 z m 16,16 c -1.207,0 -2.3,-0.068 -3.313,-0.168 a 3.446,3.446 0 0 0 -0.641,-0.838 3.219,3.219 0 0 0 0.781,-1.151 C 77.868,84.943 78.927,85 80,85 83.9,85 87.821,84.37 90.322,83.151 90.753,83.461 91,83.759 91,84 c 0,1.018 -3.883,3 -11,3 z m 0,-4 c -1.207,0 -2.3,-0.068 -3.313,-0.168 a 3.446,3.446 0 0 0 -0.641,-0.838 3.219,3.219 0 0 0 0.781,-1.151 C 77.868,80.943 78.927,81 80,81 83.9,81 87.821,80.37 90.322,79.151 90.753,79.461 91,79.759 91,80 c 0,1.018 -3.883,3 -11,3 z m 0,-4 c -1.207,0 -2.3,-0.068 -3.313,-0.168 a 3.446,3.446 0 0 0 -0.641,-0.838 3.219,3.219 0 0 0 0.781,-1.151 C 77.868,76.943 78.927,77 80,77 83.9,77 87.821,76.37 90.322,75.151 90.753,75.461 91,75.759 91,76 c 0,1.018 -3.883,3 -11,3 z m 0,-4 c -1.207,0 -2.3,-0.068 -3.313,-0.168 a 3.446,3.446 0 0 0 -0.641,-0.838 3.219,3.219 0 0 0 0.781,-1.151 C 77.868,72.943 78.927,73 80,73 83.9,73 87.821,72.37 90.322,71.151 90.753,71.461 91,71.759 91,72 c 0,1.018 -3.883,3 -11,3 z m 0,-4 c -1.207,0 -2.3,-0.068 -3.313,-0.168 a 3.446,3.446 0 0 0 -0.641,-0.838 3.219,3.219 0 0 0 0.781,-1.151 C 77.868,68.943 78.927,69 80,69 83.9,69 87.821,68.37 90.322,67.151 90.753,67.461 91,67.759 91,68 c 0,1.018 -3.883,3 -11,3 z m 0,-4 c -1.2,0 -2.287,-0.067 -3.3,-0.166 -0.621,-1.162 -2.175,-2.062 -4.213,-2.7 A 31.139,31.139 0 0 0 80,65 c 3.9,0 7.821,-0.63 10.322,-1.849 C 90.753,63.461 91,63.759 91,64 c 0,1.018 -3.883,3 -11,3 z M 69.368,63.417 a 2.722,2.722 0 0 1 0.31,-0.266 13.563,13.563 0 0 0 1.826,0.7 26.483,26.483 0 0 0 -2.136,-0.434 z M 80,63 C 72.883,63 69,61.018 69,60 69,59.759 69.247,59.461 69.678,59.151 72.179,60.37 76.1,61 80,61 83.9,61 87.821,60.37 90.322,59.151 90.753,59.461 91,59.759 91,60 c 0,1.018 -3.883,3 -11,3 z m 0,-4 c -7.117,0 -11,-1.982 -11,-3 0,-1.018 3.883,-3 11,-3 7.117,0 11,1.982 11,3 0,1.018 -3.883,3 -11,3 z"
     class="cls-2"
     data-name="Path 18975" />
  <path
     id="Rectangle_4672"
     d="M0 0h100v100H0z"
     class="cls-3"
     data-name="Rectangle 4672" />
  <g
     id="g11378"
     transform="matrix(0.05837761,0,0,0.05837761,26.629588,41.985684)"
     style="fill:#666666;fill-opacity:1">
    <path
       class="b"
       d="m 110.95,290.92 c 0,-13.52 -10.69,-24.49 -23.87,-24.49 -13.18,0 -23.87,10.96 -23.87,24.49 0,0.37 0.01,0.74 0.03,1.1 h -0.03 v 113.89 c -0.06,0.68 -0.09,1.37 -0.09,2.06 0,13.52 10.69,24.49 23.87,24.49 13.18,0 23.87,-10.96 23.87,-24.49 0,-0.09 0,-0.18 0,-0.27 h 0.1 V 290.92 Z"
       id="path11363"
       style="fill:#666666;fill-opacity:1" />
    <path
       class="b"
       d="m 358.9,290.48 c 0,-13.52 -10.69,-24.49 -23.87,-24.49 -13.18,0 -23.87,10.96 -23.87,24.49 0,0.37 0.01,0.74 0.03,1.1 h -0.03 v 113.89 c -0.06,0.68 -0.09,1.37 -0.09,2.06 0,13.52 10.69,24.49 23.87,24.49 13.18,0 23.87,-10.96 23.87,-24.49 0,-0.09 0,-0.18 0,-0.27 h 0.1 V 290.48 Z"
       id="path11365"
       style="fill:#666666;fill-opacity:1" />
    <path
       class="b"
       d="m 233.9,290.4 c 0,-13.52 -10.69,-24.49 -23.87,-24.49 -13.18,0 -23.87,10.96 -23.87,24.49 0,0.07 0,0.15 0,0.22 h -0.1 v 202.83 c 0,13.52 10.68,24.49 23.87,24.49 13.19,0 23.87,-10.96 23.87,-24.49 0,-0.64 -0.03,-1.28 -0.08,-1.91 h 0.08 V 292.45 c 0.05,-0.68 0.09,-1.36 0.09,-2.05 z"
       id="path11367"
       style="fill:#666666;fill-opacity:1" />
    <path
       class="b"
       d="m 309.96,0 v 0 c -71.53,0 -99.09,55.12 -121.23,99.4 -22.66,45.34 -38.59,73.12 -78.7,73.12 v 0 c -34.46,0 -62.49,-28.04 -62.49,-62.5 0,-38.68 36.31,-62.82 62.49,-62.49 q 7.01,0.09 12.01,1.09 c 2.96,0.73 5,1 9,2 0.97,0.24 7,3 9,4 1.4,0.7 5.16,3.31 7.36,4.85 4.12,3.5 9.42,5.61 15.21,5.61 13.09,0 23.43,-11.18 23.43,-24.46 0,-8.75 -5,-15 -11.23,-20.2 -5.63,-4.93 -7.15,-5.67 -17.61,-10.58 0,0 -21.93,-9.85 -47.18,-9.85 C 49.36,0 0,49.35 0,110.02 0,170.69 49.36,220.04 110.02,220.05 v 0 c 71.53,0 99.09,-55.1 121.23,-99.39 22.67,-45.33 38.59,-73.12 78.71,-73.12 v 0 c 34.46,0 62.49,28.03 62.49,62.49 0,34.46 -28.03,62.09 -62.49,62.49 -8.92,0.1 -14.92,-0.9 -14.92,-0.9 -8,-2 -17,-7 -19,-8 -2,-1 -5.92,-3 -6,-3 -2,-1 -8.11,-4 -13,-4 -12.94,0 -23,10.72 -23,24 0,7.08 5.12,13.62 9.87,18.02 0.05,0.11 1.1,0.91 1.13,0.98 0.47,0.35 -0.03,0.01 0.48,0.39 0.45,0.35 0.91,0.67 1.38,0.98 4.09,2.88 9.4,6.19 15.92,9.22 0,0 21.72,9.84 47.15,9.84 C 370.64,220.05 420,170.69 420,110.02 420,49.35 370.63,0 309.96,0 Z"
       id="path11369"
       style="fill:#666666;fill-opacity:1" />
  </g>
</svg>
