<?xml version="1.0" encoding="UTF-8" standalone="no"?>
<svg
   id="ic_empty_Dark_transactions"
   width="100"
   height="100"
   viewBox="0 0 100 100"
   version="1.1"
   sodipodi:docname="img-empty-dark-transactions.svg"
   inkscape:version="1.2.1 (9c6d41e410, 2022-07-14)"
   xmlns:inkscape="http://www.inkscape.org/namespaces/inkscape"
   xmlns:sodipodi="http://sodipodi.sourceforge.net/DTD/sodipodi-0.dtd"
   xmlns="http://www.w3.org/2000/svg"
   xmlns:svg="http://www.w3.org/2000/svg">
  <sodipodi:namedview
     id="namedview13333"
     pagecolor="#ffffff"
     bordercolor="#000000"
     borderopacity="0.25"
     inkscape:showpageshadow="2"
     inkscape:pageopacity="0.0"
     inkscape:pagecheckerboard="0"
     inkscape:deskcolor="#d1d1d1"
     showgrid="false"
     inkscape:zoom="11.836968"
     inkscape:cx="50.012809"
     inkscape:cy="43.000878"
     inkscape:window-width="1920"
     inkscape:window-height="1017"
     inkscape:window-x="-8"
     inkscape:window-y="456"
     inkscape:window-maximized="1"
     inkscape:current-layer="ic_empty_Dark_transactions" />
  <defs
     id="defs13315">
    <style
       type="text/css"
       id="style13313">
            .cls-1{fill:#413d4a}.cls-2{fill:#a09ea5}.cls-3{fill:none}
        </style>
  </defs>
  <path
     id="Path_18988"
     d="M 50,26 A 24,24 0 1 0 74,50 24,24 0 0 0 50,26 Z m 0,42 A 18,18 0 1 1 68,50 18,18 0 0 1 50,68 Z"
     class="cls-1"
     data-name="Path 18988" />
  <g
     id="Group_9034"
     data-name="Group 9034">
    <path
       id="Path_18990"
       d="M 50,31 A 19,19 0 1 0 69,50 19.021,19.021 0 0 0 50,31 Z m 0,36 A 17,17 0 1 1 67,50 17.019,17.019 0 0 1 50,67 Z"
       class="cls-2"
       data-name="Path 18990" />
    <path
       id="Rectangle_4693"
       d="M 0,0 H 2 V 4 H 0 Z"
       class="cls-2"
       data-name="Rectangle 4693"
       transform="translate(83,56)" />
    <path
       id="Rectangle_4694"
       d="M 0,0 H 2 V 8 H 0 Z"
       class="cls-2"
       data-name="Rectangle 4694"
       transform="translate(83,44)" />
    <path
       id="Rectangle_4695"
       d="M 0,0 H 2 V 8 H 0 Z"
       class="cls-2"
       data-name="Rectangle 4695"
       transform="translate(15,48)" />
    <path
       id="Rectangle_4696"
       d="M 0,0 H 2 V 4 H 0 Z"
       class="cls-2"
       data-name="Rectangle 4696"
       transform="translate(15,40)" />
    <path
       id="Path_18991"
       d="M 95.162,71 H 85 v -7 h -2 v 9 h 7.838 L 76,90.456 61.162,73 H 68 V 71 H 63.539 A 24.989,24.989 0 0 0 41.139,26.626 L 24,6.456 4.838,29 H 15 v 7 h 2 V 27 H 9.162 L 24,9.544 38.838,27 H 32 v 2 h 4.461 a 24.989,24.989 0 0 0 22.4,44.374 L 76,93.544 Z M 27,50 A 23,23 0 1 1 50,73 23.026,23.026 0 0 1 27,50 Z"
       class="cls-2"
       data-name="Path 18991" />
  </g>
  <path
     id="Rectangle_4697"
     d="M0 0h100v100H0z"
     class="cls-3"
     data-name="Rectangle 4697" />
  <g
     id="g11378"
     transform="matrix(0.05552573,0,0,0.05552573,38.33073,36.392224)"
     style="fill:#a09ea5;fill-opacity:1">
    <path
       class="b"
       d="m 110.95,290.92 c 0,-13.52 -10.69,-24.49 -23.87,-24.49 -13.18,0 -23.87,10.96 -23.87,24.49 0,0.37 0.01,0.74 0.03,1.1 h -0.03 v 113.89 c -0.06,0.68 -0.09,1.37 -0.09,2.06 0,13.52 10.69,24.49 23.87,24.49 13.18,0 23.87,-10.96 23.87,-24.49 0,-0.09 0,-0.18 0,-0.27 h 0.1 V 290.92 Z"
       id="path11363"
       style="fill:#a09ea5;fill-opacity:1" />
    <path
       class="b"
       d="m 358.9,290.48 c 0,-13.52 -10.69,-24.49 -23.87,-24.49 -13.18,0 -23.87,10.96 -23.87,24.49 0,0.37 0.01,0.74 0.03,1.1 h -0.03 v 113.89 c -0.06,0.68 -0.09,1.37 -0.09,2.06 0,13.52 10.69,24.49 23.87,24.49 13.18,0 23.87,-10.96 23.87,-24.49 0,-0.09 0,-0.18 0,-0.27 h 0.1 V 290.48 Z"
       id="path11365"
       style="fill:#a09ea5;fill-opacity:1" />
    <path
       class="b"
       d="m 233.9,290.4 c 0,-13.52 -10.69,-24.49 -23.87,-24.49 -13.18,0 -23.87,10.96 -23.87,24.49 0,0.07 0,0.15 0,0.22 h -0.1 v 202.83 c 0,13.52 10.68,24.49 23.87,24.49 13.19,0 23.87,-10.96 23.87,-24.49 0,-0.64 -0.03,-1.28 -0.08,-1.91 h 0.08 V 292.45 c 0.05,-0.68 0.09,-1.36 0.09,-2.05 z"
       id="path11367"
       style="fill:#a09ea5;fill-opacity:1" />
    <path
       class="b"
       d="m 309.96,0 v 0 c -71.53,0 -99.09,55.12 -121.23,99.4 -22.66,45.34 -38.59,73.12 -78.7,73.12 v 0 c -34.46,0 -62.49,-28.04 -62.49,-62.5 0,-38.68 36.31,-62.82 62.49,-62.49 q 7.01,0.09 12.01,1.09 c 2.96,0.73 5,1 9,2 0.97,0.24 7,3 9,4 1.4,0.7 5.16,3.31 7.36,4.85 4.12,3.5 9.42,5.61 15.21,5.61 13.09,0 23.43,-11.18 23.43,-24.46 0,-8.75 -5,-15 -11.23,-20.2 -5.63,-4.93 -7.15,-5.67 -17.61,-10.58 0,0 -21.93,-9.85 -47.18,-9.85 C 49.36,0 0,49.35 0,110.02 0,170.69 49.36,220.04 110.02,220.05 v 0 c 71.53,0 99.09,-55.1 121.23,-99.39 22.67,-45.33 38.59,-73.12 78.71,-73.12 v 0 c 34.46,0 62.49,28.03 62.49,62.49 0,34.46 -28.03,62.09 -62.49,62.49 -8.92,0.1 -14.92,-0.9 -14.92,-0.9 -8,-2 -17,-7 -19,-8 -2,-1 -5.92,-3 -6,-3 -2,-1 -8.11,-4 -13,-4 -12.94,0 -23,10.72 -23,24 0,7.08 5.12,13.62 9.87,18.02 0.05,0.11 1.1,0.91 1.13,0.98 0.47,0.35 -0.03,0.01 0.48,0.39 0.45,0.35 0.91,0.67 1.38,0.98 4.09,2.88 9.4,6.19 15.92,9.22 0,0 21.72,9.84 47.15,9.84 C 370.64,220.05 420,170.69 420,110.02 420,49.35 370.63,0 309.96,0 Z"
       id="path11369"
       style="fill:#a09ea5;fill-opacity:1" />
  </g>
</svg>
