<?xml version="1.0" encoding="UTF-8" standalone="no"?>
<svg
   width="300px"
   height="100px"
   viewBox="0 0 300 100"
   version="1.1"
   id="svg16515"
   sodipodi:docname="img-logo-maria.svg"
   inkscape:version="1.2.1 (9c6d41e410, 2022-07-14)"
   xmlns:inkscape="http://www.inkscape.org/namespaces/inkscape"
   xmlns:sodipodi="http://sodipodi.sourceforge.net/DTD/sodipodi-0.dtd"
   xmlns="http://www.w3.org/2000/svg"
   xmlns:svg="http://www.w3.org/2000/svg">
  <defs
     id="defs16519" />
  <sodipodi:namedview
     id="namedview16517"
     pagecolor="#ffffff"
     bordercolor="#000000"
     borderopacity="0.25"
     inkscape:showpageshadow="2"
     inkscape:pageopacity="0.0"
     inkscape:pagecheckerboard="0"
     inkscape:deskcolor="#d1d1d1"
     showgrid="false"
     inkscape:zoom="2.0166667"
     inkscape:cx="150.7438"
     inkscape:cy="49.586777"
     inkscape:window-width="1920"
     inkscape:window-height="1017"
     inkscape:window-x="-8"
     inkscape:window-y="456"
     inkscape:window-maximized="1"
     inkscape:current-layer="svg16515" />
  <!-- Generator: Sketch 53.2 (72643) - https://sketchapp.com -->
  <title
     id="title16490">Artboard</title>
  <desc
     id="desc16492">Created with Sketch.</desc>
  <g
     id="g16583"
     transform="matrix(0.21379261,0,0,0.21379261,9.491062,-2.978577)">
    <path
       class="c"
       d="m 87.47,270.05 c 0,-10.66 -8.42,-19.31 -18.81,-19.31 -10.39,0 -18.81,8.64 -18.81,19.31 0,0.29 0,0.58 0.02,0.87 h -0.02 v 89.78 c -0.04,0.54 -0.07,1.08 -0.07,1.62 0,10.66 8.42,19.31 18.81,19.31 10.39,0 18.81,-8.64 18.81,-19.31 0,-0.07 0,-0.14 0,-0.21 h 0.08 v -92.07 z"
       id="path16575"
       style="fill:#ae8422" />
    <path
       class="c"
       d="m 282.94,269.7 c 0,-10.66 -8.42,-19.31 -18.81,-19.31 -10.39,0 -18.81,8.64 -18.81,19.31 0,0.29 0,0.58 0.02,0.87 h -0.02 v 89.78 c -0.04,0.54 -0.07,1.08 -0.07,1.62 0,10.66 8.42,19.31 18.81,19.31 10.39,0 18.81,-8.64 18.81,-19.31 0,-0.07 0,-0.14 0,-0.21 h 0.08 v -92.07 z"
       id="path16577"
       style="fill:#ae8422" />
    <path
       class="c"
       d="m 184.4,269.65 c 0,-10.66 -8.42,-19.31 -18.81,-19.31 -10.39,0 -18.81,8.64 -18.81,19.31 0,0.06 0,0.12 0,0.17 h -0.08 v 159.9 c 0,10.66 8.42,19.31 18.81,19.31 10.39,0 18.81,-8.64 18.81,-19.31 0,-0.51 -0.02,-1.01 -0.06,-1.5 h 0.06 V 271.27 c 0.04,-0.53 0.07,-1.07 0.07,-1.62 z"
       id="path16579"
       style="fill:#ae8422" />
    <path
       class="c"
       d="m 244.35,40.71 v 0 c -56.39,0 -78.11,43.45 -95.57,78.36 -17.87,35.74 -30.42,57.64 -62.04,57.65 v 0 c -27.16,0 -49.26,-22.11 -49.26,-49.27 0,-30.49 28.62,-49.53 49.26,-49.26 q 5.53,0.07 9.47,0.86 c 2.33,0.58 3.94,0.79 7.1,1.58 0.76,0.19 5.52,2.37 7.1,3.15 1.1,0.55 4.07,2.61 5.8,3.82 3.24,2.76 7.43,4.42 11.99,4.42 10.32,0 18.47,-8.81 18.47,-19.28 0,-6.9 -3.94,-11.83 -8.85,-15.92 -4.44,-3.89 -5.64,-4.47 -13.88,-8.34 0,0 -17.29,-7.76 -37.19,-7.76 C 38.91,40.71 0,79.62 0,127.44 c 0,47.82 38.91,86.74 86.74,86.74 v 0 c 56.39,0 78.12,-43.44 95.57,-78.36 17.87,-35.74 30.43,-57.64 62.05,-57.64 v 0 c 27.16,0 49.26,22.1 49.26,49.26 0,27.16 -22.1,48.95 -49.26,49.27 -7.03,0.08 -11.76,-0.71 -11.76,-0.71 -6.31,-1.58 -13.4,-5.52 -14.98,-6.31 -1.58,-0.79 -4.67,-2.37 -4.73,-2.37 -1.58,-0.79 -6.39,-3.15 -10.25,-3.15 -10.2,0 -18.13,8.45 -18.13,18.92 0,5.58 4.03,10.74 7.78,14.21 0.04,0.09 0.87,0.72 0.89,0.77 0.37,0.28 -0.03,0.01 0.38,0.3 0.35,0.27 0.72,0.53 1.09,0.77 3.22,2.27 7.41,4.88 12.55,7.27 0,0 17.12,7.75 37.17,7.75 47.83,0 86.74,-38.91 86.74,-86.74 0,-47.83 -38.91,-86.74 -86.74,-86.74 z"
       id="path16581"
       style="fill:#ae8422" />
  </g>
  <text
     class="b"
     id="text16587"
     style="font-size:67.2935px;font-family:FranklinGothic-Medium, 'Franklin Gothic Medium';letter-spacing:0.03em;fill:#ffffff;stroke-width:0.213793"
     x="88.318542"
     y="67.481049"><tspan
       x="88.318542"
       y="67.481049"
       id="tspan16585"
       style="stroke-width:0.213793">MARIA</tspan></text>
</svg>
