<?xml version="1.0" encoding="UTF-8" standalone="no"?>
<svg
   id="ic_empty_dark_multisend"
   width="100"
   height="100"
   viewBox="0 0 100 100"
   version="1.1"
   sodipodi:docname="img-empty-dark-multisend.svg"
   inkscape:version="1.2.1 (9c6d41e410, 2022-07-14)"
   xmlns:inkscape="http://www.inkscape.org/namespaces/inkscape"
   xmlns:sodipodi="http://sodipodi.sourceforge.net/DTD/sodipodi-0.dtd"
   xmlns="http://www.w3.org/2000/svg"
   xmlns:svg="http://www.w3.org/2000/svg">
  <sodipodi:namedview
     id="namedview10616"
     pagecolor="#ffffff"
     bordercolor="#000000"
     borderopacity="0.25"
     inkscape:showpageshadow="2"
     inkscape:pageopacity="0.0"
     inkscape:pagecheckerboard="0"
     inkscape:deskcolor="#d1d1d1"
     showgrid="false"
     inkscape:zoom="32.56"
     inkscape:cx="50.030713"
     inkscape:cy="40.202703"
     inkscape:window-width="1920"
     inkscape:window-height="1017"
     inkscape:window-x="-8"
     inkscape:window-y="456"
     inkscape:window-maximized="1"
     inkscape:current-layer="ic_empty_dark_multisend" />
  <defs
     id="defs10595">
    <style
       type="text/css"
       id="style10593">
            .cls-1{fill:#413d4a}.cls-2{fill:#a09ea5}.cls-3{fill:none}
        </style>
  </defs>
  <g
     id="Group_9060"
     data-name="Group 9060">
    <path
       id="Rectangle_4717"
       d="M 0,0 H 10 V 9 H 0 Z"
       class="cls-1"
       data-name="Rectangle 4717"
       transform="translate(45,18)" />
    <g
       id="Group_9059"
       data-name="Group 9059">
      <path
         id="Rectangle_4718"
         d="M 0,0 H 6 V 10 H 0 Z"
         class="cls-1"
         data-name="Rectangle 4718"
         transform="translate(14,66)" />
      <path
         id="Rectangle_4719"
         d="M 0,0 H 6 V 10 H 0 Z"
         class="cls-1"
         data-name="Rectangle 4719"
         transform="translate(80,66)" />
      <path
         id="Rectangle_4720"
         d="M 0,0 H 6 V 10 H 0 Z"
         class="cls-1"
         data-name="Rectangle 4720"
         transform="translate(47,66)" />
    </g>
  </g>
  <path
     id="Rectangle_4722"
     d="m 67,40 h 2 v 4 h -2 z"
     class="cls-2"
     data-name="Rectangle 4722" />
  <circle
     id="Ellipse_643"
     cx="50"
     cy="73"
     r="1"
     class="cls-2"
     data-name="Ellipse 643" />
  <circle
     id="Ellipse_644"
     cx="83"
     cy="73"
     r="1"
     class="cls-2"
     data-name="Ellipse 644" />
  <path
     id="Rectangle_4723"
     d="m 32,58 h 4 v 2 h -4 z"
     class="cls-2"
     data-name="Rectangle 4723" />
  <path
     id="Path_19007"
     d="m 16,65 h -3 v 3 H 7 v 4 h 2 v -2 h 4 v 7 h 8 v -7 h 4 V 91 H 9 V 76 H 7 V 93 H 27 V 68 H 21 V 65 H 18 V 60 H 28 V 58 H 16 Z m 3,2 v 8 h -4 v -8 z"
     class="cls-2"
     data-name="Path 19007" />
  <circle
     id="Ellipse_645"
     cx="17"
     cy="73"
     r="1"
     class="cls-2"
     data-name="Ellipse 645" />
  <path
     id="Path_19008"
     d="M 87,68 V 65 H 84 V 58 H 51 v -5 h 18 v -5 h -2 v 3 H 33 V 28 h 34 v 8 h 2 v -8 h 4 V 17 H 59.46 A 5.994,5.994 0 1 0 50,9.69 5.995,5.995 0 1 0 40.54,17 H 27 v 11 h 4 v 25 h 18 v 5 h -9 v 2 h 9 v 5 h -3 v 3 h -6 v 16 h 2 V 70 h 4 v 7 h 8 v -7 h 4 V 91 H 42 v -3 h -2 v 5 H 60 V 68 h -6 v -3 h -3 v -5 h 31 v 5 h -3 v 3 h -6 v 12 h 2 V 70 h 4 v 7 h 8 v -7 h 4 V 91 H 75 v -7 h -2 v 9 H 93 V 68 Z M 71,19 v 7 H 56 V 19 Z M 51,13 a 4,4 0 1 1 4,4 h -4 z m 0,6 h 3 v 7 H 46 V 19 Z M 45,9 a 4,4 0 0 1 4,4 v 4 H 45 A 4,4 0 0 1 45,9 Z M 29,26 v -7 h 15 v 7 z m 23,41 v 8 h -4 v -8 z m 33,8 h -4 v -8 h 4 z"
     class="cls-2"
     data-name="Path 19008" />
  <path
     id="Rectangle_4724"
     d="M0 0h100v100H0z"
     class="cls-3"
     data-name="Rectangle 4724" />
  <g
     id="g11378"
     transform="matrix(0.03565976,0,0,0.03565976,42.530227,30.318712)"
     style="fill:#a09ea5;fill-opacity:1">
    <path
       class="b"
       d="m 110.95,290.92 c 0,-13.52 -10.69,-24.49 -23.87,-24.49 -13.18,0 -23.87,10.96 -23.87,24.49 0,0.37 0.01,0.74 0.03,1.1 h -0.03 v 113.89 c -0.06,0.68 -0.09,1.37 -0.09,2.06 0,13.52 10.69,24.49 23.87,24.49 13.18,0 23.87,-10.96 23.87,-24.49 0,-0.09 0,-0.18 0,-0.27 h 0.1 V 290.92 Z"
       id="path11363"
       style="fill:#a09ea5;fill-opacity:1" />
    <path
       class="b"
       d="m 358.9,290.48 c 0,-13.52 -10.69,-24.49 -23.87,-24.49 -13.18,0 -23.87,10.96 -23.87,24.49 0,0.37 0.01,0.74 0.03,1.1 h -0.03 v 113.89 c -0.06,0.68 -0.09,1.37 -0.09,2.06 0,13.52 10.69,24.49 23.87,24.49 13.18,0 23.87,-10.96 23.87,-24.49 0,-0.09 0,-0.18 0,-0.27 h 0.1 V 290.48 Z"
       id="path11365"
       style="fill:#a09ea5;fill-opacity:1" />
    <path
       class="b"
       d="m 233.9,290.4 c 0,-13.52 -10.69,-24.49 -23.87,-24.49 -13.18,0 -23.87,10.96 -23.87,24.49 0,0.07 0,0.15 0,0.22 h -0.1 v 202.83 c 0,13.52 10.68,24.49 23.87,24.49 13.19,0 23.87,-10.96 23.87,-24.49 0,-0.64 -0.03,-1.28 -0.08,-1.91 h 0.08 V 292.45 c 0.05,-0.68 0.09,-1.36 0.09,-2.05 z"
       id="path11367"
       style="fill:#a09ea5;fill-opacity:1" />
    <path
       class="b"
       d="m 309.96,0 v 0 c -71.53,0 -99.09,55.12 -121.23,99.4 -22.66,45.34 -38.59,73.12 -78.7,73.12 v 0 c -34.46,0 -62.49,-28.04 -62.49,-62.5 0,-38.68 36.31,-62.82 62.49,-62.49 q 7.01,0.09 12.01,1.09 c 2.96,0.73 5,1 9,2 0.97,0.24 7,3 9,4 1.4,0.7 5.16,3.31 7.36,4.85 4.12,3.5 9.42,5.61 15.21,5.61 13.09,0 23.43,-11.18 23.43,-24.46 0,-8.75 -5,-15 -11.23,-20.2 -5.63,-4.93 -7.15,-5.67 -17.61,-10.58 0,0 -21.93,-9.85 -47.18,-9.85 C 49.36,0 0,49.35 0,110.02 0,170.69 49.36,220.04 110.02,220.05 v 0 c 71.53,0 99.09,-55.1 121.23,-99.39 22.67,-45.33 38.59,-73.12 78.71,-73.12 v 0 c 34.46,0 62.49,28.03 62.49,62.49 0,34.46 -28.03,62.09 -62.49,62.49 -8.92,0.1 -14.92,-0.9 -14.92,-0.9 -8,-2 -17,-7 -19,-8 -2,-1 -5.92,-3 -6,-3 -2,-1 -8.11,-4 -13,-4 -12.94,0 -23,10.72 -23,24 0,7.08 5.12,13.62 9.87,18.02 0.05,0.11 1.1,0.91 1.13,0.98 0.47,0.35 -0.03,0.01 0.48,0.39 0.45,0.35 0.91,0.67 1.38,0.98 4.09,2.88 9.4,6.19 15.92,9.22 0,0 21.72,9.84 47.15,9.84 C 370.64,220.05 420,170.69 420,110.02 420,49.35 370.63,0 309.96,0 Z"
       id="path11369"
       style="fill:#a09ea5;fill-opacity:1" />
  </g>
</svg>
